<svg width="87" height="22" viewBox="0 0 87 22" fill="none" xmlns="http://www.w3.org/2000/svg">
<g id="Layer 1">
<path id="Vector" d="M1.00461 18.1445H0.665985V21.0301H1.00461V18.1445Z" fill="#517CBE"/>
<path id="Vector_2" d="M3.2917 18.848C3.1487 18.8469 3.00751 18.88 2.87996 18.9445C2.7569 19.0057 2.6485 19.0925 2.56215 19.1992L2.52109 18.8929H2.24997V21.0302H2.58015V19.8578C2.57939 19.7574 2.58597 19.6571 2.59984 19.5577C2.63296 19.4302 2.71078 19.3187 2.81921 19.2435C2.94285 19.1593 3.09032 19.1168 3.23995 19.1224C3.40026 19.1224 3.51445 19.165 3.58307 19.2491C3.6517 19.3333 3.68826 19.4673 3.69557 19.6491C3.69557 19.71 3.69557 20.1698 3.69557 21.0285H4.02238V19.6895C4.02238 19.4023 3.96294 19.1893 3.84407 19.0506C3.7252 18.9118 3.54108 18.8443 3.2917 18.848Z" fill="#517CBE"/>
<path id="Vector_3" d="M6.08558 20.1663C6.00721 20.3858 5.9459 20.5653 5.90165 20.7048L5.70647 20.1618L5.23116 18.8901H4.88242L5.71378 21.0302H6.06984L6.89557 18.8901H6.54739C6.33889 19.4642 6.18496 19.8896 6.08558 20.1663Z" fill="#517CBE"/>
<path id="Vector_4" d="M8.16739 18.8901H7.8389V21.0307H8.16739V18.8901Z" fill="#517CBE"/>
<path id="Vector_5" d="M8.16739 18.1116H7.8389V18.4981H8.16739V18.1116Z" fill="#517CBE"/>
<path id="Vector_6" d="M10.2064 19.8167C10.1412 19.7959 10.0872 19.7774 10.0444 19.7606C9.92504 19.7265 9.81132 19.6751 9.70693 19.608C9.67882 19.585 9.65657 19.5556 9.64201 19.5224C9.62744 19.4891 9.62097 19.4529 9.62312 19.4167C9.62144 19.3721 9.63127 19.3278 9.65165 19.288C9.67204 19.2482 9.7023 19.2143 9.73955 19.1895C9.83605 19.1306 9.9483 19.1024 10.0613 19.1088C10.2578 19.1131 10.4514 19.1562 10.6311 19.2355L10.7267 18.9853C10.5189 18.89 10.2923 18.8421 10.0635 18.8451C9.82918 18.8451 9.6443 18.9012 9.50893 19.0134C9.45319 19.058 9.40685 19.1132 9.37261 19.1757C9.33836 19.2383 9.31688 19.307 9.3094 19.3778C9.30192 19.4487 9.30859 19.5204 9.32903 19.5887C9.34948 19.657 9.38328 19.7205 9.42849 19.7757C9.50912 19.8681 9.64318 19.9455 9.83068 20.008L9.99324 20.0641C10.1912 20.1319 10.3245 20.1931 10.392 20.2475C10.4255 20.2743 10.4521 20.3086 10.4698 20.3476C10.4875 20.3865 10.4957 20.4291 10.4939 20.4719C10.4849 20.6962 10.3212 20.8084 10.0028 20.8084C9.77779 20.8044 9.55729 20.7449 9.36099 20.6351L9.31993 20.91C9.41301 20.9659 9.51439 21.0068 9.6203 21.0311C9.7525 21.0631 9.88814 21.0788 10.0242 21.0777C10.2621 21.0777 10.45 21.0216 10.59 20.915C10.6592 20.8605 10.7145 20.7905 10.7516 20.7107C10.7886 20.6309 10.8063 20.5435 10.8032 20.4556C10.8107 20.3138 10.7622 20.1747 10.6682 20.068C10.5771 19.9707 10.4232 19.887 10.2064 19.8167Z" fill="#517CBE"/>
<path id="Vector_7" d="M12.2336 18.1116H11.9051V18.4981H12.2336V18.1116Z" fill="#517CBE"/>
<path id="Vector_8" d="M12.2336 18.8901H11.9051V21.0307H12.2336V18.8901Z" fill="#517CBE"/>
<path id="Vector_9" d="M14.9516 18.9893C14.8064 18.8914 14.6341 18.841 14.4588 18.8452C14.3255 18.8453 14.1941 18.8773 14.0756 18.9384C13.9571 18.9994 13.8549 19.0879 13.7777 19.1963C13.7827 19.0712 13.7855 18.922 13.7855 18.7475V18.0391L13.4587 18.0587V21.0317H13.74L13.7732 20.7356C13.8506 20.8399 13.9508 20.9253 14.0662 20.9852C14.1869 21.0464 14.3207 21.0772 14.456 21.0749C14.6332 21.0798 14.8073 21.029 14.9538 20.9297C15.0943 20.8307 15.2025 20.6928 15.2649 20.5331C15.3364 20.3468 15.3711 20.1485 15.3673 19.9491C15.3709 19.7549 15.3357 19.5619 15.2638 19.3814C15.1999 19.2234 15.0915 19.0871 14.9516 18.9893ZM14.9955 20.289C14.9749 20.3824 14.94 20.4721 14.892 20.5549C14.8472 20.6327 14.7813 20.6963 14.7018 20.7384C14.6162 20.7835 14.5203 20.8061 14.4234 20.804C13.997 20.804 13.7839 20.5217 13.7839 19.957C13.7839 19.6817 13.839 19.4727 13.9492 19.3298C14.0595 19.187 14.2181 19.1157 14.4251 19.1161C14.552 19.1115 14.6764 19.1525 14.7755 19.2316C14.8692 19.3095 14.9375 19.4134 14.9718 19.5301C15.0124 19.6694 15.0313 19.8141 15.0281 19.9592C15.0298 20.07 15.0189 20.1807 14.9955 20.289Z" fill="#517CBE"/>
<path id="Vector_10" d="M17.0784 20.8001C17.0354 20.8008 16.9924 20.7973 16.9501 20.7894C16.9173 20.7828 16.8867 20.7679 16.8613 20.7462C16.838 20.7264 16.8189 20.7022 16.805 20.675C16.7891 20.638 16.7786 20.5989 16.7741 20.5589C16.766 20.5068 16.7612 20.4544 16.7595 20.4018C16.7595 20.3485 16.7561 20.2778 16.7561 20.1892V18.0391L16.4315 18.0587V20.3182C16.4315 20.5953 16.4748 20.7898 16.5615 20.9016C16.6481 21.0134 16.7958 21.0695 17.0047 21.0699C17.1179 21.0676 17.2307 21.0566 17.3422 21.0368L17.3242 20.7771C17.2427 20.789 17.1607 20.7966 17.0784 20.8001Z" fill="#517CBE"/>
<path id="Vector_11" d="M18.8907 20.6712L18.2157 18.8901H17.8698L18.7186 21.0145C18.6927 21.0891 18.6528 21.194 18.5993 21.3308C18.539 21.4804 18.4709 21.5816 18.3951 21.6343C18.2935 21.6949 18.1758 21.7231 18.0577 21.7151C18.0211 21.7151 17.9665 21.7123 17.8934 21.7072L17.9131 21.9844C17.9784 21.9946 18.0444 21.9999 18.1105 22.0001C18.2926 22.0093 18.4721 21.9536 18.6168 21.843C18.745 21.7379 18.854 21.573 18.9436 21.3482C18.9631 21.2989 19.2631 20.4795 19.8436 18.8901H19.4976L18.8907 20.6712Z" fill="#517CBE"/>
<path id="Vector_12" d="M24.3486 18.4872C24.2026 18.3686 24.0337 18.2809 23.8525 18.2298C23.6419 18.1703 23.4238 18.1415 23.205 18.1445H22.4029V21.03H23.2618C23.7403 21.03 24.1135 20.9064 24.3812 20.6592C24.649 20.4121 24.7826 20.0538 24.7823 19.5845C24.7863 19.3637 24.7481 19.1442 24.6698 18.9377C24.6029 18.7627 24.4923 18.6077 24.3486 18.4872ZM24.1236 20.4478C23.9245 20.6396 23.6346 20.7355 23.254 20.7355H22.7415V18.439H23.1955C23.5941 18.439 23.898 18.5308 24.1073 18.7144C24.3165 18.898 24.4208 19.1912 24.42 19.594C24.42 19.9717 24.3206 20.2563 24.1219 20.4478H24.1236Z" fill="#F4B406"/>
<path id="Vector_13" d="M26.7892 18.1187C26.3767 18.1187 26.0516 18.255 25.8139 18.5276C25.5761 18.8002 25.4576 19.157 25.4584 19.5979C25.4584 20.0309 25.5765 20.3853 25.8127 20.6609C26.049 20.9365 26.3666 21.0745 26.7656 21.0749C27.1807 21.0749 27.5058 20.9384 27.741 20.6654C27.9761 20.3924 28.0937 20.0358 28.0937 19.5956C28.0937 19.1577 27.9778 18.8025 27.746 18.5298C27.5143 18.2572 27.1954 18.1201 26.7892 18.1187ZM27.4282 20.4129C27.2835 20.6149 27.0695 20.7157 26.7864 20.7153C26.5033 20.7149 26.2849 20.6138 26.1311 20.4118C25.9811 20.2088 25.9061 19.9393 25.9061 19.6035C25.9061 19.2617 25.9811 18.9893 26.1311 18.7862C26.2811 18.5831 26.4973 18.4814 26.7797 18.481C27.0718 18.481 27.2893 18.5805 27.4322 18.7795C27.575 18.9784 27.6463 19.2512 27.6459 19.5979C27.6452 19.9397 27.5726 20.2114 27.4282 20.4129Z" fill="#F4B406"/>
<path id="Vector_14" d="M29.5207 18.0771L28.4092 20.9689H28.754L29.1039 20.0534H30.2581L30.5956 20.9689H30.9438L29.8683 18.0771H29.5207ZM29.2175 19.7707L29.6928 18.4244C29.7213 18.5231 29.8734 18.9719 30.149 19.7707H29.2175Z" fill="#F4B406"/>
<path id="Vector_15" d="M33.1504 18.2932C33.056 18.2301 32.9513 18.1838 32.8411 18.1563C32.7137 18.1251 32.583 18.11 32.4518 18.1114H31.5091V21.0284H31.855V19.7853C32.0395 19.8027 32.1987 19.8105 32.3326 19.8105C32.4837 19.8128 32.6347 19.7981 32.7826 19.7668C32.8938 19.7441 33.0006 19.7033 33.0987 19.6462C33.1787 19.5968 33.2467 19.5303 33.2978 19.4515C33.3483 19.3751 33.3848 19.2904 33.4058 19.2013C33.4276 19.1017 33.438 18.9999 33.4368 18.8979C33.4395 18.7741 33.4141 18.6514 33.3625 18.5389C33.3153 18.4394 33.242 18.3545 33.1504 18.2932ZM33.0723 19.0785C33.0629 19.135 33.0446 19.1897 33.0183 19.2406C32.9929 19.2965 32.9543 19.3454 32.9058 19.3831C32.8418 19.4261 32.7705 19.4571 32.6954 19.4745C32.5878 19.5011 32.4772 19.5136 32.3663 19.5116C32.2782 19.5116 32.108 19.5102 31.8556 19.5076V18.4216H32.4603C32.6204 18.4131 32.7793 18.4541 32.9153 18.5389C33.0278 18.6166 33.0841 18.7382 33.0841 18.9035C33.0848 18.9625 33.0816 19.0216 33.0745 19.0802L33.0723 19.0785Z" fill="#F4B406"/>
<path id="Vector_16" d="M50.0308 18.1116H49.7023V18.4981H50.0308V18.1116Z" fill="#029E57"/>
<path id="Vector_17" d="M36.5006 19.6821H37.7432V19.3876H36.5006V18.443H37.8073L37.8214 18.1445H36.162V21.0301H37.8349L37.8506 20.7316H36.5006V19.6821Z" fill="#029E57"/>
<path id="Vector_18" d="M41.0242 18.1445H40.662L39.8835 19.2995L39.1342 18.1445H38.741L39.6663 19.5239L38.6764 21.0301H39.0442L39.8717 19.7404L40.6777 21.0301H41.067L40.0927 19.5183L41.0242 18.1445Z" fill="#029E57"/>
<path id="Vector_19" d="M43.6128 18.2932C43.5183 18.2301 43.4137 18.1838 43.3034 18.1563C43.1761 18.1251 43.0453 18.11 42.9142 18.1114H41.9714V21.0284H42.3174V19.7853C42.5019 19.8027 42.6611 19.8105 42.7949 19.8105C42.9461 19.8128 43.097 19.7981 43.2449 19.7668C43.3562 19.7441 43.463 19.7033 43.561 19.6462C43.6411 19.5968 43.7091 19.5303 43.7602 19.4515C43.8106 19.3751 43.8472 19.2904 43.8682 19.2013C43.89 19.1017 43.9003 18.9999 43.8991 18.8979C43.9019 18.7741 43.8765 18.6514 43.8248 18.5389C43.7776 18.4394 43.7044 18.3545 43.6128 18.2932ZM43.5346 19.0785C43.5252 19.135 43.507 19.1897 43.4806 19.2406C43.4552 19.2965 43.4166 19.3454 43.3681 19.3831C43.3042 19.4261 43.2329 19.4571 43.1577 19.4745C43.0501 19.5011 42.9395 19.5136 42.8287 19.5116C42.7405 19.5116 42.5703 19.5102 42.3179 19.5076V18.4216H42.9226C43.0828 18.4131 43.2417 18.4541 43.3777 18.5389C43.4902 18.6166 43.5464 18.7382 43.5464 18.9035C43.5472 18.9625 43.544 19.0216 43.5369 19.0802L43.5346 19.0785Z" fill="#029E57"/>
<path id="Vector_20" d="M45.6636 18.8479C45.533 18.8456 45.4035 18.8727 45.2849 18.9273C45.1662 18.9819 45.0615 19.0625 44.9785 19.1632C44.8049 19.3674 44.7181 19.6362 44.7181 19.9698C44.7181 20.3131 44.8077 20.5835 44.987 20.781C45.1662 20.9784 45.4116 21.0773 45.7233 21.0777C45.9854 21.0823 46.2436 21.0135 46.4686 20.8791L46.4179 20.6155C46.2085 20.7302 45.974 20.7918 45.7351 20.795C45.643 20.7991 45.5512 20.7829 45.4661 20.7476C45.3811 20.7123 45.3048 20.6588 45.2429 20.5908C45.1214 20.455 45.0586 20.2656 45.0544 20.0225H46.5276C46.5276 20.004 46.5276 19.9743 46.5276 19.9328C46.5276 19.8913 46.5276 19.8621 46.5276 19.847C46.5276 19.5435 46.45 19.3017 46.2942 19.1177C46.2161 19.0284 46.1189 18.9578 46.0098 18.9111C45.9006 18.8644 45.7823 18.8428 45.6636 18.8479ZM45.0646 19.7735C45.0722 19.5967 45.1376 19.4273 45.2508 19.2911C45.3016 19.2334 45.3647 19.1876 45.4354 19.1571C45.5061 19.1265 45.5827 19.1119 45.6597 19.1144C45.7338 19.1106 45.8079 19.1238 45.8761 19.153C45.9444 19.1821 46.005 19.2265 46.0534 19.2826C46.1498 19.3948 46.1978 19.5577 46.1974 19.7712L45.0646 19.7735Z" fill="#029E57"/>
<path id="Vector_21" d="M48.1819 18.9815C48.0663 19.0565 47.9692 19.1566 47.8978 19.2743L47.8663 18.89H47.5947C47.5947 19.0022 47.5947 19.7156 47.5947 21.0301H47.9243V19.8285C47.9184 19.6557 47.9787 19.4872 48.093 19.3573C48.1486 19.295 48.2173 19.2456 48.2942 19.2127C48.3711 19.1799 48.4543 19.1643 48.538 19.1671C48.5904 19.1678 48.6428 19.1731 48.6943 19.1828L48.7061 18.8822C48.6531 18.874 48.5995 18.87 48.5458 18.8704C48.4162 18.8711 48.2897 18.9097 48.1819 18.9815Z" fill="#029E57"/>
<path id="Vector_22" d="M50.0308 18.8901H49.7023V21.0307H50.0308V18.8901Z" fill="#029E57"/>
<path id="Vector_23" d="M52.0929 18.8479C51.9624 18.8457 51.833 18.8729 51.7145 18.9274C51.5959 18.982 51.4913 19.0626 51.4084 19.1632C51.2351 19.3692 51.1485 19.6381 51.1485 19.9698C51.1485 20.3131 51.2381 20.5835 51.4174 20.781C51.5966 20.9784 51.8421 21.0773 52.1537 21.0777C52.4158 21.0823 52.674 21.0135 52.899 20.8791L52.8483 20.6155C52.6389 20.7302 52.4044 20.7919 52.1655 20.795C52.0734 20.7991 51.9816 20.7829 51.8966 20.7476C51.8115 20.7124 51.7353 20.6588 51.6733 20.5908C51.5518 20.4551 51.489 20.2656 51.4849 20.0226H52.958C52.958 20.0041 52.958 19.9743 52.958 19.9328C52.958 19.8913 52.958 19.8621 52.958 19.847C52.958 19.5435 52.8804 19.3017 52.7246 19.1178C52.6464 19.0284 52.549 18.9577 52.4396 18.911C52.3303 18.8643 52.2118 18.8427 52.0929 18.8479ZM51.4944 19.7735C51.5021 19.5968 51.5675 19.4273 51.6806 19.2911C51.7315 19.2334 51.7945 19.1876 51.8652 19.1571C51.9359 19.1265 52.0125 19.112 52.0895 19.1144C52.1637 19.1106 52.2377 19.1238 52.306 19.153C52.3742 19.1822 52.4349 19.2265 52.4833 19.2827C52.5797 19.3949 52.6277 19.5577 52.6273 19.7713L51.4944 19.7735Z" fill="#029E57"/>
<path id="Vector_24" d="M55.0595 18.848C54.9165 18.8469 54.7753 18.88 54.6477 18.9445C54.5247 19.0057 54.4163 19.0925 54.3299 19.1992L54.2883 18.8929H54.0149V21.0302H54.3451V19.8578C54.3443 19.7574 54.3509 19.6571 54.3648 19.5577C54.3977 19.43 54.4756 19.3185 54.5842 19.2435C54.7078 19.1592 54.8553 19.1167 55.0049 19.1224C55.1652 19.1224 55.2794 19.165 55.348 19.2491C55.4166 19.3333 55.4532 19.4673 55.4605 19.6491C55.4605 19.71 55.4605 20.1698 55.4605 21.0285H55.7873V19.6895C55.7873 19.4023 55.7279 19.1893 55.609 19.0506C55.4901 18.9118 55.307 18.8443 55.0595 18.848Z" fill="#029E57"/>
<path id="Vector_25" d="M57.8416 19.124C58.0104 19.1238 58.1766 19.166 58.3248 19.2469L58.4153 18.9933C58.3408 18.9426 58.2574 18.9062 58.1695 18.8862C58.0645 18.8586 57.9563 18.8448 57.8478 18.8452C57.5335 18.8452 57.286 18.949 57.1053 19.1566C56.9245 19.3641 56.8336 19.6352 56.8325 19.9699C56.8325 20.3001 56.9215 20.5673 57.0996 20.7715C57.2778 20.9757 57.5245 21.0778 57.8399 21.0778C58.0724 21.0778 58.2599 21.0266 58.4024 20.9241L58.3613 20.6644C58.2028 20.7509 58.0256 20.7979 57.8449 20.8013C57.7504 20.8056 57.6561 20.7876 57.5698 20.7486C57.4836 20.7096 57.4079 20.6507 57.3488 20.5769C57.2296 20.4273 57.17 20.2254 57.17 19.9711C57.17 19.7093 57.2303 19.5036 57.3511 19.354C57.4087 19.2797 57.4833 19.2201 57.5685 19.1801C57.6538 19.1401 57.7474 19.1209 57.8416 19.124Z" fill="#029E57"/>
<path id="Vector_26" d="M60.2738 18.8479C60.1432 18.8457 60.0139 18.8729 59.8953 18.9274C59.7768 18.982 59.6721 19.0626 59.5892 19.1632C59.416 19.3692 59.3293 19.6381 59.3293 19.9698C59.3293 20.3131 59.419 20.5835 59.5982 20.781C59.7775 20.9784 60.0229 21.0773 60.3345 21.0777C60.5967 21.0823 60.8549 21.0135 61.0798 20.8791L61.0292 20.6155C60.8198 20.7302 60.5853 20.7919 60.3463 20.795C60.2543 20.7991 60.1625 20.7829 60.0774 20.7476C59.9923 20.7124 59.9161 20.6588 59.8541 20.5908C59.7323 20.4551 59.6695 20.2656 59.6657 20.0226H61.1389C61.1389 20.0041 61.1389 19.9743 61.1389 19.9328C61.1389 19.8913 61.1389 19.8621 61.1389 19.847C61.1389 19.5435 61.0613 19.3017 60.9049 19.1178C60.8268 19.0284 60.7295 18.9577 60.6202 18.911C60.511 18.8643 60.3925 18.8427 60.2738 18.8479ZM59.6753 19.7763C59.6827 19.5995 59.7481 19.43 59.8615 19.2939C59.9123 19.2363 59.9752 19.1906 60.0458 19.16C60.1164 19.1295 60.1929 19.1148 60.2698 19.1172C60.344 19.1134 60.418 19.1266 60.4863 19.1558C60.5545 19.185 60.6152 19.2293 60.6636 19.2855C60.7599 19.3977 60.808 19.5605 60.8076 19.7741L59.6753 19.7763Z" fill="#029E57"/>
<path id="Vector_27" d="M63.0193 19.8169C62.9541 19.7961 62.8995 19.7776 62.8567 19.7608C62.7373 19.7269 62.6235 19.6755 62.5192 19.6082C62.491 19.5853 62.4686 19.556 62.4539 19.5227C62.4392 19.4895 62.4327 19.4532 62.4349 19.4169C62.4332 19.3723 62.443 19.328 62.4634 19.2882C62.4838 19.2484 62.5141 19.2145 62.5513 19.1897C62.6478 19.1308 62.7601 19.1027 62.8731 19.109C63.0686 19.113 63.2615 19.1555 63.4406 19.2341L63.5362 18.9839C63.3284 18.8885 63.1018 18.8406 62.8731 18.8436C62.6383 18.8436 62.4534 18.8997 62.3184 19.0119C62.2627 19.0565 62.2164 19.1117 62.1821 19.1742C62.1479 19.2368 62.1264 19.3055 62.1189 19.3764C62.1114 19.4473 62.1181 19.5189 62.1385 19.5872C62.159 19.6555 62.1928 19.7191 62.238 19.7743C62.3186 19.8666 62.4527 19.944 62.6402 20.0065L62.8027 20.0626C63.0007 20.1305 63.134 20.1916 63.2015 20.246C63.235 20.2728 63.2616 20.3071 63.2793 20.3461C63.297 20.3851 63.3052 20.4277 63.3034 20.4704C63.2944 20.6948 63.1307 20.807 62.8123 20.807C62.5873 20.8029 62.3668 20.7434 62.1705 20.6336L62.13 20.9085C62.2228 20.9646 62.324 21.0055 62.4298 21.0297C62.5622 21.0617 62.698 21.0773 62.8342 21.0762C63.0716 21.0762 63.26 21.022 63.3995 20.9136C63.4687 20.859 63.524 20.789 63.5611 20.7092C63.5981 20.6294 63.6158 20.542 63.6127 20.4541C63.6202 20.3123 63.5717 20.1732 63.4777 20.0665C63.3885 19.9704 63.2357 19.8872 63.0193 19.8169Z" fill="#029E57"/>
<path id="Vector_28" d="M83.3252 18.1116H82.9967V18.4981H83.3252V18.1116Z" fill="#DC4537"/>
<path id="Vector_29" d="M68.2983 20.6364C68.2432 20.4531 68.0605 19.8711 67.7504 18.8901H67.3803C67.0687 19.8501 66.8812 20.4341 66.8178 20.642L66.3582 18.8901H66.0208L66.6333 21.0302H66.9854C67.0181 20.9303 67.0653 20.785 67.1283 20.5954L67.2807 20.131C67.3195 20.0115 67.3657 19.8684 67.4174 19.7018C67.4692 19.5352 67.5159 19.3804 67.5564 19.2374C67.6284 19.473 67.8159 20.0713 68.1188 21.0324H68.4727L69.0914 18.8924H68.7573L68.2983 20.6364Z" fill="#DC4537"/>
<path id="Vector_30" d="M69.8226 21.4559H70.1044L71.4308 18.1704H71.145L69.8226 21.4559Z" fill="#DC4537"/>
<path id="Vector_31" d="M74.9059 18.1389L73.795 21.0301H74.1392L74.4891 20.1152H75.6433L75.9808 21.0301H76.3301L75.2524 18.1389H74.9059ZM74.6027 19.8324L75.078 18.4861C75.1069 18.5849 75.2589 19.0336 75.5342 19.8324H74.6027Z" fill="#DC4537"/>
<path id="Vector_32" d="M78.5531 20.32C78.5531 20.4984 78.5058 20.6246 78.4113 20.6986C78.2963 20.7789 78.1577 20.8184 78.0176 20.8108C77.9443 20.8118 77.8712 20.8039 77.7999 20.7873C77.7392 20.7729 77.6818 20.7467 77.6311 20.7104C77.58 20.6718 77.541 20.6195 77.5186 20.5595C77.4899 20.4834 77.4764 20.4024 77.4787 20.3211V18.8901H77.1502V20.3161C77.1486 20.4156 77.1644 20.5147 77.1969 20.6089C77.2244 20.6894 77.2681 20.7634 77.3251 20.8265C77.3807 20.8855 77.4462 20.9343 77.5186 20.9707C77.5936 21.0091 77.6735 21.037 77.756 21.0537C77.9322 21.0874 78.1131 21.0874 78.2893 21.0537C78.3712 21.0372 78.4505 21.0097 78.5249 20.9718C78.5992 20.9357 78.6655 20.8853 78.72 20.8233C78.7744 20.7614 78.816 20.6893 78.8422 20.6111C78.8747 20.5162 78.8905 20.4164 78.8889 20.3161V18.8901H78.5604L78.5531 20.32Z" fill="#DC4537"/>
<path id="Vector_33" d="M81.4488 19.0011L81.455 19.1862C81.3874 19.0779 81.2896 18.9916 81.1737 18.9377C81.0486 18.8762 80.911 18.8445 80.7715 18.8452C80.6459 18.8408 80.521 18.8661 80.4071 18.9192C80.2932 18.9722 80.1935 19.0514 80.1162 19.1503C79.9531 19.3538 79.8717 19.6208 79.8721 19.9514C79.8721 20.2973 79.9522 20.5706 80.1123 20.7715C80.2724 20.9723 80.4942 21.0729 80.7777 21.0733C80.9149 21.0751 81.0504 21.0423 81.1715 20.9779C81.2856 20.917 81.3823 20.8282 81.4527 20.7199L81.4955 21.0301H81.7733V18.0391L81.4505 18.0587L81.4488 19.0011ZM81.2873 20.5869C81.1827 20.7249 81.0226 20.7937 80.807 20.7933C80.6852 20.7974 80.5658 20.7589 80.4695 20.6845C80.3758 20.6085 80.3068 20.5067 80.2709 20.3917C80.2271 20.2516 80.2062 20.1054 80.209 19.9586C80.2083 19.8486 80.2204 19.7389 80.245 19.6316C80.2669 19.5386 80.3029 19.4495 80.3519 19.3674C80.3973 19.2925 80.4615 19.2306 80.5381 19.1879C80.6197 19.1438 80.7114 19.1216 80.8042 19.1234C81.0292 19.1234 81.1925 19.1965 81.2941 19.3427C81.3957 19.4889 81.4461 19.7066 81.4454 19.9957C81.445 20.2526 81.3923 20.4497 81.2873 20.5869Z" fill="#DC4537"/>
<path id="Vector_34" d="M83.3252 18.8901H82.9967V21.0307H83.3252V18.8901Z" fill="#DC4537"/>
<path id="Vector_35" d="M86.1664 19.1542C85.9916 18.95 85.7503 18.8479 85.4425 18.8479C85.1305 18.8479 84.8852 18.9506 84.7067 19.1559C84.5282 19.3612 84.4388 19.6304 84.4384 19.9636C84.4384 20.2901 84.5275 20.5575 84.7056 20.7658C84.8837 20.9741 85.1233 21.0781 85.4245 21.0777C85.7376 21.0777 85.9828 20.9747 86.1602 20.7686C86.3376 20.5625 86.4263 20.2937 86.4263 19.962C86.4278 19.6306 86.3411 19.3614 86.1664 19.1542ZM85.9268 20.5756C85.8176 20.7275 85.6562 20.8036 85.4425 20.8039C85.2287 20.8043 85.0641 20.7278 84.9486 20.5745C84.8361 20.4219 84.7798 20.2187 84.7798 19.9648C84.7798 19.7108 84.8361 19.5052 84.9486 19.3477C85.0046 19.2719 85.0787 19.2111 85.1641 19.171C85.2495 19.1308 85.3437 19.1125 85.438 19.1177C85.6585 19.1177 85.8225 19.1925 85.9301 19.3421C86.0378 19.4917 86.0914 19.6974 86.091 19.9591C86.0903 20.2179 86.0355 20.4234 85.9268 20.5756Z" fill="#DC4537"/>
<path id="Vector_36" d="M17.5357 4.23921C17.3644 3.97787 17.1733 3.72995 16.9642 3.49763C16.9045 3.432 16.8455 3.37085 16.7836 3.30971L16.7099 3.23622L15.4544 1.98193C15.4848 2.01223 15.5135 2.04308 15.5422 2.07561C15.7105 2.26078 15.8666 2.45659 16.0096 2.66181C16.0445 2.71285 16.0794 2.7639 16.1142 2.81719C16.8414 3.92227 17.2047 5.24275 17.2044 6.77864C17.2044 8.10398 16.9162 9.27114 16.3398 10.2801C15.7634 11.2891 15.0157 12.0353 14.0966 12.5189C13.1786 12.999 11.8882 13.2481 10.2306 13.2481L7.41813 13.2582L5.99896 13.2627L7.41813 14.6825L11.6526 14.6701C13.3104 14.6638 14.5991 14.4192 15.5186 13.9364C16.4381 13.4536 17.1864 12.7081 17.7635 11.6999C18.3387 10.6902 18.6269 9.52282 18.628 8.19785C18.6254 6.66682 18.2613 5.34728 17.5357 4.23921Z" fill="#9E7008"/>
<path id="Vector_37" d="M16.1159 2.81925C16.0811 2.76596 16.0462 2.71492 16.0113 2.66387C15.8678 2.45783 15.7111 2.26127 15.5422 2.07543C15.5135 2.0429 15.4859 2.01204 15.4544 1.98175L15.4196 1.94473L15.3633 1.88863C14.724 1.2538 13.946 0.775152 13.0903 0.490178C12.1903 0.175297 10.7466 0.0206608 8.75911 0.0262703L6.0029 0.0369284V13.267L7.42207 13.2625L10.2345 13.2524C11.8922 13.2485 13.1825 13.0011 14.1005 12.5232C15.0185 12.0452 15.7678 11.2936 16.3437 10.2844C16.9197 9.27526 17.2083 8.10848 17.2083 6.78294C17.2068 5.24668 16.8427 3.92545 16.1159 2.81925Z" fill="#F4B406"/>
<path id="Vector_38" d="M2.9992 13.2671L0 13.2749L1.41973 14.697L4.41893 14.6869L2.9992 13.2671Z" fill="#314D77"/>
<path id="Vector_39" d="M2.99695 0.0371094L2.9992 13.2672L4.41893 14.6869V1.45856L2.99695 0.0371094Z" fill="#314D77"/>
<path id="Vector_40" d="M2.99695 0.0371094L0 0.0472065V13.275L2.9992 13.2672L2.99695 0.0371094Z" fill="#517CBE"/>
<path id="Vector_41" d="M30.464 13.2324L19.4695 13.2672L20.8892 14.687L31.8837 14.6522L30.464 13.2324Z" fill="#04562F"/>
<path id="Vector_42" d="M30.464 8.104L19.4695 8.14103L20.8892 9.5608L31.8837 9.52602L30.464 8.104Z" fill="#04562F"/>
<path id="Vector_43" d="M30.4617 2.98096L19.4673 3.01574L20.8892 4.43719L31.8837 4.40241L30.4617 2.98096Z" fill="#04562F"/>
<path id="Vector_44" d="M30.464 10.2498V13.2323L31.8837 14.6521V11.6712L30.464 10.2498Z" fill="#04562F"/>
<path id="Vector_45" d="M30.464 5.12598V8.10407L31.8837 9.52609V6.54575L30.464 5.12598Z" fill="#04562F"/>
<path id="Vector_46" d="M30.4617 0V2.9809L31.8837 4.40236V1.42201L30.4617 0Z" fill="#04562F"/>
<path id="Vector_47" d="M19.4695 10.284V13.2671L30.464 13.2323V10.2498L19.4695 10.284Z" fill="#029E57"/>
<path id="Vector_48" d="M19.4695 5.16076V8.1411L30.464 8.10407V5.12598L19.4695 5.16076Z" fill="#029E57"/>
<path id="Vector_49" d="M19.4673 0.0370229V3.01568L30.4617 2.9809V0L19.4673 0.0370229Z" fill="#029E57"/>
<path id="Vector_50" d="M45.9747 13.2407L32.6673 13.2368L34.0819 14.6616L47.3894 14.6656L45.9747 13.2407Z" fill="#912222"/>
<path id="Vector_51" d="M40.7818 1.43263L39.3654 0.0078125L45.9747 13.2407L47.3894 14.6655L40.7818 1.43263Z" fill="#912222"/>
<path id="Vector_52" d="M40.3115 2.36164L40.2434 2.22533L39.3637 0.463379L33.0002 13.0326L34.8036 13.0321H34.9071L40.3115 2.36164Z" fill="#B2332D"/>
<path id="Vector_53" d="M40.4268 2.13158L39.3649 0.0078125L32.6673 13.2384H34.8047L45.9758 13.2429L40.4268 2.13158ZM34.9071 13.032H33.0003L39.3637 0.463306L40.2435 2.22526L40.3121 2.36157L34.9071 13.032Z" fill="#DC4537"/>
<path id="Vector_54" d="M63.1689 1.46294V14.6969H60.1545L60.15 14.6896H60.1478L60.1427 14.6824H60.1405L60.136 14.6751H60.1337L60.1292 14.6678H60.1264L60.1219 14.6605H60.1197L60.1152 14.6532H60.1124L60.1078 14.6459H60.1056L60.1005 14.6392H60.0988L60.0938 14.6319H60.0915L60.0865 14.6246H60.0848L60.0797 14.6173H60.0775L60.0724 14.61H60.0707L60.0657 14.6027H60.0634L60.0583 14.5954H60.0567L60.0516 14.5881H60.0499L60.0443 14.5808H60.042L60.0375 14.5735H60.0353L60.0308 14.5662H60.028L60.0235 14.5589H60.0212L60.0167 14.5517H60.0139L60.0094 14.5444H60.0072L60.0027 14.5376H59.9999L59.9953 14.5303H59.9931L59.9886 14.523H59.9863L59.9818 14.5157H59.979L59.9745 14.5085H59.9723L59.9678 14.5012H59.965L59.9605 14.4939H59.9582L59.9537 14.4866H59.9509L59.9464 14.4793H59.9442L59.9397 14.472H59.9374L59.9323 14.4647H59.9301L59.925 14.4574H59.9233L59.9183 14.4501H59.916L59.911 14.4428H59.9093L59.9042 14.4361H59.902L59.8969 14.4288H59.8952L59.8902 14.4215H59.8879L59.8828 14.4142H59.8812L59.8761 14.4069H59.8738L59.8694 14.3996H59.8665L59.862 14.3923H59.8598L59.8553 14.385H59.8525L59.848 14.3778H59.8457L59.8412 14.3705H59.839L59.8339 14.3632H59.8317L59.8272 14.3559H59.8249L59.8204 14.3486H59.8176L59.8131 14.3413H59.8108L59.8064 14.334H59.8035L59.799 14.3273H59.7968L59.7923 14.32H59.7895L59.785 14.3127H59.7827L59.7777 14.3048H59.776L59.7709 14.2975H59.7687L59.7636 14.2902H59.7619L59.7569 14.2835H59.7546L59.7495 14.2762H59.7479L59.7428 14.2689H59.7405L59.7355 14.2616H59.7338L59.7287 14.2538H59.727L59.722 14.2465H59.7192L59.7147 14.2392H59.7124L59.7079 14.2325H59.7051L59.7006 14.2252H59.6984L59.6939 14.2179H59.691L59.6865 14.2106H59.6843L59.6798 14.2033H59.6775L59.6725 14.196H59.6702L59.6657 14.1887H59.6635L59.659 14.1814H59.6562L59.6517 14.1741H59.6494L59.6449 14.1668H59.6421L59.6376 14.1595H59.6354L59.6309 14.1523H59.6286L59.6235 14.145H59.6213L59.6168 14.1377H59.6145L59.6095 14.1304H59.6072L59.6022 14.1231H59.6005L59.5954 14.1164H59.5932L59.5881 14.1091H59.5864L59.5814 14.1018H59.5797L59.574 14.0945H59.5724L59.5673 14.0872H59.565L59.5605 14.0799H59.5583L59.5532 14.0726H59.551L59.5465 14.0653H59.5437L59.5392 14.058H59.5369L59.5324 14.0507H59.5296L59.5251 14.0434H59.5229L59.5184 14.0361H59.5161L59.5116 14.0288H59.5088L59.5043 14.0216H59.502L59.4975 14.0148H59.4947L59.4902 14.0075H59.488L59.4835 14.0002H59.4807L59.4762 13.9929H59.4739L59.4694 13.9857H59.4672L59.4627 13.9784H59.4599L59.4548 13.9711H59.4531L59.448 13.9638H59.4458L59.4407 13.9565H59.439L59.434 13.9492H59.4317L59.4267 13.9419H59.425L59.4199 13.9346H59.4182L59.4126 13.9273H59.4109L59.4059 13.92H59.4042L59.3991 13.9133H59.3963L59.3918 13.906H59.3895L59.385 13.8987H59.3822L59.3777 13.8914H59.3755L59.371 13.8841H59.3687L59.3637 13.8768H59.3614L59.3569 13.8695H59.3547L59.3502 13.8622H59.3474L59.3429 13.8549H59.3406L59.3361 13.8477H59.3333L59.3288 13.8404H59.3265L59.322 13.8331H59.3192L59.3147 13.8258H59.3125L59.308 13.8185H59.3057L59.3012 13.8112H59.2984L59.2939 13.8045H59.2917L59.2866 13.7972H59.2844L59.2793 13.7899H59.2776L59.2725 13.7826H59.2703L59.2652 13.7753H59.2635L59.2585 13.768H59.2568L59.2517 13.7607H59.2495L59.2444 13.7534H59.2422L59.2377 13.7461H59.2354L59.2304 13.7388H59.2281L59.2236 13.7315H59.2208L59.2163 13.7242H59.214L59.2095 13.717H59.2073L59.2022 13.7097H59.2L59.1955 13.7029H59.1932L59.1887 13.6956H59.1859L59.1814 13.6883H59.1792L59.1747 13.6811H59.1719L59.1674 13.6738H59.1651L59.1606 13.6665H59.1584L59.1533 13.6592H59.151L59.1466 13.6519H59.1443L59.1392 13.6446H59.137L59.1325 13.6373H59.1302L59.1252 13.63H59.1229L59.1179 13.6227H59.1162L59.1111 13.6154H59.1094L59.1038 13.6081H59.1021L59.0971 13.6014H59.0954L59.0903 13.5941H59.0875L59.083 13.5868H59.0813L59.0762 13.5795H59.0734L59.0689 13.5722H59.0667L59.0622 13.5649H59.0594L59.0549 13.5576H59.0526L59.0481 13.5504H59.0459L59.0414 13.5431H59.0385L59.0341 13.5358H59.0318L59.0273 13.5285H59.0245L59.02 13.5212H59.0177L59.0132 13.5139H59.0104L59.0059 13.5066H59.0037L58.9992 13.4993H58.9969L58.9924 13.4926H58.9896L58.9851 13.4853H58.9829L58.9784 13.478H58.9756L58.9705 13.4707H58.9688L58.9637 13.4634H58.9615L58.9564 13.4561H58.9547L58.9497 13.4488H58.948L58.9424 13.4415H58.9407L58.9356 13.4342H58.9334L58.9289 13.4264H58.9266L58.9216 13.4191H58.9193L58.9148 13.4118H58.9126L58.9075 13.4051H58.9052L58.9007 13.3978H58.8985L58.8934 13.3905H58.8912L58.8867 13.3837H58.8844L58.8799 13.3759H58.8771L58.8726 13.3686H58.8704L58.8659 13.3613H58.8631L58.8586 13.354H58.8563L58.8518 13.3467H58.849L58.8445 13.3394H58.8422L58.8377 13.3321H58.8355L58.831 13.3248H58.8282L58.8237 13.3176H58.8214L58.8164 13.3103H58.8141L58.8096 13.303H58.8074L58.8023 13.2957H58.8001L58.795 13.2889H58.7933L58.7882 13.2817H58.7866L58.7815 13.2744H58.7792L58.7742 13.2671H58.7725L58.7674 13.2598H58.7646L58.7601 13.2525H58.7584L58.7534 13.2452H58.7506L58.7461 13.2379H58.7438L55.6085 8.43671L55.0617 7.60089V14.6969H52.0113V14.6896H52.0046V14.6824H51.9973V14.6751H51.99V14.6678H51.9827V14.6605H51.9759V14.6532H51.9686V14.6459H51.9618V14.6392H51.9551V14.6319H51.9478V14.6246H51.941V14.6173H51.9337V14.61H51.927V14.6027H51.9197V14.5954H51.9129V14.5881H51.9062V14.5808H51.8988V14.5735H51.8921V14.5662H51.8848V14.5589H51.878V14.5517H51.8707V14.5444H51.864V14.5376H51.8567V14.5303H51.8499V14.523H51.8432V14.5157H51.8358V14.5085H51.8285V14.5012H51.8212V14.4939H51.8145V14.4866H51.8072V14.4793H51.8004V14.472H51.7937V14.4647H51.7863V14.4574H51.7796V14.4501H51.7723V14.4428H51.7655V14.4361H51.7582V14.4288H51.7515V14.4215H51.7447V14.4142H51.7374V14.4069H51.7307V14.3996H51.7233V14.3923H51.7166V14.385H51.7093V14.3778H51.7025V14.3705H51.6958V14.3632H51.6885V14.3559H51.6817V14.3486H51.6744V14.3413H51.6671V14.334H51.6598V14.3273H51.653V14.32H51.6457V14.3127H51.639V14.3048H51.6322V14.2975H51.6249V14.2902H51.6182V14.2835H51.6108V14.2762H51.6041V14.2689H51.5968V14.2616H51.59V14.2538H51.5833V14.2465H51.576V14.2392H51.5692V14.2325H51.5619V14.2252H51.5552V14.2179H51.5479V14.2106H51.5411V14.2033H51.5344V14.196H51.527V14.1887H51.5203V14.1814H51.513V14.1741H51.5057V14.1668H51.4984V14.1595H51.4916V14.1523H51.4849V14.145H51.4775V14.1377H51.4708V14.1304H51.4635V14.1231H51.4567V14.1164H51.4494V14.1091H51.4427V14.1018H51.4359V14.0945H51.4286V14.0872H51.4219V14.0799H51.4145V14.0726H51.4078V14.0653H51.4005V14.058H51.3937V14.0507H51.3864V14.0434H51.3797V14.0361H51.3729V14.0288H51.3656V14.0216H51.3589V14.0148H51.3515V14.0075H51.3442V14.0002H51.3369V13.9929H51.3302V13.9857H51.3234V13.9784H51.3161V13.9711H51.3094V13.9638H51.302V13.9565H51.2953V13.9492H51.288V13.9419H51.2812V13.9346H51.2745V13.9273H51.2672V13.92H51.2604V13.9133H51.2531V13.906H51.2464V13.8987H51.239V13.8914H51.2323V13.8841H51.2255V13.8768H51.2182V13.8695H51.2115V13.8622H51.2042V13.8549H51.1974V13.8477H51.1901V13.8404H51.1828V13.8331H51.1755V13.8258H51.1687V13.8185H51.162V13.8112H51.1547V13.8045H51.1479V13.7972H51.1406V13.7899H51.1339V13.7826H51.1265V13.7753H51.1198V13.768H51.113V13.7607H51.1057V13.7534H51.099V13.7461H51.0917V13.7388H51.0849V13.7315H51.0776V13.7242H51.0709V13.717H51.0641V13.7097H51.0568V13.7029H51.05V13.6956H51.0427V13.6883H51.036V13.6811H51.0287V13.6738H51.0219V13.6665H51.0146V13.6592H51.0073V13.6519H51.0005V13.6446H50.9932V13.6373H50.9865V13.63H50.9792V13.6227H50.9724V13.6154H50.9657V13.6081H50.9584V13.6014H50.9516V13.5941H50.9443V13.5868H50.9375V13.5795H50.9302V13.5722H50.9235V13.5649H50.9162V13.5576H50.9094V13.5504H50.9027V13.5431H50.8954V13.5358H50.8886V13.5285H50.8813V13.5212H50.8745V13.5139H50.8672V13.5066H50.8605V13.4993H50.8532V13.4926H50.8459V13.4853H50.8391V13.478H50.8318V13.4707H50.8251V13.4634H50.8177V13.4561H50.811V13.4488H50.8042V13.4415H50.7969V13.4342H50.7902V13.4264H50.7829V13.4191H50.7761V13.4118H50.7688V13.4051H50.7621V13.3978H50.7553V13.3905H50.748V13.3837H50.7412V13.3759H50.7339V13.3686H50.7272V13.3613H50.7199V13.354H50.7131V13.3467H50.7058V13.3394H50.6991V13.3321H50.6917V13.3248H50.6844V13.3176H50.6777V13.3103H50.6704V13.303H50.6636V13.2957H50.6563V13.2889H50.6496V13.2817H50.6428V13.2744H50.6355V13.2671H50.6287V13.2598H50.6214V13.2525H50.6147V13.2452H50.6074V13.2379H50.6006V0.00390625H53.5964L53.6009 0.0111986H53.6032L53.6077 0.018491H53.6105L53.615 0.0257834H53.6173L53.6218 0.0330758H53.6246L53.6291 0.0403682H53.6313L53.6358 0.0476606H53.6386L53.6431 0.0549529H53.6454L53.6499 0.0616844H53.6521L53.6572 0.0689768H53.6594L53.6639 0.0762691H53.6662L53.6707 0.0835615H53.6735L53.678 0.0908539H53.6803L53.6853 0.0981463H53.6876L53.6926 0.105439H53.6943L53.6994 0.112731H53.7011L53.7067 0.120023H53.7084L53.7134 0.127316H53.7157L53.7202 0.134608H53.723L53.7275 0.141901H53.7298L53.7343 0.149193H53.7371L53.7416 0.156485H53.7438L53.7483 0.163778H53.7511L53.7556 0.170509H53.7579L53.7624 0.177802H53.7646L53.7691 0.185655H53.7719L53.7764 0.192947H53.7787L53.7832 0.199679H53.786L53.7905 0.206971H53.7928L53.7973 0.214824H53.8001L53.8046 0.222117H53.8068L53.8113 0.229409H53.8136L53.8181 0.236141H53.8209L53.8254 0.243994H53.8276L53.8321 0.251286H53.8349L53.84 0.258579H53.8417L53.8468 0.26531H53.849L53.8541 0.272603H53.8558L53.8608 0.279895H53.8625L53.8681 0.287187H53.8698L53.8749 0.29448H53.8771L53.8816 0.301772H53.8844L53.8889 0.309064H53.8912L53.8957 0.316357H53.8985L53.903 0.323649H53.9053L53.9098 0.330942H53.912L53.9171 0.338234H53.9193L53.9238 0.345526H53.9261L53.9306 0.352819H53.9334L53.9379 0.360111H53.9401L53.9446 0.367404H53.9474L53.9519 0.374135H53.9542L53.9587 0.381427H53.9615L53.966 0.38872H53.9683L53.9728 0.396012H53.975L53.9795 0.403305H53.9823L53.9868 0.410597H53.9891L53.9941 0.417889H53.9964L54.0014 0.425182H54.0031L54.0082 0.432474H54.0104L54.0155 0.439766H54.0172L54.0222 0.447059H54.0239L54.029 0.454351H54.0313L54.0363 0.461644H54.0386L54.0431 0.468936H54.0459L54.0504 0.475667H54.0526L54.0571 0.48296H54.0599L54.0644 0.490252H54.0667L54.0712 0.497545H54.0734L54.0779 0.504837H54.0808L54.0853 0.512129H54.0875L54.092 0.519422H54.0948L54.0993 0.526714H54.1016L54.1061 0.534007H54.1089L54.1134 0.541299H54.1156L54.1201 0.548591H54.1224L54.1274 0.555884H54.1297L54.1342 0.563176H54.1364L54.1409 0.570468H54.1437L54.1483 0.5772H54.1505L54.1556 0.584492H54.1578L54.1629 0.591785H54.1646L54.1696 0.599077H54.1713L54.1769 0.606369H54.1786L54.1837 0.613662H54.1854L54.1904 0.620954H54.1927L54.1978 0.628246H54.2L54.2045 0.635539H54.2073L54.2118 0.642831H54.2141L54.2186 0.650124H54.2214L54.2259 0.657416H54.2281L54.2326 0.664708H54.2349L54.2394 0.672001H54.2422L54.2467 0.679293H54.2489L54.2534 0.686025H54.2562L54.2607 0.693317H54.263L54.2675 0.700609H54.2703L54.2748 0.707902H54.2771L54.2816 0.715194H54.2838L54.2883 0.722487H54.2911L54.2956 0.729779H54.2979L54.3024 0.737071H54.3052L54.3097 0.744364H54.3119L54.317 0.751656H54.3192L54.3243 0.758948H54.326L54.3311 0.766241H54.3327L54.3384 0.773533H54.3401L54.3451 0.780826H54.3468L54.3519 0.787557H54.3541L54.3592 0.794849H54.3609L54.3659 0.802142H54.3687L54.3732 0.809434H54.3755L54.38 0.816727H54.3822L54.3873 0.824019H54.3896L54.3941 0.831311H54.3963L54.4008 0.838604H54.4036L54.4081 0.845896H54.4104L54.4149 0.853189H54.4177L54.4222 0.860481H54.4244L54.4289 0.867773H54.4317L54.4362 0.875066H54.4385L54.443 0.882358H54.4452L54.4497 0.88909H54.4526L54.4571 0.896382H54.4593L54.4638 0.903674H54.4666L54.4711 0.910967H54.4734L54.4784 0.918259H54.4807L54.4857 0.925551H54.4874L54.4925 0.932844H54.4942L54.4992 0.940136H54.5015L54.5066 0.947429H54.5082L54.5133 0.954721H54.5156L54.5206 0.962013H54.5223L54.5274 0.969306H54.5296L54.5347 0.976598H54.5369L54.5414 0.983891H54.5437L54.5482 0.991183H54.551L54.5555 0.998475H54.5577L54.5622 1.00577H54.5651L54.5696 1.0125H54.5718L54.5763 1.01979H54.5791L54.5836 1.02764H54.5859L54.5904 1.03494H54.5926L54.5977 1.04167H54.5999L54.6044 1.04896H54.6067L54.6112 1.05681H54.614L54.6185 1.06355H54.6207L54.6252 1.07084H54.6281L54.6326 1.07869H54.6348L54.6399 1.08598H54.6416L54.6472 1.09272H54.6489L54.6539 1.10001H54.6556L54.6607 1.1073H54.6629L54.668 1.11459H54.6697L54.6747 1.12188H54.677L54.6821 1.12918H54.6837L54.6888 1.13647H54.6911L54.6961 1.14376H54.6984L54.7029 1.15105H54.7051L54.7096 1.15835H54.7124L54.7169 1.16564H54.7192L54.7237 1.17293H54.7265L54.731 1.18022H54.7332L54.7377 1.18752H54.7406L54.7451 1.19481H54.7473L54.7518 1.2021H54.7541L54.7586 1.20883H54.7614L54.7659 1.21612H54.7681L54.7726 1.22342H54.7754L54.7799 1.23071H54.7822L54.7867 1.238H54.7895L54.794 1.24529H54.7962L54.8013 1.25259H54.803L54.8086 1.25988H54.8103L54.8154 1.26717H54.8171L54.8221 1.27446H54.8244L54.8294 1.28176H54.8311L54.8362 1.28905H54.8384L54.8435 1.29634H54.8452L54.8502 1.30363H54.8525L54.8576 1.31036H54.8598L54.8643 1.31766H54.8666L54.8711 1.32495H54.8739L54.8784 1.33224H54.8806L54.8851 1.33953H54.8879L54.8924 1.34683H54.8947L54.8992 1.35412H54.902L54.9065 1.36141H54.9087L54.9132 1.3687H54.9155L54.92 1.376H54.9228L54.9273 1.38329H54.9295L54.9341 1.39058H54.9369L54.9414 1.39787H54.9436L54.9487 1.40517H54.9509L54.9554 1.4119H54.9577L54.9627 1.41919H54.9644L54.9695 1.42648H54.9717L54.9768 1.43377H54.9785L54.9835 1.44107H54.9858L54.9909 1.44836H54.9925L54.9976 1.45565H54.9999L55.0049 1.46294H55.0066L58.7072 7.13978V0.00390625H61.7582V0.0111986H61.765V0.018491H61.7723V0.0257834H61.779V0.0330758H61.7863V0.0403682H61.7931V0.0476606H61.8004V0.0549529H61.8071V0.0616844H61.8139V0.0689768H61.8212V0.0762691H61.8279V0.0835615H61.8353V0.0908539H61.842V0.0981463H61.8493V0.105439H61.8561V0.112731H61.8628V0.120023H61.8701V0.127316H61.8774V0.134608H61.8842V0.141901H61.8915V0.149193H61.8988V0.156485H61.9056V0.163778H61.9129V0.170509H61.9196V0.177802H61.9264V0.185655H61.9337V0.192947H61.9404V0.199679H61.9478V0.206971H61.9545V0.214824H61.9618V0.222117H61.9686V0.229409H61.9753V0.236141H61.9826V0.243994H61.9894V0.251286H61.9967V0.258579H62.0034V0.26531H62.0108V0.272603H62.0175V0.279895H62.0243V0.287187H62.0316V0.29448H62.0383V0.301772H62.0462V0.309064H62.0529V0.316357H62.0603V0.323649H62.067V0.330942H62.0738V0.338234H62.0811V0.345526H62.0878V0.352819H62.0951V0.360111H62.1019V0.367404H62.1092V0.374135H62.1159V0.381427H62.1233V0.38872H62.13V0.396012H62.1368V0.403305H62.1441V0.410597H62.1508V0.417889H62.1581V0.425182H62.1649V0.432474H62.1722V0.439766H62.1789V0.447059H62.1857V0.454351H62.193V0.461644H62.2003V0.468936H62.2071V0.475667H62.2144V0.48296H62.2217V0.490252H62.2284V0.497545H62.2352V0.504837H62.2425V0.512129H62.2493V0.519422H62.2566V0.526714H62.2633V0.534007H62.2706V0.541299H62.2774V0.548591H62.2841V0.555884H62.2914V0.563176H62.2982V0.570468H62.3055V0.5772H62.3123V0.584492H62.3196V0.591785H62.3263V0.599077H62.3331V0.606369H62.3404V0.613662H62.3471V0.620954H62.3544V0.628246H62.3612V0.635539H62.3691V0.642831H62.3758V0.650124H62.3831V0.657416H62.3899V0.664708H62.3966V0.672001H62.4039V0.679293H62.4107V0.686025H62.418V0.693317H62.4248V0.700609H62.4321V0.707902H62.4388V0.715194H62.4456V0.722487H62.4529V0.729779H62.4596V0.737071H62.4669V0.744364H62.4737V0.751656H62.481V0.758948H62.4878V0.766241H62.4945V0.773533H62.5018V0.780826H62.5086V0.787557H62.5159V0.794849H62.5232V0.802142H62.5299V0.809434H62.5373V0.816727H62.544V0.824019H62.5513V0.831311H62.5581V0.838604H62.5654V0.845896H62.5721V0.853189H62.5794V0.860481H62.5862V0.867773H62.5935V0.875066H62.6002V0.882358H62.607V0.88909H62.6143V0.896382H62.6211V0.903674H62.6284V0.910967H62.6351V0.918259H62.6424V0.925551H62.6492V0.932844H62.6559V0.940136H62.6632V0.947429H62.67V0.954721H62.6779V0.962013H62.6841V0.969306H62.6919V0.976598H62.6987V0.983891H62.7054V0.991183H62.7127V0.998475H62.7195V1.00577H62.7268V1.0125H62.7336V1.01979H62.7409V1.02764H62.7476V1.03494H62.7544V1.04167H62.7617V1.04896H62.7684V1.05681H62.7757V1.06355H62.7825V1.07084H62.7898V1.07869H62.7966V1.08598H62.8033V1.09272H62.8106V1.10001H62.8174V1.1073H62.8247V1.11459H62.832V1.12188H62.8387V1.12918H62.8461V1.13647H62.8528V1.14376H62.8601V1.15105H62.8669V1.15835H62.8742V1.16564H62.8809V1.17293H62.8882V1.18022H62.895V1.18752H62.9023V1.19481H62.9091V1.2021H62.9158V1.20883H62.9231V1.21612H62.9299V1.22342H62.9372V1.23071H62.9439V1.238H62.9512V1.24529H62.958V1.25259H62.9647V1.25988H62.9721V1.26717H62.9788V1.27446H62.9861V1.28176H62.9929V1.28905H63.0007V1.29634H63.0069V1.30363H63.0142V1.31036H63.0216V1.31766H63.0283V1.32495H63.0356V1.33224H63.0424V1.33953H63.0497V1.34683H63.0564V1.35412H63.0637V1.36141H63.0705V1.3687H63.0772V1.376H63.0846V1.38329H63.0913V1.39058H63.0986V1.39787H63.1054V1.40517H63.1127V1.4119H63.1194V1.41919H63.1262V1.42648H63.1335V1.43377H63.1402V1.44107H63.1476V1.44836H63.1549V1.45565H63.1616V1.46294H63.1689Z" fill="#314D77"/>
<path id="Vector_55" d="M63.1689 1.46298V14.6768L61.7582 13.2379V0.0112305H61.765V0.0185229H61.7723V0.0258152H61.779V0.0331076H61.7863V0.0404H61.7931V0.0476924H61.8004V0.0549848H61.8071V0.0617162H61.8139V0.0690086H61.8212V0.076301H61.8279V0.0835934H61.8353V0.0908857H61.842V0.0981781H61.8493V0.105471H61.8561V0.112763H61.8628V0.120055H61.8701V0.127348H61.8774V0.13464H61.8842V0.141932H61.8915V0.149225H61.8988V0.156517H61.9056V0.16381H61.9129V0.170541H61.9196V0.177833H61.9264V0.185687H61.9337V0.192979H61.9404V0.199711H61.9478V0.207003H61.9545V0.214856H61.9618V0.222149H61.9686V0.229441H61.9753V0.236172H61.9826V0.244026H61.9894V0.251318H61.9967V0.258611H62.0034V0.265342H62.0108V0.272634H62.0175V0.279927H62.0243V0.287219H62.0316V0.294512H62.0383V0.301804H62.0462V0.309096H62.0529V0.316389H62.0603V0.323681H62.067V0.330974H62.0738V0.338266H62.0811V0.345558H62.0878V0.352851H62.0951V0.360143H62.1019V0.367435H62.1092V0.374167H62.1159V0.381459H62.1233V0.388752H62.13V0.396044H62.1368V0.403336H62.1441V0.410629H62.1508V0.417921H62.1581V0.425214H62.1649V0.432506H62.1722V0.439798H62.1789V0.447091H62.1857V0.454383H62.193V0.461675H62.2003V0.468968H62.2071V0.475699H62.2144V0.482992H62.2217V0.490284H62.2284V0.497576H62.2352V0.504869H62.2425V0.512161H62.2493V0.519454H62.2566V0.526746H62.2633V0.534038H62.2706V0.541331H62.2774V0.548623H62.2841V0.555915H62.2914V0.563208H62.2982V0.5705H62.3055V0.577232H62.3123V0.584524H62.3196V0.591816H62.3263V0.599109H62.3331V0.606401H62.3404V0.613694H62.3471V0.620986H62.3544V0.628278H62.3612V0.635571H62.3691V0.642863H62.3758V0.650156H62.3831V0.657448H62.3899V0.66474H62.3966V0.672033H62.4039V0.679325H62.4107V0.686056H62.418V0.693349H62.4248V0.700641H62.4321V0.707934H62.4388V0.715226H62.4456V0.722518H62.4529V0.729811H62.4596V0.737103H62.4669V0.744396H62.4737V0.751688H62.481V0.75898H62.4878V0.766273H62.4945V0.773565H62.5018V0.780858H62.5086V0.787589H62.5159V0.794881H62.5232V0.802174H62.5299V0.809466H62.5373V0.816759H62.544V0.824051H62.5513V0.831343H62.5581V0.838636H62.5654V0.845928H62.5721V0.85322H62.5794V0.860513H62.5862V0.867805H62.5935V0.875098H62.6002V0.88239H62.607V0.889121H62.6143V0.896414H62.6211V0.903706H62.6284V0.910998H62.6351V0.918291H62.6424V0.925583H62.6492V0.932876H62.6559V0.940168H62.6632V0.94746H62.67V0.954753H62.6779V0.962045H62.6841V0.969338H62.6919V0.97663H62.6987V0.983922H62.7054V0.991215H62.7127V0.998507H62.7195V1.0058H62.7268V1.01253H62.7336V1.01982H62.7409V1.02768H62.7476V1.03497H62.7544V1.0417H62.7617V1.04899H62.7684V1.05685H62.7757V1.06358H62.7825V1.07087H62.7898V1.07872H62.7966V1.08602H62.8033V1.09275H62.8106V1.10004H62.8174V1.10733H62.8247V1.11462H62.832V1.12192H62.8387V1.12921H62.8461V1.1365H62.8528V1.14379H62.8601V1.15109H62.8669V1.15838H62.8742V1.16567H62.8809V1.17296H62.8882V1.18026H62.895V1.18755H62.9023V1.19484H62.9091V1.20213H62.9158V1.20886H62.9231V1.21616H62.9299V1.22345H62.9372V1.23074H62.9439V1.23803H62.9512V1.24533H62.958V1.25262H62.9647V1.25991H62.9721V1.2672H62.9788V1.2745H62.9861V1.28179H62.9929V1.28908H63.0007V1.29637H63.0069V1.30367H63.0142V1.3104H63.0216V1.31769H63.0283V1.32498H63.0356V1.33227H63.0424V1.33957H63.0497V1.34686H63.0564V1.35415H63.0637V1.36144H63.0705V1.36874H63.0772V1.37603H63.0846V1.38332H63.0913V1.39061H63.0986V1.39791H63.1054V1.4052H63.1127V1.41193H63.1194V1.41922H63.1262V1.42651H63.1335V1.43381H63.1402V1.4411H63.1476V1.44839H63.1549V1.45568H63.1616V1.46298H63.1689Z" fill="#314D77"/>
<path id="Vector_56" d="M58.7072 7.13982V7.84437L53.601 0.0112305H53.6032L53.6077 0.0185229H53.6105L53.615 0.0258152H53.6173L53.6218 0.0331076H53.6246L53.6291 0.0404H53.6313L53.6358 0.0476924H53.6386L53.6431 0.0549848H53.6454L53.6499 0.0617162H53.6521L53.6572 0.0690086H53.6595L53.664 0.076301H53.6662L53.6707 0.0835933H53.6735L53.678 0.0908857H53.6803L53.6853 0.0981781H53.6876L53.6926 0.105471H53.6943L53.6994 0.112763H53.7011L53.7067 0.120055H53.7084L53.7135 0.127348H53.7157L53.7202 0.13464H53.723L53.7275 0.141932H53.7298L53.7343 0.149225H53.7371L53.7416 0.156517H53.7438L53.7483 0.16381H53.7511L53.7556 0.170541H53.7579L53.7624 0.177833H53.7646L53.7691 0.185687H53.772L53.7764 0.192979H53.7787L53.7832 0.199711H53.786L53.7905 0.207003H53.7928L53.7973 0.214856H53.8001L53.8046 0.222149H53.8068L53.8113 0.229441H53.8136L53.8181 0.236172H53.8209L53.8254 0.244026H53.8276L53.8321 0.251318H53.835L53.84 0.258611H53.8417L53.8468 0.265342H53.849L53.8541 0.272634H53.8558L53.8608 0.279927H53.8625L53.8681 0.287219H53.8698L53.8749 0.294512H53.8771L53.8816 0.301804H53.8845L53.8889 0.309096H53.8912L53.8957 0.316389H53.8985L53.903 0.323681H53.9053L53.9098 0.330973H53.912L53.9171 0.338266H53.9193L53.9238 0.345558H53.9261L53.9306 0.352851H53.9334L53.9379 0.360143H53.9401L53.9446 0.367435H53.9474L53.9519 0.374167H53.9542L53.9587 0.381459H53.9615L53.966 0.388752H53.9683L53.9728 0.396044H53.975L53.9795 0.403336H53.9823L53.9868 0.410629H53.9891L53.9941 0.417921H53.9964L54.0014 0.425213H54.0031L54.0082 0.432506H54.0104L54.0155 0.439798H54.0172L54.0223 0.447091H54.0239L54.029 0.454383H54.0313L54.0363 0.461675H54.0386L54.0431 0.468968H54.0459L54.0504 0.475699H54.0526L54.0571 0.482992H54.0599L54.0644 0.490284H54.0667L54.0712 0.497576H54.0734L54.0779 0.504869H54.0808L54.0853 0.512161H54.0875L54.092 0.519454H54.0948L54.0993 0.526746H54.1016L54.1061 0.534038H54.1089L54.1134 0.541331H54.1156L54.1201 0.548623H54.1224L54.1274 0.555915H54.1297L54.1342 0.563208H54.1364L54.1409 0.5705H54.1438L54.1483 0.577232H54.1505L54.1556 0.584524H54.1578L54.1629 0.591816H54.1646L54.1696 0.599109H54.1713L54.1769 0.606401H54.1786L54.1837 0.613694H54.1854L54.1904 0.620986H54.1927L54.1978 0.628278H54.2L54.2045 0.635571H54.2073L54.2118 0.642863H54.2141L54.2186 0.650155H54.2214L54.2259 0.657448H54.2281L54.2326 0.66474H54.2349L54.2394 0.672033H54.2422L54.2467 0.679325H54.2489L54.2534 0.686056H54.2563L54.2608 0.693349H54.263L54.2675 0.700641H54.2703L54.2748 0.707934H54.2771L54.2816 0.715226H54.2838L54.2883 0.722518H54.2911L54.2956 0.729811H54.2979L54.3024 0.737103H54.3052L54.3097 0.744395H54.3119L54.317 0.751688H54.3193L54.3243 0.75898H54.326L54.3311 0.766273H54.3328L54.3384 0.773565H54.3401L54.3451 0.780857H54.3468L54.3519 0.787589H54.3541L54.3592 0.794881H54.3609L54.3659 0.802174H54.3688L54.3733 0.809466H54.3755L54.38 0.816758H54.3823L54.3873 0.824051H54.3896L54.3941 0.831343H54.3963L54.4008 0.838636H54.4036L54.4081 0.845928H54.4104L54.4149 0.85322H54.4177L54.4222 0.860513H54.4244L54.4289 0.867805H54.4318L54.4363 0.875097H54.4385L54.443 0.88239H54.4453L54.4498 0.889121H54.4526L54.4571 0.896414H54.4593L54.4638 0.903706H54.4666L54.4711 0.910998H54.4734L54.4784 0.918291H54.4807L54.4858 0.925583H54.4874L54.4925 0.932875H54.4942L54.4993 0.940168H54.5015L54.5066 0.94746H54.5083L54.5133 0.954753H54.5156L54.5206 0.962045H54.5223L54.5274 0.969337H54.5296L54.5347 0.97663H54.5369L54.5414 0.983922H54.5437L54.5482 0.991215H54.551L54.5555 0.998507H54.5578L54.5623 1.0058H54.5651L54.5696 1.01253H54.5718L54.5763 1.01982H54.5791L54.5836 1.02768H54.5859L54.5904 1.03497H54.5926L54.5977 1.0417H54.5999L54.6044 1.04899H54.6067L54.6112 1.05685H54.614L54.6185 1.06358H54.6207L54.6253 1.07087H54.6281L54.6326 1.07872H54.6348L54.6399 1.08602H54.6416L54.6472 1.09275H54.6489L54.6539 1.10004H54.6556L54.6607 1.10733H54.6629L54.668 1.11462H54.6697L54.6747 1.12192H54.677L54.6821 1.12921H54.6837L54.6888 1.1365H54.6911L54.6961 1.14379H54.6984L54.7029 1.15109H54.7051L54.7096 1.15838H54.7124L54.7169 1.16567H54.7192L54.7237 1.17296H54.7265L54.731 1.18026H54.7332L54.7377 1.18755H54.7406L54.7451 1.19484H54.7473L54.7518 1.20213H54.7541L54.7586 1.20886H54.7614L54.7659 1.21616H54.7681L54.7726 1.22345H54.7754L54.7799 1.23074H54.7822L54.7867 1.23803H54.7895L54.794 1.24533H54.7962L54.8013 1.25262H54.803L54.8086 1.25991H54.8103L54.8154 1.2672H54.8171L54.8221 1.2745H54.8244L54.8294 1.28179H54.8311L54.8362 1.28908H54.8384L54.8435 1.29637H54.8452L54.8502 1.30367H54.8525L54.8576 1.3104H54.8598L54.8643 1.31769H54.8666L54.8711 1.32498H54.8739L54.8784 1.33227H54.8806L54.8851 1.33957H54.8879L54.8924 1.34686H54.8947L54.8992 1.35415H54.902L54.9065 1.36144H54.9087L54.9132 1.36874H54.9155L54.92 1.37603H54.9228L54.9273 1.38332H54.9296L54.9341 1.39061H54.9369L54.9414 1.39791H54.9436L54.9487 1.4052H54.9509L54.9554 1.41193H54.9577L54.9627 1.41922H54.9644L54.9695 1.42651H54.9717L54.9768 1.43381H54.9785L54.9836 1.4411H54.9858L54.9909 1.44839H54.9926L54.9976 1.45568H54.9999L55.0049 1.46298H55.0066L58.7072 7.13982Z" fill="#314D77"/>
<path id="Vector_57" d="M55.0617 7.60079V14.6694L53.66 13.2378V5.45459L55.0617 7.60079Z" fill="#314D77"/>
<path id="Vector_58" d="M61.7582 0.00390625V13.2379H58.7438L53.651 5.44122V13.2379H50.6006V0.00390625H53.5964L58.7072 7.84434V0.00390625H61.7582Z" fill="#517CBE"/>
<path id="Vector_59" d="M87 1.46294V4.21217H84.5802V14.6969H81.4943V14.6896H81.4876V14.6824H81.4803V14.6751H81.4735V14.6678H81.4662V14.6605H81.4595V14.6532H81.4521V14.6459H81.4454V14.6392H81.4386V14.6319H81.4313V14.6246H81.4246V14.6173H81.4167V14.61H81.41V14.6027H81.4027V14.5954H81.3959V14.5881H81.3891V14.5808H81.3818V14.5735H81.3751V14.5662H81.3678V14.5589H81.361V14.5517H81.3537V14.5444H81.347V14.5376H81.3397V14.5303H81.3329V14.523H81.3261V14.5157H81.3188V14.5085H81.3121V14.5012H81.3048V14.4939H81.298V14.4866H81.2907V14.4793H81.284V14.472H81.2772V14.4647H81.2699V14.4574H81.2626V14.4501H81.2558V14.4428H81.2485V14.4361H81.2412V14.4288H81.2345V14.4215H81.2277V14.4142H81.2204V14.4069H81.2136V14.3996H81.2063V14.3923H81.1996V14.385H81.1923V14.3778H81.1855V14.3705H81.1788V14.3632H81.1715V14.3559H81.1647V14.3486H81.1574V14.3413H81.1506V14.334H81.1433V14.3273H81.1366V14.32H81.1293V14.3127H81.1225V14.3048H81.1158V14.2975H81.1085V14.2902H81.1017V14.2835H81.0938V14.2762H81.0871V14.2689H81.0798V14.2616H81.073V14.2538H81.0663V14.2465H81.059V14.2392H81.0522V14.2325H81.0449V14.2252H81.0381V14.2179H81.0308V14.2106H81.0241V14.2033H81.0173V14.196H81.01V14.1887H81.0033V14.1814H80.996V14.1741H80.9892V14.1668H80.9819V14.1595H80.9752V14.1523H80.9684V14.145H80.9611V14.1377H80.9543V14.1304H80.947V14.1231H80.9397V14.1164H80.933V14.1091H80.9257V14.1018H80.9189V14.0945H80.9116V14.0872H80.9048V14.0799H80.8975V14.0726H80.8908V14.0653H80.8835V14.058H80.8767V14.0507H80.8694V14.0434H80.8627V14.0361H80.8559V14.0288H80.8486V14.0216H80.8418V14.0148H80.8345V14.0075H80.8278V14.0002H80.8205V13.9929H80.8137V13.9857H80.807V13.9784H80.7997V13.9711H80.7929V13.9638H80.7856V13.9565H80.7788V13.9492H80.771V13.9419H80.7642V13.9346H80.7575V13.9273H80.7502V13.92H80.7434V13.9133H80.7361V13.906H80.7293V13.8987H80.722V13.8914H80.7153V13.8841H80.7085V13.8768H80.7012V13.8695H80.6945V13.8622H80.6872V13.8549H80.6804V13.8477H80.6731V13.8404H80.6663V13.8331H80.659V13.8258H80.6523V13.8185H80.6455V13.8112H80.6382V13.8045H80.6315V13.7972H80.6242V13.7899H80.6168V13.7826H80.6101V13.7753H80.6028V13.768H80.596V13.7607H80.5887V13.7534H80.582V13.7461H80.5747V13.7388H80.5679V13.7315H80.5606V13.7242H80.5538V13.717H80.5471V13.7097H80.5398V13.7029H80.533V13.6956H80.5257V13.6883H80.519V13.6811H80.5117V13.6738H80.5049V13.6665H80.4982V13.6592H80.4908V13.6519H80.4841V13.6446H80.4768V13.6373H80.47V13.63H80.4627V13.6227H80.456V13.6154H80.4487V13.6081H80.4413V13.6014H80.4346V13.5941H80.4273V13.5868H80.4205V13.5795H80.4132V13.5722H80.4065V13.5649H80.3992V13.5576H80.3924V13.5504H80.3857V13.5431H80.3783V13.5358H80.3716V13.5285H80.3643V13.5212H80.3575V13.5139H80.3502V13.5066H80.3435V13.4993H80.3367V13.4926H80.3294V13.4853H80.3227V13.478H80.3153V13.4707H80.3086V13.4634H80.3013V13.4561H80.294V13.4488H80.2872V13.4415H80.2799V13.4342H80.2732V13.4264H80.2659V13.4191H80.2591V13.4118H80.2518V13.4051H80.245V13.3978H80.2383V13.3905H80.231V13.3837H80.2242V13.3759H80.2169V13.3686H80.2102V13.3613H80.2029V13.354H80.1961V13.3467H80.1888V13.3394H80.182V13.3321H80.1753V13.3248H80.168V13.3176H80.1612V13.3103H80.1539V13.303H80.1472V13.2957H80.1393V13.2889H80.1331V13.2817H80.1258V13.2744H80.1185V13.2671H80.1117V13.2598H80.1044V13.2525H80.0977V13.2452H80.0904V13.2379H80.0836V4.21217H79.1381V4.20488H79.1313V4.19759H79.124V4.1903H79.1172V4.183H79.1099V4.17571H79.1032V4.16842H79.0959V4.16113H79.0891V4.15439H79.0824V4.1471H79.0751V4.13981H79.0677V4.13252H79.061V4.12523H79.0537V4.11793H79.0469V4.11064H79.0396V4.10335H79.0329V4.09606H79.0256V4.08876H79.0188V4.08147H79.0115V4.07418H79.0047V4.06689H78.9974V4.05959H78.9907V4.05286H78.9834V4.04557H78.9766V4.03828H78.9699V4.03098H78.9626V4.02369H78.9558V4.0164H78.9485V4.00911H78.9417V4.00182H78.9344V3.99452H78.9277V3.98723H78.9209V3.97994H78.9136V3.97265H78.9069V3.96535H78.899V3.95806H78.8928V3.95133H78.8849V3.94404H78.8782V3.93674H78.8714V3.92945H78.8641V3.92216H78.8574V3.91487H78.8501V3.90758H78.8433V3.90028H78.836V3.89299H78.8293V3.8857H78.8225V3.87841H78.8152V3.87111H78.8084V3.86382H78.8011V3.85653H78.7944V3.84924H78.7871V3.8425H78.7803V3.83521H78.773V3.82792H78.7663V3.82063H78.7595V3.81334H78.7522V3.80604H78.7449V3.79875H78.7381V3.79146H78.7308V3.78417H78.7235V3.77687H78.7168V3.76958H78.71V3.76229H78.7027V3.755H78.6959V3.7477H78.6886V3.74097H78.6819V3.73368H78.6746V3.72639H78.6678V3.7191H78.6611V3.7118H78.6538V3.70451H78.647V3.69722H78.6397V3.68993H78.6329V3.68263H78.6256V3.67534H78.6189V3.66805H78.6121V3.66076H78.6048V3.65346H78.5981V3.64617H78.5907V3.63944H78.584V3.63215H78.5761V3.62486H78.5694V3.61756H78.5626V3.61027H78.5553V3.60298H78.5486V3.59569H78.5413V3.58839H78.5345V3.5811H78.5272V3.57381H78.5204V3.56652H78.5131V3.55922H78.5064V3.55193H78.4996V3.54464H78.4923V3.53735H78.4856V3.53062H78.4783V3.52276H78.4715V3.51547H78.4642V3.50874H78.4574V3.50088H78.4507V3.49359H78.4434V3.48686H78.4366V3.47901H78.4293V3.47228H78.422V3.46498H78.4153V3.45713H78.4079V3.4504H78.4012V3.44311H78.3939V3.43525H78.3871V3.42852H78.3798V3.42123H78.3731V3.41394H78.3658V3.40664H78.359V3.39935H78.3523V3.39206H78.3449V3.38477H78.3382V3.37748H78.3309V3.37018H78.3241V3.36289H78.3168V3.3556H78.3101V3.34831H78.3028V3.34101H78.296V3.33372H78.2893V3.32643H78.2819V3.3197H78.2752V3.3124H78.2679V3.30511H78.2611V3.29782H78.2533V3.29053H78.2465V3.28324H78.2398V3.27594H78.2324V3.26865H78.2257V3.26136H78.2184V3.25407H78.2116V3.24677H78.2043V3.23948H78.1976V3.23219H78.1908V3.2249H78.1835V3.21816H78.1768V3.21087H78.1694V3.20358H78.1627V3.19629H78.1554V3.189H78.1486V3.1817H78.1419V3.17441H78.1346V3.16712H78.1278V3.15983H78.1205V3.15253H78.1138V3.14524H78.1064V3.13795H78.0991V3.13066H78.0924V3.12336H78.0851V3.11663H78.0783V3.10934H78.071V3.10205H78.0643V3.09475H78.0569V3.08746H78.0502V3.08017H78.0429V3.07288H78.0361V3.06559H78.0294V3.05829H78.0221V3.051H78.0153V3.04371H78.008V3.03642H78.0013V3.02912H77.9939V3.02183H77.9872V3.01454H77.9804V3.00781H77.9731V3.00052H77.9664V2.99322H77.9591V2.98593H77.9523V2.97864H77.945V2.97135H77.9383V2.96405H77.9309V2.95676H77.9236V2.94947H77.9169V2.94218H77.9096V2.93488H77.9028V2.92759H77.8955V2.9203H77.8888V2.91301H77.882V2.90628H77.8747V2.89898H77.8679V2.89169H77.8606V2.8844H77.8539V2.87711H77.8466V2.86981H77.8398V2.86252H77.8325V2.85523H77.8258V2.84794H77.819V2.84064H77.8117V2.83335H77.8049V2.82606H77.7976V2.81877H77.7909V2.81147H77.7836V2.80474H77.7763V2.79745H77.7695V2.79016H77.7622V2.78287H77.7555V2.77557H77.7481V2.76828H77.7414V2.76099H77.7341V2.7537H77.7273V0.00390625H85.5893V0.0111986H85.596V0.018491H85.6033V0.0257834H85.6101V0.0330758H85.6174V0.0403682H85.6241V0.0476606H85.6315V0.0549529H85.6382V0.0616844H85.645V0.0689768H85.6523V0.0762691H85.6596V0.0835615H85.6663V0.0908539H85.6736V0.0981463H85.681V0.105439H85.6877V0.112731H85.6945V0.120023H85.7018V0.127316H85.7085V0.134608H85.7158V0.141901H85.7226V0.149193H85.7299V0.156485H85.7366V0.163778H85.744V0.170509H85.7507V0.177802H85.7575V0.185655H85.7648V0.192947H85.7715V0.199679H85.7788V0.206971H85.7856V0.214824H85.7929V0.222117H85.7996V0.229409H85.8064V0.236141H85.8143V0.243994H85.8205V0.251286H85.8283V0.258579H85.8351V0.26531H85.8424V0.272603H85.8491V0.279895H85.8559V0.287187H85.8632V0.29448H85.87V0.301772H85.8773V0.309064H85.884V0.316357H85.8913V0.323649H85.8981V0.330942H85.9048V0.338234H85.9121V0.345526H85.9189V0.352819H85.9262V0.360111H85.933V0.367404H85.9403V0.374135H85.947V0.381427H85.9543V0.38872H85.9611V0.396012H85.9684V0.403305H85.9751V0.410597H85.9825V0.417889H85.9892V0.425182H85.9965V0.432474H86.0038V0.439766H86.0106V0.447059H86.0173V0.454351H86.0246V0.461644H86.0314V0.468936H86.0387V0.475667H86.0455V0.48296H86.0528V0.490252H86.0595V0.497545H86.0663V0.504837H86.0736V0.512129H86.0803V0.519422H86.0876V0.526714H86.0944V0.534007H86.1017V0.541299H86.1084V0.548591H86.1152V0.555884H86.1225V0.563176H86.1293V0.570468H86.1371V0.5772H86.1433V0.584492H86.1512V0.591785H86.1579V0.599077H86.1647V0.606369H86.172V0.613662H86.1788V0.620954H86.1861V0.628246H86.1928V0.635539H86.2001V0.642831H86.2069V0.650124H86.2142V0.657416H86.2209V0.664708H86.2277V0.672001H86.235V0.679293H86.2418V0.686025H86.2491V0.693317H86.2558V0.700609H86.2631V0.707902H86.2699V0.715194H86.2766V0.722487H86.2839V0.729779H86.2913V0.737071H86.298V0.744364H86.3053V0.751656H86.3121V0.758948H86.3194V0.766241H86.3261V0.773533H86.3334V0.780826H86.3402V0.787557H86.3475V0.794849H86.3543V0.802142H86.3616V0.809434H86.3683V0.816727H86.3751V0.824019H86.3824V0.831311H86.3891V0.838604H86.3964V0.845896H86.4032V0.853189H86.4105V0.860481H86.4173V0.867773H86.4246V0.875066H86.4313V0.882358H86.4381V0.88909H86.4454V0.896382H86.4521V0.903674H86.46V0.910967H86.4662V0.918259H86.4741V0.925551H86.4808V0.932844H86.4876V0.940136H86.4949V0.947429H86.5016V0.954721H86.5089V0.962013H86.5157V0.969306H86.523V0.976598H86.5298V0.983891H86.5365V0.991183H86.5438V0.998475H86.5506V1.00577H86.5579V1.0125H86.5646V1.01979H86.5719V1.02764H86.5787V1.03494H86.5854V1.04167H86.5928V1.04896H86.5995V1.05681H86.6068V1.06355H86.6141V1.07084H86.6209V1.07869H86.6282V1.08598H86.6349V1.09272H86.6423V1.10001H86.649V1.1073H86.6563V1.11459H86.6631V1.12188H86.6704V1.12918H86.6771V1.13647H86.6844V1.14376H86.6912V1.15105H86.6979V1.15835H86.7053V1.16564H86.712V1.17293H86.7193V1.18022H86.7261V1.18752H86.7334V1.19481H86.7401V1.2021H86.7469V1.20883H86.7542V1.21612H86.7609V1.22342H86.7683V1.23071H86.775V1.238H86.7829V1.24529H86.7896V1.25259H86.7964V1.25988H86.8037V1.26717H86.8104V1.27446H86.8177V1.28176H86.8245V1.28905H86.8318V1.29634H86.8386V1.30363H86.8453V1.31036H86.8526V1.31766H86.8594V1.32495H86.8667V1.33224H86.8734V1.33953H86.8807V1.34683H86.8875V1.35412H86.8948V1.36141H86.9016V1.3687H86.9083V1.376H86.9156V1.38329H86.9224V1.39058H86.9297V1.39787H86.937V1.40517H86.9437V1.4119H86.9511V1.41919H86.9578V1.42648H86.9651V1.43377H86.9719V1.44107H86.9792V1.44836H86.9859V1.45565H86.9932V1.46294H87Z" fill="#04562F"/>
<path id="Vector_60" d="M84.5802 14.6769V14.6971H81.4943V14.6898H81.4876V14.6825H81.4803V14.6752H81.4735V14.6679H81.4662V14.6606H81.4595V14.6533H81.4522V14.646H81.4454V14.6393H81.4387V14.632H81.4313V14.6247H81.4246V14.6174H81.4167V14.6101H81.41V14.6028H81.4027V14.5955H81.3959V14.5882H81.3892V14.581H81.3818V14.5737H81.3751V14.5664H81.3678V14.5591H81.361V14.5518H81.3537V14.5445H81.347V14.5378H81.3397V14.5305H81.3329V14.5232H81.3262V14.5159H81.3188V14.5086H81.3121V14.5013H81.3048V14.494H81.298V14.4867H81.2907V14.4794H81.284V14.4721H81.2772V14.4648H81.2699V14.4575H81.2626V14.4503H81.2558V14.443H81.2485V14.4362H81.2412V14.4289H81.2345V14.4216H81.2277V14.4144H81.2204V14.4071H81.2137V14.3998H81.2063V14.3925H81.1996V14.3852H81.1923V14.3779H81.1855V14.3706H81.1788V14.3633H81.1715V14.356H81.1647V14.3487H81.1574V14.3414H81.1507V14.3341H81.1433V14.3274H81.1366V14.3201H81.1293V14.3128H81.1225V14.305H81.1158V14.2977H81.1085V14.2904H81.1017V14.2837H81.0938V14.2764H81.0871V14.2691H81.0798V14.2618H81.073V14.2539H81.0663V14.2466H81.059V14.2393H81.0522V14.2326H81.0449V14.2253H81.0382V14.218H81.0308V14.2107H81.0241V14.2034H81.0173V14.1961H81.01V14.1889H81.0033V14.1816H80.996V14.1743H80.9892V14.167H80.9819V14.1597H80.9752V14.1524H80.9684V14.1451H80.9611V14.1378H80.9543V14.1305H80.947V14.1232H80.9397V14.1165H80.933V14.1092H80.9257V14.1019H80.9189V14.0946H80.9116V14.0873H80.9048V14.08H80.8975V14.0727H80.8908V14.0654H80.8835V14.0581H80.8767V14.0509H80.8694V14.0436H80.8627V14.0363H80.8559V14.029H80.8486V14.0217H80.8419V14.015H80.8345V14.0077H80.8278V14.0004H80.8205V13.9931H80.8137V13.9858H80.807V13.9785H80.7997V13.9712H80.7929V13.9639H80.7856V13.9566H80.7789V13.9493H80.771V13.942H80.7642V13.9347H80.7575V13.9274H80.7502V13.9202H80.7434V13.9134H80.7361V13.9061H80.7294V13.8988H80.722V13.8915H80.7153V13.8843H80.7085V13.877H80.7012V13.8697H80.6945V13.8624H80.6872V13.8551H80.6804V13.8478H80.6731V13.8405H80.6664V13.8332H80.659V13.8259H80.6523V13.8186H80.6455V13.8113H80.6382V13.8046H80.6315V13.7973H80.6242V13.79H80.6169V13.7827H80.6101V13.7754H80.6028V13.7681H80.596V13.7608H80.5887V13.7536H80.582V13.7463H80.5747V13.739H80.5679V13.7317H80.5606V13.7244H80.5539V13.7171H80.5471V13.7098H80.5398V13.7031H80.533V13.6958H80.5257V13.6885H80.519V13.6812H80.5117V13.6739H80.5049V13.6666H80.4982V13.6593H80.4909V13.652H80.4841V13.6447H80.4768V13.6374H80.47V13.6301H80.4627V13.6229H80.456V13.6156H80.4487V13.6083H80.4414V13.6015H80.4346V13.5942H80.4273V13.5869H80.4205V13.5797H80.4132V13.5724H80.4065V13.5651H80.3992V13.5578H80.3924V13.5505H80.3857V13.5432H80.3784V13.5359H80.3716V13.5286H80.3643V13.5213H80.3575V13.514H80.3502V13.5067H80.3435V13.4994H80.3367V13.4927H80.3294V13.4854H80.3227V13.4781H80.3154V13.4708H80.3086V13.4635H80.3013V13.4562H80.294V13.449H80.2872V13.4417H80.2799V13.4344H80.2732V13.4265H80.2659V13.4192H80.2591V13.4119H80.2518V13.4052H80.245V13.3979H80.2383V13.3906H80.231V13.3839H80.2242V13.376H80.2169V13.3687H80.2102V13.3614H80.2029V13.3542H80.1961V13.3469H80.1888V13.3396H80.182V13.3323H80.1753V13.325H80.168V13.3177H80.1612V13.3104H80.1539V13.3031H80.1472V13.2958H80.1393V13.2891H80.1331V13.2818H80.1258V13.2745H80.1185V13.2672H80.1117V13.2599H80.1044V13.2526H80.0977V13.2453H80.0904V13.238H83.17L84.5802 14.6769Z" fill="#04562F"/>
<path id="Vector_61" d="M86.9848 4.21217H84.5802V4.22451L83.1177 2.66113L85.573 2.76547L86.9848 4.21217Z" fill="#04562F"/>
<path id="Vector_62" d="M80.0836 4.69354V4.21224H79.1381V4.20495H79.1313V4.19766H79.124V4.19037H79.1172V4.18307H79.1099V4.17578H79.1032V4.16849H79.0959V4.1612H79.0891V4.15447H79.0824V4.14717H79.0751V4.13988H79.0677V4.13259H79.061V4.1253H79.0537V4.118H79.0469V4.11071H79.0396V4.10342H79.0329V4.09613H79.0256V4.08883H79.0188V4.08154H79.0115V4.07425H79.0047V4.06696H78.9974V4.05967H78.9907V4.05293H78.9834V4.04564H78.9766V4.03835H78.9699V4.03106H78.9626V4.02376H78.9558V4.01647H78.9485V4.00918H78.9417V4.00189H78.9344V3.99459H78.9277V3.9873H78.9209V3.98001H78.9136V3.97272H78.9069V3.96543H78.899V3.95813H78.8928V3.9514H78.8849V3.94411H78.8782V3.93682H78.8714V3.92952H78.8641V3.92223H78.8574V3.91494H78.8501V3.90765H78.8433V3.90035H78.836V3.89306H78.8293V3.88577H78.8225V3.87848H78.8152V3.87119H78.8084V3.86389H78.8011V3.8566H78.7944V3.84931H78.7871V3.84258H78.7803V3.83528H78.773V3.82799H78.7663V3.8207H78.7595V3.81341H78.7522V3.80611H78.7449V3.79882H78.7381V3.79153H78.7308V3.78424H78.7235V3.77695H78.7168V3.76965H78.71V3.76236H78.7027V3.75507H78.6959V3.74778H78.6886V3.74104H78.6819V3.73375H78.6746V3.72646H78.6678V3.71917H78.6611V3.71187H78.6538V3.70458H78.647V3.69729H78.6397V3.69H78.6329V3.68271H78.6256V3.67541H78.6189V3.66812H78.6121V3.66083H78.6048V3.65354H78.5981V3.64624H78.5907V3.63951H78.584V3.63222H78.5761V3.62493H78.5694V3.61763H78.5626V3.61034H78.5553V3.60305H78.5486V3.59576H78.5413V3.58846H78.5345V3.58117H78.5272V3.57388H78.5204V3.56659H78.5131V3.5593H78.5064V3.552H78.4996V3.54471H78.4923V3.53742H78.4856V3.53069H78.4783V3.52283H78.4715V3.51554H78.4642V3.50881H78.4574V3.50096H78.4507V3.49366H78.4434V3.48693H78.4366V3.47908H78.4293V3.47235H78.422V3.46506H78.4153V3.4572H78.4079V3.45047H78.4012V3.44318H78.3939V3.43532H78.3871V3.42859H78.3798V3.4213H78.3731V3.41401H78.3658V3.40672H78.359V3.39942H78.3523V3.39213H78.3449V3.38484H78.3382V3.37755H78.3309V3.37025H78.3241V3.36296H78.3168V3.35567H78.3101V3.34838H78.3028V3.34108H78.296V3.33379H78.2893V3.3265H78.2819V3.31977H78.2752V3.31248H78.2679V3.30518H78.2611V3.29789H78.2533V3.2906H78.2465V3.28331H78.2398V3.27601H78.2324V3.26872H78.2257V3.26143H78.2184V3.25414H78.2116V3.24684H78.2043V3.23955H78.1976V3.23226H78.1908V3.22497H78.1835V3.21824H78.1768V3.21094H78.1694V3.20365H78.1627V3.19636H78.1554V3.18907H78.1486V3.18177H78.1419V3.17448H78.1346V3.16719H78.1278V3.1599H78.1205V3.1526H78.1138V3.14531H78.1064V3.13802H78.0991V3.13073H78.0924V3.12344H78.0851V3.1167H78.0783V3.10941H78.071V3.10212H78.0643V3.09483H78.0569V3.08753H78.0502V3.08024H78.0429V3.07295H78.0361V3.06566H78.0294V3.05836H78.0221V3.05107H78.0153V3.04378H78.008V3.03649H78.0013V3.0292H77.9939V3.0219H77.9872V3.01461H77.9804V3.00788H77.9731V3.00059H77.9664V2.99329H77.9591V2.986H77.9523V2.97871H77.945V2.97142H77.9383V2.96412H77.9309V2.95683H77.9236V2.94954H77.9169V2.94225H77.9096V2.93496H77.9028V2.92766H77.8955V2.92037H77.8888V2.91308H77.882V2.90635H77.8747V2.89905H77.8679V2.89176H77.8606V2.88447H77.8539V2.87718H77.8466V2.86988H77.8398V2.86259H77.8325V2.8553H77.8258V2.84801H77.819V2.84072H77.8117V2.83342H77.8049V2.82613H77.7976V2.81884H77.7909V2.81155H77.7836V2.80481H77.7763V2.79752H77.7695V2.79023H77.7622V2.78294H77.7555V2.77564H77.7481V2.76835H77.7414V2.76106H77.7341V2.75377H77.7273V2.71338H80.0875L80.0836 4.69354Z" fill="#04562F"/>
<path id="Vector_63" d="M85.5893 0.00390625V2.7537H83.17V13.2379H80.0836V2.7537H77.7273V0.00390625H85.5893Z" fill="#029E57"/>
<path id="Vector_64" d="M75.533 6.54575V9.52609L75.0189 9.01113L74.1133 8.10464V5.12598L75.533 6.54575Z" fill="#9E7008"/>
<path id="Vector_65" d="M75.5606 1.46294V4.18525H66.7824L65.406 2.76492V0.00390625H74.1499V0.0111986H74.1566V0.018491H74.1639V0.0257834H74.1707V0.0330758H74.178V0.0403682H74.1848V0.0476606H74.1921V0.0549529H74.1994V0.0616844H74.2061V0.0689768H74.2135V0.0762691H74.2202V0.0835615H74.2275V0.0908539H74.2343V0.0981463H74.2416V0.105439H74.2483V0.112731H74.2551V0.120023H74.2624V0.127316H74.2691V0.134608H74.2764V0.141901H74.2832V0.149193H74.2905V0.156485H74.2973V0.163778H74.3046V0.17107H74.3113V0.178363H74.3181V0.185655H74.3254V0.192947H74.3321V0.20024H74.3394V0.207532H74.3462V0.214824H74.3535V0.222117H74.3608V0.229409H74.3676V0.236702H74.3749V0.243994H74.3816V0.251286H74.3889V0.258579H74.3957V0.26531H74.403V0.272603H74.4098V0.279895H74.4165V0.287187H74.4238V0.29448H74.4306V0.301772H74.4379V0.309065H74.4446V0.316357H74.4519V0.323649H74.4587V0.330942H74.4654V0.338234H74.4728V0.345526H74.4795V0.352819H74.4868V0.360111H74.4936V0.367404H74.5009V0.374135H74.5076V0.381427H74.5149V0.38872H74.5223V0.396012H74.529V0.403305H74.5363V0.410597H74.5431V0.417889H74.5504V0.425182H74.5571V0.432474H74.5644V0.439766H74.5712V0.447059H74.5779V0.454351H74.5853V0.461644H74.592V0.468936H74.5993V0.475667H74.6061V0.48296H74.6134V0.490252H74.6201V0.497545H74.6269V0.504837H74.6342V0.512129H74.6409V0.519422H74.6483V0.526714H74.655V0.534007H74.6623V0.541299H74.6691V0.548591H74.6764V0.555884H74.6837V0.563176H74.6904V0.570468H74.6978V0.5772H74.7045V0.584492H74.7118V0.591785H74.7186V0.599077H74.7253V0.606369H74.7326V0.613662H74.7394V0.620954H74.7467V0.628247H74.7534V0.635539H74.7608V0.642831H74.7675V0.650124H74.7748V0.657416H74.7816V0.664708H74.7883V0.672001H74.7956V0.679293H74.8024V0.686025H74.8097V0.693317H74.8164V0.700609H74.8238V0.707902H74.8305V0.715194H74.8378V0.722487H74.8451V0.729779H74.8519V0.737071H74.8592V0.744364H74.8659V0.751656H74.8733V0.758949H74.88V0.766241H74.8868V0.773533H74.8941V0.780826H74.9008V0.787557H74.9081V0.79485H74.9149V0.802142H74.9222V0.809434H74.9289V0.816727H74.9357V0.824019H74.943V0.831311H74.9497V0.838604H74.9571V0.845896H74.9638V0.853189H74.9711V0.860481H74.9779V0.867773H74.9852V0.875066H74.9919V0.882358H74.9992V0.88909H75.0066V0.896382H75.0133V0.903674H75.0206V0.910967H75.0274V0.918259H75.0347V0.925551H75.0414V0.932844H75.0482V0.940136H75.0555V0.947429H75.0622V0.954721H75.0696V0.962013H75.0763V0.969306H75.0836V0.976598H75.0904V0.983891H75.0971V0.991183H75.1044V0.997914H75.1112V1.00521H75.1185V1.0125H75.1252V1.01979H75.1326V1.02764H75.1393V1.03494H75.1461V1.04223H75.1534V1.04952H75.1607V1.05681H75.168V1.06411H75.1747V1.0714H75.1821V1.07869H75.1888V1.08598H75.1956V1.09328H75.2029V1.10001H75.2096V1.1073H75.2169V1.11459H75.2237V1.12188H75.231V1.12918H75.2377V1.13647H75.2451V1.14376H75.2518V1.15105H75.2586V1.15835H75.2659V1.16564H75.2726V1.17293H75.2799V1.18022H75.2867V1.18752H75.294V1.19481H75.3007V1.2021H75.3075V1.20883H75.3148V1.21613H75.3221V1.22342H75.3294V1.23071H75.3362V1.238H75.3435V1.24529H75.3502V1.25259H75.357V1.25988H75.3643V1.26717H75.3711V1.27446H75.3784V1.28176H75.3851V1.28905H75.3924V1.29634H75.3992V1.30363H75.4059V1.31036H75.4132V1.31766H75.42V1.32495H75.4273V1.33224H75.4341V1.33953H75.4414V1.34683H75.4481V1.35412H75.4554V1.36141H75.4622V1.3687H75.4689V1.376H75.4762V1.38329H75.4836V1.39058H75.4909V1.39787H75.4976V1.40517H75.5049V1.4119H75.5117V1.41919H75.5184V1.42648H75.5257V1.43377H75.5325V1.44107H75.5398V1.44836H75.5466V1.45565H75.5539V1.46294H75.5606Z" fill="#9E7008"/>
<path id="Vector_66" d="M75.5331 6.54575V9.01113H69.7923V14.6969H66.7604V14.6897H66.7537V14.6824H66.7464V14.6751H66.7396V14.6678H66.7323V14.6605H66.7256V14.6532H66.7183V14.6459H66.7115V14.6392H66.7048V14.6319H66.6974V14.6246H66.6907V14.6173H66.6834V14.61H66.6766V14.6027H66.6693V14.5954H66.662V14.5881H66.6553V14.5808H66.6479V14.5735H66.6412V14.5662H66.6339V14.559H66.6271V14.5517H66.6198V14.5444H66.6131V14.5376H66.6058V14.5303H66.599V14.5231H66.5923V14.5158H66.5849V14.5085H66.5782V14.5012H66.5709V14.4939H66.5641V14.4866H66.5568V14.4793H66.5501V14.472H66.5433V14.4647H66.536V14.4574H66.5293V14.4501H66.5219V14.4428H66.5152V14.4361H66.5079V14.4288H66.5006V14.4215H66.4938V14.4142H66.4865V14.4069H66.4798V14.3996H66.4724V14.3924H66.4657V14.3851H66.4584V14.3778H66.4516V14.3705H66.4449V14.3632H66.4376V14.3559H66.4308V14.3486H66.4235V14.3413H66.4168V14.334H66.4094V14.3273H66.4027V14.32H66.3954V14.3127H66.3886V14.3054H66.3819V14.2981H66.3746V14.2908H66.3678V14.2835H66.3605V14.2762H66.3538V14.2689H66.3464V14.2617H66.3391V14.2544H66.3324V14.2465H66.3251V14.2392H66.3183V14.2319H66.311V14.2252H66.3043V14.2179H66.2969V14.2106H66.2902V14.2033H66.2834V14.196H66.2761V14.1887H66.2694V14.1814H66.2621V14.1741H66.2553V14.1669H66.248V14.1596H66.2413V14.1523H66.2345V14.145H66.2272V14.1377H66.2204V14.1304H66.2131V14.1231H66.2064V14.1164H66.1991V14.1091H66.1923V14.1018H66.185V14.0945H66.1777V14.0872H66.1709V14.0799H66.1636V14.0726H66.1569V14.0653H66.1496V14.058H66.1428V14.0507H66.1355V14.0434H66.1288V14.0361H66.122V14.0289H66.1147V14.0216H66.1079V14.0148H66.1006V14.0075H66.0939V14.0002H66.0866V13.993H66.0798V13.9857H66.0731V13.9784H66.0658V13.9711H66.059V13.9638H66.0517V13.9565H66.0449V13.9492H66.0376V13.9419H66.0309V13.9346H66.0236V13.9273H66.0163V13.92H66.0095V13.9133H66.0022V13.906H65.9955V13.8987H65.9881V13.8914H65.9814V13.8841H65.9746V13.8768H65.9673V13.8695H65.9606V13.8623H65.9533V13.855H65.9465V13.8477H65.9392V13.8404H65.9325V13.8331H65.9251V13.8258H65.9184V13.8185H65.9116V13.8112H65.9043V13.8045H65.8976V13.7972H65.8903V13.7899H65.8835V13.7826H65.8762V13.7753H65.8695V13.768H65.8621V13.7607H65.8548V13.7534H65.8481V13.7461H65.8408V13.7388H65.834V13.7316H65.8267V13.7243H65.82V13.717H65.8132V13.7097H65.8059V13.7029H65.7991V13.6956H65.7918V13.6884H65.7851V13.6811H65.7778V13.6738H65.771V13.6665H65.7643V13.6592H65.757V13.6519H65.7502V13.6446H65.7429V13.6373H65.7361V13.63H65.7288V13.6227H65.7221V13.6154H65.7153V13.6081H65.7075V13.6014H65.7007V13.5941H65.6934V13.5868H65.6866V13.5795H65.6793V13.5722H65.6726V13.5649H65.6653V13.5577H65.6585V13.5504H65.6518V13.5431H65.6445V13.5358H65.6377V13.5285H65.6304V13.5212H65.6236V13.5139H65.6163V13.5066H65.6096V13.4993H65.6028V13.4926H65.5955V13.4853H65.5888V13.478H65.5815V13.4707H65.5747V13.4634H65.5674V13.4561H65.5606V13.4488H65.5539V13.4415H65.546V13.4342H65.5393V13.427H65.532V13.4197H65.5252V13.4124H65.5179V13.4051H65.5111V13.3978H65.5044V13.3905H65.4971V13.3832H65.4903V13.3759H65.483V13.3686H65.4763V13.3613H65.469V13.354H65.4622V13.3467H65.4549V13.3394H65.4481V13.3322H65.4414V13.3249H65.4341V13.3176H65.4273V13.3103H65.42V13.303H65.4133V13.2957H65.406V13.289H65.3992V13.2817H65.3919V13.2744H65.3846V13.2671H65.3778V13.2598H65.3705V13.2525H65.3638V13.2452H65.3565V13.2379H65.406V5.16019L74.1133 5.12598L75.5331 6.54575Z" fill="#9E7008"/>
<path id="Vector_67" d="M74.1499 0.00390625H65.3497V2.69255H74.1499V0.00390625Z" fill="#F4B406"/>
<path id="Vector_68" d="M66.7604 14.6971V14.6898H66.7537V14.6825H66.7464V14.6752H66.7396V14.6679H66.7323V14.6606H66.7256V14.6533H66.7182V14.646H66.7115V14.6393H66.7047V14.632H66.6974V14.6247H66.6907V14.6174H66.6834V14.6101H66.6766V14.6028H66.6693V14.5955H66.6626V14.5882H66.6558V14.581H66.6485V14.5737H66.6412V14.5664H66.6339V14.5591H66.6271V14.5518H66.6198V14.5445H66.6131V14.5378H66.6057V14.5305H66.599V14.5232H66.5922V14.5159H66.5849V14.5086H66.5782V14.5013H66.5709V14.494H66.5641V14.4867H66.5568V14.4794H66.5501V14.4721H66.5433V14.4648H66.536V14.4575H66.5292V14.4503H66.5219V14.443H66.5152V14.4362H66.5079V14.4289H66.5011V14.4216H66.4938V14.4144H66.4871V14.4071H66.4797V14.3998H66.4724V14.3925H66.4657V14.3852H66.4584V14.3779H66.4516V14.3706H66.4449V14.3633H66.4376V14.356H66.4308V14.3487H66.4235V14.3414H66.4168V14.3341H66.4094V14.3274H66.4027V14.3201H66.3954V14.3128H66.3886V14.305H66.3819V14.2977H66.3746V14.2904H66.3678V14.2837H66.3605V14.2764H66.3538V14.2691H66.3464V14.2618H66.3397V14.2539H66.3329V14.2466H66.3251V14.2393H66.3183V14.2326H66.311V14.2253H66.3043V14.218H66.2969V14.2107H66.2902V14.2034H66.2834V14.1961H66.2761V14.1889H66.2694V14.1816H66.2621V14.1743H66.2553V14.167H66.248V14.1597H66.2413V14.1524H66.2345V14.1451H66.2272V14.1378H66.2204V14.1305H66.2131V14.1232H66.2064V14.1165H66.1991V14.1092H66.1923V14.1019H66.185V14.0946H66.1783V14.0873H66.1709V14.08H66.1642V14.0727H66.1569V14.0654H66.1496V14.0581H66.1428V14.0509H66.1355V14.0436H66.1288V14.0363H66.122V14.029H66.1147V14.0217H66.1079V14.015H66.1006V14.0077H66.0939V14.0004H66.0866V13.9931H66.0798V13.9858H66.0731V13.9785H66.0658V13.9712H66.059V13.9639H66.0517V13.9566H66.0449V13.9493H66.0376V13.942H66.0309V13.9347H66.0241V13.9274H66.0163V13.9202H66.0101V13.9134H66.0022V13.9061H65.9954V13.8988H65.9881V13.8915H65.9814V13.8843H65.9746V13.877H65.9673V13.8697H65.9606V13.8624H65.9533V13.8551H65.9465V13.8478H65.9392V13.8405H65.9324V13.8332H65.9251V13.8259H65.9184V13.8186H65.9116V13.8113H65.9043V13.8046H65.8976V13.7973H65.8903V13.79H65.8835V13.7827H65.8762V13.7754H65.8694V13.7681H65.8621V13.7608H65.8554V13.7536H65.8481V13.7463H65.8413V13.739H65.834V13.7317H65.8267V13.7244H65.8199V13.7171H65.8132V13.7098H65.8059V13.7031H65.7991V13.6958H65.7918V13.6885H65.7851V13.6812H65.7778V13.6739H65.771V13.6666H65.7643V13.6593H65.7569V13.652H65.7502V13.6447H65.7429V13.6374H65.7361V13.6301H65.7288V13.6229H65.7221V13.6156H65.7153V13.6083H65.708V13.6015H65.7013V13.5942H65.6934V13.5869H65.6872V13.5797H65.6793V13.5724H65.6726V13.5651H65.6653V13.5578H65.6585V13.5505H65.6518V13.5432H65.6445V13.5359H65.6377V13.5286H65.6304V13.5213H65.6236V13.514H65.6163V13.5067H65.6096V13.4994H65.6028V13.4927H65.5955V13.4854H65.5888V13.4781H65.5815V13.4708H65.5747V13.4635H65.5674V13.4562H65.5606V13.449H65.5539V13.4417H65.5466V13.4344H65.5393V13.4265H65.5325V13.4192H65.5252V13.4119H65.5179V13.4052H65.5111V13.3979H65.5044V13.3906H65.4971V13.3839H65.4903V13.376H65.483V13.3687H65.4763V13.3614H65.469V13.3542H65.4622V13.3469H65.4549V13.3396H65.4481V13.3323H65.4414V13.325H65.4341V13.3177H65.4273V13.3104H65.42V13.3031H65.4133V13.2958H65.406V13.2891H65.3992V13.2818H65.3925V13.2745H65.3851V13.2672H65.3784V13.2599H65.3705V13.2526H65.366L65.3632 13.238H68.3933L69.7894 14.6971H66.7604Z" fill="#9E7008"/>
<path id="Vector_69" d="M75.5606 9.00385V9.01114H69.799L68.3933 7.55884H74.1561L75.5606 9.00385Z" fill="#9E7008"/>
<path id="Vector_70" d="M75.5539 4.18532H66.7824L65.406 2.76499L65.3559 2.71338H74.1555L75.5539 4.18532Z" fill="#9E7008"/>
<path id="Vector_71" d="M74.1133 8.104L65.3688 8.14103L66.7886 9.5608L75.5331 9.52602L74.1133 8.104Z" fill="#9E7008"/>
<path id="Vector_72" d="M74.1133 5.12598V8.10463L68.3815 8.12819V13.2379H65.3497V5.16019H65.406L74.1133 5.12598Z" fill="#F4B406"/>
</g>
</svg>
