<?xml version="1.0" standalone="no"?> <!DOCTYPE svg PUBLIC "-//W3C//DTD SVG 20010904//EN" "http://www.w3.org/TR/2001/REC-SVG-20010904/DTD/svg10.dtd"> 
<svg version="1.0" xmlns="http://www.w3.org/2000/svg" width="458.000000pt" height="573.000000pt" viewBox="0 0 458.000000 573.000000"  preserveAspectRatio="xMidYMid meet" aria-hidden="true"> 
	<g transform="translate(0.000000,573.000000) scale(0.100000,-0.100000)" fill="#1b3663" stroke="none"> 
		<path d="M2332 5720 c-222 -31 -489 -143 -739 -310 -163 -108 -264 -191 -432 -355 -616 -601 -1047 -1455 -1147 -2275 -22 -184 -15 -541 14 -680 82 -392 282 -646 593 -751 84 -29 109 -33 239 -37 170 -5 264 9 434 66 232 76 530 249 751 435 115 97 405 391 405 411 0 17 -67 79 -150 140 -125 93 -251 136 -397 136 -101 0 -154 -11 -313 -63 -112 -37 -136 -41 -225 -41 -95 -1 -104 1 -176 35 -131 63 -257 212 -308 364 -34 102 -45 221 -31 337 23 200 79 369 204 615 230 453 497 764 759 883 239 108 520 74 676 -82 70 -70 105 -149 146 -329 22 -96 48 -178 70 -225 82 -170 226 -287 441 -360 57 -19 79 -22 84 -13 14 21 89 341 109 459 46 271 52 582 16 785 -80 455 -293 726 -652 830 -99 29 -264 40 -371 25z"/> 
		<path d="M3340 5363 c0 -6 25 -74 54 -150 263 -666 88 -1634 -456 -2535 -191 -316 -354 -525 -602 -774 -295 -294 -641 -530 -926 -631 -44 -15 -80 -32 -80 -36 0 -4 438 -6 973 -4 861 3 980 5 1039 20 346 85 574 252 791 582 197 299 353 605 402 788 14 50 30 142 37 203 19 187 -14 399 -91 567 -23 52 -1086 1900 -1128 1962 -7 11 -13 14 -13 8z"/> 
		<path d="M882 713 l3 -318 38 -79 c48 -100 127 -180 229 -230 102 -50 185 -66 361 -66 l147 0 0 94 0 94 -167 4 c-164 3 -169 4 -235 35 -78 37 -142 97 -171 162 -19 41 -22 68 -25 239 l-4 192 291 0 291 0 0 95 0 95 -381 0 -380 0 3 -317z"/> 
		<path d="M1740 750 c0 -298 6 -350 48 -440 37 -78 149 -187 234 -228 97 -48 179 -62 356 -62 l152 0 0 95 0 95 -149 0 c-172 0 -250 18 -323 73 -47 36 -108 111 -108 133 0 12 45 14 280 14 l280 0 0 95 0 95 -290 0 -290 0 0 110 0 110 290 0 290 0 0 95 0 95 -385 0 -385 0 0 -280z"/> 
		<path d="M3510 526 l0 -506 95 0 95 0 0 411 0 412 113 -5 c82 -4 127 -11 169 -27 67 -26 151 -97 179 -152 l19 -39 -225 0 -225 0 0 -95 0 -95 235 0 235 0 0 -205 0 -205 90 0 90 0 0 294 c0 261 -2 301 -19 355 -49 157 -180 279 -361 336 -42 13 -105 19 -272 22 l-218 5 0 -506z"/> 
		<path d="M2642 713 c4 -296 5 -310 27 -368 47 -119 129 -210 241 -269 105 -56 161 -66 352 -66 l168 0 0 90 0 90 -132 0 c-212 0 -301 30 -392 131 -71 79 -76 106 -76 426 l0 273 -96 0 -96 0 4 -307z"/> 
	</g> 
</svg>