<svg width="25" height="27" viewBox="0 0 25 27" fill="none" xmlns="http://www.w3.org/2000/svg">
<path d="M16.5664 9.54196C15.8184 9.19044 15.0165 8.93062 14.178 8.78288C14.1705 8.78138 14.1628 8.78234 14.1559 8.78563C14.149 8.78892 14.1432 8.79436 14.1394 8.80122C14.0367 8.9892 13.9223 9.23425 13.8421 9.42784C12.9528 9.28939 12.0487 9.28939 11.1593 9.42784C11.07 9.21329 10.9693 9.00409 10.8577 8.80122C10.8539 8.79428 10.8482 8.78871 10.8412 8.78525C10.8343 8.78179 10.8266 8.78061 10.819 8.78186C9.98101 8.9296 9.17916 9.18942 8.4306 9.54145C8.42416 9.54426 8.4187 9.54906 8.41496 9.55521C6.8934 11.886 6.47635 14.1591 6.68121 16.4038C6.68178 16.4093 6.68342 16.4146 6.68602 16.4194C6.68863 16.4242 6.69215 16.4284 6.69636 16.4318C7.58446 17.1055 8.575 17.6187 9.62653 17.95C9.63386 17.9523 9.6417 17.9523 9.64903 17.9499C9.65635 17.9476 9.66283 17.943 9.6676 17.9367C9.89388 17.6214 10.0944 17.2869 10.267 16.9367C10.2694 16.9319 10.2708 16.9266 10.2711 16.9212C10.2714 16.9158 10.2705 16.9104 10.2686 16.9054C10.2667 16.9004 10.2638 16.8958 10.2601 16.8921C10.2563 16.8883 10.2519 16.8855 10.247 16.8837C9.93114 16.7597 9.62511 16.6102 9.3317 16.4364C9.32643 16.4332 9.32199 16.4288 9.31878 16.4234C9.31556 16.4181 9.31368 16.412 9.31329 16.4056C9.3129 16.3993 9.31402 16.393 9.31655 16.3873C9.31909 16.3815 9.32295 16.3765 9.32779 16.3727C9.3894 16.3253 9.451 16.2759 9.50968 16.2265C9.51496 16.222 9.52132 16.2192 9.52805 16.2183C9.53479 16.2174 9.54163 16.2185 9.54781 16.2214C11.4678 17.1201 13.5473 17.1201 15.4448 16.2214C15.451 16.2183 15.4579 16.2171 15.4648 16.2179C15.4716 16.2187 15.4781 16.2215 15.4834 16.226C15.5421 16.2759 15.6032 16.3253 15.6653 16.3727C15.6702 16.3764 15.6741 16.3814 15.6768 16.3871C15.6794 16.3928 15.6806 16.3991 15.6803 16.4054C15.68 16.4117 15.6782 16.4178 15.6751 16.4232C15.672 16.4286 15.6676 16.4332 15.6624 16.4364C15.37 16.6116 15.0659 16.7599 14.7466 16.8832C14.7417 16.885 14.7373 16.8879 14.7335 16.8917C14.7298 16.8955 14.7269 16.9001 14.725 16.9052C14.7231 16.9103 14.7222 16.9157 14.7225 16.9211C14.7228 16.9265 14.7242 16.9318 14.7266 16.9367C14.9026 17.2867 15.104 17.6198 15.3255 17.9362C15.3301 17.9427 15.3365 17.9476 15.3439 17.9501C15.3512 17.9527 15.3592 17.9528 15.3666 17.9505C16.4199 17.6202 17.4121 17.1067 18.3012 16.4318C18.3055 16.4286 18.3091 16.4245 18.3118 16.4198C18.3145 16.4151 18.3162 16.4098 18.3168 16.4043C18.5613 13.8091 17.9071 11.5543 16.5816 9.55622C16.5783 9.54973 16.573 9.54467 16.5664 9.54196ZM10.554 15.0369C9.97612 15.0369 9.49941 14.4923 9.49941 13.8244C9.49941 13.156 9.96683 12.6119 10.554 12.6119C11.1456 12.6119 11.6179 13.1606 11.6087 13.8244C11.6087 14.4928 11.1412 15.0369 10.554 15.0369ZM14.4533 15.0369C13.8749 15.0369 13.3986 14.4923 13.3986 13.8244C13.3986 13.156 13.8656 12.6119 14.4533 12.6119C15.0449 12.6119 15.5172 13.1606 15.5079 13.8244C15.5079 14.4928 15.0454 15.0369 14.4533 15.0369Z" fill="black"/>
<rect x="0.5" y="0.650024" width="24" height="25.4333" rx="12" stroke="black"/>
</svg>
