<svg width="26" height="26" viewBox="0 0 26 26" fill="none" xmlns="http://www.w3.org/2000/svg">
<path d="M18.5292 16.793C18.2282 16.1194 17.7914 15.5075 17.2431 14.9915C16.6964 14.4739 16.0489 14.0613 15.3362 13.7764C15.3298 13.7734 15.3234 13.7719 15.317 13.7688C16.3111 13.0905 16.9574 11.9854 16.9574 10.7387C16.9574 8.67337 15.1862 7 13 7C10.8138 7 9.04258 8.67337 9.04258 10.7387C9.04258 11.9854 9.68885 13.0905 10.683 13.7704C10.6766 13.7734 10.6702 13.7749 10.6638 13.7779C9.94896 14.0628 9.30747 14.4714 8.75694 14.993C8.20914 15.5094 7.77238 16.1212 7.47078 16.7945C7.17449 17.4536 7.01469 18.1604 7.00004 18.8764C6.99961 18.8925 7.0026 18.9085 7.00883 18.9235C7.01505 18.9384 7.02439 18.9521 7.03628 18.9636C7.04818 18.9751 7.0624 18.9843 7.0781 18.9905C7.0938 18.9968 7.11066 19 7.1277 19H8.08514C8.15535 19 8.2112 18.9472 8.2128 18.8824C8.24471 17.7186 8.73939 16.6286 9.61385 15.8025C10.5186 14.9477 11.7202 14.4774 13 14.4774C14.2798 14.4774 15.4814 14.9477 16.3861 15.8025C17.2606 16.6286 17.7553 17.7186 17.7872 18.8824C17.7888 18.9487 17.8446 19 17.9149 19H18.8723C18.8893 19 18.9062 18.9968 18.9219 18.9905C18.9376 18.9843 18.9518 18.9751 18.9637 18.9636C18.9756 18.9521 18.9849 18.9384 18.9912 18.9235C18.9974 18.9085 19.0004 18.8925 19 18.8764C18.984 18.1558 18.826 17.4548 18.5292 16.793ZM13 13.3317C12.2676 13.3317 11.5782 13.0618 11.0596 12.5719C10.541 12.0819 10.2553 11.4307 10.2553 10.7387C10.2553 10.0467 10.541 9.39548 11.0596 8.90553C11.5782 8.41558 12.2676 8.14573 13 8.14573C13.7324 8.14573 14.4218 8.41558 14.9404 8.90553C15.459 9.39548 15.7447 10.0467 15.7447 10.7387C15.7447 11.4307 15.459 12.0819 14.9404 12.5719C14.4218 13.0618 13.7324 13.3317 13 13.3317Z" fill="black"/>
<rect x="0.5" y="0.5" width="25" height="25" rx="12.5" stroke="black"/>
</svg>
