<svg width="14" height="8" viewBox="0 0 14 8" fill="none" xmlns="http://www.w3.org/2000/svg">
<path fill-rule="evenodd" clip-rule="evenodd" d="M0.875 4.00006C0.875 3.88403 0.921094 3.77275 1.00314 3.69071C1.08519 3.60866 1.19647 3.56256 1.3125 3.56256H11.6314L8.87775 0.809814C8.7956 0.727664 8.74945 0.616243 8.74945 0.500064C8.74945 0.383886 8.7956 0.272465 8.87775 0.190314C8.9599 0.108163 9.07132 0.0620117 9.1875 0.0620117C9.30368 0.0620117 9.4151 0.108163 9.49725 0.190314L12.9972 3.69031C13.038 3.73095 13.0703 3.77923 13.0924 3.83239C13.1144 3.88554 13.1258 3.94252 13.1258 4.00006C13.1258 4.05761 13.1144 4.11459 13.0924 4.16774C13.0703 4.2209 13.038 4.26917 12.9972 4.30981L9.49725 7.80981C9.4151 7.89196 9.30368 7.93812 9.1875 7.93812C9.07132 7.93812 8.9599 7.89196 8.87775 7.80981C8.7956 7.72766 8.74945 7.61624 8.74945 7.50006C8.74945 7.38389 8.7956 7.27246 8.87775 7.19031L11.6314 4.43756H1.3125C1.19647 4.43756 1.08519 4.39147 1.00314 4.30942C0.921094 4.22738 0.875 4.1161 0.875 4.00006Z" fill="#373737"/>
</svg>
