<svg width="14" height="8" viewBox="0 0 14 8" fill="none" xmlns="http://www.w3.org/2000/svg">
<path fill-rule="evenodd" clip-rule="evenodd" d="M13.125 4.00006C13.125 3.88403 13.0789 3.77275 12.9969 3.69071C12.9148 3.60866 12.8035 3.56256 12.6875 3.56256H2.36862L5.12225 0.809814C5.2044 0.727664 5.25055 0.616243 5.25055 0.500064C5.25055 0.383886 5.2044 0.272465 5.12225 0.190314C5.0401 0.108163 4.92868 0.0620117 4.8125 0.0620117C4.69632 0.0620117 4.5849 0.108163 4.50275 0.190314L1.00275 3.69031C0.962008 3.73095 0.929683 3.77923 0.907627 3.83239C0.885571 3.88554 0.874218 3.94252 0.874218 4.00006C0.874218 4.05761 0.885571 4.11459 0.907627 4.16774C0.929683 4.2209 0.962008 4.26917 1.00275 4.30981L4.50275 7.80981C4.5849 7.89196 4.69632 7.93812 4.8125 7.93812C4.92868 7.93812 5.0401 7.89196 5.12225 7.80981C5.2044 7.72766 5.25055 7.61624 5.25055 7.50006C5.25055 7.38389 5.2044 7.27246 5.12225 7.19031L2.36862 4.43756H12.6875C12.8035 4.43756 12.9148 4.39147 12.9969 4.30942C13.0789 4.22738 13.125 4.1161 13.125 4.00006Z" fill="#373737"/>
</svg>
