<svg width="41" height="41" viewBox="0 0 41 41" fill="none" xmlns="http://www.w3.org/2000/svg">
<path fill-rule="evenodd" clip-rule="evenodd" d="M14.875 20.5C14.875 20.3923 14.9211 20.2889 15.0031 20.2128C15.0852 20.1366 15.1965 20.0938 15.3125 20.0938H25.6314L22.8778 17.5376C22.7956 17.4614 22.7494 17.3579 22.7494 17.25C22.7494 17.1421 22.7956 17.0387 22.8778 16.9624C22.9599 16.8861 23.0713 16.8433 23.1875 16.8433C23.3037 16.8433 23.4151 16.8861 23.4972 16.9624L26.9972 20.2124C27.038 20.2501 27.0703 20.295 27.0924 20.3443C27.1144 20.3937 27.1258 20.4466 27.1258 20.5C27.1258 20.5535 27.1144 20.6064 27.0924 20.6557C27.0703 20.7051 27.038 20.7499 26.9972 20.7876L23.4972 24.0376C23.4151 24.1139 23.3037 24.1568 23.1875 24.1568C23.0713 24.1568 22.9599 24.1139 22.8778 24.0376C22.7956 23.9614 22.7494 23.8579 22.7494 23.75C22.7494 23.6421 22.7956 23.5387 22.8778 23.4624L25.6314 20.9063H15.3125C15.1965 20.9063 15.0852 20.8635 15.0031 20.7873C14.9211 20.7111 14.875 20.6078 14.875 20.5Z" fill="black"/>
<rect x="0.5" y="0.5" width="40" height="40" rx="20" stroke="black"/>
</svg>
