<svg width="15" height="13" viewBox="0 0 15 13" fill="none" xmlns="http://www.w3.org/2000/svg">
<path d="M2.8125 3.21875H12.1875C12.6848 3.21875 13.1617 3.41629 13.5133 3.76792C13.865 4.11956 14.0625 4.59647 14.0625 5.09375V7.90625C14.0625 8.40353 13.865 8.88044 13.5133 9.23207C13.1617 9.58371 12.6848 9.78125 12.1875 9.78125H2.8125C2.31522 9.78125 1.83831 9.58371 1.48667 9.23207C1.13504 8.88044 0.9375 8.40353 0.9375 7.90625V5.09375C0.9375 4.59647 1.13504 4.11956 1.48667 3.76792C1.83831 3.41629 2.31522 3.21875 2.8125 3.21875V3.21875ZM2.8125 4.15625C2.56386 4.15625 2.3254 4.25502 2.14959 4.43084C1.97377 4.60665 1.875 4.84511 1.875 5.09375V7.90625C1.875 8.15489 1.97377 8.39335 2.14959 8.56916C2.3254 8.74498 2.56386 8.84375 2.8125 8.84375H12.1875C12.4361 8.84375 12.6746 8.74498 12.8504 8.56916C13.0262 8.39335 13.125 8.15489 13.125 7.90625V5.09375C13.125 4.84511 13.0262 4.60665 12.8504 4.43084C12.6746 4.25502 12.4361 4.15625 12.1875 4.15625H2.8125ZM0.9375 0.875C0.9375 0.75068 0.986886 0.631451 1.07479 0.543544C1.1627 0.455636 1.28193 0.40625 1.40625 0.40625H13.5938C13.7181 0.40625 13.8373 0.455636 13.9252 0.543544C14.0131 0.631451 14.0625 0.75068 14.0625 0.875C14.0625 0.99932 14.0131 1.11855 13.9252 1.20646C13.8373 1.29436 13.7181 1.34375 13.5938 1.34375H1.40625C1.28193 1.34375 1.1627 1.29436 1.07479 1.20646C0.986886 1.11855 0.9375 0.99932 0.9375 0.875V0.875ZM0.9375 12.125C0.9375 12.0007 0.986886 11.8815 1.07479 11.7935C1.1627 11.7056 1.28193 11.6562 1.40625 11.6562H13.5938C13.7181 11.6562 13.8373 11.7056 13.9252 11.7935C14.0131 11.8815 14.0625 12.0007 14.0625 12.125C14.0625 12.2493 14.0131 12.3685 13.9252 12.4565C13.8373 12.5444 13.7181 12.5938 13.5938 12.5938H1.40625C1.28193 12.5938 1.1627 12.5444 1.07479 12.4565C0.986886 12.3685 0.9375 12.2493 0.9375 12.125V12.125Z" fill="#373737"/>
</svg>
