<svg width="15" height="15" viewBox="0 0 15 15" fill="none" xmlns="http://www.w3.org/2000/svg">
<path d="M2.8125 0H12.1875C12.6848 0 13.1617 0.197544 13.5133 0.549175C13.865 0.900806 14.0625 1.37772 14.0625 1.875V4.6875C14.0625 5.18478 13.865 5.66169 13.5133 6.01333C13.1617 6.36496 12.6848 6.5625 12.1875 6.5625H2.8125C2.31522 6.5625 1.83831 6.36496 1.48667 6.01333C1.13504 5.66169 0.9375 5.18478 0.9375 4.6875V1.875C0.9375 1.37772 1.13504 0.900806 1.48667 0.549175C1.83831 0.197544 2.31522 0 2.8125 0V0ZM2.8125 0.9375C2.56386 0.9375 2.3254 1.03627 2.14959 1.21209C1.97377 1.3879 1.875 1.62636 1.875 1.875V4.6875C1.875 4.93614 1.97377 5.1746 2.14959 5.35041C2.3254 5.52623 2.56386 5.625 2.8125 5.625H12.1875C12.4361 5.625 12.6746 5.52623 12.8504 5.35041C13.0262 5.1746 13.125 4.93614 13.125 4.6875V1.875C13.125 1.62636 13.0262 1.3879 12.8504 1.21209C12.6746 1.03627 12.4361 0.9375 12.1875 0.9375H2.8125ZM2.8125 8.4375H12.1875C12.6848 8.4375 13.1617 8.63504 13.5133 8.98668C13.865 9.33831 14.0625 9.81522 14.0625 10.3125V13.125C14.0625 13.6223 13.865 14.0992 13.5133 14.4508C13.1617 14.8025 12.6848 15 12.1875 15H2.8125C2.31522 15 1.83831 14.8025 1.48667 14.4508C1.13504 14.0992 0.9375 13.6223 0.9375 13.125V10.3125C0.9375 9.81522 1.13504 9.33831 1.48667 8.98668C1.83831 8.63504 2.31522 8.4375 2.8125 8.4375ZM2.8125 9.375C2.56386 9.375 2.3254 9.47377 2.14959 9.64959C1.97377 9.8254 1.875 10.0639 1.875 10.3125V13.125C1.875 13.3736 1.97377 13.6121 2.14959 13.7879C2.3254 13.9637 2.56386 14.0625 2.8125 14.0625H12.1875C12.4361 14.0625 12.6746 13.9637 12.8504 13.7879C13.0262 13.6121 13.125 13.3736 13.125 13.125V10.3125C13.125 10.0639 13.0262 9.8254 12.8504 9.64959C12.6746 9.47377 12.4361 9.375 12.1875 9.375H2.8125Z" fill="#373737"/>
</svg>
