<svg width="22" height="31" viewBox="0 0 22 31" fill="none" xmlns="http://www.w3.org/2000/svg">
<path d="M4.20017 20.6572C3.24958 19.9571 2.46119 18.8567 1.88632 17.4195C1.40385 16.2123 1.10615 14.8654 0.993225 13.4775C1.54551 13.6151 2.12038 13.7403 2.71988 13.8512C2.81227 13.8676 2.90671 13.8861 3.00115 13.9025C3.03606 16.3293 3.43436 18.6513 4.20017 20.6572Z" fill="#fff"/>
<path d="M6.46078 0.873413C5.82022 1.8897 5.2474 3.02301 4.75877 4.25692C3.66857 7.00396 3.08755 9.98506 3.00748 12.8594C2.97463 12.8532 2.94177 12.8471 2.90892 12.8409C2.50241 12.765 2.10411 12.6828 1.72018 12.5945C1.25824 12.4878 0.931793 12.069 0.95027 11.5947C1.02213 9.57444 1.4697 7.56446 2.28273 5.85628C3.55154 3.17904 5.05236 1.68644 6.46078 0.873413Z" fill="#fff"/>
<path d="M16.4491 14.3334L16.4696 14.3457L16.4491 14.3355L15.8331 15.4051C14.8209 17.1708 13.4946 18.6408 11.9959 19.6551C9.64509 21.2483 7.84657 21.5973 6.57776 21.4987C5.9762 21.4515 5.46498 21.0614 5.24324 20.5009C4.49797 18.6224 4.09967 16.403 4.04834 14.0706C5.84891 14.3355 7.67206 14.4628 9.43156 14.4628C12.117 14.4628 14.6608 14.1671 16.7673 13.6128C16.6687 13.853 16.562 14.0932 16.4491 14.3334Z" fill="#fff"/>
<path d="M16.0709 12.7321C12.7367 13.5184 8.2938 13.6704 4.05005 13.0319C4.07879 11.6234 4.23278 10.1863 4.50994 8.77168C4.88155 6.87462 5.37019 5.55242 5.71306 4.63469C7.03936 1.09104 8.01458 0.565447 8.33281 0.417624C8.68389 0.253377 9.27724 0.0603855 9.97529 0.00700499C9.97529 0.00700499 10.8417 -0.0586941 11.8231 0.212315C13.1371 0.575713 14.9787 1.66796 16.1674 3.19957C18.278 5.91377 17.9044 9.44099 17.5122 11.2559C17.3521 11.9827 16.7957 12.5617 16.0709 12.7321Z" fill="#fff"/>
<path d="M21.9409 26.0464C20.7727 26.9703 16.2477 30.325 9.76812 29.9822C4.85506 29.7235 1.41817 27.4774 0.059021 26.4734L6.21421 24.1206L6.12798 22.4658C7.51587 22.6608 9.69626 22.435 12.5644 20.4928C13.6197 19.7783 14.6196 18.8318 15.4839 17.7334L15.2335 23.48L21.9409 26.0464Z" fill="#fff"/>
</svg>
