<svg width="30" height="23" viewBox="0 0 30 23" fill="none" xmlns="http://www.w3.org/2000/svg">
<path d="M29.362 8.04503C28.843 8.68662 28.324 9.32972 27.8049 9.97131L22.2879 9.83663L19.0527 11.8098L13.2618 14.9724L11.3839 15.9983L11.7138 16.6823L12.9047 16.1284L17.2641 13.7588C14.2771 17.625 11.6336 20.0143 9.72397 21.1234C8.17599 22.0253 6.96394 22.4172 6.28906 22.5836C6.29814 22.5731 6.30419 22.5594 6.31327 22.5488C5.68228 22.6911 2.23223 23.4219 1.02169 21.8271C-0.780508 19.4514 4.11614 14.1991 4.55647 13.727C5.57484 12.636 6.7869 12.4575 6.81716 12.4544C6.84137 12.4529 6.86861 12.4529 6.89433 12.4529C6.92459 12.4529 6.95486 12.4529 6.98512 12.4544C8.21836 12.4877 9.62562 13.4773 10.2627 14.7938L13.0227 13.4667C12.4734 12.12 11.1116 11.0638 9.8647 10.9201C13.6613 9.14663 17.0145 8.21148 17.0735 8.19635L17.3065 8.1328L18.2916 2.21324L20.9321 0.75V6.27159L23.9736 6.91317L24.8285 7.09324L25.1932 7.17042L29.362 8.04503Z" fill="white"/>
</svg>
