<svg xmlns="http://www.w3.org/2000/svg"> 
	<symbol id="twitter" width="25" height="25" viewBox="0 0 25 25" fill="none">
		<path d="M19.1797 9.69335C18.7864 9.86465 18.3639 9.98039 17.9197 10.0327C18.378 9.76316 18.7209 9.33894 18.8843 8.83919C18.4538 9.09057 17.9825 9.26752 17.4911 9.36233C17.1606 9.01551 16.7229 8.78563 16.2459 8.70839C15.7689 8.63114 15.2792 8.71085 14.853 8.93514C14.4268 9.15942 14.0879 9.51574 13.8888 9.94877C13.6898 10.3818 13.6417 10.8673 13.7522 11.3299C12.8797 11.2869 12.0262 11.064 11.247 10.6757C10.4679 10.2875 9.7805 9.7425 9.22949 9.07622C9.04109 9.39567 8.93275 9.76604 8.93275 10.1605C8.93254 10.5156 9.02151 10.8652 9.19175 11.1784C9.362 11.4916 9.60826 11.7586 9.90869 11.9559C9.56027 11.945 9.21954 11.8524 8.91485 11.6859V11.7137C8.91482 12.2118 9.09009 12.6945 9.41092 13.0799C9.73175 13.4654 10.1784 13.7299 10.675 13.8285C10.3518 13.9145 10.0129 13.9272 9.68402 13.8656C9.82415 14.2941 10.0971 14.6688 10.4647 14.9373C10.8322 15.2058 11.276 15.3545 11.7339 15.3628C10.9566 15.9625 9.99672 16.2878 9.00859 16.2864C8.83355 16.2865 8.65866 16.2764 8.48482 16.2563C9.48783 16.8902 10.6554 17.2266 11.8479 17.2253C15.8845 17.2253 18.0912 13.9392 18.0912 11.0892C18.0912 10.9966 18.0888 10.9031 18.0846 10.8105C18.5138 10.5054 18.8843 10.1276 19.1787 9.69474L19.1797 9.69335Z" />
		<rect x="1.47826" y="0.5" width="23.0217" height="24" rx="11.5109" />
	</symbol> 
	<symbol id="twitter-blue" width="17" height="14" viewBox="0 0 17 14" fill="none">
		<path d="M16.9992 1.7049C16.3627 1.98937 15.6875 2.1761 14.9962 2.25887C15.7163 1.82346 16.2692 1.13398 16.5296 0.312468C15.845 0.722276 15.096 1.01101 14.3151 1.1662C13.6789 0.482477 12.7726 0.0551758 11.7695 0.0551758C9.84349 0.0551758 8.28197 1.63041 8.28197 3.57326C8.28197 3.84904 8.31284 4.11752 8.37227 4.37508C5.47392 4.22831 2.90425 2.82771 1.18416 0.699176C0.884038 1.21878 0.712062 1.82319 0.712062 2.46786C0.712062 3.68848 1.32779 4.76527 2.26349 5.39621C1.70969 5.37871 1.16806 5.22781 0.683843 4.95611C0.683643 4.97085 0.683643 4.98559 0.683643 5.00039C0.683643 6.70498 1.88574 8.12695 3.48107 8.45015C2.96752 8.59105 2.42885 8.61167 1.9062 8.51044C2.34995 9.90816 3.6379 10.9253 5.1639 10.9537C3.97037 11.8973 2.46661 12.4598 0.832777 12.4598C0.551242 12.4598 0.273691 12.4431 0.000854492 12.4106C1.54418 13.4088 3.37728 13.9913 5.3467 13.9913C11.7614 13.9913 15.2691 8.63034 15.2691 3.98127C15.2691 3.82868 15.2658 3.67696 15.259 3.5261C15.9417 3.02819 16.531 2.41147 16.9992 1.7049Z" fill="#55ACEE"/>
	</symbol>
	<symbol id="discord" viewBox="0 0 26 26" fill="none" width="26" height="26">
		<path d="M16.5664 9.54196C15.8184 9.19044 15.0165 8.93062 14.178 8.78288C14.1705 8.78138 14.1628 8.78234 14.1559 8.78563C14.149 8.78892 14.1432 8.79436 14.1394 8.80122C14.0367 8.9892 13.9223 9.23425 13.8421 9.42784C12.9528 9.28939 12.0487 9.28939 11.1593 9.42784C11.07 9.21329 10.9693 9.00409 10.8577 8.80122C10.8539 8.79428 10.8482 8.78871 10.8412 8.78525C10.8343 8.78179 10.8266 8.78061 10.819 8.78186C9.98101 8.9296 9.17916 9.18942 8.4306 9.54145C8.42416 9.54426 8.4187 9.54906 8.41496 9.55521C6.8934 11.886 6.47635 14.1591 6.68121 16.4038C6.68178 16.4093 6.68342 16.4146 6.68602 16.4194C6.68863 16.4242 6.69215 16.4284 6.69636 16.4318C7.58446 17.1055 8.575 17.6187 9.62653 17.95C9.63386 17.9523 9.6417 17.9523 9.64903 17.9499C9.65635 17.9476 9.66283 17.943 9.6676 17.9367C9.89388 17.6214 10.0944 17.2869 10.267 16.9367C10.2694 16.9319 10.2708 16.9266 10.2711 16.9212C10.2714 16.9158 10.2705 16.9104 10.2686 16.9054C10.2667 16.9004 10.2638 16.8958 10.2601 16.8921C10.2563 16.8883 10.2519 16.8855 10.247 16.8837C9.93114 16.7597 9.62511 16.6102 9.3317 16.4364C9.32643 16.4332 9.32199 16.4288 9.31878 16.4234C9.31556 16.4181 9.31368 16.412 9.31329 16.4056C9.3129 16.3993 9.31402 16.393 9.31655 16.3873C9.31909 16.3815 9.32295 16.3765 9.32779 16.3727C9.3894 16.3253 9.451 16.2759 9.50968 16.2265C9.51496 16.222 9.52132 16.2192 9.52805 16.2183C9.53479 16.2174 9.54163 16.2185 9.54781 16.2214C11.4678 17.1201 13.5473 17.1201 15.4448 16.2214C15.451 16.2183 15.4579 16.2171 15.4648 16.2179C15.4716 16.2187 15.4781 16.2215 15.4834 16.226C15.5421 16.2759 15.6032 16.3253 15.6653 16.3727C15.6702 16.3764 15.6741 16.3814 15.6768 16.3871C15.6794 16.3928 15.6806 16.3991 15.6803 16.4054C15.68 16.4117 15.6782 16.4178 15.6751 16.4232C15.672 16.4286 15.6676 16.4332 15.6624 16.4364C15.37 16.6116 15.0659 16.7599 14.7466 16.8832C14.7417 16.885 14.7373 16.8879 14.7335 16.8917C14.7298 16.8955 14.7269 16.9001 14.725 16.9052C14.7231 16.9103 14.7222 16.9157 14.7225 16.9211C14.7228 16.9265 14.7242 16.9318 14.7266 16.9367C14.9026 17.2867 15.104 17.6198 15.3255 17.9362C15.3301 17.9427 15.3365 17.9476 15.3439 17.9501C15.3512 17.9527 15.3592 17.9528 15.3666 17.9505C16.4199 17.6202 17.4121 17.1067 18.3012 16.4318C18.3055 16.4286 18.3091 16.4245 18.3118 16.4198C18.3145 16.4151 18.3162 16.4098 18.3168 16.4043C18.5613 13.8091 17.9071 11.5543 16.5816 9.55622C16.5783 9.54973 16.573 9.54467 16.5664 9.54196ZM10.554 15.0369C9.97612 15.0369 9.49941 14.4923 9.49941 13.8244C9.49941 13.156 9.96683 12.6119 10.554 12.6119C11.1456 12.6119 11.6179 13.1606 11.6087 13.8244C11.6087 14.4928 11.1412 15.0369 10.554 15.0369ZM14.4533 15.0369C13.8749 15.0369 13.3986 14.4923 13.3986 13.8244C13.3986 13.156 13.8656 12.6119 14.4533 12.6119C15.0449 12.6119 15.5172 13.1606 15.5079 13.8244C15.5079 14.4928 15.0454 15.0369 14.4533 15.0369Z"  />
		<rect x="0.5" y="0.5" width="24" height="24" rx="12.5"  />
	</symbol>
	<symbol id="discord-blue" width="20" height="16" viewBox="0 0 20 16" fill="none">
		<path d="M16.9414 1.33443C15.6299 0.702852 14.2423 0.254086 12.8155 0C12.6378 0.330693 12.4302 0.775477 12.287 1.12933C10.7486 0.891256 9.22439 0.891256 7.71431 1.12933C7.57119 0.775558 7.35886 0.330693 7.1795 0C5.75129 0.254203 4.36258 0.704112 3.05042 1.33773C0.439305 5.39875 -0.268548 9.35879 0.0853392 13.2628C1.8172 14.5938 3.49555 15.4025 5.14562 15.9316C5.5557 15.3512 5.91821 14.7367 6.22939 14.0945C5.63694 13.8623 5.0658 13.5763 4.52276 13.2396C4.66567 13.1306 4.80521 13.017 4.94118 12.899C8.23178 14.4831 11.8072 14.4831 15.0586 12.899C15.1952 13.0162 15.3347 13.1298 15.4769 13.2396C14.933 13.5771 14.3608 13.8638 13.7672 14.0962C14.0801 14.741 14.442 15.3561 14.851 15.9332C16.5026 15.4041 18.1825 14.5955 19.9144 13.2628C20.3297 8.73713 19.205 4.81335 16.9414 1.33435V1.33443ZM6.67773 10.8619C5.68989 10.8619 4.87977 9.91276 4.87977 8.75698C4.87977 7.60121 5.67262 6.65045 6.67773 6.65045C7.68291 6.65045 8.49294 7.59952 8.47568 8.75698C8.47724 9.91276 7.68291 10.8619 6.67773 10.8619ZM13.322 10.8619C12.3341 10.8619 11.5241 9.91276 11.5241 8.75698C11.5241 7.60121 12.3169 6.65045 13.322 6.65045C14.3272 6.65045 15.1372 7.59952 15.1199 8.75698C15.1199 9.91276 14.3272 10.8619 13.322 10.8619Z" fill="#5865F2"/>
	</symbol>
	<symbol id="user" viewBox="0 0 26 26" fill="none" width="26" height="26">
		<path d="M18.5292 16.793C18.2282 16.1194 17.7914 15.5075 17.2431 14.9915C16.6964 14.4739 16.0489 14.0613 15.3362 13.7764C15.3298 13.7734 15.3234 13.7719 15.317 13.7688C16.3111 13.0905 16.9574 11.9854 16.9574 10.7387C16.9574 8.67337 15.1862 7 13 7C10.8138 7 9.04258 8.67337 9.04258 10.7387C9.04258 11.9854 9.68885 13.0905 10.683 13.7704C10.6766 13.7734 10.6702 13.7749 10.6638 13.7779C9.94896 14.0628 9.30747 14.4714 8.75694 14.993C8.20914 15.5094 7.77238 16.1212 7.47078 16.7945C7.17449 17.4536 7.01469 18.1604 7.00004 18.8764C6.99961 18.8925 7.0026 18.9085 7.00883 18.9235C7.01505 18.9384 7.02439 18.9521 7.03628 18.9636C7.04818 18.9751 7.0624 18.9843 7.0781 18.9905C7.0938 18.9968 7.11066 19 7.1277 19H8.08514C8.15535 19 8.2112 18.9472 8.2128 18.8824C8.24471 17.7186 8.73939 16.6286 9.61385 15.8025C10.5186 14.9477 11.7202 14.4774 13 14.4774C14.2798 14.4774 15.4814 14.9477 16.3861 15.8025C17.2606 16.6286 17.7553 17.7186 17.7872 18.8824C17.7888 18.9487 17.8446 19 17.9149 19H18.8723C18.8893 19 18.9062 18.9968 18.9219 18.9905C18.9376 18.9843 18.9518 18.9751 18.9637 18.9636C18.9756 18.9521 18.9849 18.9384 18.9912 18.9235C18.9974 18.9085 19.0004 18.8925 19 18.8764C18.984 18.1558 18.826 17.4548 18.5292 16.793ZM13 13.3317C12.2676 13.3317 11.5782 13.0618 11.0596 12.5719C10.541 12.0819 10.2553 11.4307 10.2553 10.7387C10.2553 10.0467 10.541 9.39548 11.0596 8.90553C11.5782 8.41558 12.2676 8.14573 13 8.14573C13.7324 8.14573 14.4218 8.41558 14.9404 8.90553C15.459 9.39548 15.7447 10.0467 15.7447 10.7387C15.7447 11.4307 15.459 12.0819 14.9404 12.5719C14.4218 13.0618 13.7324 13.3317 13 13.3317Z" />
		<rect x="0.5" y="0.5" width="24" height="24" rx="12.5"  />
	</symbol>
	<symbol id="bi-arrow-left" width="14" height="8" viewBox="0 0 14 8" fill="none">
		<path fill-rule="evenodd" clip-rule="evenodd" d="M13.125 4.00006C13.125 3.88403 13.0789 3.77275 12.9969 3.69071C12.9148 3.60866 12.8035 3.56256 12.6875 3.56256H2.36862L5.12225 0.809814C5.2044 0.727664 5.25055 0.616243 5.25055 0.500064C5.25055 0.383886 5.2044 0.272465 5.12225 0.190314C5.0401 0.108163 4.92868 0.0620117 4.8125 0.0620117C4.69632 0.0620117 4.5849 0.108163 4.50275 0.190314L1.00275 3.69031C0.962008 3.73095 0.929683 3.77923 0.907627 3.83239C0.885571 3.88554 0.874218 3.94252 0.874218 4.00006C0.874218 4.05761 0.885571 4.11459 0.907627 4.16774C0.929683 4.2209 0.962008 4.26917 1.00275 4.30981L4.50275 7.80981C4.5849 7.89196 4.69632 7.93812 4.8125 7.93812C4.92868 7.93812 5.0401 7.89196 5.12225 7.80981C5.2044 7.72766 5.25055 7.61624 5.25055 7.50006C5.25055 7.38389 5.2044 7.27246 5.12225 7.19031L2.36862 4.43756H12.6875C12.8035 4.43756 12.9148 4.39147 12.9969 4.30942C13.0789 4.22738 13.125 4.1161 13.125 4.00006Z" fill="#373737"/>
	</symbol>
	<symbol id="bi-arrow-right" width="14" height="8" viewBox="0 0 14 8" fill="none">
		<path fill-rule="evenodd" clip-rule="evenodd" d="M0.875 4.00006C0.875 3.88403 0.921094 3.77275 1.00314 3.69071C1.08519 3.60866 1.19647 3.56256 1.3125 3.56256H11.6314L8.87775 0.809814C8.7956 0.727664 8.74945 0.616243 8.74945 0.500064C8.74945 0.383886 8.7956 0.272465 8.87775 0.190314C8.9599 0.108163 9.07132 0.0620117 9.1875 0.0620117C9.30368 0.0620117 9.4151 0.108163 9.49725 0.190314L12.9972 3.69031C13.038 3.73095 13.0703 3.77923 13.0924 3.83239C13.1144 3.88554 13.1258 3.94252 13.1258 4.00006C13.1258 4.05761 13.1144 4.11459 13.0924 4.16774C13.0703 4.2209 13.038 4.26917 12.9972 4.30981L9.49725 7.80981C9.4151 7.89196 9.30368 7.93812 9.1875 7.93812C9.07132 7.93812 8.9599 7.89196 8.87775 7.80981C8.7956 7.72766 8.74945 7.61624 8.74945 7.50006C8.74945 7.38389 8.7956 7.27246 8.87775 7.19031L11.6314 4.43756H1.3125C1.19647 4.43756 1.08519 4.39147 1.00314 4.30942C0.921094 4.22738 0.875 4.1161 0.875 4.00006Z" fill="#373737"/>
	</symbol>
	<symbol id="view-list" width="15" height="13" viewBox="0 0 15 13" fill="none">
		<path d="M2.8125 3.21875H12.1875C12.6848 3.21875 13.1617 3.41629 13.5133 3.76792C13.865 4.11956 14.0625 4.59647 14.0625 5.09375V7.90625C14.0625 8.40353 13.865 8.88044 13.5133 9.23207C13.1617 9.58371 12.6848 9.78125 12.1875 9.78125H2.8125C2.31522 9.78125 1.83831 9.58371 1.48667 9.23207C1.13504 8.88044 0.9375 8.40353 0.9375 7.90625V5.09375C0.9375 4.59647 1.13504 4.11956 1.48667 3.76792C1.83831 3.41629 2.31522 3.21875 2.8125 3.21875V3.21875ZM2.8125 4.15625C2.56386 4.15625 2.3254 4.25502 2.14959 4.43084C1.97377 4.60665 1.875 4.84511 1.875 5.09375V7.90625C1.875 8.15489 1.97377 8.39335 2.14959 8.56916C2.3254 8.74498 2.56386 8.84375 2.8125 8.84375H12.1875C12.4361 8.84375 12.6746 8.74498 12.8504 8.56916C13.0262 8.39335 13.125 8.15489 13.125 7.90625V5.09375C13.125 4.84511 13.0262 4.60665 12.8504 4.43084C12.6746 4.25502 12.4361 4.15625 12.1875 4.15625H2.8125ZM0.9375 0.875C0.9375 0.75068 0.986886 0.631451 1.07479 0.543544C1.1627 0.455636 1.28193 0.40625 1.40625 0.40625H13.5938C13.7181 0.40625 13.8373 0.455636 13.9252 0.543544C14.0131 0.631451 14.0625 0.75068 14.0625 0.875C14.0625 0.99932 14.0131 1.11855 13.9252 1.20646C13.8373 1.29436 13.7181 1.34375 13.5938 1.34375H1.40625C1.28193 1.34375 1.1627 1.29436 1.07479 1.20646C0.986886 1.11855 0.9375 0.99932 0.9375 0.875V0.875ZM0.9375 12.125C0.9375 12.0007 0.986886 11.8815 1.07479 11.7935C1.1627 11.7056 1.28193 11.6562 1.40625 11.6562H13.5938C13.7181 11.6562 13.8373 11.7056 13.9252 11.7935C14.0131 11.8815 14.0625 12.0007 14.0625 12.125C14.0625 12.2493 14.0131 12.3685 13.9252 12.4565C13.8373 12.5444 13.7181 12.5938 13.5938 12.5938H1.40625C1.28193 12.5938 1.1627 12.5444 1.07479 12.4565C0.986886 12.3685 0.9375 12.2493 0.9375 12.125V12.125Z" fill="#373737"/>
	</symbol>
	<symbol id="view-stacked" width="15" height="15" viewBox="0 0 15 15" fill="none" >
		<path d="M2.8125 0H12.1875C12.6848 0 13.1617 0.197544 13.5133 0.549175C13.865 0.900806 14.0625 1.37772 14.0625 1.875V4.6875C14.0625 5.18478 13.865 5.66169 13.5133 6.01333C13.1617 6.36496 12.6848 6.5625 12.1875 6.5625H2.8125C2.31522 6.5625 1.83831 6.36496 1.48667 6.01333C1.13504 5.66169 0.9375 5.18478 0.9375 4.6875V1.875C0.9375 1.37772 1.13504 0.900806 1.48667 0.549175C1.83831 0.197544 2.31522 0 2.8125 0V0ZM2.8125 0.9375C2.56386 0.9375 2.3254 1.03627 2.14959 1.21209C1.97377 1.3879 1.875 1.62636 1.875 1.875V4.6875C1.875 4.93614 1.97377 5.1746 2.14959 5.35041C2.3254 5.52623 2.56386 5.625 2.8125 5.625H12.1875C12.4361 5.625 12.6746 5.52623 12.8504 5.35041C13.0262 5.1746 13.125 4.93614 13.125 4.6875V1.875C13.125 1.62636 13.0262 1.3879 12.8504 1.21209C12.6746 1.03627 12.4361 0.9375 12.1875 0.9375H2.8125ZM2.8125 8.4375H12.1875C12.6848 8.4375 13.1617 8.63504 13.5133 8.98668C13.865 9.33831 14.0625 9.81522 14.0625 10.3125V13.125C14.0625 13.6223 13.865 14.0992 13.5133 14.4508C13.1617 14.8025 12.6848 15 12.1875 15H2.8125C2.31522 15 1.83831 14.8025 1.48667 14.4508C1.13504 14.0992 0.9375 13.6223 0.9375 13.125V10.3125C0.9375 9.81522 1.13504 9.33831 1.48667 8.98668C1.83831 8.63504 2.31522 8.4375 2.8125 8.4375ZM2.8125 9.375C2.56386 9.375 2.3254 9.47377 2.14959 9.64959C1.97377 9.8254 1.875 10.0639 1.875 10.3125V13.125C1.875 13.3736 1.97377 13.6121 2.14959 13.7879C2.3254 13.9637 2.56386 14.0625 2.8125 14.0625H12.1875C12.4361 14.0625 12.6746 13.9637 12.8504 13.7879C13.0262 13.6121 13.125 13.3736 13.125 13.125V10.3125C13.125 10.0639 13.0262 9.8254 12.8504 9.64959C12.6746 9.47377 12.4361 9.375 12.1875 9.375H2.8125Z" fill="#373737"/>
	</symbol>
</svg>