<?xml version="1.0" encoding="UTF-8" standalone="no"?>
<svg
   viewBox="0 0 400 300"
   width="406"
   height="306"
   class="illustration styles_illustrationTablet__1DWOa"
   version="1.1"
   id="svg153"
   sodipodi:docname="3D_Model_Flatline.svg"
   xmlns:inkscape="http://www.inkscape.org/namespaces/inkscape"
   xmlns:sodipodi="http://sodipodi.sourceforge.net/DTD/sodipodi-0.dtd"
   xmlns="http://www.w3.org/2000/svg"
   xmlns:svg="http://www.w3.org/2000/svg">
  <defs
     id="defs157" />
  <sodipodi:namedview
     id="namedview155"
     pagecolor="#ffffff"
     bordercolor="#666666"
     borderopacity="1.0"
     inkscape:showpageshadow="2"
     inkscape:pageopacity="0.0"
     inkscape:pagecheckerboard="0"
     inkscape:deskcolor="#d1d1d1"
     showgrid="false" />
  <g
     id="_471_3d_model_flatline"
     data-name="#471_3d_model_flatline">
    <path
       d="m 101.26,217.38 a 0.59,0.59 0 0 1 -0.26,-0.07 0.51,0.51 0 0 1 -0.24,-0.43 V 101 a 0.52,0.52 0 0 1 0.24,-0.43 l 98.41,-59 a 0.52,0.52 0 0 1 0.51,0 0.48,0.48 0 0 1 0.25,0.43 v 118.42 a 0.5,0.5 0 0 1 -0.25,0.44 l -98.42,56.45 a 0.51,0.51 0 0 1 -0.24,0.07 z m 0.5,-116.09 V 216 l 97.41,-55.87 V 42.84 Z"
       fill="#231f20"
       id="path124" />
    <path
       d="m 300.69,217.38 a 0.55,0.55 0 0 1 -0.25,-0.07 l -101,-56.45 a 0.5,0.5 0 0 1 -0.26,-0.44 V 42 a 0.5,0.5 0 0 1 0.25,-0.43 0.5,0.5 0 0 1 0.5,0 l 101,57.94 a 0.49,0.49 0 0 1 0.25,0.43 v 117 a 0.52,0.52 0 0 1 -0.25,0.43 0.55,0.55 0 0 1 -0.24,0.01 z m -100.52,-57.25 100,55.89 V 100.18 l -100,-57.36 z"
       fill="#231f20"
       id="path128" />
    <path
       d="m 199.67,276.05 a 0.43,0.43 0 0 1 -0.25,-0.07 L 101,217.3 a 0.47,0.47 0 0 1 -0.24,-0.43 0.48,0.48 0 0 1 0.25,-0.43 L 199.42,160 a 0.5,0.5 0 0 1 0.5,0 l 101,56.45 a 0.49,0.49 0 0 1 0.26,0.43 0.52,0.52 0 0 1 -0.25,0.44 L 199.92,276 a 0.51,0.51 0 0 1 -0.25,0.05 z m -97.42,-59.17 97.43,58.12 100,-58.09 -100,-55.91 z"
       fill="#231f20"
       id="path132" />
    <path
       d="m 201,217.38 a 0.59,0.59 0 0 1 -0.25,-0.07 0.52,0.52 0 0 1 -0.25,-0.43 V 158 a 0.5,0.5 0 0 1 0.25,-0.43 L 249.93,129 a 0.5,0.5 0 0 1 0.5,0 0.52,0.52 0 0 1 0.25,0.43 v 59.24 a 0.5,0.5 0 0 1 -0.25,0.43 l -49.21,28.23 a 0.55,0.55 0 0 1 -0.22,0.05 z m 0.5,-59.08 V 216 l 48.21,-27.65 v -58.07 z"
       fill="#231f20"
       id="path136" />
    <path
       d="m 201,217.38 a 0.51,0.51 0 0 1 -0.24,-0.07 l -50.51,-28.22 a 0.51,0.51 0 0 1 -0.26,-0.44 v -59.24 a 0.52,0.52 0 0 1 0.25,-0.43 0.5,0.5 0 0 1 0.5,0 l 50.51,28.6 a 0.47,0.47 0 0 1 0.25,0.43 v 58.87 a 0.5,0.5 0 0 1 -0.25,0.43 0.52,0.52 0 0 1 -0.25,0.07 z m -50,-29 49.47,27.62 v -57.7 l -49.51,-28 z"
       fill="#231f20"
       id="path140" />
    <path
       d="m 201,158.51 a 0.5,0.5 0 0 1 -0.24,-0.06 l -50.51,-28.6 a 0.51,0.51 0 0 1 -0.26,-0.43 0.52,0.52 0 0 1 0.25,-0.44 l 49.21,-28.78 a 0.5,0.5 0 0 1 0.5,0 l 50.48,28.8 a 0.5,0.5 0 0 1 0,0.87 l -49.21,28.59 a 0.43,0.43 0 0 1 -0.22,0.05 z m -49.5,-29.1 49.5,28 48.21,-28 -49.5,-28.21 z"
       fill="#231f20"
       id="path144" />
    <path
       d="m 133.32,236.49 a 0.48,0.48 0 0 1 -0.26,-0.07 L 101,217.3 a 0.5,0.5 0 0 1 -0.24,-0.43 0.48,0.48 0 0 1 0.25,-0.43 l 49.21,-28.22 a 0.48,0.48 0 0 1 0.49,0 l 50.5,28.22 a 0.5,0.5 0 0 1 0.26,0.49 0.51,0.51 0 0 1 -0.36,0.42 l -67.66,19.12 z m -31.08,-19.61 31.15,18.58 66.29,-18.74 -49.21,-27.5 z"
       fill="#231f20"
       id="path148" />
    <path
       d="m 287.26,153.26 a 0.68,0.68 0 0 1 -0.27,-0.07 l -21.77,-12 a 0.54,0.54 0 0 1 -0.29,-0.48 V 103.9 a 0.55,0.55 0 0 1 0.28,-0.48 0.56,0.56 0 0 1 0.56,0 L 287.54,116 a 0.56,0.56 0 0 1 0.28,0.48 v 36.22 a 0.56,0.56 0 0 1 -0.28,0.48 0.54,0.54 0 0 1 -0.28,0.08 z m -21.26,-12.9 20.67,11.4 v -35 L 266,104.86 Z"
       fill="#d1d3d4"
       id="path150" />
  </g>
</svg>
