<svg width="25" height="20" viewBox="0 0 25 20" fill="none" xmlns="http://www.w3.org/2000/svg">
<path d="M24.4281 16.53L19.8176 14.97V9.1L18.9604 8.64L13.3567 5.6V0.82C13.3567 0.37 12.9699 0 12.4995 0C12.029 0 11.6422 0.37 11.6422 0.82V5.59L5.98627 8.61L5.18126 9.04V14.98L0.570807 16.53C0.131716 16.68 -0.108739 17.15 0.0480793 17.57C0.173534 17.91 0.497625 18.12 0.85308 18.12C0.947171 18.12 1.04126 18.1 1.13535 18.07L5.92354 16.45V16.44L11.7049 19.57L12.5099 20L13.294 19.57L19.0649 16.45L23.8635 18.07C23.9576 18.1 24.0517 18.12 24.1458 18.12C24.5013 18.12 24.8254 17.91 24.9508 17.57C25.1076 17.15 24.8776 16.68 24.4281 16.53ZM11.6004 17.65L6.88536 15.1V10.95L11.6004 13.5V17.65ZM12.5099 12.13L7.76354 9.56L12.5099 6.99L17.2563 9.56L12.5099 12.13ZM18.124 15.1L13.409 17.65V13.5L18.124 10.95V15.1Z" fill="#707070"/>
</svg>
