<svg width="134" height="28" viewBox="0 0 134 28" fill="none" xmlns="http://www.w3.org/2000/svg">
<rect x="0.5" y="0.5" width="133" height="27" rx="13.5" fill="#E3FAFF"/>
<path d="M17.02 18V9.48H19.972C20.884 9.48 21.644 9.672 22.252 10.056C22.868 10.432 23.328 10.944 23.632 11.592C23.936 12.232 24.088 12.944 24.088 13.728C24.088 14.592 23.92 15.344 23.584 15.984C23.248 16.624 22.772 17.12 22.156 17.472C21.54 17.824 20.812 18 19.972 18H17.02ZM22.996 13.728C22.996 13.088 22.876 12.52 22.636 12.024C22.404 11.528 22.064 11.14 21.616 10.86C21.168 10.58 20.62 10.44 19.972 10.44H18.1V17.04H19.972C20.628 17.04 21.18 16.896 21.628 16.608C22.076 16.312 22.416 15.916 22.648 15.42C22.88 14.916 22.996 14.352 22.996 13.728ZM28.7538 12.66C28.2258 12.668 27.7578 12.804 27.3498 13.068C26.9498 13.324 26.6658 13.68 26.4978 14.136V18H25.4418V11.736H26.4258V13.188C26.6418 12.756 26.9258 12.408 27.2778 12.144C27.6378 11.872 28.0138 11.72 28.4058 11.688C28.4858 11.688 28.5538 11.688 28.6098 11.688C28.6658 11.688 28.7138 11.692 28.7538 11.7V12.66ZM29.3092 16.188C29.3092 15.788 29.4212 15.444 29.6452 15.156C29.8772 14.86 30.1932 14.632 30.5932 14.472C30.9932 14.312 31.4572 14.232 31.9852 14.232C32.2652 14.232 32.5612 14.256 32.8732 14.304C33.1852 14.344 33.4612 14.408 33.7012 14.496V14.04C33.7012 13.56 33.5572 13.184 33.2692 12.912C32.9812 12.632 32.5732 12.492 32.0452 12.492C31.7012 12.492 31.3692 12.556 31.0492 12.684C30.7372 12.804 30.4052 12.98 30.0532 13.212L29.6692 12.468C30.0772 12.188 30.4852 11.98 30.8932 11.844C31.3012 11.7 31.7252 11.628 32.1652 11.628C32.9652 11.628 33.5972 11.852 34.0612 12.3C34.5252 12.74 34.7572 13.356 34.7572 14.148V16.8C34.7572 16.928 34.7812 17.024 34.8292 17.088C34.8852 17.144 34.9732 17.176 35.0932 17.184V18C34.9892 18.016 34.8972 18.028 34.8172 18.036C34.7452 18.044 34.6852 18.048 34.6372 18.048C34.3892 18.048 34.2012 17.98 34.0732 17.844C33.9532 17.708 33.8852 17.564 33.8692 17.412L33.8452 17.016C33.5732 17.368 33.2172 17.64 32.7772 17.832C32.3372 18.024 31.9012 18.12 31.4692 18.12C31.0532 18.12 30.6812 18.036 30.3532 17.868C30.0252 17.692 29.7692 17.46 29.5852 17.172C29.4012 16.876 29.3092 16.548 29.3092 16.188ZM33.3892 16.632C33.4852 16.52 33.5612 16.408 33.6172 16.296C33.6732 16.176 33.7012 16.076 33.7012 15.996V15.216C33.4532 15.12 33.1932 15.048 32.9212 15C32.6492 14.944 32.3812 14.916 32.1172 14.916C31.5812 14.916 31.1452 15.024 30.8092 15.24C30.4812 15.448 30.3172 15.736 30.3172 16.104C30.3172 16.304 30.3692 16.5 30.4732 16.692C30.5852 16.876 30.7452 17.028 30.9532 17.148C31.1692 17.268 31.4332 17.328 31.7452 17.328C32.0732 17.328 32.3852 17.264 32.6812 17.136C32.9772 17 33.2132 16.832 33.3892 16.632ZM36.7349 18V12.564H35.8829V11.736H36.7349V11.604C36.7349 11.092 36.8109 10.652 36.9629 10.284C37.1229 9.908 37.3469 9.62 37.6349 9.42C37.9229 9.22 38.2629 9.12 38.6549 9.12C38.9029 9.12 39.1469 9.156 39.3869 9.228C39.6269 9.292 39.8429 9.384 40.0349 9.504L39.7709 10.284C39.6589 10.204 39.5189 10.14 39.3509 10.092C39.1909 10.044 39.0309 10.02 38.8709 10.02C38.5269 10.02 38.2589 10.156 38.0669 10.428C37.8829 10.692 37.7909 11.072 37.7909 11.568V11.736H39.4589V12.564H37.7909V18H36.7349ZM43.7522 17.688C43.6642 17.728 43.5442 17.78 43.3922 17.844C43.2402 17.908 43.0642 17.964 42.8642 18.012C42.6642 18.06 42.4522 18.084 42.2282 18.084C41.9722 18.084 41.7362 18.04 41.5202 17.952C41.3042 17.856 41.1322 17.712 41.0042 17.52C40.8762 17.32 40.8122 17.072 40.8122 16.776V12.564H39.9602V11.736H40.8122V9.648H41.8682V11.736H43.2722V12.564H41.8682V16.452C41.8842 16.676 41.9602 16.844 42.0962 16.956C42.2322 17.06 42.3922 17.112 42.5762 17.112C42.7842 17.112 42.9762 17.076 43.1522 17.004C43.3282 16.932 43.4442 16.88 43.5002 16.848L43.7522 17.688ZM47.6821 15.204V14.244H51.2221V15.204H47.6821ZM57.1234 11.472V18H56.0434V9.48H56.9554L62.1634 16.14V9.492H63.2434V18H62.2594L57.1234 11.472ZM67.7403 18.12C67.2683 18.12 66.8403 18.036 66.4563 17.868C66.0723 17.692 65.7403 17.456 65.4603 17.16C65.1803 16.856 64.9643 16.508 64.8123 16.116C64.6603 15.724 64.5843 15.312 64.5843 14.88C64.5843 14.44 64.6603 14.024 64.8123 13.632C64.9643 13.24 65.1803 12.896 65.4603 12.6C65.7403 12.296 66.0723 12.06 66.4563 11.892C66.8483 11.716 67.2803 11.628 67.7523 11.628C68.2163 11.628 68.6403 11.716 69.0243 11.892C69.4083 12.06 69.7403 12.296 70.0203 12.6C70.3083 12.896 70.5283 13.24 70.6803 13.632C70.8323 14.024 70.9083 14.44 70.9083 14.88C70.9083 15.312 70.8323 15.724 70.6803 16.116C70.5283 16.508 70.3123 16.856 70.0323 17.16C69.7523 17.456 69.4163 17.692 69.0243 17.868C68.6403 18.036 68.2123 18.12 67.7403 18.12ZM65.6643 14.892C65.6643 15.324 65.7563 15.716 65.9403 16.068C66.1323 16.42 66.3843 16.7 66.6963 16.908C67.0083 17.108 67.3563 17.208 67.7403 17.208C68.1243 17.208 68.4723 17.104 68.7843 16.896C69.1043 16.688 69.3563 16.408 69.5403 16.056C69.7323 15.696 69.8283 15.3 69.8283 14.868C69.8283 14.436 69.7323 14.044 69.5403 13.692C69.3563 13.34 69.1043 13.06 68.7843 12.852C68.4723 12.644 68.1243 12.54 67.7403 12.54C67.3563 12.54 67.0083 12.648 66.6963 12.864C66.3843 13.072 66.1323 13.352 65.9403 13.704C65.7563 14.056 65.6643 14.452 65.6643 14.892ZM75.3342 17.688C75.2462 17.728 75.1262 17.78 74.9742 17.844C74.8222 17.908 74.6462 17.964 74.4462 18.012C74.2462 18.06 74.0342 18.084 73.8102 18.084C73.5542 18.084 73.3182 18.04 73.1022 17.952C72.8862 17.856 72.7142 17.712 72.5862 17.52C72.4582 17.32 72.3942 17.072 72.3942 16.776V12.564H71.5422V11.736H72.3942V9.648H73.4502V11.736H74.8542V12.564H73.4502V16.452C73.4662 16.676 73.5422 16.844 73.6782 16.956C73.8142 17.06 73.9742 17.112 74.1582 17.112C74.3662 17.112 74.5582 17.076 74.7342 17.004C74.9102 16.932 75.0262 16.88 75.0822 16.848L75.3342 17.688ZM86.8841 18V11.496L84.0761 16.5H83.4161L80.5961 11.496V18H79.5161V9.48H80.6561L83.7401 15.012L86.8361 9.48H87.9641V18H86.8841ZM89.8364 18V11.736H90.8924V18H89.8364ZM89.8364 10.56V9.24H90.8924V10.56H89.8364ZM98.038 18H96.982V14.496C96.982 13.832 96.878 13.348 96.67 13.044C96.47 12.732 96.162 12.576 95.746 12.576C95.458 12.576 95.17 12.648 94.882 12.792C94.602 12.936 94.35 13.132 94.126 13.38C93.91 13.62 93.754 13.9 93.658 14.22V18H92.602V11.736H93.562V13.08C93.73 12.784 93.946 12.528 94.21 12.312C94.474 12.096 94.774 11.928 95.11 11.808C95.446 11.688 95.798 11.628 96.166 11.628C96.526 11.628 96.826 11.696 97.066 11.832C97.314 11.96 97.506 12.144 97.642 12.384C97.786 12.616 97.886 12.892 97.942 13.212C98.006 13.532 98.038 13.88 98.038 14.256V18ZM102.862 17.688C102.774 17.728 102.654 17.78 102.502 17.844C102.35 17.908 102.174 17.964 101.974 18.012C101.774 18.06 101.562 18.084 101.338 18.084C101.082 18.084 100.846 18.04 100.63 17.952C100.414 17.856 100.242 17.712 100.114 17.52C99.9855 17.32 99.9215 17.072 99.9215 16.776V12.564H99.0695V11.736H99.9215V9.648H100.978V11.736H102.382V12.564H100.978V16.452C100.994 16.676 101.07 16.844 101.206 16.956C101.342 17.06 101.502 17.112 101.686 17.112C101.894 17.112 102.086 17.076 102.262 17.004C102.438 16.932 102.554 16.88 102.61 16.848L102.862 17.688ZM106.53 18.12C106.058 18.12 105.626 18.036 105.234 17.868C104.85 17.692 104.514 17.456 104.226 17.16C103.946 16.856 103.726 16.508 103.566 16.116C103.414 15.724 103.338 15.308 103.338 14.868C103.338 14.276 103.474 13.736 103.746 13.248C104.018 12.76 104.394 12.368 104.874 12.072C105.362 11.776 105.918 11.628 106.542 11.628C107.174 11.628 107.722 11.78 108.186 12.084C108.658 12.38 109.022 12.772 109.278 13.26C109.542 13.74 109.674 14.26 109.674 14.82C109.674 14.9 109.67 14.98 109.662 15.06C109.662 15.132 109.658 15.188 109.65 15.228H104.454C104.486 15.636 104.598 16 104.79 16.32C104.99 16.632 105.246 16.88 105.558 17.064C105.87 17.24 106.206 17.328 106.566 17.328C106.95 17.328 107.31 17.232 107.646 17.04C107.99 16.848 108.226 16.596 108.354 16.284L109.266 16.536C109.13 16.84 108.926 17.112 108.654 17.352C108.39 17.592 108.074 17.78 107.706 17.916C107.346 18.052 106.954 18.12 106.53 18.12ZM104.418 14.496H108.69C108.658 14.088 108.542 13.728 108.342 13.416C108.142 13.104 107.886 12.86 107.574 12.684C107.262 12.508 106.918 12.42 106.542 12.42C106.174 12.42 105.834 12.508 105.522 12.684C105.21 12.86 104.954 13.104 104.754 13.416C104.562 13.728 104.45 14.088 104.418 14.496ZM110.44 14.88C110.44 14.288 110.56 13.748 110.8 13.26C111.048 12.764 111.384 12.368 111.808 12.072C112.24 11.776 112.732 11.628 113.284 11.628C113.788 11.628 114.24 11.76 114.64 12.024C115.04 12.288 115.352 12.608 115.576 12.984V9.24H116.632V16.8C116.632 16.928 116.656 17.024 116.704 17.088C116.76 17.144 116.848 17.176 116.968 17.184V18C116.768 18.032 116.612 18.048 116.5 18.048C116.292 18.048 116.108 17.976 115.948 17.832C115.796 17.688 115.72 17.528 115.72 17.352V16.824C115.472 17.224 115.14 17.54 114.724 17.772C114.308 18.004 113.876 18.12 113.428 18.12C112.996 18.12 112.596 18.036 112.228 17.868C111.868 17.692 111.552 17.452 111.28 17.148C111.016 16.844 110.808 16.5 110.656 16.116C110.512 15.724 110.44 15.312 110.44 14.88ZM115.576 15.804V14.004C115.48 13.732 115.324 13.488 115.108 13.272C114.892 13.048 114.648 12.872 114.376 12.744C114.112 12.608 113.848 12.54 113.584 12.54C113.272 12.54 112.988 12.608 112.732 12.744C112.484 12.872 112.268 13.048 112.084 13.272C111.908 13.488 111.772 13.736 111.676 14.016C111.58 14.296 111.532 14.588 111.532 14.892C111.532 15.204 111.584 15.5 111.688 15.78C111.8 16.06 111.952 16.308 112.144 16.524C112.344 16.74 112.572 16.908 112.828 17.028C113.092 17.148 113.376 17.208 113.68 17.208C113.872 17.208 114.068 17.172 114.268 17.1C114.476 17.028 114.672 16.928 114.856 16.8C115.04 16.672 115.196 16.524 115.324 16.356C115.452 16.18 115.536 15.996 115.576 15.804Z" fill="#2087BA"/>
<rect x="0.5" y="0.5" width="133" height="27" rx="13.5" stroke="#265770"/>
</svg>
