<svg width="38" height="44" viewBox="0 0 38 44" fill="none" xmlns="http://www.w3.org/2000/svg">
<path d="M33.812 13.0291C33.31 12.2632 32.75 11.5366 32.1371 10.8557C31.9623 10.6633 31.7892 10.4841 31.6079 10.3049L31.3919 10.0895L27.7123 6.41345C27.8013 6.50223 27.8854 6.59265 27.9695 6.68801C28.4627 7.2307 28.9203 7.80457 29.3394 8.40604C29.4417 8.55565 29.5439 8.70526 29.6461 8.86144C31.7771 12.1002 32.8421 15.9703 32.841 20.4717C32.841 24.3561 31.9964 27.7768 30.3071 30.7339C28.6179 33.691 26.4264 35.8781 23.7327 37.2953C21.0422 38.7026 17.2604 39.4326 12.4021 39.4326L4.15932 39.4622L0 39.4753L4.15932 43.6364L16.5697 43.6002C21.4285 43.5816 25.2054 42.8648 27.9003 41.4498C30.5951 40.0348 32.7882 37.8499 34.4797 34.895C36.1656 31.9357 37.0102 28.5144 37.0135 24.6312C37.0058 20.144 35.9386 16.2767 33.812 13.0291Z" fill="#9E7008"/>
<path d="M29.6509 8.86804C29.5487 8.71186 29.4465 8.56225 29.3443 8.41264C28.9238 7.80877 28.4645 7.2327 27.9694 6.68803C27.8853 6.59268 27.8045 6.50226 27.7122 6.41348L27.61 6.30497L27.4451 6.14056C25.5714 4.27997 23.2913 2.87715 20.7833 2.04195C18.1456 1.11909 13.9143 0.665876 8.08937 0.682316L0.0114212 0.713553V39.4885L4.17074 39.4753L12.4135 39.4457C17.2719 39.4342 21.0537 38.7092 23.7441 37.3085C26.4346 35.9077 28.6304 33.7047 30.3186 30.7471C32.0067 27.7894 32.8524 24.3698 32.8524 20.4849C32.848 15.9824 31.7808 12.1101 29.6509 8.86804Z" fill="#F4B406"/>
</svg>
