<svg width="35" height="28" viewBox="0 0 35 28" fill="none" xmlns="http://www.w3.org/2000/svg">
<path d="M16.6441 16.3909C16.6095 16.1665 16.5769 15.9652 16.5367 15.7772C16.4024 15.0983 16.2106 14.4213 15.9613 13.7635C15.735 13.1633 15.4646 12.5803 15.1559 12.0318C14.4463 10.7699 13.5545 9.69017 12.5017 8.81758L12.2523 8.61813C10.6817 7.39842 8.90197 6.76172 7.18364 6.76172C6.36475 6.76172 5.5612 6.90555 4.80176 7.20281C0.893314 8.71594 -0.92858 13.6907 0.465648 18.6155C0.550031 18.8821 0.642085 19.1468 0.74181 19.4114L0.743726 19.4133C0.849204 19.6895 0.960435 19.9618 1.0755 20.2207L1.08893 20.2495L1.06016 20.2629C1.08893 20.3243 1.11769 20.3876 1.14454 20.4509C1.19632 20.5678 1.25194 20.6829 1.31331 20.8056C1.33824 20.8555 1.36125 20.9015 1.38618 20.9495L1.41495 20.9341L1.42838 20.9629C1.67193 21.4404 1.93659 21.9007 2.22042 22.3399C4.66367 25.8513 8.63349 27.4949 11.9666 26.2023C13.9668 25.4275 15.4915 23.7264 16.2528 21.4136C16.3602 21.0914 16.4523 20.7539 16.529 20.4029C16.552 20.2955 16.5731 20.19 16.5923 20.0807C16.6019 20.0289 16.6115 19.9733 16.6211 19.9177C16.7131 19.3711 16.761 18.8111 16.7687 18.2492C16.7764 17.6375 16.7342 17.0123 16.6441 16.3909ZM15.8175 18.9224L15.3802 20.867C15.3764 20.8766 15.3726 20.8862 15.3687 20.8958L15.3668 20.9015C15.1635 21.473 14.9066 22.0081 14.5978 22.4914C14.477 22.6812 14.3523 22.8577 14.2257 23.0188C14.0857 23.199 13.94 23.3716 13.7846 23.5346L12.5381 24.553L12.4691 24.5952L12.4671 24.5971C12.1718 24.7735 11.8592 24.927 11.537 25.0516C10.8428 25.3201 10.1063 25.4563 9.34498 25.4563C8.39568 25.4563 7.4483 25.2472 6.52776 24.8368C4.33957 23.8588 2.53685 21.8508 1.58755 19.3309C0.513591 16.483 0.686192 13.4107 2.04974 11.1151C2.12837 10.9808 2.21658 10.8389 2.32206 10.6855C2.6711 10.1811 3.07767 9.73428 3.52643 9.36415C4.03848 8.93457 4.61189 8.59512 5.23326 8.3554C5.35408 8.30745 5.46723 8.26718 5.57846 8.23457C5.75298 8.17704 5.95051 8.12334 6.16338 8.07923C6.22475 8.06581 6.28804 8.0543 6.35708 8.04088L6.35899 8.03896L6.43954 8.02554C6.6294 7.968 6.88063 7.91431 7.17597 7.90088C7.53651 7.8817 7.83952 7.92773 8.05815 7.97951C8.43979 8.01787 8.82526 8.09074 9.21074 8.19814C9.78415 8.35731 10.3537 8.59512 10.9041 8.90388L10.9061 8.9058L10.9559 8.93457L12.5669 10.1274C12.774 10.3211 12.9773 10.5244 13.1671 10.7373C13.8863 11.5332 14.4789 12.4537 14.9334 13.4701C15.0178 13.6561 15.1022 13.8594 15.1827 14.0761C15.3726 14.5786 15.526 15.0964 15.6391 15.618C15.6852 15.8252 15.7254 16.0419 15.7619 16.2778C15.8501 16.8512 15.8885 17.4303 15.8789 18.0018C15.8731 18.3144 15.852 18.6232 15.8175 18.9224Z" fill="#fff"/>
<path d="M9.71539 16.2354C9.76141 16.3543 9.81895 16.4636 9.88799 16.5633C10.0203 16.7513 10.191 16.897 10.3732 16.9737C10.4211 16.9948 10.4691 17.0102 10.517 17.0217C10.5995 17.0409 10.68 17.0447 10.7567 17.0351C10.8066 17.0294 10.8507 17.0178 10.9006 17.0006C10.9581 16.9776 11.0118 16.9469 11.0617 16.9066C11.1 16.8759 11.1345 16.8433 11.1672 16.8011C11.2343 16.7206 11.2861 16.6228 11.3206 16.5115C11.334 16.4713 11.3436 16.431 11.3513 16.3946C11.3551 16.3773 11.3589 16.362 11.3608 16.3466C11.3608 16.3447 11.3608 16.3428 11.3608 16.3428C11.3628 16.3294 11.3647 16.3159 11.3666 16.3025L11.3685 16.2968C11.3743 16.245 11.3781 16.1913 11.3781 16.1376C11.3781 16.0302 11.3647 15.919 11.3397 15.8096L11.3378 15.8001C11.3321 15.777 11.3244 15.7483 11.3148 15.7195C11.3052 15.6888 11.2976 15.6639 11.288 15.637L11.2803 15.6179C11.2534 15.5469 11.2208 15.4798 11.1844 15.4146C11.123 15.3072 11.0502 15.2094 10.9677 15.1269C10.9178 15.0751 10.8641 15.0291 10.8066 14.9888C10.7874 14.9754 10.7683 14.962 10.7472 14.9505C10.6513 14.891 10.5535 14.8527 10.4537 14.8316C10.3348 14.8086 10.2198 14.8162 10.1124 14.8565L10.0951 14.8623C10.0606 14.8757 10.0261 14.8949 9.98771 14.916C9.91484 14.962 9.8458 15.0291 9.79018 15.1096C9.77676 15.1307 9.7595 15.1557 9.74607 15.1825C9.72689 15.219 9.71155 15.2496 9.70004 15.2765C9.65402 15.3877 9.62717 15.5124 9.6195 15.6447C9.61758 15.6754 9.61566 15.6984 9.61566 15.7214C9.61566 15.8039 9.62333 15.8844 9.63676 15.965C9.64059 15.9861 9.64443 16.0053 9.64827 16.0263C9.65018 16.0321 9.6521 16.0398 9.65402 16.0474C9.65786 16.0609 9.65977 16.0743 9.66361 16.0877C9.66552 16.0954 9.66936 16.105 9.67128 16.1127C9.67511 16.1242 9.67895 16.1357 9.68087 16.1491C9.68279 16.1587 9.68662 16.1663 9.68854 16.1759C9.69237 16.1855 9.69621 16.197 9.69813 16.2066H9.7058V16.2316C9.71347 16.2296 9.71539 16.2335 9.71539 16.2354Z" fill="#fff"/>
<path d="M12.1971 16.4078C12.1894 16.4596 12.1798 16.521 12.1664 16.5785C12.151 16.6514 12.1338 16.7146 12.1146 16.7703C12.1069 16.7952 12.0973 16.8201 12.0897 16.8451C12.0877 16.8527 12.0839 16.8604 12.0801 16.8681C12.0743 16.8834 12.0666 16.9007 12.0609 16.916C12.0571 16.9256 12.0532 16.9333 12.0494 16.9429C12.0436 16.9582 12.036 16.9716 12.0302 16.987C12.0264 16.9966 12.0206 17.0061 12.0168 17.0157C12.011 17.0292 12.0034 17.0426 11.9957 17.056C11.9918 17.0656 11.9861 17.0752 11.9803 17.0829C11.9727 17.0963 11.965 17.1097 11.9573 17.1212C11.9516 17.1308 11.9477 17.1385 11.942 17.1481C11.9343 17.1615 11.9266 17.173 11.9171 17.1864C11.9113 17.1941 11.9055 17.2037 11.9017 17.2113C11.8921 17.2248 11.8825 17.2382 11.8729 17.2516C11.8672 17.2593 11.8634 17.267 11.8576 17.2727C11.8576 17.2746 11.8557 17.2746 11.8557 17.2766L11.8576 17.2746C11.8729 17.2612 11.8864 17.2459 11.8998 17.2324C11.9842 17.1442 12.0571 17.0407 12.1203 16.9256C12.1453 16.8757 12.1702 16.8259 12.1913 16.7779C12.2546 16.6264 12.2987 16.4653 12.3198 16.2966C12.3255 16.2582 12.3294 16.2199 12.3332 16.1815C12.3447 16.0415 12.3428 15.8996 12.3275 15.7596C12.314 15.6234 12.2872 15.4834 12.2488 15.3454C12.2297 15.2725 12.2047 15.1996 12.176 15.1229C12.0206 14.7086 11.7675 14.3558 11.4453 14.1007C11.4127 14.0739 11.3782 14.0489 11.3456 14.0259C11.3456 14.0259 11.3456 14.0259 11.3436 14.024C11.3264 14.0125 11.311 14.001 11.2938 13.9914C11.2075 13.9358 11.1193 13.8898 11.0291 13.8514C10.9697 13.8265 10.9141 13.8054 10.8565 13.79C10.8278 13.7824 10.799 13.7747 10.7683 13.767C10.7645 13.767 10.7606 13.7651 10.7587 13.7651C10.7319 13.7593 10.7031 13.7536 10.6763 13.7498C10.6705 13.7498 10.6667 13.7478 10.6609 13.7478C10.6341 13.744 10.6072 13.7421 10.5804 13.7382C10.5746 13.7382 10.5708 13.7382 10.565 13.7382C10.5382 13.7363 10.5113 13.7363 10.4864 13.7363H10.4634C10.4538 13.7363 10.4461 13.7363 10.4365 13.7363C10.4269 13.7363 10.4193 13.7382 10.4097 13.7382C10.4001 13.7382 10.3924 13.7402 10.3828 13.7402C10.3732 13.7402 10.3656 13.7421 10.3579 13.7421C10.3483 13.7421 10.3406 13.744 10.331 13.7459C10.3234 13.7459 10.3138 13.7478 10.3061 13.7498C10.2965 13.7517 10.2889 13.7517 10.2793 13.7536C10.2716 13.7555 10.262 13.7555 10.2543 13.7574C10.2447 13.7593 10.2352 13.7613 10.2256 13.7632C10.2179 13.7651 10.2102 13.767 10.2026 13.7689C10.193 13.7708 10.1834 13.7747 10.1738 13.7766C10.1661 13.7785 10.1584 13.7804 10.1527 13.7824C10.1412 13.7843 10.1316 13.7881 10.1201 13.7919C10.1143 13.7939 10.1086 13.7958 10.1028 13.7977C10.0856 13.8035 10.0702 13.8092 10.053 13.815C10.03 13.8245 10.0089 13.8341 9.98776 13.8437C9.92256 13.8744 9.85927 13.9108 9.80174 13.9511L9.75188 13.9895C9.70777 14.0221 9.66941 14.0566 9.63106 14.0969C9.61188 14.1161 9.59462 14.1352 9.57736 14.1544C9.57352 14.1602 9.56969 14.164 9.56585 14.1697C9.54859 14.1889 9.53325 14.21 9.51599 14.2311C9.51599 14.2311 9.51599 14.2311 9.51599 14.233C9.52558 14.2254 9.53708 14.2196 9.54667 14.2139C9.54667 14.2139 9.54668 14.2139 9.54859 14.2119C9.63298 14.1602 9.71161 14.1218 9.79215 14.0892L9.83051 14.0758C9.85736 14.0662 9.88612 14.0566 9.91297 14.0489C9.92064 14.047 9.9264 14.0451 9.93407 14.0432C9.96092 14.0355 9.98585 14.0297 10.0127 14.024C10.0204 14.0221 10.028 14.0202 10.0376 14.0182C10.0568 14.0144 10.0779 14.0106 10.0971 14.0087C10.1067 14.0067 10.1163 14.0048 10.1278 14.0048C10.1527 14.001 10.1776 13.9991 10.2026 13.9971C10.2141 13.9952 10.2237 13.9952 10.2352 13.9952C10.2563 13.9933 10.2754 13.9933 10.2965 13.9933C10.3042 13.9933 10.3119 13.9933 10.3195 13.9933C10.3464 13.9933 10.3752 13.9952 10.402 13.9952C10.4116 13.9952 10.4231 13.9971 10.4327 13.9971C10.4538 13.9991 10.4749 14.001 10.496 14.0029C10.5056 14.0048 10.5152 14.0048 10.5247 14.0067C10.5554 14.0106 10.5842 14.0144 10.6149 14.0221C10.8124 14.0624 11.0042 14.1371 11.1825 14.2465C11.3206 14.3308 11.4472 14.4325 11.5603 14.5476C11.7732 14.7604 11.9458 15.0327 12.0609 15.3358L12.0686 15.3569C12.0839 15.399 12.0973 15.4393 12.1108 15.4796C12.1242 15.5218 12.1357 15.5678 12.1491 15.6158C12.2124 15.8881 12.2277 16.1547 12.1951 16.4097L12.1971 16.4078Z" fill="#fff"/>
<path d="M7.24692 23.3121C7.23158 23.3006 7.21624 23.2891 7.19898 23.2795C7.17021 23.2584 7.14144 23.2393 7.11268 23.2182C7.10117 23.2105 7.08966 23.2009 7.08007 23.1932C7.04555 23.1683 7.01295 23.1434 6.97843 23.1184C6.97076 23.1127 6.96309 23.1069 6.95733 23.1012C6.91706 23.0705 6.87679 23.0398 6.83843 23.0091C6.83651 23.0072 6.8346 23.0072 6.8346 23.0053C6.8346 23.0053 6.8346 23.0034 6.83268 23.0034C6.75021 22.9382 6.66775 22.871 6.58529 22.802C6.56611 22.7867 6.54885 22.7694 6.52967 22.7541C6.51049 22.7387 6.49323 22.7234 6.47597 22.7061C6.44912 22.6831 6.42419 22.6601 6.39734 22.6371C6.39351 22.6332 6.38775 22.6294 6.38392 22.6256C6.38008 22.6217 6.37625 22.6198 6.37241 22.616C5.33297 21.682 4.48531 20.5007 3.88313 19.1486C3.88121 19.1429 3.87738 19.1371 3.87546 19.1314C3.8582 19.0911 3.83902 19.0489 3.82176 19.0086C3.81409 18.9933 3.80834 18.9779 3.80258 18.9626C3.78916 18.93 3.77381 18.8955 3.76039 18.8629C3.74888 18.836 3.7393 18.8092 3.72779 18.7823C3.7182 18.7593 3.70861 18.7344 3.69902 18.7095C3.67793 18.6577 3.65875 18.604 3.63765 18.5522C3.60505 18.464 3.57245 18.3777 3.54176 18.2895C3.4593 18.0555 3.38834 17.8196 3.32314 17.5818C3.31546 17.5569 3.30779 17.53 3.30204 17.5051C3.29245 17.4687 3.28286 17.4303 3.27327 17.3939C3.25985 17.3421 3.24643 17.2903 3.23492 17.2404C3.23108 17.2251 3.22917 17.2117 3.22533 17.1982C3.16588 16.9451 3.11601 16.69 3.07382 16.435C3.06807 16.3985 3.06232 16.3621 3.05656 16.3276C3.0393 16.2163 3.02396 16.1013 3.01054 15.9862C3.00287 15.9172 2.9952 15.8462 2.98752 15.7753C2.90122 14.8873 2.93191 14.0051 3.0815 13.1536C3.1467 12.7778 3.23684 12.4057 3.34807 12.0471C3.36916 11.978 3.39026 11.9128 3.41136 11.8495C3.44012 11.7632 3.4708 11.6789 3.49957 11.5983L3.51683 11.5542C3.72012 11.0172 3.97518 10.5148 4.27627 10.0564C4.34531 9.95094 4.41819 9.84738 4.49298 9.74574C4.53134 9.69588 4.56778 9.6441 4.60805 9.59424C4.41627 9.71698 4.23217 9.85122 4.05765 9.99697C3.66642 10.3211 3.31355 10.7104 3.0067 11.1515C2.91273 11.2876 2.8341 11.4104 2.76506 11.5293C1.53001 13.612 1.38042 16.4158 2.36424 19.0278C3.23684 21.3407 4.87654 23.176 6.86528 24.0658C7.96417 24.5568 9.06114 24.7236 10.1293 24.5587C9.1532 24.3688 8.19814 23.9604 7.30254 23.3467C7.28719 23.339 7.26802 23.3275 7.24692 23.3121Z" fill="#fff"/>
<path d="M11.6696 23.8451C11.7157 23.8432 11.7598 23.8394 11.8039 23.8355C11.8116 23.8355 11.8192 23.8336 11.8269 23.8336C11.8672 23.8298 11.9094 23.8259 11.9496 23.8221C11.9554 23.8221 11.9611 23.8221 11.965 23.8202C12.0091 23.8144 12.0513 23.8106 12.0954 23.8048C12.1069 23.8029 12.1184 23.801 12.1299 23.7991C12.1452 23.7972 12.1606 23.7953 12.174 23.7933C12.6937 23.4596 13.154 23.0358 13.5452 22.5314C13.5433 22.5314 13.5433 22.5334 13.5414 22.5334C13.4934 22.5583 13.4436 22.5832 13.3937 22.6082C13.3784 22.6158 13.3611 22.6235 13.3458 22.6312C13.3074 22.6484 13.271 22.6657 13.2326 22.6829C13.2154 22.6906 13.2 22.6964 13.1847 22.704C13.1329 22.7271 13.0792 22.7481 13.0274 22.7692C12.7493 22.8766 12.4578 22.9591 12.1625 23.0166C12.1491 23.0205 12.1357 23.0224 12.1222 23.0243C12.0839 23.032 12.0436 23.0377 12.0052 23.0435C11.9918 23.0454 11.9765 23.0473 11.9631 23.0492C11.9381 23.0531 11.9132 23.0569 11.8883 23.0588C11.871 23.0607 11.8518 23.0627 11.8346 23.0665C11.8135 23.0684 11.7924 23.0723 11.7713 23.0742C11.7521 23.0761 11.7329 23.078 11.7137 23.0799C11.6926 23.0818 11.6735 23.0838 11.6524 23.0857C11.6332 23.0876 11.614 23.0895 11.5948 23.0895C11.5737 23.0914 11.5507 23.0914 11.5296 23.0933C11.5124 23.0953 11.4951 23.0953 11.4779 23.0972C11.4529 23.0991 11.428 23.0991 11.4031 23.101C11.3877 23.101 11.3743 23.101 11.359 23.1029C11.3283 23.1029 11.2957 23.1049 11.265 23.1049C11.2573 23.1049 11.2496 23.1049 11.242 23.1049C11.2362 23.1049 11.2305 23.1049 11.2247 23.1049C11.1499 23.1049 11.0732 23.1029 10.9984 23.0991C10.9927 23.0991 10.9888 23.0991 10.9831 23.0991C10.9466 23.0972 10.9102 23.0953 10.8738 23.0933C10.8699 23.0933 10.8661 23.0933 10.8603 23.0933C10.7357 23.0857 10.611 23.0723 10.4864 23.0531C10.4844 23.0531 10.4844 23.0531 10.4825 23.0531C10.0587 22.9936 9.63679 22.8843 9.22446 22.7271C9.22255 22.7271 9.22063 22.7251 9.21871 22.7251C9.18035 22.7098 9.14008 22.6944 9.10173 22.6791C9.09981 22.6772 9.09597 22.6772 9.09406 22.6753C9.01351 22.6427 8.93296 22.6081 8.85433 22.5717C8.8505 22.5698 8.84474 22.5679 8.84091 22.566C8.80639 22.5506 8.77378 22.5353 8.73926 22.518C8.73159 22.5142 8.722 22.5103 8.71433 22.5065C8.68173 22.4912 8.64913 22.4739 8.61653 22.4586C8.61077 22.4547 8.60502 22.4528 8.59927 22.4509C8.56091 22.4317 8.52255 22.4106 8.48612 22.3914C8.48036 22.3895 8.47461 22.3857 8.46886 22.3819C8.43817 22.3646 8.40557 22.3473 8.37489 22.3301C8.36338 22.3243 8.35187 22.3166 8.34037 22.3109C8.31352 22.2955 8.28667 22.2802 8.26174 22.2649C8.25023 22.2591 8.24064 22.2514 8.22913 22.2457C8.1927 22.2246 8.15626 22.2016 8.12174 22.1805C7.87243 22.0271 7.62503 21.8525 7.38723 21.6608C6.7908 21.1813 6.26149 20.6021 5.81081 19.9405C5.76287 19.8696 5.71492 19.7986 5.6689 19.7257C5.34479 19.2194 5.07055 18.669 4.85 18.0879C4.64672 17.549 4.49713 16.9948 4.40124 16.4386C4.36289 16.2238 4.33412 15.9976 4.31494 15.7674C4.29193 15.5258 4.28042 15.2861 4.2785 15.0483C4.27467 14.3348 4.3648 13.6387 4.55083 12.9732C4.56042 12.9291 4.57384 12.885 4.58727 12.8409C4.63905 12.6644 4.69658 12.4957 4.75795 12.3403C5.04562 11.5828 5.45602 10.9173 5.97574 10.3631C6.10423 10.225 6.24039 10.0946 6.38423 9.97188C6.53957 9.83764 6.70066 9.7149 6.86175 9.60558C7.05545 9.47517 7.25874 9.35819 7.46777 9.25654C7.59435 9.19518 7.72092 9.13956 7.85133 9.0897C7.89927 9.07052 7.94722 9.05326 7.99708 9.036C8.00667 9.03217 8.01626 9.02833 8.02777 9.02449C8.07763 9.00723 8.12557 8.99189 8.17544 8.97655C8.17927 8.97463 8.18119 8.97463 8.18503 8.97463C8.23297 8.95929 8.28091 8.94587 8.32886 8.93244C8.33653 8.93052 8.3442 8.9286 8.35187 8.92669C8.40173 8.91326 8.4516 8.89984 8.50146 8.88833C8.50338 8.88833 8.50721 8.88641 8.50913 8.88641C7.88202 8.76368 7.25682 8.74642 6.6508 8.83463L6.64888 8.83655C6.60861 8.86148 6.57025 8.88833 6.5319 8.91518C6.38039 9.01874 6.24806 9.11847 6.12533 9.22203C5.95273 9.36394 5.78971 9.51736 5.63437 9.68229C5.62862 9.68805 5.62287 9.6938 5.6152 9.70147C5.60752 9.70914 5.60177 9.71681 5.5941 9.72448C5.44068 9.88941 5.29685 10.062 5.1626 10.2461C5.03603 10.4187 4.91712 10.599 4.80589 10.7869C4.77904 10.831 4.75411 10.8771 4.72918 10.9212C4.71767 10.9404 4.70809 10.9576 4.69658 10.9768C4.66206 11.0382 4.62946 11.1015 4.59877 11.1628C4.59685 11.1647 4.59494 11.1686 4.59494 11.1705C4.56425 11.2299 4.5374 11.2894 4.50864 11.3488C4.5048 11.3565 4.50097 11.3623 4.49713 11.3699C4.47412 11.4198 4.4511 11.4716 4.43001 11.5234C4.42234 11.5406 4.41467 11.5579 4.40699 11.5751C4.39165 11.6116 4.37631 11.6499 4.36097 11.6883C4.34754 11.7209 4.33412 11.7516 4.32069 11.7842L4.29193 11.859C4.24015 11.9932 4.19028 12.1371 4.14042 12.2981C4.0407 12.6223 3.95823 12.9598 3.89878 13.3012C3.78947 13.9321 3.74919 14.5841 3.7818 15.2419C3.78947 15.3935 3.80097 15.5469 3.8144 15.7003C3.8259 15.8134 3.83933 15.9247 3.85276 16.034C3.86426 16.128 3.87768 16.22 3.89303 16.3102C3.90645 16.3926 3.91988 16.477 3.93522 16.5595C4.04261 17.1405 4.20371 17.712 4.41275 18.2663C4.43384 18.3219 4.45494 18.3756 4.47603 18.4312C4.48371 18.4523 4.49329 18.4753 4.50288 18.4964C4.51631 18.529 4.52781 18.5597 4.54124 18.5923C4.55275 18.6211 4.56425 18.6479 4.57768 18.6767C4.58727 18.7016 4.59877 18.7246 4.60836 18.7496C4.62178 18.7822 4.63713 18.8148 4.65247 18.8474C4.66014 18.8646 4.66781 18.8838 4.6774 18.9011C4.69466 18.9394 4.71192 18.9759 4.72918 19.0142C4.73493 19.0257 4.74069 19.0372 4.74452 19.0487C4.76562 19.0929 4.78671 19.135 4.80781 19.1772C4.80973 19.1811 4.80973 19.183 4.81165 19.1849C6.14067 21.8756 8.52256 23.6629 10.9696 23.8413C10.9735 23.8413 10.9773 23.8413 10.9792 23.8413C11.0195 23.8451 11.0598 23.847 11.1001 23.849C11.1096 23.849 11.1192 23.849 11.1288 23.8509C11.1633 23.8528 11.1979 23.8528 11.2343 23.8547C11.2516 23.8547 11.2669 23.8547 11.2842 23.8566C11.3129 23.8566 11.3417 23.8585 11.3705 23.8585C11.4127 23.8585 11.4529 23.8585 11.4932 23.8566C11.5047 23.8566 11.5143 23.8566 11.5258 23.8547C11.5661 23.8528 11.6044 23.8528 11.6428 23.8509C11.66 23.8451 11.6639 23.8451 11.6696 23.8451Z" fill="#fff"/>
<path d="M12.5594 17.7486C12.5575 17.7486 12.5575 17.7486 12.5594 17.7486C13.198 18.4947 13.9537 19.1985 14.8109 19.8467C14.8473 19.699 14.878 19.5514 14.9049 19.4037C14.9375 19.2349 14.9624 19.07 14.9816 18.9089C15.0065 18.7152 15.0219 18.5177 15.0334 18.3163C14.2547 18.1169 13.5049 17.8465 12.755 17.4897C12.6937 17.5837 12.6285 17.67 12.5594 17.7486Z" fill="#fff"/>
<path d="M13.131 15.4626C13.1349 15.4856 13.1387 15.5105 13.1426 15.5335C13.1445 15.5451 13.1445 15.5566 13.1464 15.5681C13.1502 15.6026 13.156 15.6371 13.1579 15.6697C13.1598 15.6908 13.1617 15.7119 13.1636 15.7311C13.1809 15.9363 13.179 16.1396 13.1541 16.3409C13.1521 16.362 13.1483 16.3831 13.1464 16.4042C13.133 16.5135 13.1119 16.6209 13.085 16.7245L13.0869 16.7264C13.7313 17.0333 14.3738 17.273 15.0354 17.4552C15.022 17.1042 14.9875 16.7513 14.9338 16.4023C14.9012 16.1856 14.8647 15.9861 14.8206 15.7944C14.7209 15.3341 14.5866 14.8757 14.4236 14.4327C14.0401 14.8355 13.6067 15.1749 13.1253 15.4472C13.1291 15.453 13.131 15.4568 13.131 15.4626Z" fill="#fff"/>
<path d="M11.6213 13.209C11.7402 13.2761 11.8553 13.3528 11.9665 13.4411C12.3539 13.7479 12.6665 14.1526 12.8794 14.6243C13.332 14.3443 13.7232 13.9991 14.0665 13.5772C13.6638 12.7296 13.1536 11.9605 12.5476 11.2893C12.3577 11.0764 12.1545 10.8732 11.9454 10.6814C11.5254 10.2978 11.0728 9.96221 10.5991 9.68413C10.5838 9.68029 10.5665 9.67646 10.5512 9.67454C10.5378 9.6707 10.5224 9.66878 10.509 9.66687C10.486 9.66303 10.4611 9.65728 10.438 9.65344C10.8964 10.3554 11.2263 11.0534 11.4219 11.7381C11.5638 12.2482 11.6309 12.7315 11.6213 13.209Z" fill="#fff"/>
<path d="M7.33516 10.2998C7.21434 10.3804 7.09544 10.4724 6.97845 10.5702C7.39461 10.8291 7.78584 11.1168 8.1483 11.4275C8.72939 11.928 9.19925 12.4496 9.63267 13.0863C9.67294 13.0672 9.71513 13.0499 9.75732 13.0326C10.0853 12.9061 10.4343 12.8677 10.7833 12.9176C10.7661 12.6107 10.7124 12.302 10.6184 11.9702C10.3998 11.2031 9.98362 10.4053 9.37952 9.5979C9.14555 9.61324 8.9135 9.64776 8.68528 9.70338C8.50693 9.74557 8.33241 9.80119 8.16173 9.86639C7.87214 9.97954 7.59598 10.1234 7.33516 10.2998Z" fill="#fff"/>
<path d="M8.74294 13.8821C8.81006 13.7766 8.88294 13.6788 8.96349 13.5887C8.56459 12.9999 8.13692 12.5186 7.60186 12.0602C7.22597 11.7361 6.81557 11.4427 6.3764 11.1819C6.03119 11.6038 5.75312 12.0928 5.546 12.6413C5.53833 12.6605 5.53257 12.6797 5.5249 12.6989C5.84709 12.7353 6.17311 12.7967 6.50105 12.881C7.41392 13.1208 8.14076 13.5024 8.74294 13.8821Z" fill="#fff"/>
<path d="M5.15476 15.6946C5.17202 15.9017 5.19887 16.105 5.23339 16.2968C5.26599 16.4867 5.30434 16.6746 5.35229 16.8625C5.429 17.1771 5.52489 17.4877 5.63996 17.7907C5.72242 18.0113 5.81639 18.2261 5.91612 18.4351C6.09447 17.7409 6.4109 17.1598 6.86542 16.6995C7.27199 16.2853 7.7476 16.0034 8.3728 15.8097C8.37088 15.7982 8.36896 15.7847 8.36704 15.7732C8.34787 15.6294 8.33828 15.4798 8.33828 15.3321C8.3402 15.1212 8.36321 14.9122 8.40732 14.7108C8.41115 14.6954 8.41499 14.6801 8.41882 14.6628C7.84924 14.2927 7.15884 13.913 6.29008 13.6848C5.95064 13.5966 5.61503 13.5371 5.28517 13.5103C5.12983 14.2102 5.08572 14.9428 5.15476 15.6946Z" fill="#fff"/>
<path d="M7.91776 21.0107C8.12871 21.1795 8.34734 21.3348 8.56597 21.471C8.68295 21.542 8.79994 21.6091 8.91884 21.6724C9.71856 22.0924 10.5662 22.2957 11.3813 22.2669C10.6276 20.8247 10.1807 19.4669 10.0484 18.2184C9.97746 18.1839 9.90458 18.1456 9.83362 18.1034C9.54595 17.9308 9.28897 17.7045 9.06843 17.4283C8.87281 17.1867 8.71364 16.9144 8.59282 16.619C8.11721 16.7705 7.75858 16.9834 7.45749 17.2883C6.9301 17.8234 6.6386 18.5963 6.5849 19.5839C6.97421 20.1305 7.42105 20.6099 7.91776 21.0107Z" fill="#fff"/>
<path d="M11.892 18.2548C11.8881 18.2567 11.8824 18.2586 11.8785 18.2624C11.8459 18.2797 11.8018 18.2989 11.7577 18.3161C11.5717 18.389 11.378 18.4312 11.1805 18.4446C11.1287 18.4485 11.075 18.4504 11.0213 18.4504C10.9887 18.4504 10.9561 18.4504 10.9216 18.4485C11.0923 19.58 11.541 20.8188 12.2621 22.1421C12.358 22.1172 12.452 22.0903 12.544 22.0596C12.6054 22.0385 12.6668 22.0175 12.7281 21.9925C12.918 21.9177 13.104 21.8295 13.2804 21.7298C13.2862 21.7259 13.2919 21.724 13.2977 21.7202C13.4032 21.6607 13.5087 21.5936 13.6122 21.5207C13.6467 21.4958 13.6813 21.4709 13.7158 21.446C13.758 21.4153 13.8002 21.3827 13.8404 21.3481C13.8558 21.3366 13.8692 21.3232 13.8845 21.3117C13.9114 21.2906 13.9382 21.2676 13.9632 21.2465C13.9804 21.2312 13.9977 21.2158 14.015 21.2005C14.038 21.1794 14.061 21.1602 14.084 21.1391C14.1013 21.1218 14.1185 21.1046 14.1358 21.0892C14.1569 21.0681 14.178 21.049 14.1991 21.0279C14.2163 21.0106 14.2336 20.9934 14.2508 20.9742C14.2719 20.9531 14.2911 20.932 14.3122 20.9109C14.3295 20.8936 14.3448 20.8745 14.3621 20.8553C14.3812 20.8323 14.4023 20.8112 14.4215 20.7882C14.4369 20.769 14.4522 20.7517 14.4695 20.7325C14.4867 20.7114 14.504 20.6923 14.5212 20.6712C13.5087 19.929 12.6284 19.1197 11.892 18.2548Z" fill="#fff"/>
<path d="M20.1385 19.9443V19.9097L20.1442 19.9117C20.5949 17.4051 20.3283 14.7375 19.3675 12.1926L19.3618 12.1772C18.424 9.69947 16.9147 7.57073 14.995 6.02116L14.97 6.00006C14.8492 5.90417 14.7322 5.81212 14.621 5.72966C14.5596 5.68363 14.5002 5.63952 14.4388 5.59733L14.4331 5.59349C14.3736 5.5513 14.3122 5.50719 14.2451 5.46117C14.1895 5.42281 14.1243 5.3787 14.0591 5.33651C14.0054 5.30007 13.9498 5.26555 13.8961 5.23103C13.8424 5.19651 13.7906 5.16391 13.7369 5.13131C13.6851 5.10062 13.6333 5.06802 13.5816 5.03734C13.5317 5.00665 13.4818 4.97789 13.4301 4.94912C13.3821 4.92035 13.3323 4.8935 13.2843 4.86665C13.2843 4.86665 13.2824 4.86665 13.2824 4.86474C11.7673 4.02858 10.1487 3.599 8.58191 3.599C7.92411 3.599 7.2759 3.67379 6.64879 3.82722C6.64303 3.82913 6.63728 3.82913 6.63344 3.83105C6.30934 3.9116 5.98715 4.01132 5.67647 4.13023L5.65729 4.1379C2.99541 5.16775 1.00667 7.57457 0.17627 10.7542C1.06612 8.7866 2.55624 7.23895 4.52388 6.47759C7.15508 5.45925 10.2293 6.04417 12.7761 8.0425H12.778L12.8394 8.09237C12.8547 8.10387 12.8682 8.11538 12.8816 8.12688L13.0254 8.24579C14.1396 9.174 15.0813 10.3189 15.8311 11.6499C16.1591 12.2348 16.4467 12.8523 16.6865 13.489C16.9492 14.1871 17.1544 14.9043 17.2944 15.6235C17.3366 15.8249 17.373 16.0397 17.4075 16.2775C17.5034 16.9391 17.5475 17.6046 17.5399 18.2547C17.5322 18.855 17.4804 19.4552 17.3826 20.0382C17.3749 20.0939 17.3634 20.1552 17.3519 20.2147C17.3308 20.3336 17.3078 20.4506 17.2829 20.5656C17.2004 20.9415 17.1007 21.3078 16.9856 21.653C16.1495 24.1883 14.4657 26.0582 12.2449 26.9192C11.3895 27.251 10.4882 27.414 9.56957 27.414C8.99807 27.414 8.42082 27.3488 7.84356 27.2222C10.0644 28.1677 12.406 28.2521 14.4503 27.4601L14.481 27.4485C17.4095 26.3017 19.4692 23.5689 20.1365 19.9443H20.1385Z" fill="#fff"/>
<path d="M30.556 16.3121L30.5502 16.3101V16.3447C30.4083 17.1137 30.205 17.8424 29.9423 18.5252C29.3458 20.0767 28.1721 21.3386 26.6801 22.0692L18.3991 26.1292L17.726 26.3612C19.3676 24.8117 20.4818 22.658 20.9536 20.1208L20.9574 20.1035C20.9574 20.0997 20.9594 20.0958 20.9594 20.092L20.9651 20.0613V20.0594C21.4426 17.4148 21.1646 14.6052 20.1596 11.9261L20.1616 11.9242L20.1501 11.8954V11.8935L20.1386 11.8647C19.6457 10.5645 19.0013 9.35626 18.2284 8.26696C17.4556 7.17766 16.5542 6.20726 15.5435 5.38837L15.5186 5.36727C15.4477 5.30974 15.3748 5.2522 15.3019 5.19659C15.277 5.17741 15.254 5.15823 15.2271 5.13905C15.1619 5.08919 15.0929 5.03741 15.0142 4.9818C14.9682 4.94728 14.9203 4.91468 14.8742 4.88016C14.8493 4.86098 14.8225 4.84372 14.7956 4.82646C14.7764 4.81303 14.7573 4.79961 14.7381 4.78618C14.7036 4.76317 14.669 4.73824 14.6364 4.71714C14.6345 4.71523 14.6307 4.71331 14.6268 4.70947C13.0389 3.63743 11.2861 2.98155 9.55048 2.80511L16.0326 0.530623L16.0403 0.551719L16.069 0.540212C19.0205 -0.602786 22.4993 0.0914507 25.3799 2.40046L25.4048 2.42156C27.3283 3.97496 28.8415 6.10754 29.7773 8.59298C30.7401 11.1379 31.0085 13.8055 30.556 16.3121Z" fill="#fff"/>
<path d="M31.4529 15.6216C31.6543 14.2907 31.9554 11.0765 30.3732 7.52091C29.0883 4.63465 27.1667 2.88179 26.1196 2.05139L32.3677 4.33164C34.4006 5.07382 35.3901 7.37132 34.5348 9.35814C33.5088 11.4447 32.4809 13.5332 31.4529 15.6216Z" fill="#fff"/>
</svg>
