<svg width="20" height="16" viewBox="0 0 20 16" fill="none" xmlns="http://www.w3.org/2000/svg">
<path d="M18.3333 10.5L13.3333 5.5M18.3333 5.5L13.3333 10.5" stroke="#ffffff" stroke-width="1.66667" stroke-linecap="round"/>
<path d="M1.66667 10.4658V5.53334C1.66667 5.055 2.04 4.66667 2.5 4.66667H5.48833C5.59861 4.66628 5.70767 4.64355 5.80893 4.59987C5.91018 4.55619 6.00155 4.49245 6.0775 4.4125L8.5775 1.58917C9.1025 1.0425 10 1.43 10 2.2025V13.7975C10 14.5758 9.09167 14.96 8.57 14.4025L6.07833 11.595C6.00216 11.5128 5.90988 11.4471 5.80723 11.4021C5.70457 11.3571 5.59376 11.3337 5.48167 11.3333H2.5C2.04 11.3333 1.66667 10.945 1.66667 10.4658Z" stroke="#ffffff" stroke-width="1.66667" stroke-linecap="round" stroke-linejoin="round"/>
</svg>
