<?xml version="1.0" encoding="UTF-8" standalone="no"?>
<svg
   viewBox="0 0 400 300"
   width="406"
   height="306"
   version="1.1"
   id="svg4424"
   sodipodi:docname="Summer_landscape_Flatline.svg"
   inkscape:export-filename="Summer_landscape_Flatline.svg"
   inkscape:export-xdpi="96"
   inkscape:export-ydpi="96"
   xmlns:inkscape="http://www.inkscape.org/namespaces/inkscape"
   xmlns:sodipodi="http://sodipodi.sourceforge.net/DTD/sodipodi-0.dtd"
   xmlns="http://www.w3.org/2000/svg"
   xmlns:svg="http://www.w3.org/2000/svg">
  <defs
     id="defs4428" />
  <sodipodi:namedview
     id="namedview4426"
     pagecolor="#ffffff"
     bordercolor="#666666"
     borderopacity="1.0"
     inkscape:showpageshadow="2"
     inkscape:pageopacity="0.0"
     inkscape:pagecheckerboard="0"
     inkscape:deskcolor="#d1d1d1"
     showgrid="false" />
  <g
     id="_544_summer_landscape_flatline"
     xml:space="preserve"
     data-name="#544_summer_landscape_flatline"><path
       d="M 363.63,262 H 36.37 a 0.51,0.51 0 0 1 -0.5,-0.5 v -223 a 0.51,0.51 0 0 1 0.5,-0.5 h 327.26 a 0.51,0.51 0 0 1 0.5,0.5 v 223 a 0.51,0.51 0 0 1 -0.5,0.5 z M 36.87,261 H 363.13 V 39 H 36.87 Z"
       fill="#231f20"
       id="path4291" /><path
       d="M 363.63,262 H 36.37 a 0.5,0.5 0 0 1 -0.5,-0.5 V 151.19 a 0.5,0.5 0 0 1 0.5,-0.5 h 327.26 a 0.5,0.5 0 0 1 0.5,0.5 v 110.33 a 0.5,0.5 0 0 1 -0.5,0.48 z M 36.87,261 H 363.13 V 151.69 H 36.87 Z"
       fill="#231f20"
       id="path4299" /><path
       d="M 363.63,262 H 36.37 a 0.5,0.5 0 0 1 -0.5,-0.5 V 151.19 a 0.5,0.5 0 0 1 0.5,-0.5 h 71 a 0.47,0.47 0 0 1 0.43,0.25 19.41,19.41 0 0 1 1.06,2.14 c 0.24,0.57 0.47,1.15 0.7,1.74 0.91,2.34 1.86,4.77 3.78,6 a 10.11,10.11 0 0 0 4.16,1.18 l 0.9,0.13 c 5,0.8 13.46,4.13 16.32,10.06 1.24,2.57 1.28,5.44 1.32,8.22 0,3.25 0.08,6.32 1.86,9 7.54,11.36 36.76,13.07 56.1,14.2 4.77,0.28 8.9,0.52 12,0.86 l 2,0.19 c 26.94,2.45 41.19,5.7 43.56,9.93 a 2.66,2.66 0 0 1 0.05,2.61 c -2.47,5 -6.6,8.87 -9.91,12 -3.31,3.13 -6.07,5.71 -5.92,8.11 0.07,1.27 1,2.51 2.72,3.79 9.35,6.83 124,10 125.13,10.05 a 0.5,0.5 0 0 1 0.49,0.5 v 9.9 A 0.5,0.5 0 0 1 363.63,262 Z M 36.87,261 h 326.26 v -8.9 c -9.27,-0.25 -115.83,-3.37 -125.21,-10.22 -2,-1.47 -3,-3 -3.13,-4.54 -0.18,-2.87 2.65,-5.53 6.23,-8.89 3.43,-3.22 7.31,-6.87 9.7,-11.7 a 1.68,1.68 0 0 0 0,-1.68 c -1.49,-2.66 -10.12,-6.45 -42.78,-9.43 -0.93,-0.08 -1.61,-0.14 -2,-0.19 -3.12,-0.34 -7.23,-0.58 -12,-0.85 -19.54,-1.15 -49.06,-2.87 -56.88,-14.65 -1.93,-2.91 -2,-6.27 -2,-9.52 0,-2.8 -0.08,-5.44 -1.22,-7.81 -2.69,-5.58 -10.79,-8.74 -15.58,-9.5 l -0.87,-0.13 a 10.91,10.91 0 0 1 -4.56,-1.33 c -2.19,-1.4 -3.2,-4 -4.17,-6.48 -0.23,-0.58 -0.45,-1.15 -0.69,-1.71 -0.24,-0.56 -0.57,-1.25 -0.86,-1.78 H 36.87 Z"
       fill="#231f20"
       id="path4303" /><path
       d="m 53.89,227 c 0,0 44.42,-84.47 38.26,-131 l 6.25,-1.18 c 0,0 2.67,68.18 -26.89,136.38 z"
       fill="#231f20"
       id="path4307" /><path
       d="m 71.51,231.7 h -0.12 l -17.61,-4.24 a 0.51,0.51 0 0 1 -0.34,-0.28 0.49,0.49 0 0 1 0,-0.44 c 0.44,-0.84 44.28,-84.81 38.2,-130.65 a 0.5,0.5 0 0 1 0.41,-0.55 l 6.24,-1.18 a 0.5,0.5 0 0 1 0.41,0.1 0.52,0.52 0 0 1 0.19,0.37 c 0,0.68 2.33,69.09 -26.93,136.59 a 0.53,0.53 0 0 1 -0.45,0.28 z m -16.88,-5.08 16.58,4 C 98.79,166.76 98.07,102.22 97.91,95.44 l -5.2,1 c 5.5,44.21 -34.23,122.7 -38.08,130.18 z"
       fill="#231f20"
       id="path4309" /><path
       d="m 95.42,97.7 c 0,0 2.76,-18.3 -3,-30.42 C 86.66,55.16 77.2,52.62 62.65,56.5 a 106.45,106.45 0 0 1 32.77,41.2 z"
       fill="#231f20"
       id="path4311" /><path
       d="m 95.42,98.2 a 0.49,0.49 0 0 1 -0.45,-0.3 106.93,106.93 0 0 0 -32.6,-41 0.5,0.5 0 0 1 0.15,-0.9 c 15.55,-4.14 24.61,-0.84 30.31,11.06 5.8,12.11 3.12,30.52 3.09,30.71 a 0.51,0.51 0 0 1 -0.43,0.42 z M 63.8,56.72 A 109.11,109.11 0 0 1 95.14,95.87 C 95.65,91.01 96.56,77.16 91.93,67.5 86.61,56.39 78.16,53.13 63.8,56.72 Z"
       fill="#231f20"
       id="path4313" /><path
       d="m 95.42,97.7 c 0,0 21.93,-35.64 37.41,-39.78 0,0 -14.81,-10.67 -28,3.1 C 91.64,74.79 95.42,97.7 95.42,97.7 Z"
       fill="#231f20"
       id="path4315" /><path
       d="m 95.42,98.2 h -0.09 a 0.49,0.49 0 0 1 -0.4,-0.41 c 0,-0.23 -3.62,-23.31 9.57,-37.1 13.19,-13.79 28.5,-3.29 28.62,-3.18 a 0.49,0.49 0 0 1 0.2,0.5 0.48,0.48 0 0 1 -0.36,0.39 c -15.11,4 -36.89,39.21 -37.11,39.56 a 0.51,0.51 0 0 1 -0.43,0.24 z m 24.74,-43.77 c -4.56,0 -9.86,1.62 -14.94,6.94 -11,11.51 -10,29.76 -9.47,34.88 1.75,-2.75 6.4,-9.85 12.18,-17.2 9.39,-11.94 17.37,-19.09 23.73,-21.3 a 23,23 0 0 0 -11.5,-3.32 z"
       fill="#231f20"
       id="path4317" /><path
       d="m 95.42,97.7 c 0,0 1.91,-15 12.23,-17.62 10.32,-2.62 24.07,-1.72 29.17,8.77 0,0 -22.19,-3.61 -41.4,8.85 z"
       fill="#231f20"
       id="path4319" /><path
       d="M 95.42,98.2 A 0.42,0.42 0 0 1 95.16,98.12 0.47,0.47 0 0 1 94.93,97.64 C 95,97 97,82.23 107.53,79.6 c 10.53,-2.63 24.47,-1.8 29.74,9 a 0.51,0.51 0 0 1 -0.05,0.52 0.5,0.5 0 0 1 -0.48,0.2 c -0.22,0 -22.23,-3.43 -41,8.77 a 0.57,0.57 0 0 1 -0.32,0.11 z m 22,-18.85 a 40.23,40.23 0 0 0 -9.68,1.22 c -8.28,2.07 -11,12.66 -11.67,16.11 16.66,-10.3 35.41,-8.94 39.83,-8.45 -3.64,-6.56 -11.01,-8.88 -18.45,-8.88 z"
       fill="#231f20"
       id="path4321" /><path
       d="m 95.42,97.7 c 0,0 -0.5,-9.24 -11.35,-15.91 -10.85,-6.67 -24.25,-0.93 -32.51,7.51 -8.26,8.44 -6.93,20.34 -6.93,20.34 0,0 31.31,-24.31 50.79,-11.94 z"
       fill="#231f20"
       id="path4323" /><path
       d="m 44.63,110.14 a 0.48,0.48 0 0 1 -0.2,0 0.5,0.5 0 0 1 -0.3,-0.4 c 0,-0.12 -1.26,-12.24 7.07,-20.75 11.8,-12.1 25.15,-12.54 33.13,-7.63 11,6.73 11.57,15.93 11.59,16.31 a 0.49,0.49 0 0 1 -0.24,0.46 0.49,0.49 0 0 1 -0.52,0 c -19,-12 -49.91,11.67 -50.23,11.92 a 0.45,0.45 0 0 1 -0.3,0.09 z m 28.8,-30.72 c -6.65,0 -14.36,2.92 -21.51,10.23 -6.71,6.85 -7,16.14 -6.85,19 A 98.89,98.89 0 0 1 62.52,98.57 C 75.6,92.8 86.73,92.17 94.78,96.73 94.29,94.2 92.22,87.39 83.78,82.21 A 19.86,19.86 0 0 0 73.43,79.42 Z"
       fill="#231f20"
       id="path4325" /><path
       d="m 95.42,97.7 c 0,0 1.07,-3.15 -5,-4.94 -6.07,-1.79 -12.1,1 -18.16,7.46 -6.06,6.46 -6.62,20.85 -2.67,31.51"
       fill="#231f20"
       id="path4327" /><path
       d="M 69.57,132.23 A 0.52,0.52 0 0 1 69.1,131.9 c -4.82,-13 -2.37,-26.49 2.77,-32 6.44,-6.91 12.55,-9.4 18.67,-7.6 2.61,0.77 4.32,1.89 5.06,3.32 a 3.07,3.07 0 0 1 0.3,2.26 0.49,0.49 0 0 1 -0.64,0.31 A 0.48,0.48 0 0 1 94.95,97.57 2.16,2.16 0 0 0 94.7,96 c -0.43,-0.8 -1.55,-1.94 -4.44,-2.79 -5.72,-1.68 -11.5,0.71 -17.65,7.32 -5.55,6 -6.7,19.86 -2.57,31 a 0.52,0.52 0 0 1 -0.3,0.65 0.47,0.47 0 0 1 -0.17,0.05 z"
       fill="#231f20"
       id="path4329" /><path
       d="m 95.42,97.7 c 0,0 9.62,-7.38 21.81,1.53 14.76,10.79 12.08,23.15 4.1,35.85 0,0 -7.45,-24.39 -25.91,-37.38 z"
       fill="#231f20"
       id="path4331" /><path
       d="m 121.33,135.58 h -0.07 a 0.53,0.53 0 0 1 -0.41,-0.35 c -0.07,-0.25 -7.61,-24.38 -25.72,-37.12 a 0.5,0.5 0 0 1 0,-0.81 c 0.1,-0.07 10,-7.5 22.4,1.52 16.51,12.07 10.94,25.86 4.23,36.53 a 0.5,0.5 0 0 1 -0.43,0.23 z m -25,-37.86 c 15.84,11.5 23.52,31.46 25.16,36.19 9,-14.82 7.59,-25.42 -4.53,-34.28 C 106.84,92.25 98.52,96.36 96.3,97.72 Z"
       fill="#231f20"
       id="path4333" /><path
       d="m 101.55,244.51 c 0,0 30.45,-90.42 68.34,-118.07 l -3.45,-5.33 c 0,0 -51.19,45.13 -80.12,113.58 z"
       fill="#231f20"
       id="path4335" /><path
       d="m 101.55,245 a 0.53,0.53 0 0 1 -0.27,-0.08 L 86.05,235.1 a 0.51,0.51 0 0 1 -0.19,-0.61 C 114.5,166.72 165.59,121.17 166.1,120.72 a 0.53,0.53 0 0 1 0.4,-0.12 0.49,0.49 0 0 1 0.36,0.23 l 3.45,5.33 a 0.49,0.49 0 0 1 -0.12,0.67 C 132.83,154.09 102.33,243.76 102,244.67 a 0.49,0.49 0 0 1 -0.3,0.31 0.51,0.51 0 0 1 -0.15,0.02 z M 87,234.5 l 14.34,9.24 c 2.75,-8 32.12,-90.88 67.93,-117.42 l -2.89,-4.45 c -5.06,4.56 -52.26,48.6 -79.38,112.63 z"
       fill="#231f20"
       id="path4337" /><path
       d="m 166.41,125.24 c 0,0 11.34,-14.63 24.11,-18.79 12.77,-4.16 21.09,0.86 28.33,14.06 a 106.54,106.54 0 0 0 -52.44,4.73 z"
       fill="#231f20"
       id="path4339" /><path
       d="m 166.41,125.74 a 0.49,0.49 0 0 1 -0.4,-0.8 c 0.12,-0.15 11.59,-14.81 24.36,-19 12.54,-4.08 21.18,0.19 28.91,14.3 a 0.5,0.5 0 0 1 -0.54,0.73 107,107 0 0 0 -52.16,4.71 0.51,0.51 0 0 1 -0.17,0.06 z m 32.23,-20.22 a 25.71,25.71 0 0 0 -8,1.4 c -10.2,3.32 -19.58,13.54 -22.75,17.26 a 109.1,109.1 0 0 1 50,-4.34 c -5.53,-9.74 -11.57,-14.32 -19.25,-14.32 z"
       fill="#231f20"
       id="path4341" /><path
       d="m 166.41,125.24 c 0,0 10.65,-40.47 3,-54.53 0,0 17.93,3.36 17.06,22.39 -0.87,19.03 -20.06,32.14 -20.06,32.14 z"
       fill="#231f20"
       id="path4343" /><path
       d="m 166.41,125.74 a 0.52,0.52 0 0 1 -0.29,-0.09 0.49,0.49 0 0 1 -0.19,-0.54 c 0.1,-0.4 10.51,-40.43 3,-54.16 a 0.49,0.49 0 0 1 0,-0.53 0.51,0.51 0 0 1 0.5,-0.2 c 0.18,0 18.35,3.66 17.47,22.9 -0.88,19.06 -20.05,32.4 -20.25,32.53 a 0.47,0.47 0 0 1 -0.24,0.09 z m 3.89,-54.29 c 2.8,6.12 3.13,16.83 1,31.87 -1.33,9.25 -3.26,17.52 -4,20.69 4.07,-3.15 18,-15 18.7,-30.94 0.7,-15.94 -11.94,-20.6 -15.7,-21.62 z"
       fill="#231f20"
       id="path4345" /><path
       d="m 166.41,125.24 c 0,0 9.57,-11.75 4.31,-21 -5.26,-9.25 -15.37,-18.61 -26.48,-15.06 0,0 17.93,13.57 22.17,36.06 z"
       fill="#231f20"
       id="path4347" /><path
       d="m 166.41,125.74 h -0.12 a 0.49,0.49 0 0 1 -0.37,-0.4 c -4.16,-22 -21.8,-35.61 -22,-35.75 a 0.5,0.5 0 0 1 -0.19,-0.48 0.49,0.49 0 0 1 0.34,-0.39 c 11.5,-3.72 21.77,5.92 27.08,15.28 5.31,9.36 -4,21.08 -4.35,21.57 a 0.5,0.5 0 0 1 -0.39,0.17 z M 145.3,89.4 c 3.41,2.85 17.34,15.49 21.38,34.64 2,-2.87 7.82,-12.14 3.6,-19.56 C 165.3,95.71 155.84,86.69 145.3,89.4 Z"
       fill="#231f20"
       id="path4349" /><path
       d="m 166.41,125.24 c 0,0 7,-6 19.35,-2.77 12.35,3.23 17.41,16.91 17,28.71 -0.41,11.8 -9.93,19.06 -9.93,19.06 0,0 -4.02,-39.44 -26.42,-45 z"
       fill="#231f20"
       id="path4351" /><path
       d="m 192.83,170.74 a 0.71,0.71 0 0 1 -0.2,0 0.51,0.51 0 0 1 -0.3,-0.41 c 0,-0.39 -4.24,-39.15 -26,-44.56 a 0.53,0.53 0 0 1 -0.37,-0.37 0.51,0.51 0 0 1 0.16,-0.5 c 0.3,-0.25 7.39,-6.14 19.81,-2.87 9.06,2.39 18,12.35 17.37,29.21 -0.4,11.9 -10,19.36 -10.13,19.44 a 0.54,0.54 0 0 1 -0.34,0.06 z M 167.56,125 c 8.86,2.68 16.08,11.16 20.93,24.61 a 99,99 0 0 1 4.72,19.61 c 2.17,-1.93 8.73,-8.53 9,-18.09 0.56,-16.32 -7.95,-25.93 -16.63,-28.21 -9.5,-2.48 -15.86,0.73 -18.02,2.08 z"
       fill="#231f20"
       id="path4353" /><path
       d="m 166.41,125.24 c 0,0 1.54,-2.94 7,0.22 5.46,3.16 7.66,9.42 7.14,18.3 -0.52,8.88 -10.52,19.18 -21,23.67"
       fill="#231f20"
       id="path4355" /><path
       d="m 159.63,167.94 a 0.51,0.51 0 0 1 -0.46,-0.31 0.49,0.49 0 0 1 0.26,-0.65 c 10.91,-4.7 20.18,-15.13 20.66,-23.25 0.53,-9 -1.72,-14.85 -6.89,-17.83 -2.61,-1.5 -4.2,-1.53 -5.08,-1.29 a 2.12,2.12 0 0 0 -1.27,0.87 0.51,0.51 0 0 1 -0.68,0.2 0.49,0.49 0 0 1 -0.2,-0.67 3.09,3.09 0 0 1 1.84,-1.35 c 1.55,-0.45 3.53,0 5.89,1.37 5.53,3.19 7.94,9.32 7.38,18.76 -0.44,7.54 -8.51,18.62 -21.25,24.1 a 0.46,0.46 0 0 1 -0.2,0.05 z"
       fill="#231f20"
       id="path4357" /><path
       d="m 166.41,125.24 c 0,0 -1.29,-12 -16.15,-14.72 -18,-3.24 -25.1,7.23 -28.78,21.78 0,0 22.79,-11.45 44.93,-7.06 z"
       fill="#231f20"
       id="path4359" /><path
       d="m 121.48,132.8 a 0.51,0.51 0 0 1 -0.31,-0.11 0.52,0.52 0 0 1 -0.17,-0.52 c 3.08,-12.21 9.2,-25.76 29.34,-22.15 7.86,1.42 11.94,5.45 14,8.59 a 16.63,16.63 0 0 1 2.59,6.58 0.54,0.54 0 0 1 -0.16,0.42 0.48,0.48 0 0 1 -0.44,0.12 c -21.72,-4.3 -44.38,6.9 -44.6,7 a 0.49,0.49 0 0 1 -0.25,0.07 z m 22.58,-22.38 c -11.11,0 -18,6.68 -21.83,21 4.56,-2.07 24.31,-10.29 43.56,-6.77 -0.55,-2.54 -3.35,-11.41 -15.62,-13.61 a 34.6,34.6 0 0 0 -6.11,-0.62 z"
       fill="#231f20"
       id="path4361" /><path
       d="M 162.85,261.52 H 36.37 v -50.86 c 8,-0.08 16,-0.85 23.5,2 7.5,2.85 12.33,10.06 7.93,15.26 10.36,-5 25.48,-3.81 34.11,2.75 6.17,-1.89 13.74,-1 18.85,2.16 5.11,3.16 7.49,8.54 5.95,13.33 3.7,-3.29 10.72,-4.24 15.75,-2.12 5.03,2.12 7.5,7 5.55,11.06 a 27.57,27.57 0 0 1 14.84,6.42 z"
       fill="#231f20"
       id="path4363" /><path
       d="M 162.85,262 H 36.37 a 0.5,0.5 0 0 1 -0.5,-0.5 v -50.84 a 0.5,0.5 0 0 1 0.5,-0.5 l 3.84,-0.08 c 6.61,-0.16 13.45,-0.32 19.83,2.1 4.87,1.84 8.67,5.53 9.66,9.39 a 7.11,7.11 0 0 1 -0.51,5.17 c 10.38,-4.25 24.4,-2.89 32.82,3.37 6.26,-1.84 13.87,-0.93 19,2.28 4.81,3 7.29,7.88 6.51,12.5 a 17.26,17.26 0 0 1 15.13,-1.32 10.71,10.71 0 0 1 6,5.87 7.48,7.48 0 0 1 0.06,5.23 27.9,27.9 0 0 1 14.44,6.47 0.48,0.48 0 0 1 0.14,0.55 0.49,0.49 0 0 1 -0.44,0.31 z m -126,-1 h 124.58 a 27.26,27.26 0 0 0 -13.43,-5.42 0.48,0.48 0 0 1 -0.38,-0.25 0.5,0.5 0 0 1 0,-0.46 6.27,6.27 0 0 0 0.17,-5.08 9.68,9.68 0 0 0 -5.46,-5.3 c -4.84,-2 -11.67,-1.13 -15.23,2 a 0.5,0.5 0 0 1 -0.6,0 0.51,0.51 0 0 1 -0.2,-0.58 c 1.46,-4.57 -0.85,-9.69 -5.74,-12.75 -4.89,-3.06 -12.4,-4 -18.44,-2.1 a 0.55,0.55 0 0 1 -0.45,-0.08 c -8.42,-6.4 -23.49,-7.61 -33.59,-2.7 a 0.5,0.5 0 0 1 -0.6,-0.78 6.19,6.19 0 0 0 1.32,-5.76 c -0.92,-3.55 -4.48,-7 -9,-8.7 -6.2,-2.35 -12.94,-2.19 -19.46,-2 -1.12,0 -2.24,0.06 -3.36,0.07 z"
       fill="#231f20"
       id="path4365" /></g>
</svg>
