<svg width="18" height="16" viewBox="0 0 18 16" fill="none" xmlns="http://www.w3.org/2000/svg">
<path d="M2.10799 7.73473C0.69425 7.6054 0.113604 8.7337 0 9.31401C0.0159232 9.25183 0.219983 9.16479 0.908836 9.31401C1.7699 9.50054 2.43619 10.4705 3.35764 13.4052C4.09481 15.753 4.75877 16.0995 4.9986 15.9793C5.11641 15.942 5.56914 15.5839 6.43759 14.4498C7.52314 13.0322 9.49102 9.76627 11.7 6.22222C13.0164 4.11028 16.5358 0.741972 18 0C17.9369 0 17.4648 0.0795857 16.0813 0.397928C14.352 0.795857 9.98457 2.61141 7.4474 7.36168C4.91024 12.1119 5.32679 11.714 5.21318 10.8187C5.09958 9.92334 3.87518 7.89639 2.10799 7.73473Z" fill="#F9C754"/>
</svg>
