<svg width="174" height="73" viewBox="0 0 174 73" fill="none" xmlns="http://www.w3.org/2000/svg">
<path d="M5.4834 114.311C-10.1095 69.7092 13.8076 20.7717 58.9038 5.00592C104 -10.7599 153.198 12.6161 168.791 57.2176C173.325 70.1861 174.612 83.8054 172.705 97.145C172.411 99.2012 170.493 100.643 168.421 100.366C166.349 100.089 164.908 98.1973 165.201 96.1411C166.94 83.9763 165.767 71.5596 161.628 59.7217C147.403 19.0326 102.521 -2.29288 61.3804 12.09C20.24 26.4728 -1.57908 71.1175 12.646 111.807C13.3299 113.763 12.2809 115.909 10.303 116.601C8.32513 117.292 6.1673 116.267 5.4834 114.311ZM44.073 160.313C26.1179 150.211 12.3903 134.067 5.4834 114.311C4.7995 112.355 5.84851 110.208 7.82641 109.517C9.80431 108.825 11.9621 109.85 12.646 111.807C18.9493 129.836 31.4646 144.554 47.8479 153.773C49.6626 154.794 50.2887 157.086 49.2463 158.892C48.2039 160.698 45.8878 161.335 44.073 160.313Z" fill="#EF3291"/>
</svg>
