<svg width="52" height="43" viewBox="0 0 52 43" fill="none" xmlns="http://www.w3.org/2000/svg">
<path d="M43.4163 19.2354V22.4923C46.6043 24.0852 48.4566 26.0569 48.4566 28.0129C48.4566 32.4959 39.4372 36.0176 30.5137 36.7599C29.699 36.827 29.0934 37.5421 29.1615 38.3558C29.2254 39.1385 29.9002 39.7704 30.7574 39.7091C38.525 39.0696 51.4157 35.7178 51.4157 28.0129C51.4157 23.8049 47.2983 20.91 43.4163 19.2354Z" fill="black"/>
<path d="M17.258 31.7347C16.4362 30.8984 15.008 31.3071 14.7572 32.4559L14.1033 35.4502C4.30811 32.8138 -0.394703 27.1435 8.91343 22.4923V19.2354C-3.30053 24.5043 -1.38387 34.4008 13.471 38.3452L12.883 41.0373C12.6309 42.1915 13.7748 43.1679 14.878 42.7266L22.2757 39.7675C23.2543 39.3762 23.5225 38.111 22.7817 37.3569L17.258 31.7347Z" fill="black"/>
<path d="M26.8142 0.192345C26.3579 -0.0662693 25.7991 -0.0639011 25.345 0.198265L13.3516 7.12263C15.3828 8.29532 25.0591 13.882 26.163 14.5193L38.9787 7.08553L26.8142 0.192345Z" fill="black"/>
<path d="M11.8722 23.5339C11.8722 24.0626 12.1542 24.5509 12.6119 24.8152L24.6853 31.7858V17.0827L11.8721 9.68506L11.8722 23.5339Z" fill="black"/>
<path d="M40.4576 23.5341V9.64868L27.6445 17.081V31.786L39.7179 24.8154C40.1757 24.5511 40.4576 24.0628 40.4576 23.5341Z" fill="black"/>
</svg>
