<svg width="152" height="50" viewBox="0 0 152 50" fill="none" xmlns="http://www.w3.org/2000/svg">
<g id="Bg" filter="url(#filter0_d_272_2424)">
<path d="M16.2333 3.11812C16.9991 1.23301 18.8309 0 20.8656 0L144.572 0C148.121 0 150.54 3.59403 149.204 6.88189L133.767 44.8819C133.001 46.767 131.169 48 129.134 48H5.4281C1.87929 48 -0.539926 44.406 0.795766 41.1181L16.2333 3.11812Z" fill="#F4B406"/>
<path d="M16.6965 3.30631C17.3857 1.60971 19.0343 0.5 20.8656 0.5H144.572C147.766 0.5 149.943 3.73463 148.741 6.6937L133.304 44.6937C132.614 46.3903 130.966 47.5 129.134 47.5H5.4281C2.23417 47.5 0.0568762 44.2654 1.259 41.3063L16.6965 3.30631Z" stroke="black"/>
</g>
<defs>
<filter id="filter0_d_272_2424" x="0.422852" y="0" width="151.154" height="50" filterUnits="userSpaceOnUse" color-interpolation-filters="sRGB">
<feFlood flood-opacity="0" result="BackgroundImageFix"/>
<feColorMatrix in="SourceAlpha" type="matrix" values="0 0 0 0 0 0 0 0 0 0 0 0 0 0 0 0 0 0 127 0" result="hardAlpha"/>
<feOffset dx="2" dy="2"/>
<feComposite in2="hardAlpha" operator="out"/>
<feColorMatrix type="matrix" values="0 0 0 0 0 0 0 0 0 0 0 0 0 0 0 0 0 0 1 0"/>
<feBlend mode="normal" in2="BackgroundImageFix" result="effect1_dropShadow_272_2424"/>
<feBlend mode="normal" in="SourceGraphic" in2="effect1_dropShadow_272_2424" result="shape"/>
</filter>
</defs>
</svg>
