<svg width="22" height="20" viewBox="0 0 22 20" fill="none" xmlns="http://www.w3.org/2000/svg">
<g opacity="1">
<path d="M18.7773 10.2828H16.6238C16.3307 10.2828 16.047 10.3255 15.7769 10.404C15.2442 9.2873 14.1566 8.52002 12.9033 8.52002H9.0967C7.84343 8.52002 6.75581 9.2873 6.22308 10.404C5.95302 10.3255 5.66925 10.2828 5.37616 10.2828H3.22266C1.44568 10.2828 0 11.8243 0 13.7192V17.3901C0 18.527 0.86741 19.452 1.93359 19.452H20.0664C21.1326 19.452 22 18.527 22 17.3901V13.7192C22 11.8243 20.5543 10.2828 18.7773 10.2828ZM5.87404 11.9565V18.0774H1.93359C1.5782 18.0774 1.28906 17.7691 1.28906 17.3902V13.7192C1.28906 12.5823 2.15647 11.6574 3.22266 11.6574H5.37616C5.55113 11.6574 5.72056 11.6827 5.88186 11.7294C5.87722 11.8046 5.87404 11.8802 5.87404 11.9565ZM14.8369 18.0774H7.16311V11.9565C7.16311 10.8196 8.03052 9.89463 9.0967 9.89463H12.9033C13.9695 9.89463 14.8369 10.8196 14.8369 11.9565V18.0774ZM20.7109 17.3902C20.7109 17.7691 20.4218 18.0774 20.0664 18.0774H16.126V11.9565C16.126 11.8801 16.1228 11.8045 16.1181 11.7294C16.2794 11.6827 16.4489 11.6573 16.6238 11.6573H18.7773C19.8435 11.6573 20.7109 12.5823 20.7109 13.7192V17.3902Z" fill="black"/>
<path d="M4.29729 3.79248C2.71823 3.79248 1.43359 5.16233 1.43359 6.84613C1.43355 8.52993 2.71823 9.89978 4.29729 9.89978C5.8763 9.89978 7.16098 8.52993 7.16098 6.84613C7.16098 5.16233 5.87635 3.79248 4.29729 3.79248ZM4.29725 8.52521C3.42898 8.52521 2.72261 7.77199 2.72261 6.84613C2.72261 5.92027 3.42898 5.16705 4.29725 5.16705C5.16552 5.16705 5.87188 5.92027 5.87188 6.84613C5.87188 7.77199 5.16552 8.52521 4.29725 8.52521Z" fill="black"/>
<path d="M11.0016 0C8.89204 0 7.17578 1.8301 7.17578 4.07963C7.17578 6.32916 8.89204 8.15926 11.0016 8.15926C13.1112 8.15926 14.8275 6.32916 14.8275 4.07963C14.8275 1.83015 13.1112 0 11.0016 0ZM11.0016 6.78469C9.60283 6.78469 8.46484 5.57122 8.46484 4.07963C8.46484 2.58808 9.60283 1.37457 11.0016 1.37457C12.4004 1.37457 13.5384 2.58804 13.5384 4.07963C13.5384 5.57122 12.4004 6.78469 11.0016 6.78469Z" fill="black"/>
<path d="M17.7016 3.79248C16.1226 3.79248 14.8379 5.16233 14.8379 6.84613C14.8379 8.52993 16.1226 9.89978 17.7016 9.89978C19.2806 9.89978 20.5653 8.52993 20.5653 6.84613C20.5653 5.16233 19.2806 3.79248 17.7016 3.79248ZM17.7016 8.52521C16.8334 8.52521 16.127 7.77199 16.127 6.84613C16.127 5.92027 16.8334 5.16705 17.7016 5.16705C18.5699 5.16705 19.2762 5.92027 19.2762 6.84613C19.2762 7.77199 18.5699 8.52521 17.7016 8.52521Z" fill="black"/>
</g>
</svg>
