<svg width="20" height="16" viewBox="0 0 20 16" fill="none" xmlns="http://www.w3.org/2000/svg">
<path d="M16.941 1.33443C15.6294 0.702852 14.2419 0.254086 12.8151 0C12.6374 0.330693 12.4297 0.775477 12.2865 1.12933C10.7482 0.891256 9.22396 0.891256 7.71388 1.12933C7.57077 0.775558 7.35844 0.330693 7.17907 0C5.75086 0.254203 4.36216 0.704112 3.04999 1.33773C0.438878 5.39875 -0.268976 9.35879 0.084912 13.2628C1.81677 14.5938 3.49512 15.4025 5.14519 15.9316C5.55527 15.3512 5.91778 14.7367 6.22896 14.0945C5.63652 13.8623 5.06537 13.5763 4.52233 13.2396C4.66524 13.1306 4.80478 13.017 4.94075 12.899C8.23136 14.4831 11.8068 14.4831 15.0582 12.899C15.1947 13.0162 15.3342 13.1298 15.4765 13.2396C14.9326 13.5771 14.3604 13.8638 13.7668 14.0962C14.0797 14.741 14.4416 15.3561 14.8505 15.9332C16.5022 15.4041 18.1821 14.5955 19.9139 13.2628C20.3292 8.73713 19.2046 4.81335 16.941 1.33435V1.33443ZM6.6773 10.8619C5.68946 10.8619 4.87935 9.91276 4.87935 8.75698C4.87935 7.60121 5.6722 6.65045 6.6773 6.65045C7.68248 6.65045 8.49252 7.59952 8.47525 8.75698C8.47681 9.91276 7.68248 10.8619 6.6773 10.8619ZM13.3216 10.8619C12.3337 10.8619 11.5237 9.91276 11.5237 8.75698C11.5237 7.60121 12.3165 6.65045 13.3216 6.65045C14.3267 6.65045 15.1368 7.59952 15.1195 8.75698C15.1195 9.91276 14.3267 10.8619 13.3216 10.8619Z" fill="white"/>
</svg>
