<svg width="18" height="18" viewBox="0 0 18 18" fill="none" xmlns="http://www.w3.org/2000/svg">
<rect x="0.837891" y="0.858765" width="16.5405" height="16.5405" rx="8.27027" fill="white"/>
<path d="M12.3867 5.54304C12.3293 5.48562 12.2514 5.45337 12.1702 5.45337C12.089 5.45337 12.0111 5.48562 11.9537 5.54304L10.9816 6.51511C10.3975 6.22971 9.75766 6.07632 9.1076 6.06583C6.61892 6.06583 4.66099 8.52847 4.57892 8.63321C4.53664 8.68713 4.51367 8.75366 4.51367 8.82217C4.51367 8.89069 4.53664 8.95722 4.57892 9.01114C5.17133 9.72709 5.87726 10.3409 6.66854 10.8282L5.82846 11.6683C5.79921 11.6965 5.77588 11.7303 5.75983 11.7677C5.74378 11.805 5.73533 11.8452 5.73498 11.8859C5.73462 11.9266 5.74237 11.9669 5.75777 12.0045C5.77317 12.0422 5.79591 12.0764 5.82467 12.1051C5.85342 12.1339 5.88762 12.1566 5.92525 12.172C5.96289 12.1874 6.00322 12.1951 6.04389 12.1948C6.08455 12.1944 6.12474 12.186 6.1621 12.1699C6.19947 12.1539 6.23326 12.1306 6.26151 12.1013L12.3867 5.97609C12.4441 5.91866 12.4764 5.84077 12.4764 5.75956C12.4764 5.67836 12.4441 5.60047 12.3867 5.54304ZM7.57629 8.82217C7.57678 8.4162 7.73827 8.02699 8.02534 7.73992C8.31241 7.45285 8.70162 7.29136 9.1076 7.29087C9.40619 7.29299 9.69734 7.38428 9.94369 7.55303L7.83845 9.65827C7.6697 9.41192 7.57841 9.12077 7.57629 8.82217Z" fill="black"/>
<path d="M13.6361 8.63321C13.1779 8.07801 12.6515 7.58286 12.0693 7.15948L10.6173 8.61147C10.6295 8.68111 10.6366 8.75152 10.6388 8.82218C10.6383 9.22815 10.4768 9.61736 10.1897 9.90443C9.90265 10.1915 9.51344 10.353 9.10746 10.3535C9.03681 10.3513 8.9664 10.3442 8.89676 10.332L7.85547 11.3733C8.25979 11.5056 8.68207 11.5748 9.10746 11.5785C11.5961 11.5785 13.5541 9.11588 13.6361 9.01114C13.6784 8.95722 13.7014 8.89069 13.7014 8.82218C13.7014 8.75366 13.6784 8.68713 13.6361 8.63321Z" fill="black"/>
</svg>
