<svg width="18" height="17" viewBox="0 0 18 17" fill="none" xmlns="http://www.w3.org/2000/svg">
<rect width="16.5405" height="16.5405" rx="8.27027" transform="matrix(-1 0 0 1 17.1621 0)" fill="white"/>
<path d="M9.19391 5C7.27078 5 5.52678 6.05216 4.23989 7.76115C4.13488 7.90117 4.13488 8.09677 4.23989 8.23679C5.52678 9.94784 7.27078 11 9.19391 11C11.117 11 12.861 9.94784 14.1479 8.23885C14.2529 8.09883 14.2529 7.90323 14.1479 7.76321C12.861 6.05216 11.117 5 9.19391 5ZM9.33186 10.1126C8.05527 10.1929 7.00104 9.1407 7.08135 7.86205C7.14723 6.80782 8.00173 5.95333 9.05595 5.88744C10.3325 5.80714 11.3868 6.8593 11.3065 8.13795C11.2385 9.19012 10.384 10.0446 9.33186 10.1126ZM9.26803 9.13658C8.58032 9.17982 8.01203 8.61359 8.05732 7.92588C8.09233 7.35758 8.55355 6.89842 9.12184 6.86136C9.80956 6.81812 10.3778 7.38435 10.3325 8.07207C10.2955 8.64242 9.83426 9.10158 9.26803 9.13658Z" fill="black"/>
</svg>
