<svg width="17" height="19" viewBox="0 0 17 19" fill="none" xmlns="http://www.w3.org/2000/svg">
<g id="Group 1999" opacity="1">
<path id="Vector" d="M16.1055 15.379L13.8141 10.7957C14.5641 9.68946 15.0028 8.35578 15.0028 6.92141C15.0028 3.10493 11.8979 0 8.08139 0C4.26491 0 1.15998 3.10493 1.15998 6.92141C1.15998 8.35578 1.59867 9.6896 2.34885 10.796L0.0571304 15.379C-0.0267714 15.5469 -0.0177467 15.7462 0.0808204 15.9058C0.179528 16.0654 0.353819 16.1627 0.541505 16.1627H3.17066L4.74816 18.2661C4.8511 18.4031 5.01185 18.4827 5.18135 18.4827C5.40598 18.4827 5.58295 18.3487 5.66572 18.1833L7.83843 13.838C7.91909 13.8408 8.00003 13.8428 8.08139 13.8428C8.16275 13.8428 8.24369 13.8408 8.32435 13.838L10.4971 18.1833C10.5795 18.3484 10.7567 18.4827 10.9814 18.4827C11.1508 18.4827 11.3117 18.4031 11.4145 18.2661L12.9921 16.1627H15.6213C15.809 16.1627 15.9833 16.0654 16.0818 15.9058C16.1805 15.7462 16.1896 15.5469 16.1055 15.379ZM5.08898 16.9153L3.87459 15.2964C3.77236 15.16 3.61189 15.0798 3.44141 15.0798H1.41761L3.0979 11.7195C4.05199 12.7099 5.2974 13.4179 6.69496 13.7032L5.08898 16.9153ZM2.24295 6.92141C2.24295 3.70212 4.8621 1.08297 8.08139 1.08297C11.3007 1.08297 13.9198 3.70212 13.9198 6.92141C13.9198 10.1407 11.3007 12.7598 8.08139 12.7598C4.8621 12.7598 2.24295 10.1407 2.24295 6.92141ZM12.7212 15.0798C12.5509 15.0798 12.3904 15.16 12.288 15.2964L11.0738 16.9153L9.46767 13.7032C10.8654 13.4178 12.1109 12.7099 13.065 11.7192L14.745 15.0796H12.7212V15.0798Z" fill="black"/>
<path id="Vector_2" d="M10.8453 7.81941L12.3575 6.01447C12.4773 5.87148 12.5151 5.67688 12.4575 5.49949C12.3998 5.32196 12.2548 5.18673 12.0739 5.14146L9.78967 4.57009L8.54016 2.57407C8.44117 2.41585 8.26773 2.31982 8.08117 2.31982C7.89461 2.31982 7.72117 2.41585 7.62218 2.57407L6.37296 4.57009L4.08885 5.14146C3.9078 5.18673 3.76284 5.32196 3.70516 5.49935C3.64763 5.67688 3.68528 5.87148 3.80514 6.01447L5.31735 7.81941L5.15462 10.1682C5.14179 10.3544 5.22555 10.534 5.37643 10.6437C5.60557 10.8103 5.83867 10.7314 5.89719 10.7079L8.08117 9.8277L10.2652 10.708C10.4382 10.7777 10.6349 10.7534 10.7858 10.6439C10.9368 10.5342 11.0206 10.3545 11.0077 10.1684L10.8453 7.81941ZM9.87498 7.29118C9.78501 7.39863 9.74017 7.53654 9.7499 7.67629L9.86765 9.38013L8.28366 8.74163C8.1081 8.67084 7.95412 8.71117 7.87882 8.74163L6.29484 9.38013L6.41286 7.67643C6.42245 7.53668 6.37761 7.39863 6.28765 7.29118L5.19086 5.98217L6.8476 5.56774C6.98354 5.53376 7.10086 5.44845 7.17517 5.32971L8.08131 3.88195L8.98759 5.32971C9.06191 5.44845 9.17923 5.53376 9.31516 5.56774L10.9719 5.98217L9.87498 7.29118Z" fill="black"/>
</g>
</svg>
