<svg width="20" height="18" viewBox="0 0 20 18" fill="none" xmlns="http://www.w3.org/2000/svg">
<g id="Group 1866" opacity="1">
<path id="Vector" d="M14.0269 5.34398L5.98054 9.99405C5.83237 10.0787 5.66467 10.1233 5.49401 10.1233C5.32335 10.1233 5.15565 10.0787 5.00748 9.99405L2.43076 8.51015C2.28467 8.42362 2.16377 8.30037 2.08006 8.15265C1.99635 8.00493 1.95275 7.83787 1.95359 7.66808V4.70027C1.9537 4.52956 1.99872 4.3619 2.08411 4.21409C2.16951 4.06629 2.29229 3.94355 2.44012 3.8582L5.00936 2.37429C5.15752 2.28962 5.32523 2.24507 5.49588 2.24507C5.66654 2.24507 5.83424 2.28962 5.98241 2.37429L8.55165 3.8582C8.69948 3.94355 8.82226 4.06629 8.90765 4.21409C8.99305 4.3619 9.03806 4.52956 9.03817 4.70027V6.12429C9.03822 6.16679 9.0494 6.20853 9.0706 6.24536C9.0918 6.28219 9.12228 6.31282 9.159 6.33421C9.19572 6.3556 9.2374 6.36699 9.27989 6.36726C9.32239 6.36753 9.36421 6.35667 9.4012 6.33574L10.7391 5.56292C10.8128 5.52015 10.874 5.45871 10.9163 5.38479C10.9587 5.31087 10.9809 5.22709 10.9805 5.14188V3.57751C10.9804 3.40703 10.9356 3.23956 10.8506 3.0918C10.7655 2.94405 10.6432 2.82118 10.4959 2.73545L5.97305 0.130654C5.82519 0.0450675 5.65737 0 5.48653 0C5.31568 0 5.14786 0.0450675 5 0.130654L0.486527 2.73545C0.338695 2.8208 0.215918 2.94353 0.13052 3.09134C0.0451224 3.23914 0.000109403 3.40681 0 3.57751V8.79083C0.000109403 8.96154 0.0451224 9.1292 0.13052 9.27701C0.215918 9.42481 0.338695 9.54755 0.486527 9.6329L5 12.2377C5.14786 12.3233 5.31568 12.3683 5.48653 12.3683C5.65737 12.3683 5.82519 12.3233 5.97305 12.2377L14.0195 7.58762C14.1676 7.50294 14.3353 7.4584 14.506 7.4584C14.6766 7.4584 14.8443 7.50294 14.9925 7.58762L17.5618 9.07152C17.7096 9.15687 17.8324 9.27961 17.9178 9.42741C18.0032 9.57522 18.0482 9.74289 18.0483 9.91359V12.8814C18.0482 13.0521 18.0032 13.2198 17.9178 13.3676C17.8324 13.5154 17.7096 13.6381 17.5618 13.7235L15 15.2074C14.8518 15.2921 14.6841 15.3366 14.5135 15.3366C14.3428 15.3366 14.1751 15.2921 14.0269 15.2074L11.4577 13.7235C11.3099 13.6381 11.1871 13.5154 11.1017 13.3676C11.0163 13.2198 10.9713 13.0521 10.9712 12.8814V11.4555C10.9714 11.4129 10.9603 11.3711 10.9391 11.3342C10.9179 11.2973 10.8873 11.2667 10.8505 11.2454C10.8136 11.2241 10.7718 11.2129 10.7292 11.213C10.6867 11.2131 10.6449 11.2245 10.6082 11.2459L9.27021 12.0169C9.19664 12.0598 9.13563 12.1213 9.09327 12.1952C9.05091 12.269 9.02868 12.3527 9.02882 12.4379V14.0042C9.02892 14.1746 9.07373 14.3421 9.15878 14.4899C9.24382 14.6376 9.36612 14.7605 9.51347 14.8462L14.0269 17.451C14.1748 17.5366 14.3426 17.5817 14.5135 17.5817C14.6843 17.5817 14.8521 17.5366 15 17.451L19.5135 14.8462C19.6613 14.7609 19.7841 14.6381 19.8695 14.4903C19.9549 14.3425 19.9999 14.1749 20 14.0042V8.79083C19.9999 8.62013 19.9549 8.45247 19.8695 8.30466C19.7841 8.15686 19.6613 8.03412 19.5135 7.94877L15 5.34398C14.8521 5.25839 14.6843 5.21332 14.5135 5.21332C14.3426 5.21332 14.1748 5.25839 14.0269 5.34398Z" fill="black"/>
</g>
</svg>
