<svg width="22" height="22" viewBox="0 0 22 22" fill="none" xmlns="http://www.w3.org/2000/svg">
<g id="Group 1868" opacity="1">
<path id="Vector" d="M16.1572 10.5083L18.5853 8.0802L21.0134 10.5083L18.5853 12.9364L16.1572 10.5083Z" fill="black"/>
<path id="Vector_2" d="M0 10.5078L2.4281 8.07972L4.85619 10.5078L2.4281 12.9359L0 10.5078Z" fill="black"/>
<path id="Vector_3" d="M10.5091 16.1617L6.48366 12.1362L4.05566 14.5642L10.5091 21.0177L16.9626 14.5642L14.5346 12.1362L10.5091 16.1617Z" fill="black"/>
<path id="Vector_4" d="M10.5091 4.856L14.5346 8.88147L16.9626 6.45347L10.5091 0L4.05566 6.45347L6.48366 8.88147L10.5091 4.856Z" fill="black"/>
<path id="Vector_5" d="M8.10742 10.5088L10.5051 8.11111L12.9028 10.5088L10.5051 12.9065L8.10742 10.5088Z" fill="black"/>
</g>
</svg>
