<svg width="40" height="40" viewBox="0 0 40 40" fill="none" xmlns="http://www.w3.org/2000/svg">
<path d="M26.4139 24.1398L26.0888 23.9578L25.7312 25.0694L26.6544 27.8389C26.7 27.9671 26.7 28.1072 26.6544 28.2355L25.7572 31.0504L26.5764 34.0929C26.6093 34.207 26.6103 34.3279 26.5793 34.4425C26.5484 34.5571 26.4867 34.661 26.4009 34.743C26.3168 34.8255 26.2119 34.8835 26.0974 34.911C25.9829 34.9385 25.8631 34.9344 25.7507 34.899L24.7691 34.6065H24.7041H24.6521L23.4039 34.1969L21.4535 35.0486C21.3698 35.0867 21.279 35.1067 21.187 35.1071C21.097 35.1072 21.0082 35.0872 20.927 35.0486L19.0286 34.2164L17.1368 35.0486C17.0556 35.0873 16.9668 35.1074 16.8768 35.1074C16.7868 35.1074 16.698 35.0873 16.6168 35.0486L14.7184 34.2164L12.8266 35.0486C12.7454 35.0873 12.6566 35.1074 12.5666 35.1074C12.4766 35.1074 12.3878 35.0873 12.3065 35.0486L10.4017 34.1969L8.08086 34.886C7.99063 34.9129 7.89565 34.9198 7.80249 34.9063C7.70933 34.8929 7.6202 34.8593 7.54127 34.808L7.44375 34.7235C7.35793 34.6415 7.2962 34.5376 7.26526 34.423C7.23432 34.3084 7.23534 34.1875 7.26823 34.0734L8.08736 31.0114L7.32023 28.671L7.19021 28.2615C7.14459 28.1332 7.14459 27.9931 7.19021 27.8649L8.08086 25.0954L7.19021 22.326C7.14459 22.1977 7.14459 22.0577 7.19021 21.9294L8.08086 19.16L7.19021 16.3905C7.14459 16.2623 7.14459 16.1222 7.19021 15.994L8.08736 13.205L7.26823 10.1365C7.23534 10.0224 7.23432 9.90155 7.26526 9.78695C7.2962 9.67234 7.35793 9.5684 7.44375 9.48639C7.52783 9.40395 7.63271 9.34588 7.74721 9.3184C7.86171 9.29092 7.98153 9.29506 8.09386 9.33036L10.4082 9.98047L12.3586 9.12883C12.4415 9.0921 12.5312 9.07313 12.6219 9.07313C12.7125 9.07313 12.8022 9.0921 12.8851 9.12883L14.777 9.96097L16.6688 9.12883C16.7445 9.10599 16.8239 9.09718 16.9028 9.10283V7.19801C16.9026 6.74142 16.9728 6.28753 17.1108 5.85229H6.5011C5.98384 5.85229 5.48777 6.05777 5.12202 6.42353C4.75626 6.78929 4.55078 7.28536 4.55078 7.80261V36.4073C4.55078 36.9246 4.75626 37.4206 5.12202 37.7864C5.48777 38.1521 5.98384 38.3576 6.5011 38.3576H27.3045C27.8218 38.3576 28.3178 38.1521 28.6836 37.7864C29.0493 37.4206 29.2548 36.9246 29.2548 36.4073V24.6534C29.0401 24.6903 28.8225 24.7077 28.6047 24.7054C27.8385 24.7043 27.0849 24.5098 26.4139 24.1398Z" fill="black"/>
<path d="M8.81523 33.3065L10.2585 32.8839C10.4013 32.8323 10.5577 32.8323 10.7005 32.8839L12.5989 33.7225L14.4907 32.8839C14.5727 32.8481 14.6612 32.8296 14.7507 32.8296C14.8402 32.8296 14.9287 32.8481 15.0107 32.8839L16.9026 33.7485L18.7944 32.9099C18.8764 32.8741 18.9649 32.8556 19.0544 32.8556C19.1439 32.8556 19.2324 32.8741 19.3145 32.9099L21.2128 33.7485L22.9485 32.9814L14.1136 24.1335C14.0532 24.0725 13.9813 24.0242 13.902 23.9912C13.8228 23.9582 13.7378 23.9412 13.652 23.9412C13.5662 23.9412 13.4812 23.9582 13.402 23.9912C13.3228 24.0242 13.2509 24.0725 13.1904 24.1335L8.67871 28.6452L9.38083 30.8231C9.41425 30.9399 9.41425 31.0638 9.38083 31.1806L8.81523 33.3065Z" fill="black"/>
<path d="M31.8555 36.4075H34.4561V39.0081H31.8555V36.4075Z" fill="black"/>
<path d="M0 3.25195H2.60064V5.85259H0V3.25195Z" fill="black"/>
<path d="M37.3478 4.38313L30.1641 0.404481C29.6869 0.139211 29.1499 0 28.6038 0C28.0578 0 27.5208 0.139211 27.0436 0.404481L19.8599 4.38313C19.3597 4.66428 18.9429 5.07281 18.6517 5.56722C18.3605 6.06164 18.2054 6.62432 18.2021 7.19809V16.2086C18.2043 16.7834 18.3589 17.3475 18.6501 17.8431C18.9413 18.3388 19.3588 18.7483 19.8599 19.03L27.0436 23.0022C27.522 23.2639 28.0585 23.4011 28.6038 23.4011C29.1492 23.4011 29.6857 23.2639 30.1641 23.0022L37.3478 19.03C37.8489 18.7483 38.2664 18.3388 38.5576 17.8431C38.8488 17.3475 39.0034 16.7834 39.0055 16.2086V7.19809C39.0023 6.62432 38.8472 6.06164 38.556 5.56722C38.2648 5.07281 37.848 4.66428 37.3478 4.38313ZM26.0034 14.3038C26.0034 14.4762 25.9349 14.6415 25.813 14.7634C25.6911 14.8854 25.5257 14.9539 25.3533 14.9539C25.2399 14.9532 25.1286 14.9228 25.0305 14.8658C24.9324 14.8088 24.851 14.7271 24.7942 14.6288L22.1028 11.0532V14.3038C22.1028 14.4762 22.0343 14.6415 21.9124 14.7634C21.7905 14.8854 21.6251 14.9539 21.4527 14.9539C21.2803 14.9539 21.1149 14.8854 20.993 14.7634C20.8711 14.6415 20.8026 14.4762 20.8026 14.3038V9.1029C20.8026 8.93048 20.8711 8.76513 20.993 8.64321C21.1149 8.52129 21.2803 8.4528 21.4527 8.4528C21.5741 8.45436 21.6927 8.4899 21.7949 8.5554C21.8972 8.62089 21.9791 8.71372 22.0313 8.82336C22.021 8.79401 22.0079 8.76571 21.9923 8.73884L24.7032 12.3534V9.1029C24.7032 8.93048 24.7717 8.76513 24.8936 8.64321C25.0155 8.52129 25.1809 8.4528 25.3533 8.4528C25.5257 8.4528 25.6911 8.52129 25.813 8.64321C25.9349 8.76513 26.0034 8.93048 26.0034 9.1029V14.3038ZM30.5542 11.0532C30.7266 11.0532 30.8919 11.1217 31.0139 11.2436C31.1358 11.3656 31.2043 11.5309 31.2043 11.7033C31.2043 11.8757 31.1358 12.0411 31.0139 12.163C30.8919 12.2849 30.7266 12.3534 30.5542 12.3534H28.6038V14.3038C28.6038 14.4762 28.5354 14.6415 28.4134 14.7634C28.2915 14.8854 28.1262 14.9539 27.9537 14.9539C27.7813 14.9539 27.616 14.8854 27.494 14.7634C27.3721 14.6415 27.3036 14.4762 27.3036 14.3038V9.1029C27.3036 8.93048 27.3721 8.76513 27.494 8.64321C27.616 8.52129 27.7813 8.4528 27.9537 8.4528H30.5542C30.7266 8.4528 30.8919 8.52129 31.0139 8.64321C31.1358 8.76513 31.2043 8.93048 31.2043 9.1029C31.2043 9.27532 31.1358 9.44068 31.0139 9.5626C30.8919 9.68452 30.7266 9.75301 30.5542 9.75301H28.6038V11.0532H30.5542ZM35.755 9.75301H35.1049V14.3038C35.1049 14.4762 35.0364 14.6415 34.9145 14.7634C34.7926 14.8854 34.6272 14.9539 34.4548 14.9539C34.2824 14.9539 34.117 14.8854 33.9951 14.7634C33.8732 14.6415 33.8047 14.4762 33.8047 14.3038V9.75301H33.1546C32.9822 9.75301 32.8168 9.68452 32.6949 9.5626C32.573 9.44068 32.5045 9.27532 32.5045 9.1029C32.5045 8.93048 32.573 8.76513 32.6949 8.64321C32.8168 8.52129 32.9822 8.4528 33.1546 8.4528H35.755C35.9274 8.4528 36.0928 8.52129 36.2147 8.64321C36.3366 8.76513 36.4051 8.93048 36.4051 9.1029C36.4051 9.27532 36.3366 9.44068 36.2147 9.5626C36.0928 9.68452 35.9274 9.75301 35.755 9.75301Z" fill="black"/>
<path d="M16.253 17.5545C16.253 17.0401 16.1005 16.5373 15.8147 16.1097C15.529 15.682 15.1228 15.3487 14.6476 15.1518C14.1724 14.955 13.6495 14.9035 13.145 15.0038C12.6406 15.1042 12.1772 15.3519 11.8135 15.7156C11.4498 16.0793 11.2021 16.5427 11.1017 17.0471C11.0014 17.5516 11.0529 18.0745 11.2497 18.5497C11.4466 19.0249 11.7799 19.4311 12.2076 19.7168C12.6352 20.0026 13.138 20.1551 13.6524 20.1551C14.3421 20.1551 15.0036 19.8811 15.4913 19.3934C15.979 18.9057 16.253 18.2442 16.253 17.5545Z" fill="black"/>
</svg>
