<svg width="39" height="34" viewBox="0 0 39 34" fill="none" xmlns="http://www.w3.org/2000/svg">
<path d="M38.133 12.8632C37.8616 12.2627 37.5596 11.6765 37.2281 11.1069L32.9578 22.7068C32.795 23.1402 32.5581 23.542 32.2578 23.8944C33.4041 23.7809 34.5086 23.4042 35.4854 22.7937C36.4621 22.1832 37.2846 21.3553 37.8888 20.3746C38.493 19.3939 38.8625 18.287 38.9686 17.14C39.0746 15.9931 38.9143 14.8371 38.5002 13.7623C38.3864 13.4562 38.2643 13.1584 38.133 12.8632Z" fill="black"/>
<path d="M13.6239 2.40915C11.1322 3.29611 8.84505 4.67671 6.8994 6.46831C4.95375 8.2599 3.38959 10.4257 2.30057 12.8359C1.21154 15.2462 0.620037 17.8514 0.561463 20.4957C0.502888 23.1399 0.978448 25.7687 1.95967 28.2249C1.9856 28.2776 2.00316 28.3294 2.02909 28.3821C2.55038 29.627 3.39909 30.7075 4.48509 31.5088C5.57109 32.3101 6.85384 32.8023 8.19711 32.9332C9.54037 33.0641 10.894 32.8287 12.1143 32.2521C13.3345 31.6755 14.3758 30.7792 15.1276 29.6583C16.7 27.2898 18.9573 25.457 21.5983 24.4045C21.6819 24.3711 21.7656 24.346 21.8492 24.3151C22.1465 23.6291 22.589 23.0157 23.1462 22.5172C23.7033 22.0186 24.3619 21.6468 25.0766 21.4272C25.0592 20.7974 25.1883 20.1721 25.4538 19.6007L32.0607 5.29364C29.4655 3.32632 26.423 2.03311 23.2056 1.52972C19.9881 1.02634 16.696 1.3285 13.6239 2.40915ZM8.49724 24.2373C7.8356 24.2373 7.18882 24.0411 6.63868 23.6735C6.08855 23.3059 5.65978 22.7834 5.40658 22.1722C5.15338 21.5609 5.08713 20.8883 5.21621 20.2393C5.34529 19.5904 5.6639 18.9943 6.13175 18.5265C6.5996 18.0586 7.19567 17.74 7.8446 17.6109C8.49353 17.4819 9.16615 17.5481 9.77743 17.8013C10.3887 18.0545 10.9112 18.4833 11.2788 19.0334C11.6463 19.5835 11.8425 20.2303 11.8425 20.892C11.8425 21.7792 11.4901 22.6301 10.8627 23.2575C10.2354 23.8848 9.38447 24.2373 8.49724 24.2373ZM12.6789 14.6195C12.0172 14.6195 11.3704 14.4233 10.8203 14.0557C10.2702 13.6881 9.84141 13.1657 9.58821 12.5544C9.33501 11.9431 9.26876 11.2705 9.39784 10.6216C9.52692 9.97265 9.84553 9.37657 10.3134 8.90872C10.7812 8.44088 11.3773 8.12227 12.0262 7.99319C12.6752 7.86411 13.3478 7.93035 13.9591 8.18355C14.5703 8.43675 15.0928 8.86553 15.4604 9.41566C15.828 9.96579 16.0242 10.6126 16.0242 11.2742C16.0242 12.1614 15.6717 13.0123 15.0444 13.6397C14.417 14.2671 13.5661 14.6195 12.6789 14.6195ZM22.7148 11.6924C22.0531 11.6924 21.4064 11.4962 20.8562 11.1286C20.3061 10.761 19.8773 10.2385 19.6241 9.62726C19.3709 9.01599 19.3047 8.34336 19.4338 7.69443C19.5628 7.04551 19.8814 6.44943 20.3493 5.98158C20.8171 5.51373 21.4132 5.19512 22.0621 5.06604C22.7111 4.93696 23.3837 5.00321 23.995 5.25641C24.6063 5.50961 25.1287 5.93839 25.4963 6.48852C25.8639 7.03865 26.0601 7.68543 26.0601 8.34707C26.0601 9.2343 25.7076 10.0852 25.0803 10.7126C24.4529 11.3399 23.602 11.6924 22.7148 11.6924Z" fill="black"/>
<path d="M37.7497 0.528279C37.3786 0.374156 36.9623 0.369767 36.588 0.516034C36.2138 0.662301 35.9107 0.947852 35.7425 1.31275L26.9745 20.3015C26.7726 20.7383 26.7073 21.2259 26.7871 21.7005C26.8669 22.175 27.0882 22.6144 27.4219 22.9611C26.6068 22.7699 25.7503 22.8744 25.0052 23.2559C24.26 23.6375 23.6745 24.2713 23.3532 25.0443C21.9991 28.3144 24.141 29.7487 22.7861 33.0187C24.3307 32.8462 25.802 32.2678 27.0506 31.3424C28.2992 30.4169 29.2805 29.1774 29.8949 27.7499C30.1842 27.0469 30.2387 26.2693 30.0503 25.5329C29.8619 24.7964 29.4408 24.1405 28.8495 23.6627C29.3842 23.7317 29.9265 23.6173 30.3878 23.3382C30.8491 23.0592 31.2022 22.632 31.3894 22.1264L38.6153 2.49699C38.7525 2.12053 38.7391 1.70563 38.5778 1.33883C38.4165 0.972031 38.1199 0.681659 37.7497 0.528279Z" fill="black"/>
</svg>
