<svg width="14" height="15" viewBox="0 0 14 15" fill="none" xmlns="http://www.w3.org/2000/svg">
<path d="M13.2067 12.0695C13.2067 10.9862 12.3286 10.1081 11.2454 10.1081C10.1622 10.1081 9.28418 10.9862 9.28418 12.0695C9.28418 13.1526 10.1622 14.0307 11.2454 14.0307C12.3286 14.0307 13.2067 13.1526 13.2067 12.0695Z" fill="black"/>
<path d="M11.2449 9.6555C9.91361 9.6555 8.83105 10.7382 8.83105 12.0695C8.83105 13.4006 9.91361 14.4833 11.2449 14.4833C12.5762 14.4833 13.6587 13.4006 13.6587 12.0695C13.6587 10.7382 12.5762 9.6555 11.2449 9.6555ZM11.2449 13.5781C10.4127 13.5781 9.73626 12.901 9.73626 12.0695C9.73626 11.2378 10.4127 10.5607 11.2449 10.5607C12.0771 10.5607 12.7535 11.2378 12.7535 12.0695C12.7535 12.901 12.0771 13.5781 11.2449 13.5781Z" fill="black"/>
<path d="M13.2067 2.41383C13.2067 1.33072 12.3286 0.452589 11.2454 0.452589C10.1622 0.452589 9.28418 1.33072 9.28418 2.41383C9.28418 3.49705 10.1622 4.37519 11.2454 4.37519C12.3286 4.37519 13.2067 3.49705 13.2067 2.41383Z" fill="black"/>
<path d="M11.2449 0C9.91361 0 8.83105 1.08267 8.83105 2.41385C8.83105 3.74514 9.91361 4.8278 11.2449 4.8278C12.5762 4.8278 13.6587 3.74514 13.6587 2.41385C13.6587 1.08267 12.5762 0 11.2449 0ZM11.2449 3.9226C10.4127 3.9226 9.73626 3.24546 9.73626 2.41385C9.73626 1.58234 10.4127 0.905206 11.2449 0.905206C12.0771 0.905206 12.7535 1.58234 12.7535 2.41385C12.7535 3.24546 12.0771 3.9226 11.2449 3.9226Z" fill="black"/>
<path d="M4.75756 7.24166C4.75756 6.15844 3.87942 5.28042 2.7962 5.28042C1.7131 5.28042 0.834961 6.15844 0.834961 7.24166C0.834961 8.32488 1.7131 9.20291 2.7962 9.20291C3.87942 9.20291 4.75756 8.32488 4.75756 7.24166Z" fill="black"/>
<path d="M2.79666 4.82781C1.46548 4.82781 0.382812 5.91037 0.382812 7.24166C0.382812 8.57295 1.46548 9.6555 2.79666 9.6555C4.12795 9.6555 5.21062 8.57295 5.21062 7.24166C5.21062 5.91037 4.12795 4.82781 2.79666 4.82781ZM2.79666 8.7503C1.96449 8.7503 1.28802 8.07327 1.28802 7.24166C1.28802 6.41004 1.96449 5.73301 2.79666 5.73301C3.62894 5.73301 4.30541 6.41004 4.30541 7.24166C4.30541 8.07327 3.62894 8.7503 2.79666 8.7503Z" fill="black"/>
<path d="M4.22126 7.53127C4.0112 7.53127 3.80722 7.64056 3.69617 7.83603C3.53142 8.12509 3.63285 8.49383 3.92192 8.65925L9.52145 11.8516C9.81051 12.0175 10.1792 11.9161 10.3447 11.6259C10.5094 11.3369 10.408 10.9681 10.1189 10.8027L4.51928 7.61039C4.42513 7.55669 4.32259 7.53127 4.22126 7.53127Z" fill="black"/>
<path d="M9.82058 2.55263C9.71914 2.55263 9.6166 2.57804 9.52245 2.63175L3.92281 5.82406C3.63375 5.98881 3.53242 6.35754 3.69717 6.64727C3.86126 6.93689 4.23055 7.03888 4.52028 6.87291L10.1199 3.6806C10.409 3.51585 10.5103 3.14711 10.3456 2.85738C10.234 2.66191 10.03 2.55263 9.82058 2.55263Z" fill="black"/>
</svg>
