<svg width="15" height="18" viewBox="0 0 15 18" fill="none" xmlns="http://www.w3.org/2000/svg">
<g id="Group 1997">
<g id="Group">
<g id="Group_2">
<path id="Vector" d="M11.1306 5.61846C7.91772 3.66374 9.42437 0.904781 9.48902 0.790102C9.58282 0.626906 9.58254 0.426129 9.48825 0.263215C9.394 0.100301 9.22004 0 9.03182 0C7.37796 0 6.08288 0.469898 5.18256 1.39669C3.64416 2.9803 3.71552 5.445 3.74597 6.49751C3.74934 6.61409 3.75226 6.71484 3.75226 6.78966C3.75226 7.57111 3.87763 8.29255 3.98827 8.92905C4.05956 9.33922 4.12112 9.69346 4.13205 9.97196C4.14376 10.2701 4.08934 10.3384 4.08702 10.3412C4.07925 10.3504 4.01456 10.3848 3.83966 10.3848C3.64018 10.3848 3.49312 10.3196 3.36284 10.1736C2.85391 9.60289 2.81872 8.0447 2.91604 7.19698C2.93344 7.04749 2.88615 6.89773 2.78606 6.78537C2.68601 6.67301 2.54271 6.60874 2.39224 6.60874C1.02308 6.60874 0 8.84777 0 10.8497C0 11.7908 0.189281 12.7127 0.562605 13.5898C0.923519 14.4377 1.43817 15.203 2.09232 15.8643C3.4547 17.2415 5.25094 18 7.15022 18C9.05713 18 10.8529 17.2522 12.2068 15.8945C13.5571 14.5403 14.3008 12.7486 14.3008 10.8496C14.3008 8.4266 12.4049 6.39369 11.1306 5.61846ZM7.15022 16.9453C3.84613 16.9453 1.05472 14.1539 1.05472 10.8496C1.05472 10.0461 1.24646 9.20257 1.58077 8.53548C1.65885 8.37963 1.73897 8.24593 1.81804 8.13329C1.82686 9.0033 1.96467 10.1893 2.57481 10.8745C2.90394 11.2441 3.34132 11.4395 3.8397 11.4395C4.30527 11.4395 4.66007 11.2983 4.89414 11.02C5.33176 10.4998 5.19743 9.72693 5.02741 8.74842C4.92409 8.15393 4.80698 7.48009 4.80698 6.78962C4.80698 6.69952 4.80385 6.59176 4.80027 6.46692C4.77141 5.46996 4.71132 3.39543 5.93909 2.13159C6.49023 1.56421 7.25973 1.2189 8.23321 1.10074C8.12331 1.46566 8.02856 1.92892 8.02491 2.44761C8.01682 3.59047 8.45395 5.22457 10.5825 6.51952C11.6123 7.14604 13.2461 8.87562 13.2461 10.8497C13.2461 14.2108 10.5115 16.9453 7.15022 16.9453Z" fill="black"/>
</g>
</g>
</g>
</svg>
