<svg width="17" height="14" viewBox="0 0 17 14" fill="none" xmlns="http://www.w3.org/2000/svg">
<path d="M16.9983 1.7049C16.3618 1.98937 15.6867 2.1761 14.9953 2.25887C15.7154 1.82346 16.2683 1.13398 16.5287 0.312468C15.8441 0.722276 15.0952 1.01101 14.3142 1.1662C13.678 0.482477 12.7717 0.0551758 11.7686 0.0551758C9.84264 0.0551758 8.28111 1.63041 8.28111 3.57326C8.28111 3.84904 8.31199 4.11752 8.37142 4.37508C5.47307 4.22831 2.9034 2.82771 1.18331 0.699176C0.883183 1.21878 0.711208 1.8232 0.711208 2.46787C0.711208 3.68848 1.32693 4.76527 2.26264 5.39621C1.70883 5.37871 1.16721 5.22781 0.682988 4.95611C0.682789 4.97085 0.682789 4.98559 0.682789 5.00039C0.682789 6.70498 1.88489 8.12695 3.48021 8.45015C2.96667 8.59105 2.42799 8.61167 1.90534 8.51044C2.34909 9.90816 3.63705 10.9253 5.16305 10.9537C3.96951 11.8973 2.46576 12.4598 0.831923 12.4598C0.550388 12.4598 0.272837 12.4431 0 12.4106C1.54333 13.4088 3.37643 13.9913 5.34585 13.9913C11.7605 13.9913 15.2682 8.63034 15.2682 3.98127C15.2682 3.82868 15.2649 3.67696 15.2581 3.5261C15.9409 3.02819 16.5302 2.41147 16.9983 1.7049Z" fill="white"/>
</svg>
