<svg width="91" height="25" viewBox="0 0 91 25" fill="none" xmlns="http://www.w3.org/2000/svg">
<path d="M0.855352 20.9731H0.5V23.9871H0.855352V20.9731Z" fill="#517CBE"/>
<path d="M3.25635 21.7053C3.10613 21.7045 2.95789 21.7393 2.82395 21.8068C2.69431 21.8702 2.58005 21.9607 2.48904 22.0721L2.44658 21.76H2.15884V23.9951H2.50633V22.7729C2.50523 22.6685 2.51206 22.5642 2.52677 22.4608C2.56148 22.3278 2.6429 22.2116 2.75634 22.133C2.88628 22.0452 3.04108 22.0009 3.19817 22.0066C3.26441 21.9999 3.33131 22.0084 3.39373 22.0314C3.45615 22.0544 3.51243 22.0913 3.55824 22.1392C3.64091 22.2622 3.68169 22.4083 3.67459 22.556C3.67459 22.6205 3.67459 23.1007 3.67459 23.9966H4.01737V22.5919C4.03693 22.3542 3.9706 22.1174 3.83026 21.9238C3.75703 21.8473 3.6675 21.7879 3.56821 21.7501C3.46891 21.7123 3.36237 21.697 3.25635 21.7053Z" fill="#517CBE"/>
<path d="M6.18719 23.0849C6.10543 23.3144 6.04096 23.5017 5.99536 23.6468L5.78939 23.0802L5.29252 21.752H4.92459L5.79725 23.9871H6.17147L7.03784 21.752H6.67148C6.45292 22.3513 6.29097 22.7884 6.18719 23.0849Z" fill="#517CBE"/>
<path d="M8.3712 21.752H8.02686V23.9871H8.3712V21.752Z" fill="#517CBE"/>
<path d="M8.3712 20.939H8.02686V21.3432H8.3712V20.939Z" fill="#517CBE"/>
<path d="M10.5128 22.7194L10.3414 22.6632C10.2172 22.6278 10.0986 22.5753 9.98917 22.5071C9.95928 22.4833 9.93555 22.4528 9.91996 22.418C9.90437 22.3833 9.89737 22.3453 9.89954 22.3074C9.89786 22.2607 9.90825 22.2144 9.92972 22.1729C9.95119 22.1313 9.98303 22.096 10.0222 22.0701C10.1237 22.0087 10.2416 21.9794 10.3602 21.9858C10.5655 21.9897 10.768 22.0337 10.9562 22.1154L11.0568 21.8547C10.8385 21.7549 10.6005 21.7048 10.3602 21.708C10.1518 21.6961 9.94587 21.7574 9.77847 21.8813C9.71099 21.9328 9.65663 21.9993 9.61976 22.0755C9.58289 22.1516 9.56455 22.2354 9.56621 22.3198C9.56209 22.4516 9.60749 22.5801 9.69357 22.6804C9.81055 22.7971 9.95644 22.881 10.1165 22.9239L10.2863 22.9832C10.4346 23.0255 10.5756 23.0896 10.7046 23.1736C10.7399 23.2017 10.768 23.2377 10.7866 23.2787C10.8052 23.3197 10.8137 23.3644 10.8115 23.4093C10.8021 23.6419 10.6307 23.7589 10.2974 23.7589C10.059 23.7523 9.82615 23.6868 9.61967 23.5685L9.57721 23.8557C9.6746 23.9142 9.78076 23.9569 9.89168 23.9821C10.0306 24.0158 10.1732 24.0321 10.3162 24.0305C10.5274 24.0414 10.7362 23.9815 10.909 23.8604C10.9818 23.8038 11.04 23.7309 11.0788 23.6475C11.1177 23.5642 11.136 23.4729 11.1323 23.3812C11.1408 23.2332 11.09 23.0878 10.9908 22.977C10.8545 22.8543 10.6906 22.766 10.5128 22.7194Z" fill="#517CBE"/>
<path d="M12.6386 20.939H12.2942V21.3432H12.6386V20.939Z" fill="#517CBE"/>
<path d="M12.6386 21.752H12.2942V23.9871H12.6386V21.752Z" fill="#517CBE"/>
<path d="M15.4908 21.8521C15.2983 21.7201 15.0612 21.6687 14.8307 21.709C14.6003 21.7494 14.3952 21.8781 14.2597 22.0675C14.2597 21.9364 14.2597 21.7803 14.2597 21.5992V20.8594L13.9169 20.8797V23.9826H14.2109L14.2455 23.6704C14.3289 23.7801 14.4365 23.8693 14.56 23.9311C14.6844 23.9989 14.8237 24.0354 14.9657 24.0372C15.1519 24.041 15.3345 23.9864 15.4877 23.8812C15.6356 23.7778 15.7494 23.6334 15.8147 23.466C15.8893 23.2717 15.9256 23.0651 15.9217 22.8573C15.9254 22.6544 15.8885 22.4528 15.8132 22.2641C15.749 22.0982 15.6369 21.9548 15.4908 21.8521ZM15.538 23.2084C15.5197 23.3073 15.4857 23.4026 15.4374 23.491C15.3903 23.5723 15.3211 23.6388 15.2377 23.6829C15.1475 23.7297 15.047 23.7534 14.9452 23.7516C14.4976 23.7516 14.2738 23.4566 14.2738 22.8666C14.2583 22.6353 14.319 22.4052 14.4468 22.2111C14.5061 22.1369 14.5825 22.078 14.6695 22.0392C14.7565 22.0003 14.8516 21.9827 14.9468 21.9879C15.0799 21.9832 15.2104 22.0258 15.3147 22.108C15.4125 22.19 15.4841 22.2985 15.5207 22.4202C15.564 22.5656 15.5847 22.7166 15.582 22.8682C15.5804 22.9844 15.5656 23.1001 15.538 23.2131V23.2084Z" fill="#517CBE"/>
<path d="M17.7236 23.7466C17.6782 23.7476 17.6329 23.744 17.5884 23.7357C17.5539 23.729 17.5219 23.7134 17.4956 23.6905C17.4709 23.6702 17.4506 23.6453 17.4358 23.6171C17.4194 23.5782 17.4082 23.5372 17.4028 23.4953C17.4028 23.4423 17.3902 23.3877 17.3871 23.3315C17.3839 23.2753 17.3871 23.2019 17.3871 23.1098V20.8638L17.0459 20.8841V23.2441C17.0266 23.4561 17.0744 23.6689 17.1827 23.8528C17.2415 23.9172 17.3151 23.9667 17.3971 23.9971C17.4792 24.0275 17.5674 24.0379 17.6544 24.0276C17.7736 24.0257 17.8924 24.0142 18.0097 23.9933L17.9909 23.7232C17.8541 23.7388 17.7676 23.7466 17.7236 23.7466Z" fill="#517CBE"/>
<path d="M19.6245 23.6125L18.9154 21.752H18.5506L19.4422 23.9715C19.4154 24.048 19.373 24.1588 19.3164 24.3008C19.2756 24.4225 19.2015 24.5306 19.1025 24.613C18.9969 24.6771 18.8738 24.7071 18.7503 24.6988C18.7126 24.6988 18.6544 24.6988 18.5774 24.6895L18.5994 24.9798C18.6675 24.9901 18.7364 24.9953 18.8053 24.9954C18.995 25.0069 19.1826 24.9516 19.3352 24.8393C19.4913 24.6984 19.6092 24.5207 19.678 24.3227C19.6979 24.2706 20.0124 23.4148 20.6214 21.7551H20.2566L19.6245 23.6125Z" fill="#517CBE"/>
<path d="M25.3526 21.3303C25.1992 21.2069 25.0221 21.1156 24.8322 21.0619C24.6113 20.9997 24.3825 20.9697 24.1529 20.9729H23.3117V23.9869H24.2127C24.7142 23.9869 25.1058 23.8589 25.3872 23.5998C25.6687 23.3407 25.807 22.9754 25.807 22.4775C25.8115 22.247 25.772 22.0177 25.6907 21.8017C25.6203 21.6185 25.5039 21.4563 25.3526 21.3303ZM25.1152 23.3797C24.8622 23.5949 24.534 23.7026 24.2017 23.6794H23.6655V21.2804H24.1372C24.4813 21.2565 24.8222 21.3593 25.0948 21.5691C25.3138 21.7595 25.4234 22.0655 25.4234 22.4869C25.4359 22.6487 25.415 22.8113 25.362 22.9649C25.3091 23.1184 25.2251 23.2595 25.1152 23.3797Z" fill="#517CBE"/>
<path d="M27.9109 21.7053C27.7662 21.6982 27.6217 21.7235 27.4881 21.7791C27.3545 21.8347 27.2352 21.9194 27.1388 22.0268C26.9562 22.2695 26.8576 22.5644 26.8576 22.8673C26.8576 23.1702 26.9562 23.4651 27.1388 23.7078C27.2316 23.8153 27.3477 23.9004 27.4785 23.9569C27.6092 24.0134 27.7511 24.0398 27.8936 24.034C28.0384 24.0413 28.1831 24.0161 28.3168 23.9601C28.4505 23.9042 28.5697 23.819 28.6656 23.7109C28.8455 23.4668 28.9425 23.1721 28.9425 22.8696C28.9425 22.5671 28.8455 22.2725 28.6656 22.0283C28.5725 21.9215 28.4562 21.8369 28.3255 21.7809C28.1948 21.725 28.0531 21.6991 27.9109 21.7053ZM28.4156 23.5127C28.3581 23.5919 28.2814 23.6553 28.1926 23.697C28.1038 23.7388 28.0058 23.7575 27.9077 23.7515C27.8081 23.7574 27.7087 23.7384 27.6183 23.6965C27.528 23.6545 27.4497 23.5908 27.3904 23.5111C27.2631 23.3237 27.2007 23.1001 27.2127 22.8743C27.2008 22.6468 27.2625 22.4215 27.3888 22.2313C27.452 22.1567 27.5308 22.0968 27.6198 22.0557C27.7087 22.0146 27.8057 21.9933 27.9038 21.9933C28.0019 21.9933 28.0988 22.0146 28.1878 22.0557C28.2767 22.0968 28.3556 22.1567 28.4187 22.2313C28.53 22.4276 28.5885 22.649 28.5885 22.8743C28.5885 23.0996 28.53 23.3211 28.4187 23.5174L28.4156 23.5127Z" fill="#517CBE"/>
<path d="M30.8952 21.7053C30.7538 21.7055 30.6129 21.7223 30.4754 21.7552C30.3515 21.7834 30.2319 21.828 30.12 21.8879L30.164 22.0096L30.2175 22.1517C30.4264 22.0494 30.656 21.9961 30.8889 21.9956C30.9518 21.9904 31.0151 21.9979 31.0751 22.0174C31.135 22.037 31.1904 22.0683 31.238 22.1095C31.3196 22.2078 31.3596 22.3337 31.3496 22.4607V22.6589L31.1452 22.6761L30.9408 22.6933C30.6763 22.7014 30.4175 22.772 30.1861 22.8993C30.1006 22.9527 30.0313 23.0281 29.9853 23.1173C29.9394 23.2066 29.9186 23.3066 29.925 23.4066C29.9197 23.4939 29.9342 23.5813 29.9674 23.6623C30.0006 23.7434 30.0517 23.816 30.1169 23.8748C30.2613 23.9867 30.4419 24.0422 30.6247 24.0309C30.7566 24.034 30.8878 24.0101 31.01 23.9607C31.1418 23.8963 31.2611 23.8091 31.3622 23.7032C31.381 23.8046 31.4015 23.8983 31.4204 23.9841H31.6877V22.5075C31.6877 22.2157 31.6263 22.0096 31.5021 21.8832C31.3309 21.7476 31.1131 21.6837 30.8952 21.7053ZM31.3449 23.2661C31.3138 23.4119 31.2285 23.5407 31.1059 23.6267C30.9809 23.7156 30.8304 23.7622 30.6766 23.7593C30.5705 23.7662 30.4656 23.7333 30.3826 23.6673C30.3457 23.6329 30.317 23.5909 30.2985 23.5442C30.2801 23.4975 30.2722 23.4473 30.2757 23.3972C30.2707 23.3299 30.2844 23.2625 30.3155 23.2025C30.3466 23.1425 30.3937 23.0921 30.4518 23.057C30.6461 22.9653 30.8578 22.9158 31.0729 22.9118L31.2207 22.8993L31.3449 22.89V23.2661Z" fill="#517CBE"/>
<path d="M34.477 21.8517C34.3243 21.7456 34.1413 21.6909 33.955 21.6956C33.8173 21.6962 33.6817 21.7282 33.5585 21.7891C33.4353 21.85 33.3278 21.9382 33.2443 22.0468L33.2113 21.7424H32.9094V24.9577L33.2537 24.9359V24.1102C33.2537 23.9713 33.2537 23.8277 33.2411 23.681C33.32 23.79 33.4248 23.8779 33.5462 23.937C33.6725 24.0017 33.8128 24.0349 33.955 24.0337C34.1346 24.0357 34.3102 23.981 34.4566 23.8776C34.5992 23.7757 34.7103 23.6362 34.7773 23.4749C34.8545 23.2862 34.8924 23.0839 34.889 22.8803C34.8931 22.6728 34.8584 22.4664 34.7868 22.2715C34.7275 22.1043 34.6198 21.9582 34.477 21.8517ZM34.5006 23.2002C34.4772 23.2982 34.4385 23.392 34.3858 23.4781C34.3315 23.5562 34.2596 23.6206 34.1757 23.6662C34.0918 23.7117 33.9983 23.7371 33.9028 23.7403C33.8072 23.7435 33.7122 23.7244 33.6254 23.6845C33.5387 23.6447 33.4625 23.5852 33.4031 23.5108C33.2868 23.3017 33.2323 23.0642 33.2458 22.8256C33.2458 22.2669 33.4644 21.9875 33.8984 21.9875C33.9919 21.9837 34.0848 22.0045 34.1676 22.0478C34.2505 22.0911 34.3203 22.1554 34.3701 22.2341C34.4829 22.4225 34.5375 22.6395 34.5273 22.8584C34.5334 22.9751 34.5244 23.0921 34.5006 23.2065V23.2002Z" fill="#517CBE"/>
<path d="M38.1044 22.5793H39.4095V22.2718H38.1044V21.2853H39.4771L39.4912 20.9731H37.7506V23.9871H39.5054L39.5211 23.6765H38.1044V22.5793Z" fill="#517CBE"/>
<path d="M42.8529 20.9731H42.4724L41.6548 22.1797L40.8686 20.9731H40.4567L41.4268 22.4138L40.3891 23.9871H40.7743L41.6422 22.6401L42.4882 23.9871H42.897L41.8749 22.4076L42.8529 20.9731Z" fill="#517CBE"/>
<path d="M45.5684 21.1274C45.4692 21.0624 45.3597 21.0144 45.2445 20.9854C45.1108 20.9528 44.9734 20.9371 44.8357 20.9386H43.8467V23.9869H44.2115V22.6867C44.4049 22.7054 44.5715 22.7133 44.7115 22.7133C44.8699 22.7151 45.028 22.6999 45.1832 22.668C45.2998 22.6436 45.4118 22.6009 45.515 22.5416C45.5986 22.4897 45.67 22.4205 45.7241 22.3386C45.7771 22.2585 45.8154 22.1698 45.8373 22.0764C45.8596 21.9739 45.8702 21.8692 45.8687 21.7643C45.8702 21.6325 45.8412 21.5022 45.7838 21.3834C45.7361 21.2807 45.6617 21.1924 45.5684 21.1274ZM45.4866 21.95C45.4777 22.0088 45.4592 22.0658 45.4316 22.1186C45.4048 22.1775 45.3631 22.2286 45.3105 22.2669C45.244 22.3126 45.1693 22.3454 45.0904 22.3636C44.9777 22.3905 44.862 22.4031 44.7461 22.4011C44.6517 22.4011 44.474 22.4011 44.2099 22.4011V21.2664H44.8388C45.0048 21.2588 45.1693 21.3012 45.3105 21.3881C45.3696 21.4318 45.4166 21.4897 45.4471 21.5563C45.4776 21.6228 45.4907 21.696 45.4851 21.7689C45.4892 21.8292 45.4897 21.8897 45.4866 21.95Z" fill="#517CBE"/>
<path d="M47.7209 21.7053C47.5839 21.7029 47.4481 21.7314 47.3237 21.7884C47.1993 21.8454 47.0894 21.9296 47.0024 22.0346C46.8119 22.2737 46.7148 22.573 46.7288 22.8775C46.7114 23.1854 46.8126 23.4883 47.0118 23.725C47.1098 23.8298 47.2296 23.912 47.363 23.9659C47.4964 24.0199 47.64 24.0442 47.7838 24.0372C48.0603 24.0426 48.3328 23.9707 48.57 23.8296L48.5165 23.5549C48.2965 23.6744 48.0504 23.7387 47.7996 23.7422C47.7032 23.7463 47.6071 23.7295 47.518 23.6928C47.4289 23.6561 47.349 23.6005 47.2838 23.5299C47.146 23.3628 47.0755 23.1509 47.0857 22.9352H48.6313V22.8416C48.6313 22.7979 48.6313 22.7682 48.6313 22.751C48.645 22.477 48.5579 22.2074 48.386 21.9925C48.3042 21.8979 48.2019 21.8229 48.0867 21.7731C47.9715 21.7234 47.8464 21.7002 47.7209 21.7053ZM47.092 22.6746C47.1003 22.49 47.1687 22.3131 47.287 22.1704C47.3407 22.1106 47.407 22.0631 47.4811 22.0313C47.5552 21.9994 47.6355 21.9841 47.7162 21.9862C47.7942 21.9827 47.8721 21.9968 47.9437 22.0277C48.0154 22.0585 48.079 22.1052 48.1297 22.1642C48.241 22.3107 48.2966 22.4914 48.287 22.6746H47.092Z" fill="#517CBE"/>
<path d="M50.3625 21.8518C50.2412 21.9325 50.1397 22.0392 50.0653 22.1639L50.0323 21.7628H49.7477C49.7477 21.8814 49.7477 22.6265 49.7477 23.9979H50.0905V22.7493C50.0851 22.5687 50.1492 22.3929 50.2697 22.2576C50.3285 22.1916 50.4013 22.1395 50.4829 22.1049C50.5645 22.0703 50.6528 22.0543 50.7414 22.0578C50.7969 22.0589 50.8521 22.0646 50.9065 22.075L50.9191 21.7628C50.863 21.7536 50.8062 21.7494 50.7493 21.7503C50.6132 21.7462 50.4788 21.7815 50.3625 21.8518Z" fill="#517CBE"/>
<path d="M52.3028 20.939H51.9584V21.3432H52.3028V20.939Z" fill="#517CBE"/>
<path d="M52.3028 21.752H51.9584V23.9871H52.3028V21.752Z" fill="#517CBE"/>
<path d="M54.4679 21.7052C54.3309 21.703 54.1952 21.7315 54.0708 21.7885C53.9464 21.8455 53.8365 21.9296 53.7493 22.0346C53.5589 22.2736 53.4618 22.5729 53.4758 22.8774C53.4584 23.1853 53.5596 23.4883 53.7588 23.7249C53.8568 23.8296 53.9767 23.9118 54.11 23.9657C54.2434 24.0196 54.387 24.044 54.5308 24.0371C54.8074 24.043 55.0799 23.971 55.317 23.8295L55.2635 23.5548C55.0437 23.6748 54.7974 23.7391 54.5465 23.7421C54.4502 23.7462 54.3541 23.7293 54.265 23.6926C54.1759 23.6559 54.096 23.6004 54.0308 23.5298C53.893 23.3627 53.8224 23.1509 53.8327 22.9352H55.3752C55.3752 22.9164 55.3752 22.8852 55.3752 22.8415V22.751C55.3889 22.4769 55.3017 22.2073 55.1299 21.9924C55.0485 21.898 54.9467 21.8232 54.8321 21.7734C54.7174 21.7237 54.5929 21.7004 54.4679 21.7052ZM53.839 22.6745C53.848 22.4901 53.9163 22.3134 54.0339 22.1703C54.0877 22.1105 54.1539 22.063 54.2281 22.0312C54.3022 21.9994 54.3825 21.984 54.4632 21.9862C54.5412 21.9825 54.6191 21.9966 54.6908 22.0274C54.7625 22.0583 54.8261 22.105 54.8767 22.1641C54.9879 22.3106 55.0436 22.4913 55.034 22.6745H53.839Z" fill="#517CBE"/>
<path d="M57.5765 21.7053C57.4262 21.7044 57.278 21.7392 57.1441 21.8067C57.0146 21.8698 56.9008 21.9604 56.8107 22.0721L56.7667 21.7599H56.479V23.995H56.8265V22.7729C56.8253 22.6685 56.8322 22.5641 56.8469 22.4607C56.8822 22.3281 56.9635 22.212 57.0765 22.133C57.2064 22.0451 57.3612 22.0008 57.5183 22.0065C57.5845 21.9997 57.6515 22.0082 57.7139 22.0312C57.7763 22.0542 57.8326 22.0911 57.8784 22.1392C57.9618 22.2619 58.0026 22.4082 57.9947 22.5559C57.9947 22.6205 57.9947 23.1007 57.9947 23.9966H58.3375V22.5918C58.3567 22.3544 58.291 22.1179 58.1519 21.9238C58.0783 21.8473 57.9885 21.788 57.889 21.7502C57.7895 21.7124 57.6827 21.6971 57.5765 21.7053Z" fill="#517CBE"/>
<path d="M60.501 21.9971C60.678 21.9968 60.8521 22.0408 61.0073 22.1251L61.1017 21.8598C61.0232 21.8072 60.9359 21.7691 60.8438 21.7474C60.7334 21.719 60.6198 21.7048 60.5058 21.7052C60.3598 21.6982 60.2142 21.7237 60.0795 21.7799C59.9448 21.8361 59.8245 21.9215 59.7274 22.0299C59.53 22.2677 59.428 22.5695 59.4413 22.8774C59.4268 23.1811 59.5265 23.4793 59.7211 23.714C59.8989 23.8873 60.1299 23.9967 60.3773 24.0249C60.6248 24.0532 60.8747 23.9987 61.0875 23.8701L61.0451 23.5985C60.8785 23.6891 60.6924 23.7383 60.5026 23.7421C60.4034 23.7467 60.3045 23.7278 60.214 23.6871C60.1236 23.6464 60.0441 23.5851 59.9822 23.508C59.8491 23.3275 59.7825 23.1071 59.7935 22.8837C59.781 22.6531 59.8481 22.4251 59.9837 22.2375C60.0447 22.1597 60.1234 22.0974 60.2133 22.0557C60.3032 22.0139 60.4018 21.9938 60.501 21.9971Z" fill="#517CBE"/>
<path d="M63.053 21.7053C62.916 21.7031 62.7802 21.7315 62.6558 21.7885C62.5314 21.8456 62.4216 21.9297 62.3344 22.0346C62.144 22.2737 62.0468 22.573 62.0608 22.8775C62.0435 23.1854 62.1446 23.4883 62.3438 23.725C62.4418 23.8298 62.5617 23.912 62.695 23.9659C62.8284 24.0199 62.972 24.0442 63.1159 24.0372C63.3924 24.0428 63.6649 23.9708 63.902 23.8296L63.8486 23.5549C63.6287 23.6748 63.3825 23.7392 63.1316 23.7422C63.0352 23.7462 62.9392 23.7293 62.8501 23.6927C62.761 23.656 62.6811 23.6004 62.6159 23.5299C62.4781 23.3628 62.4075 23.1509 62.4177 22.9352H63.9634C63.9634 22.9165 63.9634 22.8853 63.9634 22.8416V22.751C63.9771 22.477 63.8899 22.2074 63.7181 21.9925C63.6363 21.8979 63.5339 21.8229 63.4187 21.7731C63.3035 21.7234 63.1785 21.7002 63.053 21.7053ZM62.424 22.6746C62.4324 22.49 62.5008 22.3131 62.619 22.1704C62.6727 22.1106 62.739 22.0631 62.8131 22.0313C62.8873 21.9994 62.9675 21.9841 63.0483 21.9862C63.1263 21.9825 63.2042 21.9967 63.2758 22.0275C63.3475 22.0583 63.4111 22.1051 63.4618 22.1642C63.573 22.3107 63.6287 22.4914 63.619 22.6746H62.424Z" fill="#517CBE"/>
<path d="M65.9335 22.7199L65.7637 22.6637C65.639 22.6285 65.5198 22.5759 65.4099 22.5076C65.3805 22.4834 65.3572 22.4528 65.3419 22.4181C65.3267 22.3834 65.3198 22.3456 65.3219 22.3078C65.3202 22.2613 65.3304 22.2151 65.3516 22.1737C65.3727 22.1322 65.4042 22.0967 65.443 22.0705C65.5445 22.0092 65.6623 21.9798 65.781 21.9863C65.9863 21.99 66.1889 22.034 66.3769 22.1158L66.4776 21.8551C66.2593 21.7552 66.0213 21.7051 65.781 21.7084C65.5726 21.6968 65.3668 21.7581 65.1992 21.8817C65.1322 21.9329 65.0781 21.9989 65.0412 22.0745C65.0044 22.1501 64.9858 22.2332 64.987 22.3172C64.9834 22.449 65.0294 22.5775 65.1159 22.6777C65.2325 22.7941 65.3778 22.8781 65.5373 22.9212L65.7071 22.9805C65.8558 23.0229 65.9973 23.087 66.1269 23.1709C66.162 23.1993 66.1899 23.2353 66.2084 23.2762C66.227 23.3172 66.2357 23.3618 66.2339 23.4066C66.2228 23.6392 66.0515 23.7563 65.7181 23.7563C65.4816 23.75 65.2504 23.6856 65.0452 23.5689L65.0011 23.8561C65.0985 23.9147 65.2046 23.9574 65.3156 23.9826C65.454 24.0162 65.5961 24.0324 65.7386 24.031C65.9499 24.0427 66.1589 23.9827 66.3313 23.8608C66.4043 23.8043 66.4628 23.7314 66.5019 23.6481C66.541 23.5648 66.5596 23.4735 66.5562 23.3816C66.5641 23.2337 66.5133 23.0886 66.4147 22.9774C66.2773 22.8546 66.1123 22.7663 65.9335 22.7199Z" fill="#517CBE"/>
<path d="M71.4729 23.5766C71.4163 23.3841 71.225 22.7759 70.899 21.752H70.5107C70.1836 22.754 69.9865 23.3643 69.9195 23.5828L69.4367 21.752H69.0814L69.7245 23.9871H70.094C70.1286 23.8825 70.1773 23.7311 70.2434 23.5329C70.3094 23.3346 70.3629 23.1723 70.4006 23.0475C70.4383 22.9226 70.4902 22.7743 70.5437 22.5995C70.5971 22.4247 70.6475 22.2639 70.6899 22.1141C70.7654 22.3607 70.9614 22.985 71.278 23.9871H71.649L72.2969 21.752H71.9462L71.4729 23.5766Z" fill="#517CBE"/>
<path d="M73.0736 24.4318H73.3692L74.7607 20.9995H74.4604L73.0736 24.4318Z" fill="#517CBE"/>
<path d="M78.407 20.9668L77.2419 23.987H77.602L77.9699 23.0318H79.1822L79.5376 23.987H79.9039L78.7718 20.9668H78.407ZM78.0926 22.7368L78.591 21.332C78.6203 21.4361 78.7776 21.9043 79.0627 22.7368H78.0926Z" fill="#517CBE"/>
<path d="M82.2341 23.2455C82.2423 23.3182 82.2332 23.3918 82.2075 23.4604C82.1818 23.5289 82.1403 23.5906 82.0863 23.6404C81.9649 23.7252 81.8179 23.7665 81.6696 23.7574C81.5929 23.7579 81.5164 23.7495 81.4417 23.7325C81.3775 23.7169 81.3168 23.69 81.2624 23.6529C81.2082 23.613 81.1663 23.559 81.1413 23.4968C81.1109 23.4176 81.0965 23.3333 81.0989 23.2486V21.7549H80.7545V23.2439C80.7529 23.35 80.7693 23.4555 80.8033 23.5561C80.8322 23.6404 80.8782 23.718 80.9385 23.784C80.9958 23.848 81.0646 23.9009 81.1413 23.9401C81.22 23.9809 81.3042 24.0104 81.3913 24.0275C81.483 24.0453 81.5762 24.0542 81.6696 24.054C81.7641 24.0543 81.8584 24.0454 81.9511 24.0275C82.0369 24.0099 82.1199 23.9811 82.198 23.9416C82.274 23.9029 82.3418 23.8499 82.3976 23.7855C82.4573 23.7202 82.5023 23.6431 82.5297 23.5592C82.5647 23.4589 82.5818 23.3532 82.58 23.247V21.758H82.2341V23.2455Z" fill="#517CBE"/>
<path d="M85.2735 21.8677V22.0612C85.2019 21.948 85.0986 21.858 84.9763 21.8021C84.8453 21.7379 84.7011 21.7048 84.5549 21.7054C84.4237 21.6998 84.293 21.7252 84.1736 21.7795C84.0542 21.8338 83.9494 21.9153 83.8678 22.0175C83.6872 22.2585 83.5961 22.5541 83.61 22.8541C83.593 23.1601 83.6823 23.4626 83.8631 23.711C83.997 23.8652 84.1793 23.9703 84.3806 24.0094C84.5819 24.0484 84.7906 24.0192 84.9732 23.9264C85.093 23.8632 85.1947 23.7708 85.2688 23.658L85.3144 23.9811H85.6068V20.8594L85.2672 20.8797L85.2735 21.8677ZM85.1037 23.5253C85.0436 23.5988 84.9664 23.6568 84.8788 23.6943C84.7911 23.7319 84.6957 23.7478 84.6005 23.7407C84.4723 23.7452 84.3465 23.7049 84.2452 23.6267C84.1461 23.5454 84.0733 23.4368 84.0361 23.3146C83.9604 23.0567 83.9512 22.784 84.0093 22.5217C84.0323 22.4243 84.0705 22.3311 84.1225 22.2454C84.1693 22.1667 84.2367 22.102 84.3175 22.0581C84.4027 22.0119 84.4987 21.9887 84.5958 21.991C84.6941 21.9824 84.793 21.999 84.883 22.0391C84.9731 22.0793 85.0512 22.1417 85.11 22.2204C85.2295 22.4267 85.2843 22.6636 85.2672 22.901C85.2841 23.1213 85.2266 23.341 85.1037 23.5253Z" fill="#517CBE"/>
<path d="M87.2421 20.939H86.8977V21.3432H87.2421V20.939Z" fill="#517CBE"/>
<path d="M87.2421 21.752H86.8977V23.9871H87.2421V21.752Z" fill="#517CBE"/>
<path d="M90.2248 22.0283C90.1314 21.921 90.0146 21.8362 89.8833 21.7802C89.7521 21.7243 89.6097 21.6986 89.467 21.7053C89.3222 21.6982 89.1778 21.7235 89.0442 21.7791C88.9106 21.8347 88.7913 21.9194 88.6949 22.0268C88.5123 22.2695 88.4137 22.5644 88.4137 22.8673C88.4137 23.1702 88.5123 23.4651 88.6949 23.7078C88.7877 23.8153 88.9038 23.9004 89.0346 23.9569C89.1653 24.0134 89.3072 24.0398 89.4497 24.034C89.5946 24.0414 89.7393 24.0162 89.8729 23.9603C90.0066 23.9043 90.1259 23.8191 90.2217 23.7109C90.402 23.467 90.4993 23.1723 90.4993 22.8696C90.4993 22.567 90.402 22.2723 90.2217 22.0283H90.2248ZM89.9732 23.5127C89.9156 23.5916 89.8389 23.6549 89.7501 23.6966C89.6613 23.7384 89.5634 23.7572 89.4654 23.7515C89.3656 23.7575 89.2658 23.7386 89.1752 23.6967C89.0846 23.6547 89.006 23.5909 88.9465 23.5111C88.8199 23.3233 88.7576 23.1 88.7688 22.8743C88.7569 22.6468 88.8186 22.4215 88.9449 22.2313C89.0081 22.1567 89.0869 22.0968 89.1759 22.0557C89.2648 22.0146 89.3618 21.9933 89.4599 21.9933C89.558 21.9933 89.6549 22.0146 89.7439 22.0557C89.8328 22.0968 89.9117 22.1567 89.9748 22.2313C90.0867 22.4274 90.1455 22.6489 90.1455 22.8743C90.1455 23.0997 90.0867 23.3213 89.9748 23.5174L89.9732 23.5127Z" fill="#517CBE"/>
<path d="M18.516 4.29396C18.3418 4.02927 18.1473 3.77828 17.9343 3.54319C17.8745 3.47764 17.8132 3.4152 17.7503 3.35277L17.6764 3.27785L16.3981 2.00732C16.4295 2.03854 16.4578 2.06976 16.4877 2.10254C16.6575 2.29059 16.8151 2.48922 16.9594 2.69722C16.9956 2.74872 17.0301 2.80023 17.0663 2.8533C17.8064 3.97294 18.1733 5.31059 18.167 6.86622C18.167 8.21063 17.874 9.39323 17.288 10.414C16.7689 11.3734 15.9801 12.1624 15.0175 12.685C14.0836 13.172 12.7644 13.4233 11.0835 13.4233L8.21868 13.4327H6.77368L8.21868 14.8718L12.5285 14.8593C14.2141 14.8593 15.5286 14.6049 16.4594 14.1163C17.4259 13.601 18.2207 12.818 18.7472 11.8625C19.3501 10.7774 19.6538 9.5536 19.6277 8.31469C19.6245 6.75697 19.254 5.41672 18.516 4.29396Z" fill="#9E7008"/>
<path d="M17.071 2.8565C17.0349 2.80187 17.0003 2.75036 16.9641 2.70042C16.8198 2.49242 16.6622 2.29379 16.4924 2.10574C16.4625 2.07296 16.4342 2.04174 16.4028 2.01053L16.3666 1.97307L16.3084 1.91531C15.657 1.27062 14.8636 0.784931 13.9908 0.496509C13.0757 0.178097 11.6081 0.0220129 9.5882 0.0282563L6.77368 0.0376213V13.4406H8.21868L11.0835 13.4234C12.7691 13.4234 14.0836 13.169 15.0144 12.682C15.9811 12.1622 16.7745 11.3741 17.2975 10.4141C17.8855 9.39331 18.1785 8.21071 18.1764 6.8663C18.1785 5.31379 17.81 3.97719 17.071 2.8565Z" fill="#F4B406"/>
<path d="M3.72176 13.4404L0.668243 13.4482L2.11324 14.8889L5.16675 14.8795L3.72176 13.4404Z" fill="#314D77"/>
<path d="M3.7186 0.0375977L3.72174 13.4405L5.16674 14.8796V1.47825L3.7186 0.0375977Z" fill="#314D77"/>
<path d="M3.71861 0.0375977L0.668243 0.0469627V13.4483L3.72176 13.4405L3.71861 0.0375977Z" fill="#517CBE"/>
<path d="M31.6735 13.406L20.4846 13.4403L21.9296 14.8794L33.1185 14.8435L31.6735 13.406Z" fill="#04562F"/>
<path d="M31.6735 8.20996L20.4846 8.24742L21.9296 9.68652L33.1185 9.65062L31.6735 8.20996Z" fill="#04562F"/>
<path d="M31.6719 3.02026L20.4815 3.0546L21.9296 4.49526L33.1185 4.46092L31.6719 3.02026Z" fill="#04562F"/>
<path d="M31.6735 10.3843V13.4061L33.1185 14.8436V11.8234L31.6735 10.3843Z" fill="#04562F"/>
<path d="M31.6735 5.19287V8.20998L33.1185 9.65063V6.63041L31.6735 5.19287Z" fill="#04562F"/>
<path d="M31.6719 0V3.02023L33.1185 4.46089V1.44066L31.6719 0Z" fill="#04562F"/>
<path d="M20.4846 10.4186V13.4404L31.6735 13.4061V10.3843L20.4846 10.4186Z" fill="#029E57"/>
<path d="M20.4846 5.22721V8.24744L31.6735 8.20998V5.19287L20.4846 5.22721Z" fill="#029E57"/>
<path d="M20.4815 0.0374602V3.05457L31.6719 3.02023V0L20.4815 0.0374602Z" fill="#029E57"/>
<path d="M47.4599 13.414L33.9172 13.4109L35.3559 14.8547L48.9002 14.8578L47.4599 13.414Z" fill="#912222"/>
<path d="M42.1752 1.45159L40.7334 0.0078125L47.4599 13.4139L48.9002 14.8577L42.1752 1.45159Z" fill="#912222"/>
<path d="M41.6973 2.39293L41.6281 2.25401L40.7318 0.469971L34.2553 13.2033H36.0902H36.1972L41.6973 2.39293Z" fill="#B2332D"/>
<path d="M41.8136 2.16177L40.7334 0.0078125L33.9157 13.4108H36.0918H47.4599L41.8136 2.16177ZM36.1924 13.2032H34.2553L40.7318 0.468261L41.6281 2.2523L41.6973 2.39122L36.1924 13.2032Z" fill="#DC4537"/>
<path d="M75.7828 11.8282L74.3362 10.3906L75.0658 11.8313L75.8645 13.4077L77.3095 14.8484L75.7828 11.8282Z" fill="#9E7008"/>
<path d="M73.1585 6.64622L71.7135 5.20557L72.4446 6.64778L73.2418 8.22111L74.6868 9.66021L73.1585 6.64622Z" fill="#9E7008"/>
<path d="M70.5374 1.46556L69.0908 0.0249023L70.1789 2.17574L70.6176 3.03889L72.0641 4.47642L70.5374 1.46556Z" fill="#9E7008"/>
<path d="M75.8645 13.4077L69.0924 13.428L64.4948 13.4436L62.3234 13.4514L63.7684 14.889L70.5374 14.8687L77.3095 14.8484L75.8645 13.4077Z" fill="#9E7008"/>
<path d="M73.2418 8.22095L67.1207 8.24124L64.9461 8.24748L66.3911 9.68658L74.6868 9.66004L73.2418 8.22095Z" fill="#9E7008"/>
<path d="M70.6176 3.03906L69.7434 3.04062L67.5688 3.04687L69.0138 4.48752L72.0642 4.4766L70.6176 3.03906Z" fill="#9E7008"/>
<path d="M75.0658 11.8313L74.3362 10.3906L63.847 10.4234L62.3234 13.4514L64.4948 13.4436L69.0924 13.428L75.8645 13.4077L75.0658 11.8313Z" fill="#F4B406"/>
<path d="M72.4447 6.64778L71.7135 5.20557L66.4697 5.2243L64.9461 8.24765L67.1207 8.2414L73.2418 8.22111L72.4447 6.64778Z" fill="#F4B406"/>
<path d="M70.1789 2.17574L69.0908 0.0249023L67.5688 3.04669L69.7434 3.04045L70.6176 3.03889L70.1789 2.17574Z" fill="#F4B406"/>
<path d="M61.5388 4.29697C61.5136 4.26107 61.4916 4.22361 61.4665 4.19083C61.3033 3.95538 61.1236 3.73162 60.9287 3.52123C60.8737 3.46192 60.8171 3.40261 60.7621 3.34642L60.7463 3.33237C60.6724 3.25901 60.5891 3.18721 60.5168 3.11853C60.5702 3.1638 60.6221 3.21218 60.674 3.26213C60.6473 3.23247 60.619 3.20594 60.5922 3.17941C60.2007 2.78764 59.7322 2.31938 59.3579 1.94946L59.4837 2.08213C59.664 2.27911 59.8311 2.48768 59.9837 2.70647C59.9963 2.72208 60.0073 2.73925 60.0199 2.75642C60.0325 2.77359 60.0671 2.82666 60.0922 2.86099C60.8281 3.98324 61.2023 5.32088 61.2023 6.87704C61.2283 8.11456 60.9257 9.33707 60.3249 10.4217C59.8012 11.3828 59.006 12.171 58.0372 12.6896C57.1011 13.1787 55.7903 13.4232 54.1047 13.4232L51.3672 13.4326H51.2414H49.7964L51.2414 14.8717H52.8138H55.5513C57.24 14.8654 58.5503 14.6183 59.4822 14.1303C60.4506 13.6112 61.2457 12.8231 61.7699 11.8624C62.3721 10.7782 62.6753 9.55545 62.6489 8.3177C62.6489 6.75686 62.2778 5.42077 61.5388 4.29697Z" fill="#314D77"/>
<path d="M59.3296 2.22109L59.2102 2.09466L59.1174 2.00413C58.9684 1.85923 58.8109 1.7232 58.6457 1.59675C58.5812 1.54681 58.5152 1.49842 58.4491 1.45316L58.4318 1.44067H58.4208C58.3469 1.38916 58.2636 1.34234 58.1944 1.29395L58.1425 1.24869C58.045 1.18937 57.9648 1.14411 57.8894 1.10509H57.8815L57.8516 1.0926C57.762 1.04422 57.6692 0.998951 57.5765 0.955248C57.4837 0.911544 57.3831 0.867841 57.262 0.821016C57.1409 0.77419 57.0466 0.739852 56.9365 0.700831C56.0702 0.396467 54.6488 0.241943 52.7132 0.241943H52.5968L49.9962 0.249748V13.236H51.232V1.47969L54.0403 1.47189C56.0665 1.46564 57.534 1.62173 58.4428 1.94014C58.5388 1.97448 58.6347 2.00882 58.729 2.04628L58.8061 2.07749C58.8894 2.11027 58.9759 2.14773 59.0561 2.18675C59.0891 2.19924 59.1205 2.21485 59.152 2.23046C59.2385 2.26948 59.3218 2.31318 59.402 2.35688L59.457 2.3881C59.424 2.33191 59.38 2.27572 59.3296 2.22109Z" fill="#517CBE"/>
<path d="M60.0922 2.85784C60.0671 2.8235 60.0419 2.78604 60.0199 2.75326C59.9979 2.72048 59.9963 2.71892 59.9838 2.70331C59.8311 2.48452 59.6641 2.27595 59.4837 2.07898L59.358 1.9463L59.2605 1.85109C59.1072 1.70157 58.9449 1.56136 58.7746 1.43123C58.7086 1.37972 58.6394 1.32977 58.5702 1.27514C58.5561 1.26578 58.5435 1.25485 58.5293 1.24705C58.4507 1.19242 58.3721 1.14403 58.2935 1.09096L58.2636 1.07223C58.174 1.0176 58.0844 0.966095 57.9932 0.916148L57.9601 0.897418C57.8658 0.847471 57.7699 0.799085 57.6724 0.753821C57.5749 0.708556 57.4617 0.658609 57.3579 0.614906C57.2541 0.571202 57.1362 0.53062 57.023 0.491599C56.1079 0.170066 54.6404 0.0139817 52.6204 0.0233468H49.8122V13.4403H51.2572H51.383L54.1047 13.4232C55.7934 13.4232 57.1037 13.1766 58.0356 12.6833C59.0045 12.1648 59.7996 11.3765 60.3234 10.4154C60.9258 9.33016 61.2295 8.10649 61.2039 6.86764C61.2039 5.31772 60.8297 3.98008 60.0922 2.85784ZM59.4146 2.35524C59.3344 2.31154 59.2573 2.26784 59.1646 2.22882C59.1331 2.21321 59.1017 2.1976 59.0686 2.18511C58.9885 2.14609 58.902 2.10863 58.8186 2.07585L58.7416 2.04464C58.6473 2.00718 58.5513 1.97284 58.4554 1.9385C57.5435 1.61801 56.0759 1.46192 54.0528 1.47025L51.2446 1.47805V13.2296H50.0087V0.243425L52.6094 0.235621H52.7258C54.6613 0.235621 56.0827 0.391705 56.9491 0.694509C57.0592 0.73353 57.1677 0.774112 57.2746 0.814693C57.3815 0.855275 57.49 0.905222 57.5891 0.948926C57.6881 0.992629 57.7746 1.03789 57.8642 1.08628L57.8831 1.09564H57.891C57.9664 1.13467 58.0482 1.17993 58.1441 1.23924L58.1771 1.25953C58.2526 1.30792 58.3344 1.35474 58.4035 1.40625H58.4145L58.4318 1.41874C58.4979 1.464 58.5639 1.51239 58.6284 1.56234C58.7936 1.68879 58.9511 1.82482 59.1001 1.96972L59.1929 2.06025L59.3124 2.18667C59.3627 2.2413 59.4067 2.29749 59.4539 2.35212L59.4146 2.35524Z" fill="#92B3DF"/>
<path d="M89.2311 4.2612C89.0393 3.99822 88.8291 3.74892 88.6022 3.51512L88.4528 3.36684L87.1949 2.11816C87.3989 2.32911 87.5886 2.55333 87.7625 2.78933C87.7735 2.80181 87.7814 2.81742 87.7908 2.82991C88.6157 3.96564 89.0561 5.33193 89.0487 6.73201C89.0454 7.96604 88.7007 9.17545 88.0523 10.2283C87.4039 11.2812 86.4766 12.1371 85.3717 12.7026C84.2669 13.2682 83.0267 13.5217 81.7866 13.4355C80.5465 13.3492 79.3541 12.9266 78.3394 12.2137C78.308 12.1934 78.2765 12.17 78.2466 12.1481C78.1256 12.0623 78.0092 11.9702 77.896 11.875C77.8667 11.8523 77.8389 11.8278 77.8127 11.8016C77.7592 11.7579 77.7058 11.7095 77.6554 11.6596C77.6051 11.6096 77.5407 11.555 77.4856 11.5035L78.8897 12.9083C78.9463 12.966 79.0045 13.0222 79.0627 13.0784C79.2904 13.2919 79.5326 13.4895 79.7876 13.67C81.0935 14.6132 82.696 15.0619 84.306 14.9353C85.916 14.8086 87.4273 14.1147 88.5672 12.979C89.7071 11.8433 90.4005 10.3406 90.5223 8.74192C90.644 7.14329 90.1861 5.55411 89.2311 4.2612Z" fill="#04562F"/>
<path d="M75.7183 6.76312C75.7146 8.46137 76.3892 10.0918 77.5941 11.2974C77.6601 11.3629 77.7262 11.43 77.7969 11.494L77.8787 11.5705C77.2735 10.5497 76.9548 9.38667 76.9557 8.20222C76.9585 7.01707 77.2762 5.85363 77.8768 4.82937C78.4774 3.80512 79.3397 2.95633 80.3765 2.36872C81.4133 1.78112 82.588 1.4755 83.7818 1.48274C84.9757 1.48997 86.1465 1.80981 87.176 2.40994C87.1289 2.35843 87.0833 2.30536 87.0345 2.25385L87.0015 2.21952L86.8553 2.07592C85.6345 0.898133 83.9978 0.241517 82.2955 0.246611H82.2797C80.5411 0.253603 78.8758 0.942506 77.6468 2.16317C76.4177 3.38383 75.7245 5.03728 75.7183 6.76312Z" fill="#029E57"/>
<path d="M87.7861 2.82361C87.7767 2.81113 87.7688 2.79552 87.7578 2.78303C87.5839 2.54703 87.3942 2.32282 87.1902 2.11187L87.1525 2.07441L87.0078 1.92925C85.7359 0.670395 84.0123 -0.0353419 82.2163 -0.0327075C80.4202 -0.030073 78.6987 0.680718 77.4306 1.9433C76.1625 3.20588 75.4515 4.91683 75.4542 6.69975C75.4568 8.48268 76.1729 10.1915 77.4447 11.4504C77.5139 11.5175 77.5831 11.5862 77.6554 11.6517C77.7278 11.7173 77.7608 11.7501 77.8127 11.7938C77.8389 11.8199 77.8667 11.8444 77.896 11.8671C78.0092 11.9623 78.1256 12.0544 78.2466 12.1403C78.2765 12.1621 78.308 12.1855 78.3394 12.2058C79.6438 13.1317 81.237 13.568 82.8351 13.4369C84.4332 13.3058 85.9326 12.6159 87.0662 11.49C88.1998 10.3641 88.8941 8.87536 89.0253 7.28887C89.1566 5.70237 88.7163 4.12113 87.783 2.82673L87.7861 2.82361ZM83.7279 1.47973C81.9331 1.48385 80.213 2.19344 78.9438 3.45327C77.6747 4.7131 76.9599 6.42061 76.9557 8.20227C76.9548 9.38672 77.2735 10.5498 77.8787 11.5706L77.797 11.4941C77.7262 11.4301 77.6602 11.363 77.5941 11.2974C76.3911 10.0938 75.7167 8.46652 75.7183 6.77098C75.7224 5.04324 76.4151 3.38732 77.6451 2.16489C78.8751 0.942457 80.5424 0.252844 82.2829 0.246663H82.2986C84.0009 0.241569 85.6377 0.898185 86.8584 2.07597L87.0047 2.21957L87.0377 2.25391C87.0864 2.30541 87.132 2.35848 87.1792 2.40999C86.1337 1.79802 84.9416 1.47669 83.7279 1.47973Z" fill="#74C09B"/>
</svg>