<svg width="33" height="34" viewBox="0 0 33 34" fill="none" xmlns="http://www.w3.org/2000/svg">
<g clip-path="url(#clip0_212_24470)">
<path d="M32.5047 20.9913C30.3009 29.8306 21.3476 35.2096 12.5072 33.0058C3.67097 30.8021 -1.70855 21.8488 0.495747 13.0099C2.6985 4.16952 11.6513 -1.21051 20.4891 0.993272C29.329 3.19705 34.708 12.1514 32.5042 20.9913H32.5047Z" fill="#F7931A"/>
<path d="M23.7752 14.6491C24.1032 12.4535 22.4315 11.2733 20.1457 10.4859L20.8872 7.51179L19.0763 7.06062L18.3545 9.95637C17.879 9.83777 17.3902 9.72588 16.9045 9.61502L17.6315 6.7002L15.8222 6.24902L15.0802 9.22212C14.6863 9.1324 14.2996 9.04371 13.9242 8.95038L13.9263 8.9411L11.4296 8.31771L10.948 10.2513C10.948 10.2513 12.2912 10.5591 12.2629 10.5782C12.9961 10.7613 13.1291 11.2465 13.1064 11.6311L12.2618 15.0193C12.3124 15.0322 12.3778 15.0507 12.45 15.0796L12.2592 15.0322L11.0749 19.7785C10.9851 20.0013 10.7578 20.3354 10.2452 20.2085C10.2633 20.2348 8.92934 19.8801 8.92934 19.8801L8.03061 21.9529L10.387 22.5402C10.8253 22.65 11.2548 22.765 11.6771 22.8733L10.9279 25.882L12.7362 26.3331L13.4787 23.3569C13.9722 23.491 14.4517 23.6148 14.9209 23.7313L14.1815 26.6936L15.9919 27.1447L16.7411 24.1422C19.8281 24.7264 22.15 24.4908 23.126 21.6992C23.9134 19.4511 23.0874 18.1543 21.4632 17.3081C22.646 17.0344 23.537 16.2563 23.7747 14.6491H23.7752ZM19.6384 20.4493C19.0784 22.6975 15.2937 21.4826 14.066 21.1774L15.0601 17.1921C16.2873 17.4984 20.222 18.1048 19.6389 20.4493H19.6384ZM20.1978 14.6166C19.6873 16.6616 16.5369 15.6226 15.5144 15.3679L16.4157 11.7533C17.4382 12.008 20.7299 12.4834 20.1978 14.6166Z" fill="white"/>
</g>
<defs>
<clipPath id="clip0_212_24470">
<rect width="33" height="33" fill="white" transform="translate(0 0.5)"/>
</clipPath>
</defs>
</svg>
