<svg width="24" height="14" viewBox="0 0 24 14" fill="none" xmlns="http://www.w3.org/2000/svg">
<path d="M9.44631 7.01921C9.44631 6.57121 9.08151 6.20641 8.6335 6.20641H2.49591C2.04791 6.20641 1.68311 6.57121 1.68311 7.01921C1.68311 7.46721 2.04791 7.83201 2.49591 7.83201H8.6335C9.08151 7.83201 9.44631 7.46721 9.44631 7.01921Z" fill="#707070"/>
<path d="M8.81278 3.064H1.29278C0.844781 3.064 0.47998 3.4288 0.47998 3.8768C0.47998 4.3248 0.844781 4.68959 1.29278 4.68959H8.81278C9.26078 4.68959 9.62558 4.3248 9.62558 3.8768C9.63198 3.4288 9.26078 3.064 8.81278 3.064Z" fill="#707070"/>
<path d="M8.8127 9.2336H4.1087C3.6607 9.2336 3.2959 9.5984 3.2959 10.0464C3.2959 10.4944 3.6607 10.8592 4.1087 10.8592H8.8127C9.2607 10.8592 9.6255 10.4944 9.6255 10.0464C9.6319 9.5984 9.2607 9.2336 8.8127 9.2336Z" fill="#707070"/>
<path d="M16.9153 0.395203C13.2737 0.395203 10.3105 3.3584 10.3105 7C10.3105 10.6416 13.2737 13.6048 16.9153 13.6048C20.5569 13.6048 23.5201 10.6416 23.5201 7C23.5201 3.3584 20.5569 0.395203 16.9153 0.395203ZM16.9153 11.9728C14.1761 11.9728 11.9425 9.7456 11.9425 7C11.9425 4.2544 14.1697 2.0272 16.9153 2.0272C19.6545 2.0272 21.8881 4.2544 21.8881 7C21.8881 9.7456 19.6609 11.9728 16.9153 11.9728Z" fill="#707070"/>
</svg>
