<svg width="20" height="20" viewBox="0 0 20 20" fill="none" xmlns="http://www.w3.org/2000/svg">
<path d="M2.97568 1.00004C1.88871 1.00004 1 1.88874 1 2.97571V12.1951C1 13.282 1.88871 14.1707 2.97568 14.1707H5.82935V17.0243C5.82935 18.1113 6.71806 19 7.80487 19H17.0243C18.1113 19 19 18.1113 19 17.0243V7.8049C19 6.71805 18.1113 5.82938 17.0243 5.82938H14.1706V2.97571C14.1706 1.88874 13.2819 1.00004 12.1951 1.00004H8.46348C8.34589 0.998506 8.23273 1.04398 8.14898 1.12651C8.06522 1.20905 8.01822 1.32159 8.01822 1.43918C8.01822 1.55663 8.06522 1.66932 8.14898 1.75185C8.23273 1.83423 8.34589 1.87986 8.46348 1.87818H12.1951C12.8108 1.87818 13.2927 2.36004 13.2927 2.97573V12.1952C13.2927 12.8108 12.8108 13.2927 12.1951 13.2927H2.97568C2.35999 13.2927 1.87812 12.8108 1.87812 12.1952V2.97573C1.87812 2.36004 2.35999 1.87818 2.97568 1.87818H6.70732C6.82476 1.87986 6.93807 1.83423 7.02182 1.75185C7.10542 1.66932 7.15258 1.55663 7.15258 1.43918C7.15258 1.32159 7.10542 1.20905 7.02182 1.12651C6.93807 1.04398 6.82476 0.998509 6.70732 1.00004H2.97568ZM15.2134 6.7073H17.0243C17.1681 6.7073 17.3044 6.73456 17.429 6.78279L14.1706 10.0343V7.75005L15.2134 6.7073ZM18.0464 7.40017C18.0946 7.52497 18.1219 7.66109 18.1219 7.80486V9.60888L9.60877 18.122H7.80475C7.66097 18.122 7.52485 18.0947 7.40006 18.0465L11.2758 14.1707H12.195C13.2818 14.1707 14.1705 13.282 14.1705 12.1952V11.2761L18.0464 7.40017ZM18.1219 10.8505V13.128L13.1351 18.1219H10.8507L18.1219 10.8505ZM7.74999 14.1706H10.0411L6.78273 17.4222C6.73603 17.2991 6.70724 17.1657 6.70724 17.0243V15.2133L7.74999 14.1706ZM18.1219 14.3764V17.0243C18.1219 17.6399 17.64 18.1218 17.0243 18.1218H14.3697L18.1219 14.3764Z" fill="#707070" stroke="#707070" stroke-width="0.24"/>
</svg>
