<svg width="38" height="38" viewBox="0 0 38 38" fill="none" xmlns="http://www.w3.org/2000/svg">
<path d="M19.001 9.03275L18.9008 8.98267L13.772 11.3067V17.287L18.8307 19.6911L23.8894 17.287V11.2365L19.001 9.03275ZM18.1896 17.9982L15.0341 16.4956V12.7191L18.1896 14.2217V17.9982ZM15.8556 11.7374L18.9008 10.355L21.8759 11.6973L18.8307 13.1398L15.8556 11.7374ZM22.6472 16.4956L19.4818 17.9982V14.2217L22.6372 12.7191V16.4956H22.6472Z" fill="#707070"/>
<path d="M13.2212 18.3589L13.121 18.3088L7.99219 20.6328V26.6131L13.0509 29.0173L18.1096 26.6131V20.5627L13.2212 18.3589ZM12.4098 27.3244L9.24434 25.8218V22.0553L12.4098 23.5579V27.3244ZM10.0858 21.0636L13.131 19.6812L16.1062 21.0235L13.0609 22.466L10.0858 21.0636ZM16.8675 25.8218L13.702 27.3244V23.5479L16.8675 22.0453V25.8218Z" fill="#707070"/>
<path d="M25.1113 18.3589L25.0112 18.3088L19.8823 20.6328V26.6131L24.4702 28.7869L24.941 29.0173L29.9997 26.6131V20.5627L25.1113 18.3589ZM24.2999 27.3244L21.1445 25.8218V22.0553L24.2999 23.5579V27.3244ZM24.941 22.476L21.9659 21.0636L25.0112 19.6912L27.9863 21.0335L24.941 22.476ZM28.7476 25.8218L25.5922 27.3244V23.5479L28.7476 22.0453V25.8218Z" fill="#707070"/>
</svg>
