<svg width="14" height="14" viewBox="0 0 14 14" fill="none" xmlns="http://www.w3.org/2000/svg">
<path d="M11.9275 1.19123L7.00001 6.11873L2.07251 1.19123C1.954 1.08278 1.79821 1.02424 1.63761 1.0278C1.477 1.03136 1.32396 1.09674 1.21037 1.21034C1.09677 1.32393 1.03138 1.47697 1.02783 1.63758C1.02427 1.79818 1.08281 1.95397 1.19126 2.07248L6.11626 6.99998L1.19001 11.9262C1.12983 11.9836 1.08172 12.0524 1.04851 12.1286C1.0153 12.2048 0.997659 12.2869 0.99663 12.37C0.9956 12.4532 1.0112 12.5357 1.04251 12.6127C1.07382 12.6897 1.12022 12.7597 1.17896 12.8185C1.23771 12.8773 1.30762 12.9238 1.38459 12.9553C1.46156 12.9867 1.54404 13.0024 1.62717 13.0015C1.71031 13.0006 1.79242 12.9831 1.86868 12.95C1.94494 12.9169 2.01382 12.8688 2.07126 12.8087L7.00001 7.88248L11.9275 12.81C12.046 12.9184 12.2018 12.977 12.3624 12.9734C12.523 12.9699 12.6761 12.9045 12.7897 12.7909C12.9033 12.6773 12.9686 12.5242 12.9722 12.3636C12.9758 12.203 12.9172 12.0472 12.8088 11.9287L7.88126 7.00123L12.8088 2.07248C12.8689 2.01513 12.9171 1.94632 12.9503 1.8701C12.9835 1.79388 13.0011 1.7118 13.0021 1.62867C13.0032 1.54554 12.9876 1.46304 12.9563 1.38602C12.925 1.30901 12.8786 1.23903 12.8198 1.1802C12.7611 1.12137 12.6912 1.07488 12.6142 1.04346C12.5372 1.01203 12.4547 0.996318 12.3716 0.99723C12.2885 0.998142 12.2064 1.01566 12.1301 1.04876C12.0538 1.08187 11.985 1.12988 11.9275 1.18998V1.19123Z" fill="black"/>
</svg>
