<?xml version="1.0" encoding="UTF-8" standalone="no"?>
<svg
   viewBox="0 0 400 300"
   width="406"
   height="306"
   class="illustration styles_illustrationTablet__1DWOa"
   version="1.1"
   id="svg3438"
   xmlns="http://www.w3.org/2000/svg"
   xmlns:svg="http://www.w3.org/2000/svg">
  <defs
     id="defs3442" />
  <g
     id="_291_ethereum_flatline"
     data-name="#291_ethereum_flatline">
    <path
       d="m 182.39,195.65 h -0.14 c -1.88,-0.52 -52.87,-30.12 -58.68,-33.49 a 0.51,0.51 0 0 1 0,-0.9 L 146.36,149 a 0.52,0.52 0 0 1 0.7,0.21 0.51,0.51 0 0 1 -0.21,0.7 l -22,11.76 c 16.22,9.42 56,32.4 57.64,32.92 a 0.52,0.52 0 0 1 -0.14,1 z"
       fill="#d1d3d4"
       id="path3249" />
    <path
       d="m 219.93,192.62 a 0.51790443,0.51790443 0 0 1 -0.27,-1 c 2.24,-1.43 79.52,-42.21 82.81,-43.95 a 0.52,0.52 0 0 1 0.7,0.22 0.51,0.51 0 0 1 -0.22,0.69 c -0.8,0.43 -80.53,42.51 -82.74,43.91 a 0.57,0.57 0 0 1 -0.28,0.13 z"
       fill="#d1d3d4"
       id="path3251" />
    <path
       d="m 154.68,243.17 a 0.48,0.48 0 0 1 -0.26,-0.07 L 88.34,203.51 a 0.52,0.52 0 0 1 0.53,-0.89 L 154.7,242.06 175.77,231 a 0.52,0.52 0 0 1 0.7,0.21 0.52,0.52 0 0 1 -0.22,0.7 l -21.33,11.25 a 0.5,0.5 0 0 1 -0.24,0.01 z"
       fill="#d1d3d4"
       id="path3267" />
    <path
       d="M 226.24,207 A 0.52,0.52 0 0 1 226,206 l 43.15,-22.74 a 0.5,0.5 0 0 1 0.49,0 L 311,206.05 a 0.51478151,0.51478151 0 1 1 -0.5,0.9 L 269.36,184.35 226.48,207 a 0.53,0.53 0 0 1 -0.24,0 z"
       fill="#d1d3d4"
       id="path3269" />
    <ellipse
       cx="310.78"
       cy="206.5"
       rx="7.0599999"
       ry="4.0700002"
       fill="#ffffff"
       id="ellipse3271" />
    <path
       d="m 310.78,211.08 a 10.7,10.7 0 0 1 -5.25,-1.25 3.55,3.55 0 0 1 0,-6.66 11.63,11.63 0 0 1 10.5,0 3.55,3.55 0 0 1 0,6.66 10.7,10.7 0 0 1 -5.25,1.25 z m 0,-8.14 a 9.59,9.59 0 0 0 -4.73,1.13 2.54,2.54 0 0 0 0,4.87 10.51,10.51 0 0 0 9.46,0 2.54,2.54 0 0 0 0,-4.87 9.59,9.59 0 0 0 -4.73,-1.13 z"
       fill="#d1d3d4"
       id="path3273" />
    <ellipse
       cx="148.94"
       cy="148.17999"
       rx="7.0599999"
       ry="4.0700002"
       fill="#ffffff"
       id="ellipse3275" />
    <path
       d="m 148.94,152.76 a 10.64,10.64 0 0 1 -5.24,-1.26 3.54,3.54 0 0 1 0,-6.65 11.61,11.61 0 0 1 10.49,0 3.54,3.54 0 0 1 0,6.65 10.68,10.68 0 0 1 -5.25,1.26 z m 0,-8.15 a 9.73,9.73 0 0 0 -4.73,1.13 2.54,2.54 0 0 0 0,4.87 10.46,10.46 0 0 0 9.47,0 2.54,2.54 0 0 0 0,-4.87 9.74,9.74 0 0 0 -4.74,-1.13 z"
       fill="#d1d3d4"
       id="path3277" />
    <path
       d="m 267,252.28 a 0.48,0.48 0 0 1 -0.26,-0.07 l -38.85,-22.89 a 0.51,0.51 0 0 1 -0.19,-0.7 0.53,0.53 0 0 1 0.71,-0.19 l 38.85,22.89 a 0.51662365,0.51662365 0 0 1 -0.26,1 z"
       fill="#d1d3d4"
       id="path3337" />
    <path
       d="m 199.5,252.32 a 0.47,0.47 0 0 1 -0.25,-0.07 l -60.47,-34.9 a 0.52,0.52 0 0 1 -0.25,-0.43 v -16.23 a 0.5,0.5 0 0 1 0.25,-0.43 0.5,0.5 0 0 1 0.5,0 l 60.47,34.9 a 0.5,0.5 0 0 1 0.25,0.43 v 16.23 a 0.48,0.48 0 0 1 -0.25,0.43 0.45,0.45 0 0 1 -0.25,0.07 z M 139.5,216.63 199,251 v -15.12 l -59.47,-34.32 z"
       fill="#231f20"
       id="path3353" />
    <path
       d="m 199.5,252.27 a 0.47,0.47 0 0 1 -0.25,-0.07 0.5,0.5 0 0 1 -0.25,-0.43 v -16.23 a 0.5,0.5 0 0 1 0.25,-0.43 l 60.47,-34.81 a 0.5,0.5 0 0 1 0.5,0 0.48,0.48 0 0 1 0.25,0.43 V 217 a 0.5,0.5 0 0 1 -0.25,0.43 l -60.47,34.77 a 0.45,0.45 0 0 1 -0.25,0.07 z m 0.5,-16.44 v 15.07 l 59.47,-34.23 V 201.59 Z M 260,217 Z"
       fill="#231f20"
       id="path3357" />
    <path
       d="m 199.5,236.1 a 0.57,0.57 0 0 1 -0.25,-0.06 l -60.47,-34.92 a 0.49,0.49 0 0 1 0,-0.86 l 60.47,-34.92 a 0.55,0.55 0 0 1 0.5,0 l 60.47,34.92 a 0.49,0.49 0 0 1 0,0.86 L 199.75,236 a 0.54,0.54 0 0 1 -0.25,0.1 z M 140,200.69 199.5,235 259,200.69 199.5,166.35 Z"
       fill="#231f20"
       id="path3361" />
    <ellipse
       cx="199.5"
       cy="200.69"
       rx="36"
       ry="20.780001"
       fill="#ffffff"
       id="ellipse3363" />
    <path
       d="m 199.5,222 c -9.31,0 -18.62,-2 -25.71,-6.14 -7.09,-4.14 -10.8,-9.4 -10.8,-15.14 0,-5.74 3.83,-11.12 10.8,-15.14 14.18,-8.19 37.25,-8.19 51.42,0 7,4 10.81,9.4 10.81,15.14 0,5.74 -3.84,11.12 -10.81,15.14 -6.97,4.02 -16.4,6.14 -25.71,6.14 z m 0,-41.55 c -9.12,0 -18.25,2 -25.2,6 -6.63,3.83 -10.28,8.89 -10.28,14.25 0,5.36 3.65,10.42 10.28,14.25 13.9,8 36.5,8 50.4,0 6.63,-3.83 10.28,-8.89 10.28,-14.25 0,-5.36 -3.65,-10.42 -10.28,-14.25 -6.95,-4.02 -16.07,-6.03 -25.2,-6.03 z"
       fill="#d1d3d4"
       id="path3365" />
    <polygon
       points="238.31,224.71 222.89,233.6 222.89,227.79 238.31,218.89 "
       fill="#ffffff"
       id="polygon3367" />
    <path
       d="m 222.89,234.12 a 0.48,0.48 0 0 1 -0.26,-0.07 0.5,0.5 0 0 1 -0.25,-0.45 v -5.81 a 0.5,0.5 0 0 1 0.25,-0.44 l 15.42,-8.9 a 0.47,0.47 0 0 1 0.51,0 0.51,0.51 0 0 1 0.26,0.44 v 5.82 a 0.51,0.51 0 0 1 -0.26,0.44 l -15.41,8.9 a 0.48,0.48 0 0 1 -0.26,0.07 z m 0.52,-6 v 4.62 l 14.38,-8.3 v -4.62 z m 14.9,-3.38 z"
       fill="#d1d3d4"
       id="path3369" />
    <ellipse
       cx="159.5"
       cy="220.89999"
       rx="1.38"
       ry="2.4000001"
       transform="rotate(-30,159.49122,220.89554)"
       fill="#d1d3d4"
       id="ellipse3371" />
    <ellipse
       cx="152.58"
       cy="216.91"
       rx="1.38"
       ry="2.4000001"
       transform="rotate(-30,152.58078,216.9039)"
       fill="#d1d3d4"
       id="ellipse3373" />
    <ellipse
       cx="145.66"
       cy="212.92"
       rx="1.38"
       ry="2.4000001"
       transform="rotate(-30,145.67033,212.91225)"
       fill="#d1d3d4"
       id="ellipse3375" />
    <path
       d="m 200,148.68 a 0.47,0.47 0 0 1 -0.28,-0.09 L 146.08,112 a 0.5,0.5 0 0 1 -0.22,-0.45 0.51,0.51 0 0 1 0.28,-0.41 l 53.4,-26.75 a 0.53,0.53 0 0 1 0.46,0 l 53.87,28.44 a 0.49,0.49 0 0 1 0.27,0.42 0.52,0.52 0 0 1 -0.23,0.44 l -53.64,34.91 a 0.53,0.53 0 0 1 -0.27,0.08 z m -52.65,-37 52.65,35.9 52.64,-34.27 -52.88,-27.92 z"
       fill="#231f20"
       id="path3379" />
    <path
       d="m 199.76,134.88 a 0.46,0.46 0 0 1 -0.23,-0.06 0.5,0.5 0 0 1 -0.27,-0.44 V 26.82 a 0.5,0.5 0 0 1 0.35,-0.47 0.49,0.49 0 0 1 0.56,0.18 l 52.46,72.08 a 0.48,0.48 0 0 1 0.09,0.38 0.52,0.52 0 0 1 -0.21,0.33 L 200,134.79 a 0.47,0.47 0 0 1 -0.24,0.09 z m 0.5,-106.52 v 105.08 l 51.26,-34.66 z"
       fill="#231f20"
       id="path3383" />
    <path
       d="m 199.76,134.88 a 0.53,0.53 0 0 1 -0.27,-0.08 l -53.4,-35.48 a 0.49,0.49 0 0 1 -0.22,-0.33 0.51,0.51 0 0 1 0.09,-0.38 l 53.4,-72.08 a 0.49,0.49 0 0 1 0.56,-0.18 0.51,0.51 0 0 1 0.34,0.47 v 107.56 a 0.51,0.51 0 0 1 -0.26,0.44 0.53,0.53 0 0 1 -0.24,0.06 z m -52.68,-36.1 52.18,34.67 V 28.34 Z"
       fill="#231f20"
       id="path3387" />
    <path
       d="m 199.76,186.69 a 0.49,0.49 0 0 1 -0.4,-0.21 L 146,111.86 a 0.49,0.49 0 0 1 0,-0.64 0.5,0.5 0 0 1 0.64,-0.06 l 53.4,36.6 a 0.53,0.53 0 0 1 0.21,0.42 v 38 a 0.5,0.5 0 0 1 -0.34,0.47 0.45,0.45 0 0 1 -0.15,0.04 z m -51.34,-73.1 50.84,71 v -36.15 z"
       fill="#231f20"
       id="path3391" />
    <path
       d="m 199.76,186.69 a 0.4,0.4 0 0 1 -0.15,0 0.5,0.5 0 0 1 -0.35,-0.47 v -38 a 0.5,0.5 0 0 1 0.23,-0.42 l 53.88,-34.92 a 0.49,0.49 0 0 1 0.63,0.08 0.5,0.5 0 0 1 0,0.64 l -53.87,72.92 a 0.52,0.52 0 0 1 -0.37,0.17 z m 0.5,-38.24 v 36.22 l 51.34,-69.49 z"
       fill="#231f20"
       id="path3395" />
  </g>
</svg>
