<svg width="18" height="18" viewBox="0 0 18 18" fill="none" xmlns="http://www.w3.org/2000/svg">
<g clip-path="url(#clip0_100_892)">
<path d="M9 0C6.57174 0.0456354 4.2607 1.05257 2.57374 2.79997C0.88679 4.54737 -0.0383544 6.89256 0.00121927 9.3212V17.9996H3.34362C3.80966 18.0099 4.2608 17.8351 4.59816 17.5133C4.93552 17.1916 5.13159 16.7492 5.14338 16.2832V12.0019C5.13159 11.5358 4.93552 11.0934 4.59816 10.7717C4.2608 10.45 3.80966 10.2751 3.34362 10.2855H1.28676V9.3212C1.24713 7.23352 2.03681 5.21531 3.4827 3.70901C4.92858 2.20271 6.91267 1.33125 9 1.28568C11.0873 1.33125 13.0714 2.20271 14.5173 3.70901C15.9632 5.21531 16.7529 7.23352 16.7132 9.3212V10.2855H14.6564C14.1903 10.2751 13.7392 10.45 13.4018 10.7717C13.0645 11.0934 12.8684 11.5358 12.8566 12.0019V16.2896C12.8701 16.7545 13.0669 17.1953 13.4041 17.5156C13.7412 17.836 14.1914 18.0099 14.6564 17.9996H17.9988V9.3212C18.0384 6.89256 17.1132 4.54737 15.4263 2.79997C13.7393 1.05257 11.4283 0.0456354 9 0ZM3.34362 11.5711C3.46847 11.5621 3.59194 11.602 3.68791 11.6824C3.78387 11.7628 3.84481 11.8773 3.85784 12.0019V16.2896C3.84481 16.4141 3.78387 16.5287 3.68791 16.6091C3.59194 16.6894 3.46847 16.7293 3.34362 16.7203H1.28676V11.5711H3.34362ZM14.1422 16.2832V12.0019C14.1552 11.8773 14.2161 11.7628 14.3121 11.6824C14.4081 11.602 14.5315 11.5621 14.6564 11.5711H16.7132V16.7139H14.6564C14.5315 16.7229 14.4081 16.683 14.3121 16.6026C14.2161 16.5222 14.1552 16.4077 14.1422 16.2832Z" fill="#707070" stroke="#707070" stroke-width="0.48"/>
</g>
<defs>
<clipPath id="clip0_100_892">
<rect width="18" height="18" fill="white"/>
</clipPath>
</defs>
</svg>
