<svg width="37" height="44" viewBox="0 0 37 44" fill="none" xmlns="http://www.w3.org/2000/svg">
<path d="M32.162 39.0641L0.00658417 39.1658L4.15885 43.3182L36.3143 43.2165L32.162 39.0641Z" fill="#04562F"/>
<path d="M32.162 24.0656L0.00658417 24.1738L4.15885 28.3262L36.3143 28.2245L32.162 24.0656Z" fill="#04562F"/>
<path d="M32.1554 9.08191L0 9.18363L4.15885 13.3409L36.3143 13.2392L32.1554 9.08191Z" fill="#04562F"/>
<path d="M32.162 30.3411V39.0642L36.3143 43.2166V34.4984L32.162 30.3411Z" fill="#04562F"/>
<path d="M32.162 15.3556V24.0656L36.3143 28.2246V19.508L32.162 15.3556Z" fill="#04562F"/>
<path d="M32.1554 0.363647V9.08187L36.3142 13.2392V4.52261L32.1554 0.363647Z" fill="#04562F"/>
<path d="M0.00658417 30.4411V39.1659L32.162 39.0642V30.3411L0.00658417 30.4411Z" fill="#029E57"/>
<path d="M0.00658417 15.4573V24.1739L32.162 24.0656V15.3556L0.00658417 15.4573Z" fill="#029E57"/>
<path d="M0 0.471928V9.18359L32.1554 9.08187V0.363647L0 0.471928Z" fill="#029E57"/>
</svg>
