<svg width="90" height="25" viewBox="0 0 90 25" fill="none" xmlns="http://www.w3.org/2000/svg">
<path d="M1.2015 20.973H0.850098V23.987H1.2015V20.973Z" fill="#517CBE"/>
<path d="M3.57603 21.7051C3.42749 21.7042 3.28089 21.739 3.14844 21.8065C3.02024 21.8699 2.90725 21.9604 2.81725 22.0718L2.77527 21.7597H2.49072V23.9948H2.83435V22.7727C2.83326 22.6682 2.84002 22.5639 2.85457 22.4605C2.88889 22.3276 2.9694 22.2113 3.08158 22.1327C3.21007 22.0449 3.36316 22.0006 3.5185 22.0063C3.58401 21.9996 3.65016 22.0081 3.71189 22.0311C3.77362 22.0541 3.82927 22.091 3.87457 22.139C3.95632 22.262 3.99665 22.408 3.98963 22.5557C3.98963 22.6202 3.98963 23.1004 3.98963 23.9964H4.3286V22.5916C4.34794 22.3539 4.28235 22.1171 4.14356 21.9236C4.07115 21.847 3.98262 21.7877 3.88443 21.7499C3.78624 21.712 3.68087 21.6967 3.57603 21.7051Z" fill="#517CBE"/>
<path d="M6.47416 23.0848C6.3933 23.3143 6.32955 23.5016 6.28446 23.6468L6.08077 23.0802L5.58943 21.7519H5.22559L6.08855 23.987H6.45861L7.31535 21.7519H6.95306C6.73693 22.3513 6.57678 22.7883 6.47416 23.0848Z" fill="#517CBE"/>
<path d="M8.63398 21.7519H8.29346V23.987H8.63398V21.7519Z" fill="#517CBE"/>
<path d="M8.63398 20.9387H8.29346V21.3429H8.63398V20.9387Z" fill="#517CBE"/>
<path d="M10.7517 22.7196L10.5822 22.6634C10.4594 22.628 10.3422 22.5754 10.2339 22.5073C10.2044 22.4835 10.1809 22.453 10.1655 22.4182C10.1501 22.3835 10.1432 22.3455 10.1453 22.3075C10.1437 22.2609 10.1539 22.2146 10.1752 22.1731C10.1964 22.1315 10.2279 22.0961 10.2666 22.0703C10.367 22.0089 10.4835 21.9795 10.6009 21.986C10.8039 21.9899 11.0042 22.0339 11.1902 22.1156L11.2897 21.8549C11.0739 21.7551 10.8385 21.705 10.6009 21.7082C10.3948 21.6963 10.1911 21.7576 10.0256 21.8814C9.95886 21.933 9.9051 21.9995 9.86864 22.0757C9.83218 22.1518 9.81405 22.2355 9.81568 22.32C9.81162 22.4517 9.85651 22.5803 9.94163 22.6806C10.0573 22.7972 10.2016 22.8812 10.3599 22.9241L10.5278 22.9834C10.6744 23.0256 10.8139 23.0898 10.9414 23.1738C10.9764 23.2019 11.0042 23.2379 11.0225 23.2789C11.0409 23.3199 11.0494 23.3646 11.0472 23.4095C11.0378 23.6421 10.8683 23.7591 10.5387 23.7591C10.303 23.7524 10.0727 23.687 9.86855 23.5687L9.82657 23.8559C9.92287 23.9144 10.0279 23.957 10.1375 23.9823C10.2749 24.016 10.416 24.0323 10.5574 24.0307C10.7662 24.0416 10.9727 23.9816 11.1436 23.8606C11.2156 23.804 11.2731 23.731 11.3115 23.6477C11.3499 23.5644 11.368 23.4731 11.3643 23.3814C11.3728 23.2334 11.3225 23.088 11.2244 22.9771C11.0897 22.8545 10.9276 22.7662 10.7517 22.7196V22.7196Z" fill="#517CBE"/>
<path d="M12.8537 20.9387H12.5132V21.3429H12.8537V20.9387Z" fill="#517CBE"/>
<path d="M12.8537 21.7519H12.5132V23.987H12.8537V21.7519Z" fill="#517CBE"/>
<path d="M15.6746 21.8518C15.4842 21.7198 15.2497 21.6684 15.0218 21.7087C14.794 21.7491 14.5911 21.8778 14.4571 22.0672C14.4571 21.9361 14.4571 21.78 14.4571 21.5989V20.8591L14.1182 20.8794V23.9823H14.4089L14.4431 23.6701C14.5256 23.7798 14.6319 23.869 14.7541 23.9308C14.8771 23.9986 15.0149 24.0351 15.1553 24.0369C15.3394 24.0407 15.5201 23.9861 15.6715 23.8809C15.8177 23.7775 15.9303 23.6331 15.9949 23.4657C16.0686 23.2714 16.1045 23.0648 16.1006 22.8569C16.1043 22.6541 16.0678 22.4525 15.9934 22.2638C15.9299 22.0979 15.819 21.9545 15.6746 21.8518V21.8518ZM15.7212 23.2081C15.7031 23.307 15.6695 23.4023 15.6217 23.4906C15.5752 23.572 15.5067 23.6385 15.4243 23.6826C15.3351 23.7294 15.2357 23.753 15.1351 23.7513C14.6924 23.7513 14.4711 23.4563 14.4711 22.8663C14.4558 22.635 14.5158 22.4049 14.6422 22.2108C14.7008 22.1366 14.7764 22.0777 14.8624 22.0389C14.9484 22 15.0424 21.9824 15.1366 21.9876C15.2683 21.9829 15.3973 22.0255 15.5005 22.1077C15.5972 22.1897 15.668 22.2982 15.7041 22.4199C15.747 22.5653 15.7674 22.7163 15.7648 22.8679C15.7632 22.9841 15.7486 23.0998 15.7212 23.2128V23.2081Z" fill="#517CBE"/>
<path d="M17.8823 23.7466C17.8375 23.7476 17.7927 23.744 17.7486 23.7357C17.7145 23.729 17.6829 23.7134 17.6568 23.6905C17.6324 23.6702 17.6124 23.6453 17.5977 23.6171C17.5814 23.5782 17.5705 23.5372 17.5651 23.4953C17.5651 23.4423 17.5527 23.3877 17.5495 23.3315C17.5464 23.2753 17.5495 23.2019 17.5495 23.1098V20.8638L17.2121 20.8841V23.2441C17.1931 23.4561 17.2404 23.6689 17.3474 23.8528C17.4056 23.9172 17.4783 23.9667 17.5595 23.9971C17.6406 24.0275 17.7279 24.0379 17.8139 24.0276C17.9317 24.0257 18.0493 24.0142 18.1653 23.9933L18.1466 23.7232C18.0113 23.7388 17.9258 23.7466 17.8823 23.7466Z" fill="#517CBE"/>
<path d="M19.7622 23.6124L19.0609 21.7519H18.7002L19.5818 23.9714C19.5554 24.0479 19.5134 24.1587 19.4574 24.3007C19.4171 24.4224 19.3439 24.5305 19.246 24.6129C19.1415 24.6771 19.0198 24.7071 18.8977 24.6988C18.8603 24.6988 18.8028 24.6988 18.7266 24.6894L18.7484 24.9797C18.8158 24.99 18.8839 24.9953 18.9521 24.9953C19.1396 25.0069 19.3252 24.9516 19.4761 24.8392C19.6305 24.6983 19.747 24.5206 19.815 24.3226C19.8347 24.2706 20.1457 23.4147 20.748 21.755H20.3872L19.7622 23.6124Z" fill="#517CBE"/>
<path d="M25.4264 21.3304C25.2747 21.207 25.0996 21.1157 24.9118 21.062C24.6933 20.9998 24.4671 20.9698 24.2401 20.973H23.4082V23.987H24.2992C24.7952 23.987 25.1823 23.859 25.4606 23.5999C25.739 23.3408 25.8758 22.9756 25.8758 22.4777C25.8802 22.2471 25.8412 22.0178 25.7607 21.8018C25.6911 21.6187 25.5761 21.4564 25.4264 21.3304V21.3304ZM25.1917 23.3798C24.9415 23.595 24.6169 23.7027 24.2883 23.6795H23.7581V21.2805H24.2245C24.5648 21.2566 24.9019 21.3594 25.1714 21.5692C25.3881 21.7597 25.4964 22.0656 25.4964 22.487C25.5088 22.6488 25.4882 22.8115 25.4358 22.965C25.3834 23.1185 25.3003 23.2597 25.1917 23.3798V23.3798Z" fill="#517CBE"/>
<path d="M27.9566 21.705C27.8135 21.698 27.6707 21.7232 27.5386 21.7789C27.4065 21.8345 27.2884 21.9192 27.1932 22.0266C27.0126 22.2693 26.915 22.5641 26.915 22.8671C26.915 23.17 27.0126 23.4649 27.1932 23.7076C27.2849 23.8151 27.3998 23.9002 27.529 23.9567C27.6583 24.0132 27.7986 24.0396 27.9395 24.0338C28.0828 24.0411 28.2259 24.0158 28.358 23.9599C28.4902 23.904 28.6081 23.8188 28.703 23.7107C28.8809 23.4666 28.9768 23.1719 28.9768 22.8694C28.9768 22.5669 28.8809 22.2723 28.703 22.0281C28.6109 21.9212 28.4959 21.8367 28.3667 21.7807C28.2374 21.7248 28.0972 21.6989 27.9566 21.705V21.705ZM28.4557 23.5125C28.3989 23.5916 28.3231 23.655 28.2353 23.6968C28.1474 23.7386 28.0505 23.7573 27.9535 23.7513C27.855 23.7572 27.7567 23.7382 27.6674 23.6963C27.578 23.6543 27.5005 23.5906 27.442 23.5109C27.3161 23.3234 27.2544 23.0999 27.2663 22.8741C27.2545 22.6466 27.3155 22.4213 27.4404 22.231C27.5029 22.1565 27.5808 22.0966 27.6688 22.0555C27.7567 22.0144 27.8526 21.9931 27.9496 21.9931C28.0467 21.9931 28.1425 22.0144 28.2305 22.0555C28.3184 22.0966 28.3964 22.1565 28.4588 22.231C28.5689 22.4274 28.6267 22.6488 28.6267 22.8741C28.6267 23.0994 28.5689 23.3209 28.4588 23.5172L28.4557 23.5125Z" fill="#517CBE"/>
<path d="M30.9078 21.7051C30.7679 21.7053 30.6286 21.7221 30.4926 21.755C30.3701 21.7832 30.2519 21.8278 30.1412 21.8877L30.1848 22.0094L30.2376 22.1515C30.4442 22.0492 30.6713 21.9958 30.9016 21.9954C30.9638 21.9902 31.0264 21.9976 31.0857 22.0172C31.1449 22.0368 31.1997 22.0681 31.2467 22.1093C31.3275 22.2076 31.367 22.3335 31.3571 22.4605V22.6587L31.155 22.6759L30.9529 22.6931C30.6913 22.7012 30.4354 22.7718 30.2065 22.8991C30.122 22.9525 30.0534 23.0279 30.008 23.1171C29.9626 23.2064 29.942 23.3063 29.9484 23.4064C29.9432 23.4937 29.9575 23.5811 29.9903 23.6621C30.0231 23.7432 30.0736 23.8158 30.1381 23.8746C30.2809 23.9865 30.4596 24.042 30.6403 24.0307C30.7708 24.0338 30.9004 24.0099 31.0213 23.9605C31.1517 23.8961 31.2696 23.8089 31.3696 23.7029C31.3882 23.8044 31.4084 23.898 31.4271 23.9839H31.6914V22.5073C31.6914 22.2155 31.6308 22.0094 31.508 21.883C31.3387 21.7474 31.1233 21.6835 30.9078 21.7051ZM31.3525 23.2659C31.3217 23.4117 31.2373 23.5404 31.1161 23.6265C30.9926 23.7154 30.8437 23.762 30.6916 23.7591C30.5867 23.7659 30.483 23.7331 30.4009 23.667C30.3644 23.6327 30.336 23.5907 30.3178 23.544C30.2995 23.4973 30.2917 23.4471 30.2951 23.397C30.2902 23.3297 30.3038 23.2623 30.3345 23.2023C30.3653 23.1423 30.4119 23.0919 30.4693 23.0567C30.6614 22.9651 30.8708 22.9156 31.0835 22.9116L31.2296 22.8991L31.3525 22.8897V23.2659Z" fill="#517CBE"/>
<path d="M34.4496 21.8518C34.2986 21.7457 34.1177 21.691 33.9334 21.6957C33.7973 21.6963 33.6632 21.7283 33.5413 21.7892C33.4195 21.8501 33.3132 21.9382 33.2306 22.0469L33.198 21.7425H32.8994V24.9578L33.2399 24.936V24.1103C33.2399 23.9714 33.2399 23.8278 33.2275 23.6811C33.3055 23.7901 33.4091 23.878 33.5291 23.937C33.6541 24.0018 33.7928 24.035 33.9334 24.0338C34.111 24.0358 34.2847 23.9811 34.4294 23.8777C34.5705 23.7758 34.6803 23.6363 34.7466 23.475C34.8229 23.2863 34.8604 23.084 34.857 22.8804C34.8611 22.6729 34.8268 22.4665 34.7559 22.2716C34.6974 22.1044 34.5908 21.9583 34.4496 21.8518V21.8518ZM34.473 23.2003C34.4498 23.2983 34.4115 23.3921 34.3594 23.4782C34.3058 23.5563 34.2346 23.6207 34.1517 23.6663C34.0687 23.7118 33.9763 23.7372 33.8818 23.7404C33.7873 23.7436 33.6934 23.7245 33.6075 23.6846C33.5217 23.6448 33.4464 23.5853 33.3876 23.5109C33.2727 23.3018 33.2188 23.0643 33.2322 22.8257C33.2322 22.2669 33.4483 21.9876 33.8774 21.9876C33.9699 21.9838 34.0618 22.0046 34.1437 22.0479C34.2256 22.0912 34.2947 22.1555 34.3439 22.2342C34.4554 22.4225 34.5095 22.6396 34.4994 22.8585C34.5054 22.9752 34.4965 23.0922 34.473 23.2066V23.2003Z" fill="#517CBE"/>
<path d="M38.0369 22.5791H39.3274V22.2716H38.0369V21.2852H39.3943L39.4083 20.973H37.687V23.987H39.4223L39.4378 23.6764H38.0369V22.5791Z" fill="#517CBE"/>
<path d="M42.7324 20.973H42.3561L41.5476 22.1796L40.7701 20.973H40.3628L41.3221 22.4137L40.2959 23.987H40.6768L41.5351 22.64L42.3717 23.987H42.7759L41.7653 22.4074L42.7324 20.973Z" fill="#517CBE"/>
<path d="M45.4179 21.1275C45.3198 21.0625 45.2116 21.0145 45.0976 20.9855C44.9654 20.9529 44.8295 20.9372 44.6934 20.9387H43.7153V23.987H44.0761V22.6868C44.2673 22.7055 44.4321 22.7133 44.5705 22.7133C44.7272 22.7151 44.8836 22.7 45.037 22.6681C45.1523 22.6437 45.2631 22.601 45.3651 22.5417C45.4478 22.4898 45.5183 22.4206 45.5719 22.3387C45.6243 22.2586 45.6622 22.1699 45.6838 22.0765C45.7059 21.974 45.7163 21.8693 45.7149 21.7644C45.7164 21.6326 45.6877 21.5023 45.631 21.3835C45.5837 21.2808 45.5102 21.1925 45.4179 21.1275V21.1275ZM45.3371 21.9501C45.3283 22.0089 45.3099 22.0659 45.2827 22.1187C45.2562 22.1776 45.2149 22.2287 45.1629 22.2669C45.0971 22.3127 45.0232 22.3455 44.9452 22.3637C44.8338 22.3906 44.7194 22.4032 44.6047 22.4012C44.5114 22.4012 44.3357 22.4012 44.0745 22.4012V21.2664H44.6965C44.8606 21.2589 45.0232 21.3013 45.1629 21.3882C45.2213 21.4319 45.2678 21.4898 45.298 21.5563C45.3281 21.6229 45.3411 21.6961 45.3355 21.769C45.3396 21.8293 45.3401 21.8898 45.3371 21.9501V21.9501Z" fill="#517CBE"/>
<path d="M47.5465 21.7051C47.411 21.7027 47.2767 21.7311 47.1537 21.7882C47.0307 21.8452 46.922 21.9294 46.8359 22.0344C46.6476 22.2735 46.5515 22.5728 46.5654 22.8773C46.5482 23.1852 46.6483 23.4881 46.8452 23.7248C46.9421 23.8296 47.0607 23.9118 47.1925 23.9657C47.3244 24.0196 47.4665 24.044 47.6087 24.037C47.8821 24.0424 48.1515 23.9704 48.3861 23.8294L48.3333 23.5547C48.1157 23.6742 47.8723 23.7385 47.6242 23.742C47.529 23.7461 47.4339 23.7293 47.3458 23.6926C47.2577 23.6559 47.1786 23.6003 47.1142 23.5297C46.978 23.3626 46.9082 23.1507 46.9183 22.935H48.4468V22.8414C48.4468 22.7977 48.4468 22.768 48.4468 22.7508C48.4603 22.4768 48.3741 22.2072 48.2042 21.9923C48.1233 21.8976 48.0221 21.8226 47.9082 21.7729C47.7943 21.7232 47.6706 21.7 47.5465 21.7051ZM46.9245 22.6743C46.9328 22.4898 47.0004 22.3129 47.1174 22.1702C47.1705 22.1103 47.236 22.0629 47.3093 22.031C47.3826 21.9992 47.462 21.9839 47.5418 21.986C47.619 21.9824 47.696 21.9966 47.7668 22.0274C47.8377 22.0583 47.9006 22.105 47.9508 22.164C48.0607 22.3105 48.1158 22.4912 48.1063 22.6743H46.9245Z" fill="#517CBE"/>
<path d="M50.1587 21.8518C50.0388 21.9325 49.9384 22.0392 49.8649 22.1639L49.8322 21.7628H49.5508C49.5508 21.8814 49.5508 22.6265 49.5508 23.9979H49.8897V22.7493C49.8844 22.5687 49.9478 22.3929 50.067 22.2576C50.1251 22.1916 50.1971 22.1395 50.2778 22.1049C50.3585 22.0703 50.4458 22.0543 50.5335 22.0578C50.5883 22.0589 50.6429 22.0646 50.6967 22.075L50.7092 21.7628C50.6537 21.7536 50.5975 21.7494 50.5412 21.7503C50.4066 21.7462 50.2738 21.7815 50.1587 21.8518V21.8518Z" fill="#517CBE"/>
<path d="M52.0773 20.9387H51.7368V21.3429H52.0773V20.9387Z" fill="#517CBE"/>
<path d="M52.0773 21.7519H51.7368V23.987H52.0773V21.7519Z" fill="#517CBE"/>
<path d="M54.2184 21.7051C54.0829 21.7028 53.9487 21.7313 53.8256 21.7883C53.7026 21.8453 53.594 21.9294 53.5078 22.0344C53.3195 22.2735 53.2234 22.5728 53.2372 22.8773C53.2201 23.1852 53.3201 23.4881 53.5171 23.7248C53.6141 23.8295 53.7326 23.9116 53.8645 23.9656C53.9963 24.0195 54.1383 24.0439 54.2806 24.037C54.554 24.0428 54.8236 23.9708 55.058 23.8294L55.0051 23.5547C54.7877 23.6746 54.5442 23.739 54.2961 23.742C54.2008 23.746 54.1058 23.7291 54.0177 23.6924C53.9296 23.6558 53.8506 23.6002 53.7861 23.5297C53.6499 23.3626 53.5801 23.1507 53.5902 22.935H55.1155C55.1155 22.9163 55.1155 22.8851 55.1155 22.8414V22.7508C55.1291 22.4768 55.0429 22.2072 54.873 21.9923C54.7925 21.8979 54.6919 21.823 54.5785 21.7733C54.4651 21.7235 54.342 21.7002 54.2184 21.7051V21.7051ZM53.5964 22.6743C53.6053 22.4899 53.6729 22.3132 53.7892 22.1702C53.8424 22.1103 53.9079 22.0628 53.9812 22.031C54.0545 21.9992 54.1339 21.9839 54.2137 21.986C54.2909 21.9823 54.3679 21.9964 54.4388 22.0273C54.5097 22.0581 54.5726 22.1049 54.6226 22.164C54.7326 22.3105 54.7877 22.4912 54.7781 22.6743H53.5964Z" fill="#517CBE"/>
<path d="M57.2923 21.705C57.1438 21.7042 56.9972 21.739 56.8647 21.8065C56.7368 21.8695 56.6242 21.9601 56.5351 22.0718L56.4916 21.7597H56.207V23.9948H56.5507V22.7727C56.5496 22.6682 56.5563 22.5639 56.5709 22.4605C56.6058 22.3278 56.6862 22.2118 56.7979 22.1327C56.9264 22.0449 57.0795 22.0006 57.2348 22.0063C57.3003 21.9995 57.3665 22.0079 57.4283 22.0309C57.49 22.0539 57.5457 22.0909 57.5909 22.1389C57.6734 22.2616 57.7137 22.4079 57.7059 22.5557C57.7059 22.6202 57.7059 23.1004 57.7059 23.9964H58.0449V22.5916C58.0639 22.3542 57.9989 22.1177 57.8614 21.9236C57.7886 21.8471 57.6998 21.7878 57.6014 21.75C57.503 21.7122 57.3974 21.6968 57.2923 21.705V21.705Z" fill="#517CBE"/>
<path d="M60.1846 21.9969C60.3596 21.9966 60.5318 22.0406 60.6853 22.1249L60.7786 21.8596C60.701 21.807 60.6146 21.769 60.5236 21.7472C60.4144 21.7188 60.3021 21.7046 60.1893 21.7051C60.045 21.698 59.9009 21.7235 59.7678 21.7797C59.6346 21.8359 59.5156 21.9213 59.4196 22.0297C59.2243 22.2675 59.1235 22.5694 59.1366 22.8773C59.1223 23.1809 59.2209 23.4791 59.4134 23.7139C59.5892 23.8871 59.8176 23.9965 60.0623 24.0248C60.307 24.053 60.5542 23.9985 60.7646 23.8699L60.7226 23.5984C60.5579 23.6889 60.3739 23.7381 60.1862 23.742C60.0881 23.7465 59.9903 23.7276 59.9008 23.687C59.8114 23.6463 59.7328 23.5849 59.6715 23.5078C59.54 23.3273 59.4741 23.1069 59.4849 22.8835C59.4725 22.6529 59.5389 22.4249 59.6731 22.2373C59.7334 22.1596 59.8112 22.0972 59.9001 22.0555C59.989 22.0137 60.0865 21.9936 60.1846 21.9969V21.9969Z" fill="#517CBE"/>
<path d="M62.7081 21.7051C62.5726 21.7028 62.4384 21.7313 62.3154 21.7883C62.1924 21.8453 62.0837 21.9294 61.9975 22.0344C61.8092 22.2735 61.7131 22.5728 61.727 22.8773C61.7098 23.1852 61.8099 23.4881 62.0069 23.7248C62.1038 23.8296 62.2223 23.9118 62.3542 23.9657C62.486 24.0196 62.6281 24.044 62.7703 24.037C63.0438 24.0426 63.3132 23.9706 63.5478 23.8294L63.4949 23.5547C63.2775 23.6746 63.0339 23.739 62.7859 23.742C62.6906 23.746 62.5956 23.7291 62.5075 23.6924C62.4194 23.6558 62.3403 23.6002 62.2759 23.5297C62.1396 23.3626 62.0698 23.1507 62.08 22.935H63.6084C63.6084 22.9163 63.6084 22.8851 63.6084 22.8414V22.7508C63.622 22.4768 63.5357 22.2072 63.3658 21.9923C63.2849 21.8976 63.1837 21.8226 63.0698 21.7729C62.9559 21.7232 62.8322 21.7 62.7081 21.7051V21.7051ZM62.0862 22.6743C62.0944 22.4898 62.1621 22.3129 62.279 22.1702C62.3321 22.1103 62.3976 22.0629 62.4709 22.031C62.5443 21.9992 62.6236 21.9839 62.7035 21.986C62.7806 21.9823 62.8576 21.9964 62.9285 22.0273C62.9994 22.0581 63.0623 22.1049 63.1124 22.164C63.2224 22.3105 63.2774 22.4912 63.2679 22.6743H62.0862Z" fill="#517CBE"/>
<path d="M65.5568 22.7196L65.3889 22.6634C65.2655 22.6282 65.1477 22.5757 65.0391 22.5073C65.01 22.4832 64.9869 22.4525 64.9718 22.4178C64.9567 22.3831 64.9499 22.3454 64.952 22.3075C64.9503 22.2611 64.9604 22.2149 64.9813 22.1734C65.0023 22.1319 65.0334 22.0964 65.0717 22.0703C65.1721 22.0089 65.2886 21.9795 65.406 21.986C65.609 21.9897 65.8093 22.0337 65.9953 22.1156L66.0948 21.8549C65.879 21.755 65.6436 21.7048 65.406 21.7082C65.1999 21.6966 64.9964 21.7579 64.8307 21.8814C64.7644 21.9326 64.7109 21.9987 64.6745 22.0743C64.638 22.1499 64.6196 22.2329 64.6208 22.3169C64.6173 22.4488 64.6627 22.5773 64.7483 22.6775C64.8635 22.7939 65.0072 22.8779 65.165 22.921L65.3329 22.9803C65.48 23.0226 65.6199 23.0868 65.7481 23.1707C65.7827 23.199 65.8103 23.2351 65.8287 23.276C65.847 23.3169 65.8556 23.3615 65.8538 23.4064C65.8429 23.6389 65.6734 23.756 65.3438 23.756C65.11 23.7498 64.8813 23.6854 64.6783 23.5687L64.6348 23.8559C64.731 23.9145 64.836 23.9571 64.9458 23.9823C65.0826 24.0159 65.2231 24.0322 65.364 24.0307C65.573 24.0424 65.7797 23.9824 65.9502 23.8606C66.0224 23.8041 66.0802 23.7312 66.1189 23.6479C66.1575 23.5646 66.1759 23.4732 66.1726 23.3814C66.1804 23.2335 66.1301 23.0884 66.0326 22.9771C65.8968 22.8543 65.7337 22.766 65.5568 22.7196V22.7196Z" fill="#517CBE"/>
<path d="M71.0344 23.5765C70.9784 23.384 70.7893 22.7758 70.4669 21.7519H70.0828C69.7594 22.754 69.5645 23.3642 69.4982 23.5828L69.0208 21.7519H68.6694L69.3054 23.987H69.6708C69.705 23.8824 69.7532 23.731 69.8185 23.5328C69.8838 23.3346 69.9367 23.1723 69.974 23.0474C70.0113 22.9225 70.0626 22.7742 70.1155 22.5994C70.1683 22.4246 70.2181 22.2638 70.2601 22.114C70.3347 22.3606 70.5286 22.985 70.8416 23.987H71.2086L71.8492 21.7519H71.5024L71.0344 23.5765Z" fill="#517CBE"/>
<path d="M72.6172 24.4318H72.9095L74.2856 20.9995H73.9886L72.6172 24.4318Z" fill="#517CBE"/>
<path d="M77.8914 20.9668L76.7393 23.987H77.0953L77.4592 23.0318H78.658L79.0094 23.987H79.3717L78.2522 20.9668H77.8914ZM77.5805 22.7368L78.0733 21.332C78.1024 21.4361 78.2579 21.9043 78.5398 22.7368H77.5805Z" fill="#517CBE"/>
<path d="M81.6762 23.2456C81.6842 23.3183 81.6752 23.3919 81.6498 23.4605C81.6244 23.5291 81.5834 23.5907 81.53 23.6405C81.4099 23.7254 81.2645 23.7666 81.1179 23.7576C81.0421 23.758 80.9664 23.7497 80.8925 23.7326C80.8291 23.7171 80.769 23.6901 80.7152 23.653C80.6617 23.6131 80.6202 23.5591 80.5955 23.4969C80.5654 23.4178 80.5511 23.3334 80.5535 23.2487V21.755H80.213V23.244C80.2113 23.3501 80.2276 23.4556 80.2612 23.5562C80.2898 23.6405 80.3353 23.7181 80.3949 23.7841C80.4516 23.8481 80.5196 23.901 80.5955 23.9402C80.6733 23.981 80.7566 24.0105 80.8427 24.0276C80.9334 24.0454 81.0256 24.0543 81.1179 24.0541C81.2114 24.0544 81.3046 24.0455 81.3963 24.0276C81.4811 24.0101 81.5632 23.9812 81.6404 23.9417C81.7156 23.903 81.7827 23.85 81.8379 23.7857C81.8968 23.7203 81.9413 23.6432 81.9685 23.5593C82.0031 23.459 82.0199 23.3533 82.0182 23.2472V21.7581H81.6762V23.2456Z" fill="#517CBE"/>
<path d="M84.6818 21.8674V22.0609C84.6109 21.9477 84.5088 21.8577 84.3879 21.8018C84.2583 21.7376 84.1157 21.7045 83.9712 21.705C83.8414 21.6995 83.7122 21.7249 83.5941 21.7792C83.476 21.8335 83.3724 21.915 83.2917 22.0172C83.1131 22.2582 83.023 22.5538 83.0367 22.8538C83.0199 23.1598 83.1083 23.4623 83.287 23.7107C83.4195 23.8649 83.5997 23.97 83.7988 24.0091C83.9978 24.0481 84.2042 24.0189 84.3848 23.9261C84.5032 23.8628 84.6038 23.7705 84.6771 23.6577L84.7222 23.9808H85.0114V20.8591L84.6755 20.8794L84.6818 21.8674ZM84.5138 23.525C84.4544 23.5985 84.378 23.6565 84.2914 23.694C84.2048 23.7316 84.1104 23.7475 84.0163 23.7404C83.8894 23.7449 83.7651 23.7046 83.6649 23.6264C83.5668 23.5451 83.4949 23.4365 83.4581 23.3143C83.3832 23.0564 83.3741 22.7837 83.4316 22.5214C83.4544 22.424 83.4921 22.3308 83.5436 22.2451C83.5899 22.1664 83.6565 22.1017 83.7364 22.0578C83.8207 22.0116 83.9156 21.9884 84.0116 21.9907C84.1088 21.9821 84.2066 21.9987 84.2956 22.0388C84.3847 22.079 84.4619 22.1414 84.52 22.2201C84.6383 22.4263 84.6924 22.6633 84.6755 22.9007C84.6923 23.121 84.6354 23.3407 84.5138 23.525V23.525Z" fill="#517CBE"/>
<path d="M86.6286 20.9387H86.2881V21.3429H86.6286V20.9387Z" fill="#517CBE"/>
<path d="M86.6286 21.7519H86.2881V23.987H86.6286V21.7519Z" fill="#517CBE"/>
<path d="M89.5781 22.0281C89.4858 21.9208 89.3703 21.836 89.2405 21.78C89.1106 21.724 88.9698 21.6984 88.8287 21.705C88.6856 21.698 88.5427 21.7232 88.4106 21.7789C88.2785 21.8345 88.1605 21.9192 88.0652 22.0266C87.8847 22.2693 87.7871 22.5641 87.7871 22.8671C87.7871 23.17 87.8847 23.4649 88.0652 23.7076C88.157 23.8151 88.2718 23.9002 88.4011 23.9567C88.5304 24.0132 88.6707 24.0396 88.8116 24.0338C88.9549 24.0412 89.098 24.016 89.2302 23.9601C89.3624 23.9041 89.4803 23.8189 89.575 23.7107C89.7534 23.4668 89.8496 23.172 89.8496 22.8694C89.8496 22.5668 89.7534 22.2721 89.575 22.0281H89.5781ZM89.3294 23.5125C89.2724 23.5914 89.1965 23.6547 89.1087 23.6964C89.0209 23.7381 88.9241 23.757 88.8271 23.7513C88.7284 23.7573 88.6298 23.7384 88.5402 23.6964C88.4506 23.6545 88.3729 23.5907 88.314 23.5109C88.1888 23.3231 88.1272 23.0998 88.1383 22.8741C88.1265 22.6466 88.1876 22.4213 88.3125 22.231C88.3749 22.1565 88.4529 22.0966 88.5408 22.0555C88.6288 22.0144 88.7247 21.9931 88.8217 21.9931C88.9187 21.9931 89.0146 22.0144 89.1025 22.0555C89.1905 22.0966 89.2685 22.1565 89.3309 22.231C89.4416 22.4272 89.4997 22.6487 89.4997 22.8741C89.4997 23.0995 89.4416 23.3211 89.3309 23.5172L89.3294 23.5125Z" fill="#517CBE"/>
<path d="M18.6661 4.29387C18.4938 4.02918 18.3014 3.77819 18.0908 3.5431C18.0317 3.47755 17.971 3.41511 17.9088 3.35268L17.8358 3.27776L16.5716 2.00723C16.6027 2.03845 16.6307 2.06967 16.6603 2.10244C16.8282 2.2905 16.984 2.48913 17.1267 2.69712V2.69712C17.1625 2.74863 17.1967 2.80014 17.2325 2.85321C17.9643 3.97285 18.3271 5.31049 18.3209 6.86613C18.3209 8.21054 18.0312 9.39314 17.4517 10.4139C16.9383 11.3734 16.1583 12.1624 15.2065 12.6849C14.2829 13.1719 12.9783 13.4232 11.3161 13.4232L8.48314 13.4326H7.0542L8.48314 14.8717L12.7451 14.8592C14.4119 14.8592 15.7118 14.6048 16.6323 14.1162C17.5881 13.6009 18.374 12.8179 18.8946 11.8624C19.4908 10.7773 19.7912 9.5535 19.7654 8.31459C19.7623 6.75687 19.3958 5.41663 18.6661 4.29387Z" fill="#9E7008"/>
<path d="M17.2371 2.85632C17.2014 2.80169 17.1672 2.75018 17.1314 2.70023C16.9887 2.49224 16.8329 2.29361 16.6649 2.10555C16.6354 2.07278 16.6074 2.04156 16.5763 2.01034L16.5405 1.97288L16.483 1.91513C15.8388 1.27044 15.0542 0.784747 14.1911 0.496326C13.2862 0.177914 11.8349 0.0218298 9.83744 0.0280732L7.0542 0.0374382V13.4404H8.48314L11.3161 13.4232C12.983 13.4232 14.2829 13.1688 15.2033 12.6818C16.1594 12.162 16.9439 11.3739 17.461 10.4139C18.0426 9.39312 18.3323 8.21053 18.3302 6.86612C18.3323 5.3136 17.9679 3.977 17.2371 2.85632Z" fill="#F4B406"/>
<path d="M4.03619 13.4404L1.0166 13.4482L2.44554 14.8889L5.46512 14.8795L4.03619 13.4404Z" fill="#314D77"/>
<path d="M4.03271 0.0374451L4.03582 13.4404L5.46476 14.8795V1.4781L4.03271 0.0374451Z" fill="#314D77"/>
<path d="M4.03308 0.0374451L1.0166 0.0468101V13.4482L4.03619 13.4404L4.03308 0.0374451Z" fill="#517CBE"/>
<path d="M31.6773 13.4061L20.6128 13.4404L22.0417 14.8795L33.1063 14.8436L31.6773 13.4061Z" fill="#04562F"/>
<path d="M31.6773 8.21002L20.6128 8.24748L22.0417 9.68658L33.1063 9.65068L31.6773 8.21002Z" fill="#04562F"/>
<path d="M31.6755 3.0202L20.6094 3.05454L22.0414 4.4952L33.106 4.46086L31.6755 3.0202Z" fill="#04562F"/>
<path d="M31.6772 10.3843V13.4061L33.1062 14.8436V11.8234L31.6772 10.3843Z" fill="#04562F"/>
<path d="M31.6772 5.1929V8.21001L33.1062 9.65067V6.63044L31.6772 5.1929Z" fill="#04562F"/>
<path d="M31.6758 0V3.02023L33.1063 4.46088V1.44066L31.6758 0Z" fill="#04562F"/>
<path d="M20.6128 10.4186V13.4404L31.6773 13.4061V10.3843L20.6128 10.4186Z" fill="#029E57"/>
<path d="M20.6128 5.22724V8.24747L31.6773 8.21001V5.1929L20.6128 5.22724Z" fill="#029E57"/>
<path d="M20.6094 0.0374602V3.05457L31.6755 3.02023V0L20.6094 0.0374602Z" fill="#029E57"/>
<path d="M47.2882 13.4139L33.896 13.4107L35.3187 14.8545L48.7125 14.8576L47.2882 13.4139Z" fill="#912222"/>
<path d="M42.0621 1.45156L40.6362 0.00778198L47.288 13.4139L48.7123 14.8576L42.0621 1.45156Z" fill="#912222"/>
<path d="M41.5897 2.39274L41.5213 2.25383L40.635 0.469788L34.2305 13.2031H36.045H36.1508L41.5897 2.39274Z" fill="#B2332D"/>
<path d="M41.7047 2.16174L40.6365 0.00778198L33.8945 13.4107H36.0465H47.2883L41.7047 2.16174ZM36.146 13.2031H34.2304L40.635 0.46823L41.5212 2.25227L41.5897 2.39119L36.146 13.2031Z" fill="#DC4537"/>
<path d="M75.2962 11.828L73.8657 10.3905L74.5872 11.8312L75.3771 13.4076L76.806 14.8483L75.2962 11.828Z" fill="#9E7008"/>
<path d="M72.7014 6.64604L71.2725 5.20538L71.9955 6.6476L72.7838 8.22093L74.2127 9.66003L72.7014 6.64604Z" fill="#9E7008"/>
<path d="M70.1092 1.46562L68.6787 0.0249634L69.7547 2.1758L70.1885 3.03895L71.619 4.47648L70.1092 1.46562Z" fill="#9E7008"/>
<path d="M75.3775 13.4076L68.6806 13.4279L64.1341 13.4435L61.9868 13.4513L63.4158 14.8889L70.1095 14.8686L76.8064 14.8483L75.3775 13.4076Z" fill="#9E7008"/>
<path d="M72.7836 8.22095L66.7305 8.24124L64.5801 8.24748L66.009 9.68658L74.2126 9.66004L72.7836 8.22095Z" fill="#9E7008"/>
<path d="M70.1888 3.03894L69.3242 3.0405L67.1738 3.04674L68.6028 4.4874L71.6192 4.47648L70.1888 3.03894Z" fill="#9E7008"/>
<path d="M74.5876 11.8312L73.8661 10.3905L63.4935 10.4233L61.9868 13.4513L64.1341 13.4435L68.6806 13.4279L75.3775 13.4076L74.5876 11.8312Z" fill="#F4B406"/>
<path d="M71.9953 6.6476L71.2723 5.20538L66.0868 5.22411L64.5801 8.24746L66.7305 8.24122L72.7836 8.22093L71.9953 6.6476Z" fill="#F4B406"/>
<path d="M69.7549 2.1758L68.679 0.0249634L67.1738 3.04675L69.3242 3.04051L70.1888 3.03895L69.7549 2.1758Z" fill="#F4B406"/>
<path d="M61.2105 4.297C61.1856 4.2611 61.1639 4.22364 61.139 4.19086C60.9776 3.95541 60.7999 3.73165 60.6072 3.52126C60.5528 3.46195 60.4968 3.40264 60.4424 3.34645L60.4268 3.3324C60.3538 3.25904 60.2714 3.18724 60.1998 3.11856C60.2527 3.16383 60.304 3.21221 60.3553 3.26216C60.3289 3.23251 60.3009 3.20597 60.2745 3.17944C59.8873 2.78767 59.4239 2.31941 59.0539 1.94949L59.1783 2.08217C59.3566 2.27914 59.5218 2.48771 59.6727 2.7065V2.7065C59.6852 2.72211 59.6961 2.73928 59.7085 2.75645C59.7209 2.77362 59.7551 2.82669 59.78 2.86102C60.5077 3.98327 60.8778 5.32091 60.8778 6.87707C60.9035 8.11459 60.6042 9.3371 60.0101 10.4217C59.4922 11.3828 58.7059 12.1711 57.7478 12.6896C56.8221 13.1787 55.5259 13.4232 53.859 13.4232L51.152 13.4326H51.0276H49.5986L51.0276 14.8717H52.5825H55.2895C56.9595 14.8655 58.2552 14.6183 59.1767 14.1303C60.1344 13.6112 60.9206 12.8231 61.4391 11.8624C62.0345 10.7782 62.3344 9.55548 62.3083 8.31773C62.3083 6.75689 61.9413 5.42081 61.2105 4.297Z" fill="#314D77"/>
<path d="M59.0262 2.22106L58.908 2.09463L58.8163 2.0041C58.6689 1.8592 58.5131 1.72317 58.3498 1.59672C58.286 1.54678 58.2207 1.49839 58.1554 1.45313L58.1383 1.44064H58.1275C58.0544 1.38913 57.972 1.34231 57.9035 1.29392L57.8522 1.24866C57.7558 1.18934 57.6765 1.14408 57.6019 1.10506H57.5941L57.5646 1.09257C57.476 1.04419 57.3842 0.998921 57.2925 0.955217C57.2007 0.911514 57.1012 0.86781 56.9815 0.820985C56.8618 0.77416 56.7685 0.739821 56.6596 0.7008C55.8029 0.396436 54.3973 0.241913 52.4832 0.241913H52.3682L49.7964 0.249717V13.2359H51.0185V1.47966L53.7955 1.47186C55.7993 1.46561 57.2505 1.6217 58.1492 1.94011C58.2441 1.97445 58.3389 2.00879 58.4322 2.04625L58.5084 2.07746C58.5908 2.11024 58.6763 2.1477 58.7556 2.18672C58.7883 2.19921 58.8194 2.21482 58.8505 2.23043C58.936 2.26945 59.0184 2.31315 59.0977 2.35685L59.1521 2.38807C59.1195 2.33188 59.0759 2.27569 59.0262 2.22106Z" fill="#517CBE"/>
<path d="M59.7801 2.8579C59.7552 2.82356 59.7303 2.7861 59.7086 2.75332C59.6868 2.72054 59.6852 2.71898 59.6728 2.70337C59.5218 2.48458 59.3567 2.27601 59.1784 2.07904L59.054 1.94636L58.9576 1.85115C58.806 1.70163 58.6455 1.56142 58.4771 1.43129C58.4118 1.37978 58.3434 1.32983 58.275 1.2752C58.261 1.26584 58.2485 1.25491 58.2345 1.24711C58.1568 1.19248 58.079 1.14409 58.0013 1.09102L57.9718 1.07229C57.8831 1.01766 57.7945 0.966156 57.7043 0.916209L57.6717 0.897479C57.5784 0.847532 57.4835 0.799146 57.3871 0.753882C57.2907 0.708617 57.1788 0.65867 57.0761 0.614967C56.9735 0.571263 56.8569 0.530681 56.745 0.49166C55.84 0.170127 54.3888 0.0140428 52.3913 0.0234078H49.6143V13.4404H51.0432H51.1676L53.8591 13.4232C55.529 13.4232 56.8248 13.1766 57.7463 12.6834C58.7044 12.1648 59.4907 11.3766 60.0087 10.4155C60.6044 9.33023 60.9047 8.10655 60.8794 6.8677C60.8794 5.31778 60.5093 3.98014 59.7801 2.8579ZM59.1099 2.35531C59.0306 2.3116 58.9544 2.2679 58.8627 2.22888C58.8316 2.21327 58.8005 2.19766 58.7679 2.18517C58.6886 2.14615 58.603 2.10869 58.5206 2.07591L58.4444 2.0447C58.3512 2.00724 58.2563 1.9729 58.1615 1.93856C57.2596 1.61807 55.8084 1.46198 53.8078 1.47031L51.0308 1.47811V13.2297H49.8086V0.243486L52.3804 0.235682H52.4955C54.4095 0.235682 55.8151 0.391766 56.6719 0.69457C56.7807 0.733591 56.888 0.774173 56.9937 0.814755C57.0995 0.855336 57.2068 0.905283 57.3047 0.948987C57.4027 0.99269 57.4882 1.03795 57.5768 1.08634L57.5955 1.09571H57.6033C57.6779 1.13473 57.7587 1.17999 57.8536 1.2393L57.8862 1.25959C57.9609 1.30798 58.0417 1.35481 58.1101 1.40631H58.121L58.1381 1.4188C58.2034 1.46406 58.2687 1.51245 58.3325 1.5624C58.4958 1.68885 58.6516 1.82488 58.799 1.96978L58.8907 2.06031L59.0089 2.18673C59.0586 2.24136 59.1022 2.29755 59.1488 2.35218L59.1099 2.35531Z" fill="#92B3DF"/>
<path d="M88.5955 4.26108C88.4058 3.9981 88.1979 3.74879 87.9735 3.515L87.8258 3.36672L86.5819 2.11804C86.7836 2.32899 86.9712 2.55321 87.1432 2.7892C87.1541 2.80169 87.1618 2.8173 87.1712 2.82979C87.9868 3.96551 88.4224 5.3318 88.4151 6.73189C88.4118 7.96592 88.0709 9.17533 87.4297 10.2282C86.7885 11.2811 85.8716 12.137 84.779 12.7025C83.6863 13.2681 82.46 13.5216 81.2337 13.4353C80.0074 13.3491 78.8282 12.9265 77.8248 12.2136C77.7937 12.1933 77.7626 12.1699 77.733 12.148C77.6133 12.0622 77.4982 11.9701 77.3863 11.8749C77.3574 11.8521 77.3298 11.8276 77.3039 11.8015C77.251 11.7578 77.1982 11.7094 77.1484 11.6595C77.0986 11.6095 77.0349 11.5549 76.9805 11.5034L78.369 12.9081C78.425 12.9659 78.4825 13.0221 78.54 13.0783C78.7651 13.2917 79.0047 13.4894 79.2568 13.6698C80.5482 14.6131 82.133 15.0618 83.7251 14.9351C85.3172 14.8084 86.8117 14.1146 87.9389 12.9789C89.0662 11.8432 89.7519 10.3404 89.8723 8.7418C89.9926 7.14317 89.5398 5.55398 88.5955 4.26108V4.26108Z" fill="#04562F"/>
<path d="M75.2324 6.76313C75.2288 8.46137 75.8958 10.0918 77.0874 11.2974C77.1527 11.3629 77.218 11.43 77.288 11.494L77.3688 11.5705C76.7704 10.5497 76.4552 9.38667 76.4561 8.20222C76.4588 7.01707 76.773 5.85363 77.367 4.82937C77.9609 3.80512 78.8136 2.95633 79.8389 2.36872C80.8642 1.78112 82.0258 1.4755 83.2064 1.48274C84.387 1.48997 85.5448 1.80981 86.5629 2.40994C86.5162 2.35843 86.4711 2.30536 86.4229 2.25385L86.3903 2.21952L86.2457 2.07592C85.0385 0.898133 83.4199 0.241517 81.7365 0.246611H81.721C80.0017 0.253603 78.3549 0.942506 77.1395 2.16317C75.9241 3.38383 75.2386 5.03728 75.2324 6.76313V6.76313Z" fill="#029E57"/>
<path d="M87.1661 2.82355C87.1568 2.81107 87.149 2.79546 87.1381 2.78297C86.9661 2.54697 86.7786 2.32275 86.5768 2.11181L86.5395 2.07435L86.3965 1.92919C85.1387 0.670334 83.4343 -0.035403 81.6582 -0.0327685C79.882 -0.0301341 78.1797 0.680657 76.9257 1.94324C75.6716 3.20582 74.9686 4.91677 74.9712 6.69969C74.9738 8.48261 75.6819 10.1915 76.9397 11.4503C77.0081 11.5174 77.0765 11.5861 77.148 11.6517C77.2195 11.7172 77.2522 11.75 77.3035 11.7937C77.3294 11.8198 77.357 11.8443 77.3859 11.8671C77.4979 11.9623 77.6129 12.0544 77.7327 12.1402C77.7622 12.1621 77.7933 12.1855 77.8244 12.2058C79.1143 13.1317 80.6897 13.5679 82.2701 13.4368C83.8505 13.3057 85.3332 12.6158 86.4542 11.4899C87.5752 10.364 88.2618 8.87529 88.3916 7.2888C88.5214 5.70231 88.086 4.12107 87.163 2.82667L87.1661 2.82355ZM83.153 1.47967C81.3781 1.48379 79.6771 2.19338 78.4221 3.45321C77.1671 4.71304 76.4602 6.42055 76.4561 8.20221C76.4552 9.38666 76.7703 10.5497 77.3688 11.5705L77.288 11.494C77.218 11.43 77.1527 11.3629 77.0874 11.2974C75.8977 10.0937 75.2308 8.46646 75.2324 6.77092C75.2365 5.04318 75.9215 3.38726 77.1378 2.16483C78.3541 0.942396 80.0029 0.252783 81.724 0.246602H81.7396C83.423 0.241508 85.0415 0.898124 86.2487 2.07591L86.3934 2.21951L86.426 2.25384C86.4742 2.30535 86.5193 2.35842 86.5659 2.40993C85.5321 1.79795 84.3532 1.47663 83.153 1.47967V1.47967Z" fill="#74C09B"/>
</svg>
