<svg width="87" height="22" viewBox="0 0 87 22" fill="none" xmlns="http://www.w3.org/2000/svg">
<path d="M1.00464 18.1446H0.666016V21.0301H1.00464V18.1446Z" fill="#517CBE"/>
<path d="M3.29173 18.848C3.14873 18.8469 3.00754 18.88 2.87999 18.9445C2.75693 19.0056 2.64853 19.0925 2.56218 19.1991L2.52112 18.8929H2.25V21.0301H2.58018V19.8577C2.57942 19.7573 2.586 19.657 2.59987 19.5576C2.63299 19.4301 2.71081 19.3186 2.81924 19.2435C2.94288 19.1592 3.09035 19.1167 3.23998 19.1223C3.4003 19.1223 3.51448 19.1649 3.5831 19.2491C3.65173 19.3332 3.68829 19.4673 3.6956 19.649C3.6956 19.71 3.6956 20.1698 3.6956 21.0284H4.02241V19.6894C4.02241 19.4022 3.96297 19.1892 3.8441 19.0505C3.72523 18.9117 3.54111 18.8442 3.29173 18.848Z" fill="#517CBE"/>
<path d="M6.08562 20.1662C6.00724 20.3858 5.94593 20.5653 5.90168 20.7048L5.7065 20.1618L5.23119 18.8901H4.88245L5.71381 21.0301H6.06987L6.8956 18.8901H6.54742C6.33892 19.4641 6.18499 19.8895 6.08562 20.1662Z" fill="#517CBE"/>
<path d="M8.16736 18.8901H7.83887V21.0307H8.16736V18.8901Z" fill="#517CBE"/>
<path d="M8.16736 18.1115H7.83887V18.4979H8.16736V18.1115Z" fill="#517CBE"/>
<path d="M10.2064 19.8168C10.1411 19.796 10.0871 19.7775 10.0444 19.7607C9.925 19.7266 9.81129 19.6752 9.7069 19.6081C9.67879 19.5851 9.65654 19.5558 9.64198 19.5225C9.62741 19.4893 9.62094 19.4531 9.62309 19.4168C9.62141 19.3722 9.63124 19.3279 9.65162 19.2881C9.672 19.2483 9.70227 19.2144 9.73952 19.1897C9.83602 19.1307 9.94827 19.1025 10.0613 19.1089C10.2577 19.1132 10.4514 19.1563 10.6311 19.2356L10.7267 18.9855C10.5188 18.8901 10.2923 18.8422 10.0635 18.8452C9.82914 18.8452 9.64427 18.9013 9.5089 19.0135C9.45316 19.0581 9.40682 19.1133 9.37258 19.1758C9.33833 19.2384 9.31685 19.3071 9.30937 19.378C9.30189 19.4488 9.30856 19.5205 9.329 19.5888C9.34945 19.6571 9.38325 19.7207 9.42846 19.7758C9.50909 19.8682 9.64315 19.9456 9.83064 20.0081L9.9932 20.0642C10.1912 20.1321 10.3245 20.1932 10.392 20.2476C10.4254 20.2744 10.4521 20.3087 10.4698 20.3477C10.4875 20.3867 10.4957 20.4292 10.4938 20.472C10.4848 20.6964 10.3211 20.8086 10.0028 20.8086C9.77776 20.8045 9.55726 20.745 9.36096 20.6352L9.3199 20.9101C9.41298 20.966 9.51436 21.0069 9.62027 21.0313C9.75247 21.0632 9.88811 21.0789 10.0241 21.0778C10.2621 21.0778 10.4499 21.0217 10.59 20.9151C10.6592 20.8606 10.7145 20.7906 10.7515 20.7108C10.7886 20.631 10.8063 20.5436 10.8032 20.4557C10.8106 20.3139 10.7622 20.1748 10.6682 20.0681C10.5771 19.9709 10.4231 19.8871 10.2064 19.8168Z" fill="#517CBE"/>
<path d="M12.2336 18.1115H11.9052V18.4979H12.2336V18.1115Z" fill="#517CBE"/>
<path d="M12.2336 18.8901H11.9052V21.0307H12.2336V18.8901Z" fill="#517CBE"/>
<path d="M14.9516 18.9894C14.8064 18.8914 14.6341 18.841 14.4588 18.8452C14.3255 18.8454 14.1941 18.8773 14.0756 18.9384C13.9571 18.9995 13.8549 19.0879 13.7777 19.1964C13.7827 19.0713 13.7855 18.9221 13.7855 18.7476V18.0391L13.4587 18.0588V21.0318H13.74L13.7732 20.7356C13.8506 20.84 13.9508 20.9253 14.0662 20.9852C14.1869 21.0464 14.3207 21.0772 14.456 21.075C14.6332 21.0799 14.8073 21.0291 14.9538 20.9297C15.0943 20.8308 15.2025 20.6929 15.2649 20.5331C15.3364 20.3468 15.3711 20.1486 15.3673 19.9492C15.3709 19.755 15.3357 19.562 15.2638 19.3815C15.1999 19.2234 15.0915 19.0872 14.9516 18.9894ZM14.9955 20.2891C14.9749 20.3825 14.94 20.4722 14.892 20.555C14.8472 20.6328 14.7813 20.6963 14.7018 20.7384C14.6162 20.7836 14.5203 20.8062 14.4234 20.8041C13.997 20.8041 13.7839 20.5217 13.7839 19.957C13.7839 19.6818 13.839 19.4727 13.9492 19.3299C14.0595 19.187 14.2181 19.1158 14.4251 19.1162C14.552 19.1115 14.6764 19.1526 14.7755 19.2317C14.8692 19.3096 14.9375 19.4135 14.9718 19.5301C15.0124 19.6695 15.0313 19.8142 15.0281 19.9593C15.0298 20.0701 15.0189 20.1808 14.9955 20.2891Z" fill="#517CBE"/>
<path d="M17.0784 20.8001C17.0354 20.8009 16.9924 20.7973 16.9501 20.7895C16.9173 20.7828 16.8867 20.768 16.8613 20.7463C16.838 20.7264 16.8189 20.7022 16.805 20.675C16.7891 20.6381 16.7786 20.5989 16.7741 20.5589C16.766 20.5069 16.7612 20.4545 16.7595 20.4019C16.7595 20.3486 16.7561 20.2779 16.7561 20.1893V18.0391L16.4315 18.0588V20.3183C16.4315 20.5954 16.4748 20.7898 16.5615 20.9017C16.6481 21.0135 16.7958 21.0696 17.0047 21.07C17.1179 21.0677 17.2307 21.0566 17.3422 21.0369L17.3242 20.7771C17.2427 20.789 17.1607 20.7967 17.0784 20.8001Z" fill="#517CBE"/>
<path d="M18.8907 20.6711L18.2157 18.8901H17.8698L18.7186 21.0144C18.6927 21.089 18.6527 21.1939 18.5993 21.3308C18.5389 21.4804 18.4709 21.5815 18.3951 21.6343C18.2935 21.6949 18.1757 21.7231 18.0576 21.715C18.0211 21.715 17.9665 21.7122 17.8934 21.7072L17.9131 21.9843C17.9784 21.9945 18.0444 21.9998 18.1105 22C18.2926 22.0092 18.472 21.9535 18.6167 21.8429C18.745 21.7378 18.8539 21.5729 18.9435 21.3482C18.963 21.2988 19.263 20.4794 19.8435 18.8901H19.4976L18.8907 20.6711Z" fill="#517CBE"/>
<path d="M24.3486 18.4873C24.2026 18.3686 24.0337 18.281 23.8525 18.2298C23.642 18.1703 23.4239 18.1416 23.2051 18.1446H22.403V21.0301H23.2619C23.7404 21.0301 24.1135 20.9065 24.3812 20.6593C24.649 20.4121 24.7827 20.0539 24.7823 19.5845C24.7863 19.3638 24.7481 19.1443 24.6698 18.9377C24.6029 18.7628 24.4924 18.6077 24.3486 18.4873ZM24.1236 20.4478C23.9245 20.6397 23.6346 20.7356 23.254 20.7356H22.7416V18.4391H23.1955C23.5941 18.4391 23.8981 18.5309 24.1073 18.7145C24.3165 18.8981 24.4208 19.1913 24.42 19.5941C24.42 19.9718 24.3207 20.2564 24.1219 20.4478H24.1236Z" fill="#F4B406"/>
<path d="M26.7892 18.1188C26.3767 18.1188 26.0516 18.2551 25.8139 18.5277C25.5761 18.8003 25.4576 19.1571 25.4584 19.598C25.4584 20.0311 25.5765 20.3854 25.8127 20.661C26.049 20.9366 26.3666 21.0746 26.7656 21.075C27.1807 21.075 27.5058 20.9385 27.741 20.6655C27.9761 20.3925 28.0937 20.0359 28.0937 19.5958C28.0937 19.1578 27.9778 18.8026 27.746 18.53C27.5143 18.2573 27.1954 18.1203 26.7892 18.1188ZM27.4282 20.4131C27.2835 20.615 27.0695 20.7158 26.7864 20.7154C26.5033 20.7151 26.2849 20.6139 26.1311 20.4119C25.9811 20.2089 25.9061 19.9394 25.9061 19.6036C25.9061 19.2618 25.9811 18.9894 26.1311 18.7863C26.2811 18.5832 26.4973 18.4815 26.7797 18.4811C27.0718 18.4811 27.2893 18.5806 27.4322 18.7796C27.575 18.9785 27.6463 19.2513 27.6459 19.598C27.6452 19.9398 27.5726 20.2115 27.4282 20.4131Z" fill="#F4B406"/>
<path d="M29.5207 18.0773L28.4092 20.969H28.754L29.1039 20.0535H30.2581L30.5956 20.969H30.9438L29.8683 18.0773H29.5207ZM29.2175 19.7708L29.6928 18.4245C29.7213 18.5232 29.8733 18.972 30.149 19.7708H29.2175Z" fill="#F4B406"/>
<path d="M33.1504 18.2932C33.0559 18.2301 32.9513 18.1838 32.841 18.1564C32.7137 18.1252 32.5829 18.1101 32.4518 18.1115H31.509V21.0284H31.855V19.7854C32.0395 19.8027 32.1986 19.8106 32.3325 19.8106C32.4837 19.8128 32.6346 19.7981 32.7825 19.7668C32.8938 19.7441 33.0006 19.7034 33.0986 19.6462C33.1787 19.5969 33.2467 19.5304 33.2978 19.4516C33.3482 19.3752 33.3848 19.2905 33.4058 19.2014C33.4276 19.1017 33.4379 18.9999 33.4367 18.8979C33.4395 18.7742 33.4141 18.6515 33.3624 18.5389C33.3152 18.4395 33.2419 18.3546 33.1504 18.2932ZM33.0722 19.0786C33.0628 19.1351 33.0446 19.1898 33.0182 19.2407C32.9928 19.2965 32.9542 19.3454 32.9057 19.3832C32.8418 19.4262 32.7705 19.4572 32.6953 19.4746C32.5877 19.5012 32.4771 19.5136 32.3663 19.5116C32.2781 19.5116 32.1079 19.5103 31.8555 19.5077V18.4217H32.4602C32.6204 18.4132 32.7793 18.4541 32.9153 18.5389C33.0278 18.6167 33.084 18.7382 33.084 18.9035C33.0848 18.9626 33.0816 19.0216 33.0744 19.0802L33.0722 19.0786Z" fill="#F4B406"/>
<path d="M50.0308 18.1115H49.7023V18.4979H50.0308V18.1115Z" fill="#029E57"/>
<path d="M36.5006 19.6822H37.7432V19.3877H36.5006V18.443H37.8073L37.8213 18.1446H36.162V21.0301H37.8348L37.8506 20.7317H36.5006V19.6822Z" fill="#029E57"/>
<path d="M41.0242 18.1446H40.662L39.8835 19.2996L39.1343 18.1446H38.7411L39.6664 19.524L38.6764 21.0301H39.0443L39.8717 19.7405L40.6777 21.0301H41.067L40.0927 19.5184L41.0242 18.1446Z" fill="#029E57"/>
<path d="M43.6128 18.2932C43.5183 18.2301 43.4137 18.1838 43.3034 18.1564C43.1761 18.1252 43.0453 18.1101 42.9142 18.1115H41.9714V21.0284H42.3174V19.7854C42.5019 19.8027 42.6611 19.8106 42.7949 19.8106C42.9461 19.8128 43.097 19.7981 43.2449 19.7668C43.3562 19.7441 43.463 19.7034 43.561 19.6462C43.6411 19.5969 43.7091 19.5304 43.7602 19.4516C43.8106 19.3752 43.8472 19.2905 43.8682 19.2014C43.89 19.1017 43.9003 18.9999 43.8991 18.8979C43.9019 18.7742 43.8765 18.6515 43.8248 18.5389C43.7776 18.4395 43.7044 18.3546 43.6128 18.2932ZM43.5346 19.0786C43.5252 19.1351 43.507 19.1898 43.4806 19.2407C43.4552 19.2965 43.4166 19.3454 43.3681 19.3832C43.3042 19.4262 43.2329 19.4572 43.1577 19.4746C43.0501 19.5012 42.9395 19.5136 42.8287 19.5116C42.7405 19.5116 42.5703 19.5103 42.3179 19.5077V18.4217H42.9226C43.0828 18.4132 43.2417 18.4541 43.3777 18.5389C43.4902 18.6167 43.5464 18.7382 43.5464 18.9035C43.5472 18.9626 43.544 19.0216 43.5369 19.0802L43.5346 19.0786Z" fill="#029E57"/>
<path d="M45.6636 18.848C45.5329 18.8457 45.4034 18.8728 45.2848 18.9274C45.1662 18.982 45.0614 19.0626 44.9785 19.1633C44.8048 19.3675 44.718 19.6364 44.718 19.9699C44.718 20.3132 44.8076 20.5836 44.9869 20.7811C45.1661 20.9785 45.4116 21.0774 45.7232 21.0778C45.9854 21.0824 46.2436 21.0136 46.4685 20.8792L46.4179 20.6156C46.2084 20.7303 45.9739 20.7919 45.735 20.7951C45.643 20.7992 45.5511 20.783 45.4661 20.7477C45.381 20.7125 45.3048 20.6589 45.2428 20.5909C45.1213 20.4552 45.0585 20.2657 45.0544 20.0227H46.5276C46.5276 20.0042 46.5276 19.9744 46.5276 19.9329C46.5276 19.8914 46.5276 19.8622 46.5276 19.8471C46.5276 19.5436 46.4499 19.3018 46.2941 19.1179C46.2161 19.0285 46.1189 18.9579 46.0097 18.9112C45.9006 18.8645 45.7822 18.8429 45.6636 18.848ZM45.0645 19.7736C45.0722 19.5969 45.1375 19.4274 45.2507 19.2912C45.3016 19.2335 45.3646 19.1877 45.4353 19.1572C45.506 19.1266 45.5826 19.1121 45.6596 19.1145C45.7338 19.1107 45.8078 19.1239 45.8761 19.1531C45.9443 19.1823 46.005 19.2266 46.0534 19.2828C46.1497 19.395 46.1977 19.5578 46.1974 19.7714L45.0645 19.7736Z" fill="#029E57"/>
<path d="M48.1818 18.9815C48.0662 19.0565 47.9691 19.1566 47.8978 19.2743L47.8663 18.8901H47.5946C47.5946 19.0023 47.5946 19.7156 47.5946 21.0301H47.9242V19.8286C47.9183 19.6558 47.9787 19.4873 48.093 19.3574C48.1486 19.295 48.2173 19.2457 48.2942 19.2128C48.3711 19.1799 48.4543 19.1644 48.5379 19.1672C48.5904 19.1679 48.6427 19.1731 48.6943 19.1829L48.7061 18.8822C48.6531 18.874 48.5994 18.8701 48.5458 18.8704C48.4162 18.8711 48.2896 18.9098 48.1818 18.9815Z" fill="#029E57"/>
<path d="M50.0308 18.8901H49.7023V21.0307H50.0308V18.8901Z" fill="#029E57"/>
<path d="M52.0929 18.848C51.9623 18.8457 51.8329 18.8729 51.7144 18.9275C51.5959 18.9821 51.4912 19.0627 51.4083 19.1633C51.2351 19.3693 51.1484 19.6382 51.1484 19.9699C51.1484 20.3132 51.2381 20.5836 51.4173 20.781C51.5966 20.9785 51.842 21.0774 52.1536 21.0778C52.4158 21.0824 52.674 21.0136 52.8989 20.8792L52.8483 20.6156C52.6388 20.7303 52.4044 20.7919 52.1654 20.7951C52.0734 20.7992 51.9816 20.783 51.8965 20.7477C51.8114 20.7124 51.7352 20.6589 51.6732 20.5909C51.5517 20.4551 51.4889 20.2657 51.4848 20.0226H52.958C52.958 20.0041 52.958 19.9744 52.958 19.9329C52.958 19.8914 52.958 19.8622 52.958 19.8471C52.958 19.5436 52.8804 19.3018 52.7245 19.1178C52.6463 19.0284 52.5489 18.9577 52.4396 18.911C52.3302 18.8643 52.2117 18.8428 52.0929 18.848ZM51.4944 19.7736C51.502 19.5968 51.5674 19.4274 51.6806 19.2911C51.7314 19.2335 51.7945 19.1877 51.8652 19.1571C51.9359 19.1266 52.0125 19.112 52.0895 19.1144C52.1636 19.1107 52.2377 19.1239 52.3059 19.1531C52.3742 19.1822 52.4348 19.2266 52.4832 19.2827C52.5796 19.3949 52.6276 19.5578 52.6272 19.7713L51.4944 19.7736Z" fill="#029E57"/>
<path d="M55.0594 18.848C54.9164 18.8469 54.7752 18.88 54.6477 18.9445C54.5246 19.0056 54.4162 19.0925 54.3299 19.1991L54.2883 18.8929H54.0149V21.0301H54.3451V19.8577C54.3443 19.7573 54.3509 19.657 54.3648 19.5576C54.3976 19.43 54.4755 19.3185 54.5841 19.2435C54.7077 19.1591 54.8552 19.1167 55.0049 19.1223C55.1652 19.1223 55.2794 19.1649 55.348 19.2491C55.4166 19.3332 55.4532 19.4673 55.4605 19.649C55.4605 19.71 55.4605 20.1698 55.4605 21.0284H55.7873V19.6894C55.7873 19.4022 55.7279 19.1892 55.609 19.0505C55.4901 18.9117 55.3069 18.8442 55.0594 18.848Z" fill="#029E57"/>
<path d="M57.8415 19.124C58.0104 19.1238 58.1766 19.166 58.3247 19.2469L58.4152 18.9933C58.3408 18.9426 58.2574 18.9062 58.1694 18.8862C58.0644 18.8586 57.9563 18.8448 57.8477 18.8452C57.5335 18.8452 57.286 18.949 57.1052 19.1566C56.9245 19.3641 56.8335 19.6352 56.8324 19.9699C56.8324 20.3001 56.9215 20.5673 57.0996 20.7715C57.2777 20.9757 57.5245 21.0778 57.8398 21.0778C58.0723 21.0778 58.2598 21.0266 58.4023 20.9241L58.3613 20.6644C58.2027 20.7509 58.0256 20.7979 57.8449 20.8013C57.7503 20.8056 57.656 20.7876 57.5698 20.7486C57.4835 20.7096 57.4078 20.6507 57.3488 20.5769C57.2295 20.4273 57.1699 20.2254 57.1699 19.9711C57.1699 19.7093 57.2303 19.5036 57.351 19.354C57.4087 19.2797 57.4832 19.2201 57.5685 19.1801C57.6538 19.1401 57.7473 19.1209 57.8415 19.124Z" fill="#029E57"/>
<path d="M60.2738 18.848C60.1432 18.8457 60.0139 18.8729 59.8953 18.9275C59.7768 18.9821 59.6721 19.0627 59.5892 19.1632C59.416 19.3693 59.3293 19.6382 59.3293 19.9699C59.3293 20.3132 59.419 20.5836 59.5982 20.781C59.7775 20.9785 60.0229 21.0774 60.3345 21.0778C60.5967 21.0823 60.8549 21.0136 61.0798 20.8792L61.0292 20.6156C60.8198 20.7303 60.5853 20.7919 60.3463 20.7951C60.2543 20.7992 60.1625 20.783 60.0774 20.7477C59.9923 20.7124 59.9161 20.6589 59.8541 20.5909C59.7323 20.4551 59.6695 20.2657 59.6657 20.0226H61.1389C61.1389 20.0041 61.1389 19.9744 61.1389 19.9329C61.1389 19.8914 61.1389 19.8622 61.1389 19.8471C61.1389 19.5436 61.0613 19.3018 60.9049 19.1178C60.8268 19.0284 60.7295 18.9577 60.6202 18.911C60.511 18.8643 60.3925 18.8428 60.2738 18.848ZM59.6753 19.7764C59.6827 19.5996 59.7481 19.4301 59.8615 19.294C59.9123 19.2363 59.9752 19.1906 60.0458 19.1601C60.1164 19.1295 60.1929 19.1149 60.2698 19.1173C60.344 19.1135 60.418 19.1267 60.4863 19.1559C60.5545 19.185 60.6152 19.2294 60.6636 19.2855C60.7599 19.3977 60.808 19.5606 60.8076 19.7741L59.6753 19.7764Z" fill="#029E57"/>
<path d="M63.0193 19.8168C62.9541 19.796 62.8995 19.7775 62.8568 19.7607C62.7373 19.7268 62.6236 19.6754 62.5193 19.6081C62.491 19.5852 62.4686 19.5559 62.4539 19.5226C62.4392 19.4894 62.4327 19.4531 62.4349 19.4168C62.4332 19.3722 62.4431 19.3279 62.4634 19.2881C62.4838 19.2483 62.5141 19.2144 62.5513 19.1896C62.6479 19.1307 62.7601 19.1025 62.8731 19.1088C63.0687 19.1129 63.2615 19.1554 63.4406 19.2339L63.5363 18.9838C63.3284 18.8884 63.1018 18.8405 62.8731 18.8435C62.6383 18.8435 62.4535 18.8996 62.3185 19.0118C62.2627 19.0564 62.2164 19.1116 62.1821 19.1741C62.1479 19.2367 62.1264 19.3054 62.1189 19.3763C62.1115 19.4471 62.1181 19.5188 62.1386 19.5871C62.159 19.6554 62.1928 19.7189 62.238 19.7741C62.3187 19.8665 62.4527 19.9439 62.6402 20.0064L62.8028 20.0625C63.0008 20.1303 63.1341 20.1915 63.2016 20.2459C63.235 20.2727 63.2617 20.307 63.2793 20.346C63.297 20.3849 63.3053 20.4275 63.3034 20.4703C63.2944 20.6947 63.1307 20.8069 62.8123 20.8069C62.5873 20.8028 62.3668 20.7433 62.1705 20.6335L62.13 20.9084C62.2229 20.9644 62.3241 21.0053 62.4298 21.0295C62.5622 21.0615 62.6981 21.0772 62.8343 21.0761C63.0716 21.0761 63.2601 21.0219 63.3996 20.9134C63.4687 20.8589 63.5241 20.7889 63.5611 20.7091C63.5981 20.6293 63.6158 20.5419 63.6128 20.454C63.6202 20.3122 63.5718 20.1731 63.4778 20.0664C63.3885 19.9703 63.2357 19.8871 63.0193 19.8168Z" fill="#029E57"/>
<path d="M83.3252 18.1115H82.9967V18.4979H83.3252V18.1115Z" fill="#DC4537"/>
<path d="M68.2983 20.6363C68.2432 20.4531 68.0605 19.871 67.7504 18.8901H67.3803C67.0687 19.8501 66.8812 20.434 66.8178 20.6419L66.3582 18.8901H66.0208L66.6333 21.0301H66.9854C67.0181 20.9303 67.0653 20.785 67.1283 20.5954L67.2807 20.1309C67.3195 20.0114 67.3657 19.8684 67.4174 19.7018C67.4692 19.5352 67.5159 19.3803 67.5564 19.2373C67.6284 19.4729 67.8159 20.0713 68.1188 21.0324H68.4727L69.0914 18.8923H68.7573L68.2983 20.6363Z" fill="#DC4537"/>
<path d="M69.8226 21.4558H70.1044L71.4308 18.1703H71.145L69.8226 21.4558Z" fill="#DC4537"/>
<path d="M74.9058 18.139L73.7949 21.0301H74.1392L74.489 20.1152H75.6433L75.9808 21.0301H76.3301L75.2523 18.139H74.9058ZM74.6027 19.8325L75.078 18.4862C75.1068 18.5849 75.2589 19.0337 75.5341 19.8325H74.6027Z" fill="#DC4537"/>
<path d="M78.5531 20.3199C78.5531 20.4983 78.5059 20.6245 78.4114 20.6986C78.2964 20.7788 78.1578 20.8183 78.0176 20.8108C77.9444 20.8117 77.8713 20.8038 77.7999 20.7872C77.7392 20.7728 77.6819 20.7467 77.6312 20.7104C77.5801 20.6717 77.5411 20.6194 77.5187 20.5595C77.49 20.4833 77.4764 20.4024 77.4788 20.3211V18.8901H77.1503V20.316C77.1487 20.4156 77.1645 20.5147 77.1969 20.6088C77.2245 20.6893 77.2681 20.7633 77.3252 20.8265C77.3807 20.8854 77.4462 20.9342 77.5187 20.9706C77.5936 21.009 77.6735 21.0369 77.7561 21.0537C77.9322 21.0873 78.1132 21.0873 78.2893 21.0537C78.3712 21.0371 78.4505 21.0096 78.525 20.9718C78.5993 20.9357 78.6656 20.8852 78.72 20.8233C78.7745 20.7613 78.816 20.6892 78.8422 20.6111C78.8748 20.5162 78.8906 20.4163 78.8889 20.316V18.8901H78.5604L78.5531 20.3199Z" fill="#DC4537"/>
<path d="M81.4487 19.0012L81.4549 19.1863C81.3873 19.078 81.2896 18.9916 81.1737 18.9378C81.0486 18.8763 80.9109 18.8446 80.7715 18.8452C80.6459 18.8408 80.521 18.8662 80.4071 18.9192C80.2931 18.9723 80.1935 19.0515 80.1162 19.1504C79.9531 19.3538 79.8717 19.6208 79.8721 19.9514C79.8721 20.2973 79.9521 20.5707 80.1123 20.7715C80.2724 20.9723 80.4942 21.0729 80.7777 21.0733C80.9149 21.0752 81.0503 21.0424 81.1714 20.978C81.2855 20.917 81.3823 20.8282 81.4527 20.7199L81.4954 21.0301H81.7733V18.0391L81.4504 18.0588L81.4487 19.0012ZM81.2873 20.587C81.1827 20.725 81.0226 20.7938 80.8069 20.7934C80.6852 20.7974 80.5658 20.7589 80.4694 20.6846C80.3758 20.6086 80.3067 20.5067 80.2709 20.3918C80.2271 20.2517 80.2062 20.1054 80.209 19.9587C80.2083 19.8487 80.2204 19.7389 80.245 19.6317C80.2668 19.5387 80.3029 19.4495 80.3519 19.3675C80.3973 19.2925 80.4614 19.2307 80.5381 19.188C80.6197 19.1439 80.7113 19.1217 80.8041 19.1234C81.0291 19.1234 81.1924 19.1966 81.2941 19.3428C81.3957 19.489 81.4461 19.7066 81.4454 19.9957C81.445 20.2526 81.3923 20.4497 81.2873 20.587Z" fill="#DC4537"/>
<path d="M83.3252 18.8901H82.9967V21.0307H83.3252V18.8901Z" fill="#DC4537"/>
<path d="M86.1664 19.1543C85.9917 18.9501 85.7504 18.848 85.4425 18.848C85.1305 18.848 84.8853 18.9507 84.7068 19.156C84.5283 19.3613 84.4389 19.6306 84.4385 19.9638C84.4385 20.2902 84.5275 20.5576 84.7057 20.7659C84.8838 20.9742 85.1234 21.0782 85.4245 21.0778C85.7376 21.0778 85.9829 20.9748 86.1603 20.7687C86.3376 20.5627 86.4263 20.2938 86.4263 19.9621C86.4278 19.6307 86.3412 19.3615 86.1664 19.1543ZM85.9268 20.5758C85.8177 20.7276 85.6563 20.8037 85.4425 20.8041C85.2288 20.8044 85.0642 20.728 84.9487 20.5746C84.8362 20.4221 84.7799 20.2188 84.7799 19.9649C84.7799 19.711 84.8362 19.5053 84.9487 19.3478C85.0047 19.272 85.0787 19.2112 85.1642 19.1711C85.2496 19.1309 85.3437 19.1126 85.438 19.1178C85.6585 19.1178 85.8226 19.1926 85.9302 19.3422C86.0378 19.4918 86.0915 19.6975 86.0911 19.9593C86.0903 20.2181 86.0356 20.4236 85.9268 20.5758Z" fill="#DC4537"/>
<path d="M17.5357 4.23915C17.3644 3.97781 17.1734 3.72989 16.9642 3.49757C16.9046 3.43193 16.8455 3.37079 16.7837 3.30965L16.71 3.23616L15.4545 1.98187C15.4849 2.01216 15.5136 2.04302 15.5423 2.07555C15.7105 2.26072 15.8667 2.45653 16.0097 2.66175C16.0446 2.71279 16.0794 2.76384 16.1143 2.81713C16.8414 3.92221 17.2048 5.24269 17.2044 6.77858C17.2044 8.10392 16.9162 9.27108 16.3399 10.28C15.7635 11.289 15.0158 12.0353 14.0967 12.5188C13.1787 12.999 11.8883 13.248 10.2306 13.248L7.41819 13.2581L5.99902 13.2626L7.41819 14.6824L11.6526 14.6701C13.3105 14.6637 14.5991 14.4191 15.5186 13.9363C16.4381 13.4535 17.1864 12.708 17.7635 11.6998C18.3388 10.6901 18.627 9.52276 18.6281 8.19779C18.6255 6.66676 18.2613 5.34721 17.5357 4.23915Z" fill="#9E7008"/>
<path d="M16.116 2.81938C16.0811 2.76608 16.0462 2.71504 16.0113 2.66399C15.8679 2.45795 15.7112 2.26139 15.5422 2.07555C15.5135 2.04302 15.486 2.01216 15.4545 1.98187L15.4196 1.94485L15.3634 1.88876C14.724 1.25392 13.9461 0.775274 13.0903 0.4903C12.1903 0.175419 10.7466 0.0207829 8.75914 0.0263924L6.00293 0.0370505V13.2671L7.4221 13.2626L10.2346 13.2525C11.8922 13.2486 13.1826 13.0012 14.1006 12.5233C15.0185 12.0454 15.7678 11.2937 16.3438 10.2845C16.9198 9.27538 17.2083 8.1086 17.2083 6.78307C17.2068 5.2468 16.8427 3.92557 16.116 2.81938Z" fill="#F4B406"/>
<path d="M2.9992 13.2671L0 13.2749L1.41973 14.697L4.41893 14.6869L2.9992 13.2671Z" fill="#314D77"/>
<path d="M2.99695 0.0370483L2.9992 13.2671L4.41893 14.6869V1.4585L2.99695 0.0370483Z" fill="#314D77"/>
<path d="M2.99695 0.0370483L0 0.0471455V13.275L2.9992 13.2671L2.99695 0.0370483Z" fill="#517CBE"/>
<path d="M30.4639 13.2323L19.4695 13.2671L20.8892 14.6869L31.8837 14.6521L30.4639 13.2323Z" fill="#04562F"/>
<path d="M30.4639 8.10406L19.4695 8.14109L20.8892 9.56086L31.8837 9.52608L30.4639 8.10406Z" fill="#04562F"/>
<path d="M30.4617 2.9809L19.4673 3.01567L20.8893 4.43713L31.8837 4.40235L30.4617 2.9809Z" fill="#04562F"/>
<path d="M30.464 10.2498V13.2323L31.8837 14.6521V11.6712L30.464 10.2498Z" fill="#04562F"/>
<path d="M30.464 5.12598V8.10407L31.8837 9.52609V6.54575L30.464 5.12598Z" fill="#04562F"/>
<path d="M30.4617 0V2.9809L31.8837 4.40236V1.42201L30.4617 0Z" fill="#04562F"/>
<path d="M19.4695 10.284V13.2671L30.4639 13.2323V10.2498L19.4695 10.284Z" fill="#029E57"/>
<path d="M19.4695 5.16076V8.1411L30.4639 8.10407V5.12598L19.4695 5.16076Z" fill="#029E57"/>
<path d="M19.4673 0.0370229V3.01568L30.4617 2.9809V0L19.4673 0.0370229Z" fill="#029E57"/>
<path d="M45.9747 13.2407L32.6672 13.2368L34.0819 14.6616L47.3893 14.6656L45.9747 13.2407Z" fill="#912222"/>
<path d="M40.7817 1.43269L39.3654 0.00787354L45.9746 13.2407L47.3893 14.6656L40.7817 1.43269Z" fill="#912222"/>
<path d="M40.3115 2.36158L40.2434 2.22527L39.3637 0.463318L33.0002 13.0326L34.8036 13.032H34.9071L40.3115 2.36158Z" fill="#B2332D"/>
<path d="M40.4268 2.13164L39.3648 0.00787354L32.6672 13.2385H34.8047L45.9758 13.243L40.4268 2.13164ZM34.9071 13.0321H33.0002L39.3637 0.463367L40.2434 2.22532L40.3121 2.36163L34.9071 13.0321Z" fill="#DC4537"/>
<path d="M63.1689 1.46294V14.6969H60.1545L60.15 14.6896H60.1478L60.1427 14.6824H60.1404L60.1359 14.6751H60.1337L60.1292 14.6678H60.1264L60.1219 14.6605H60.1196L60.1151 14.6532H60.1123L60.1078 14.6459H60.1056L60.1005 14.6392H60.0988L60.0938 14.6319H60.0915L60.0864 14.6246H60.0848L60.0797 14.6173H60.0774L60.0724 14.61H60.0707L60.0656 14.6027H60.0634L60.0583 14.5954H60.0566L60.0516 14.5881H60.0499L60.0443 14.5808H60.042L60.0375 14.5735H60.0353L60.0308 14.5662H60.0279L60.0234 14.5589H60.0212L60.0167 14.5517H60.0139L60.0094 14.5444H60.0071L60.0026 14.5376H59.9998L59.9953 14.5303H59.9931L59.9886 14.523H59.9863L59.9818 14.5157H59.979L59.9745 14.5085H59.9723L59.9678 14.5012H59.9649L59.9604 14.4939H59.9582L59.9537 14.4866H59.9509L59.9464 14.4793H59.9441L59.9396 14.472H59.9374L59.9323 14.4647H59.9301L59.925 14.4574H59.9233L59.9183 14.4501H59.916L59.9109 14.4428H59.9093L59.9042 14.4361H59.9019L59.8969 14.4288H59.8952L59.8901 14.4215H59.8879L59.8828 14.4142H59.8811L59.8761 14.4069H59.8738L59.8693 14.3996H59.8665L59.862 14.3923H59.8598L59.8553 14.385H59.8524L59.8479 14.3778H59.8457L59.8412 14.3705H59.8389L59.8339 14.3632H59.8316L59.8271 14.3559H59.8249L59.8204 14.3486H59.8176L59.8131 14.3413H59.8108L59.8063 14.334H59.8035L59.799 14.3273H59.7968L59.7923 14.32H59.7894L59.7849 14.3127H59.7827L59.7776 14.3048H59.7759L59.7709 14.2975H59.7686L59.7636 14.2902H59.7619L59.7568 14.2835H59.7546L59.7495 14.2762H59.7478L59.7428 14.2689H59.7405L59.7354 14.2616H59.7338L59.7287 14.2538H59.727L59.7219 14.2465H59.7191L59.7146 14.2392H59.7124L59.7079 14.2325H59.7051L59.7006 14.2252H59.6983L59.6938 14.2179H59.691L59.6865 14.2106H59.6843L59.6798 14.2033H59.6775L59.6724 14.196H59.6702L59.6657 14.1887H59.6634L59.6589 14.1814H59.6561L59.6516 14.1741H59.6494L59.6449 14.1668H59.6421L59.6376 14.1595H59.6353L59.6308 14.1523H59.6286L59.6235 14.145H59.6213L59.6168 14.1377H59.6145L59.6094 14.1304H59.6072L59.6021 14.1231H59.6004L59.5954 14.1164H59.5931L59.5881 14.1091H59.5864L59.5813 14.1018H59.5796L59.574 14.0945H59.5723L59.5673 14.0872H59.565L59.5605 14.0799H59.5583L59.5532 14.0726H59.5509L59.5464 14.0653H59.5436L59.5391 14.058H59.5369L59.5324 14.0507H59.5296L59.5251 14.0434H59.5228L59.5183 14.0361H59.5161L59.5116 14.0288H59.5088L59.5043 14.0216H59.502L59.4975 14.0148H59.4947L59.4902 14.0075H59.4879L59.4835 14.0002H59.4806L59.4761 13.9929H59.4739L59.4694 13.9857H59.4671L59.4626 13.9784H59.4598L59.4548 13.9711H59.4531L59.448 13.9638H59.4458L59.4407 13.9565H59.439L59.434 13.9492H59.4317L59.4266 13.9419H59.4249L59.4199 13.9346H59.4182L59.4126 13.9273H59.4109L59.4058 13.92H59.4041L59.3991 13.9133H59.3963L59.3918 13.906H59.3895L59.385 13.8987H59.3822L59.3777 13.8914H59.3755L59.371 13.8841H59.3687L59.3636 13.8768H59.3614L59.3569 13.8695H59.3546L59.3501 13.8622H59.3473L59.3428 13.8549H59.3406L59.3361 13.8477H59.3333L59.3288 13.8404H59.3265L59.322 13.8331H59.3192L59.3147 13.8258H59.3125L59.308 13.8185H59.3057L59.3012 13.8112H59.2984L59.2939 13.8045H59.2916L59.2866 13.7972H59.2843L59.2793 13.7899H59.2776L59.2725 13.7826H59.2703L59.2652 13.7753H59.2635L59.2585 13.768H59.2568L59.2517 13.7607H59.2495L59.2444 13.7534H59.2421L59.2376 13.7461H59.2354L59.2303 13.7388H59.2281L59.2236 13.7315H59.2208L59.2163 13.7242H59.214L59.2095 13.717H59.2073L59.2022 13.7097H59.2L59.1955 13.7029H59.1932L59.1887 13.6956H59.1859L59.1814 13.6883H59.1791L59.1746 13.6811H59.1718L59.1673 13.6738H59.1651L59.1606 13.6665H59.1583L59.1533 13.6592H59.151L59.1465 13.6519H59.1443L59.1392 13.6446H59.137L59.1325 13.6373H59.1302L59.1251 13.63H59.1229L59.1178 13.6227H59.1161L59.1111 13.6154H59.1094L59.1038 13.6081H59.1021L59.097 13.6014H59.0953L59.0903 13.5941H59.0875L59.083 13.5868H59.0813L59.0762 13.5795H59.0734L59.0689 13.5722H59.0666L59.0621 13.5649H59.0593L59.0548 13.5576H59.0526L59.0481 13.5504H59.0458L59.0413 13.5431H59.0385L59.034 13.5358H59.0318L59.0273 13.5285H59.0245L59.02 13.5212H59.0177L59.0132 13.5139H59.0104L59.0059 13.5066H59.0036L58.9991 13.4993H58.9969L58.9924 13.4926H58.9896L58.9851 13.4853H58.9828L58.9783 13.478H58.9755L58.9705 13.4707H58.9688L58.9637 13.4634H58.9615L58.9564 13.4561H58.9547L58.9496 13.4488H58.948L58.9423 13.4415H58.9406L58.9356 13.4342H58.9333L58.9288 13.4264H58.9266L58.9215 13.4191H58.9193L58.9148 13.4118H58.9125L58.9075 13.4051H58.9052L58.9007 13.3978H58.8985L58.8934 13.3905H58.8911L58.8866 13.3837H58.8844L58.8799 13.3759H58.8771L58.8726 13.3686H58.8703L58.8658 13.3613H58.863L58.8585 13.354H58.8563L58.8518 13.3467H58.849L58.8445 13.3394H58.8422L58.8377 13.3321H58.8355L58.831 13.3248H58.8281L58.8236 13.3176H58.8214L58.8163 13.3103H58.8141L58.8096 13.303H58.8073L58.8023 13.2957H58.8L58.795 13.2889H58.7933L58.7882 13.2817H58.7865L58.7815 13.2744H58.7792L58.7741 13.2671H58.7725L58.7674 13.2598H58.7646L58.7601 13.2525H58.7584L58.7533 13.2452H58.7505L58.746 13.2379H58.7438L55.6084 8.43671L55.0617 7.60089V14.6969H52.0113V14.6896H52.0046V14.6824H51.9972V14.6751H51.9899V14.6678H51.9826V14.6605H51.9759V14.6532H51.9686V14.6459H51.9618V14.6392H51.9551V14.6319H51.9478V14.6246H51.941V14.6173H51.9337V14.61H51.9269V14.6027H51.9196V14.5954H51.9129V14.5881H51.9061V14.5808H51.8988V14.5735H51.8921V14.5662H51.8848V14.5589H51.878V14.5517H51.8707V14.5444H51.8639V14.5376H51.8566V14.5303H51.8499V14.523H51.8431V14.5157H51.8358V14.5085H51.8285V14.5012H51.8212V14.4939H51.8144V14.4866H51.8071V14.4793H51.8004V14.472H51.7936V14.4647H51.7863V14.4574H51.7796V14.4501H51.7723V14.4428H51.7655V14.4361H51.7582V14.4288H51.7514V14.4215H51.7447V14.4142H51.7374V14.4069H51.7306V14.3996H51.7233V14.3923H51.7166V14.385H51.7093V14.3778H51.7025V14.3705H51.6958V14.3632H51.6884V14.3559H51.6817V14.3486H51.6744V14.3413H51.6671V14.334H51.6598V14.3273H51.653V14.32H51.6457V14.3127H51.6389V14.3048H51.6322V14.2975H51.6249V14.2902H51.6181V14.2835H51.6108V14.2762H51.6041V14.2689H51.5968V14.2616H51.59V14.2538H51.5833V14.2465H51.5759V14.2392H51.5692V14.2325H51.5619V14.2252H51.5551V14.2179H51.5478V14.2106H51.5411V14.2033H51.5343V14.196H51.527V14.1887H51.5203V14.1814H51.5129V14.1741H51.5056V14.1668H51.4983V14.1595H51.4916V14.1523H51.4848V14.145H51.4775V14.1377H51.4708V14.1304H51.4634V14.1231H51.4567V14.1164H51.4494V14.1091H51.4426V14.1018H51.4359V14.0945H51.4286V14.0872H51.4218V14.0799H51.4145V14.0726H51.4078V14.0653H51.4004V14.058H51.3937V14.0507H51.3864V14.0434H51.3796V14.0361H51.3729V14.0288H51.3656V14.0216H51.3588V14.0148H51.3515V14.0075H51.3442V14.0002H51.3369V13.9929H51.3301V13.9857H51.3234V13.9784H51.3161V13.9711H51.3093V13.9638H51.302V13.9565H51.2953V13.9492H51.2879V13.9419H51.2812V13.9346H51.2744V13.9273H51.2671V13.92H51.2604V13.9133H51.2531V13.906H51.2463V13.8987H51.239V13.8914H51.2323V13.8841H51.2255V13.8768H51.2182V13.8695H51.2115V13.8622H51.2041V13.8549H51.1974V13.8477H51.1901V13.8404H51.1828V13.8331H51.1755V13.8258H51.1687V13.8185H51.162V13.8112H51.1546V13.8045H51.1479V13.7972H51.1406V13.7899H51.1338V13.7826H51.1265V13.7753H51.1198V13.768H51.113V13.7607H51.1057V13.7534H51.099V13.7461H51.0916V13.7388H51.0849V13.7315H51.0776V13.7242H51.0708V13.717H51.0641V13.7097H51.0568V13.7029H51.05V13.6956H51.0427V13.6883H51.036V13.6811H51.0286V13.6738H51.0219V13.6665H51.0146V13.6592H51.0073V13.6519H51.0005V13.6446H50.9932V13.6373H50.9865V13.63H50.9791V13.6227H50.9724V13.6154H50.9656V13.6081H50.9583V13.6014H50.9516V13.5941H50.9443V13.5868H50.9375V13.5795H50.9302V13.5722H50.9235V13.5649H50.9161V13.5576H50.9094V13.5504H50.9026V13.5431H50.8953V13.5358H50.8886V13.5285H50.8813V13.5212H50.8745V13.5139H50.8672V13.5066H50.8605V13.4993H50.8531V13.4926H50.8458V13.4853H50.8391V13.478H50.8318V13.4707H50.825V13.4634H50.8177V13.4561H50.811V13.4488H50.8042V13.4415H50.7969V13.4342H50.7901V13.4264H50.7828V13.4191H50.7761V13.4118H50.7688V13.4051H50.762V13.3978H50.7553V13.3905H50.748V13.3837H50.7412V13.3759H50.7339V13.3686H50.7271V13.3613H50.7198V13.354H50.7131V13.3467H50.7058V13.3394H50.699V13.3321H50.6917V13.3248H50.6844V13.3176H50.6776V13.3103H50.6703V13.303H50.6636V13.2957H50.6563V13.2889H50.6495V13.2817H50.6428V13.2744H50.6355V13.2671H50.6287V13.2598H50.6214V13.2525H50.6146V13.2452H50.6073V13.2379H50.6006V0.00390625H53.5964L53.6009 0.0111986H53.6032L53.6077 0.018491H53.6105L53.615 0.0257834H53.6172L53.6217 0.0330758H53.6245L53.629 0.0403682H53.6313L53.6358 0.0476606H53.6386L53.6431 0.0549529H53.6454L53.6499 0.0616844H53.6521L53.6572 0.0689768H53.6594L53.6639 0.0762691H53.6662L53.6707 0.0835615H53.6735L53.678 0.0908539H53.6802L53.6853 0.0981463H53.6875L53.6926 0.105439H53.6943L53.6993 0.112731H53.701L53.7067 0.120023H53.7084L53.7134 0.127316H53.7157L53.7202 0.134608H53.723L53.7275 0.141901H53.7297L53.7342 0.149193H53.737L53.7415 0.156485H53.7438L53.7483 0.163778H53.7511L53.7556 0.170509H53.7579L53.7623 0.177802H53.7646L53.7691 0.185655H53.7719L53.7764 0.192947H53.7787L53.7832 0.199679H53.786L53.7905 0.206971H53.7927L53.7972 0.214824H53.8L53.8045 0.222117H53.8068L53.8113 0.229409H53.8135L53.818 0.236141H53.8208L53.8253 0.243994H53.8276L53.8321 0.251286H53.8349L53.84 0.258579H53.8417L53.8467 0.26531H53.849L53.854 0.272603H53.8557L53.8608 0.279895H53.8625L53.8681 0.287187H53.8698L53.8748 0.29448H53.8771L53.8816 0.301772H53.8844L53.8889 0.309064H53.8912L53.8957 0.316357H53.8985L53.903 0.323649H53.9052L53.9097 0.330942H53.912L53.917 0.338234H53.9193L53.9238 0.345526H53.926L53.9305 0.352819H53.9333L53.9378 0.360111H53.9401L53.9446 0.367404H53.9474L53.9519 0.374135H53.9542L53.9587 0.381427H53.9615L53.966 0.38872H53.9682L53.9727 0.396012H53.975L53.9795 0.403305H53.9823L53.9868 0.410597H53.989L53.9941 0.417889H53.9963L54.0014 0.425182H54.0031L54.0082 0.432474H54.0104L54.0155 0.439766H54.0172L54.0222 0.447059H54.0239L54.029 0.454351H54.0312L54.0363 0.461644H54.0385L54.043 0.468936H54.0458L54.0503 0.475667H54.0526L54.0571 0.48296H54.0599L54.0644 0.490252H54.0667L54.0712 0.497545H54.0734L54.0779 0.504837H54.0807L54.0852 0.512129H54.0875L54.092 0.519422H54.0948L54.0993 0.526714H54.1015L54.106 0.534007H54.1088L54.1133 0.541299H54.1156L54.1201 0.548591H54.1223L54.1274 0.555884H54.1297L54.1342 0.563176H54.1364L54.1409 0.570468H54.1437L54.1482 0.5772H54.1505L54.1555 0.584492H54.1578L54.1628 0.591785H54.1645L54.1696 0.599077H54.1713L54.1769 0.606369H54.1786L54.1837 0.613662H54.1853L54.1904 0.620954H54.1927L54.1977 0.628246H54.2L54.2045 0.635539H54.2073L54.2118 0.642831H54.214L54.2185 0.650124H54.2213L54.2258 0.657416H54.2281L54.2326 0.664708H54.2348L54.2393 0.672001H54.2422L54.2467 0.679293H54.2489L54.2534 0.686025H54.2562L54.2607 0.693317H54.263L54.2675 0.700609H54.2703L54.2748 0.707902H54.277L54.2815 0.715194H54.2838L54.2883 0.722487H54.2911L54.2956 0.729779H54.2978L54.3023 0.737071H54.3052L54.3097 0.744364H54.3119L54.317 0.751656H54.3192L54.3243 0.758948H54.326L54.331 0.766241H54.3327L54.3383 0.773533H54.34L54.3451 0.780826H54.3468L54.3518 0.787557H54.3541L54.3592 0.794849H54.3608L54.3659 0.802142H54.3687L54.3732 0.809434H54.3755L54.38 0.816727H54.3822L54.3873 0.824019H54.3895L54.394 0.831311H54.3963L54.4008 0.838604H54.4036L54.4081 0.845896H54.4103L54.4148 0.853189H54.4177L54.4222 0.860481H54.4244L54.4289 0.867773H54.4317L54.4362 0.875066H54.4385L54.443 0.882358H54.4452L54.4497 0.88909H54.4525L54.457 0.896382H54.4593L54.4638 0.903674H54.4666L54.4711 0.910967H54.4733L54.4784 0.918259H54.4807L54.4857 0.925551H54.4874L54.4925 0.932844H54.4942L54.4992 0.940136H54.5015L54.5065 0.947429H54.5082L54.5133 0.954721H54.5155L54.5206 0.962013H54.5223L54.5273 0.969306H54.5296L54.5347 0.976598H54.5369L54.5414 0.983891H54.5437L54.5482 0.991183H54.551L54.5555 0.998475H54.5577L54.5622 1.00577H54.565L54.5695 1.0125H54.5718L54.5763 1.01979H54.5791L54.5836 1.02764H54.5858L54.5903 1.03494H54.5926L54.5977 1.04167H54.5999L54.6044 1.04896H54.6066L54.6111 1.05681H54.614L54.6185 1.06355H54.6207L54.6252 1.07084H54.628L54.6325 1.07869H54.6348L54.6398 1.08598H54.6415L54.6472 1.09272H54.6488L54.6539 1.10001H54.6556L54.6606 1.1073H54.6629L54.668 1.11459H54.6696L54.6747 1.12188H54.677L54.682 1.12918H54.6837L54.6888 1.13647H54.691L54.6961 1.14376H54.6983L54.7028 1.15105H54.7051L54.7096 1.15835H54.7124L54.7169 1.16564H54.7191L54.7236 1.17293H54.7265L54.731 1.18022H54.7332L54.7377 1.18752H54.7405L54.745 1.19481H54.7473L54.7518 1.2021H54.754L54.7585 1.20883H54.7613L54.7658 1.21612H54.7681L54.7726 1.22342H54.7754L54.7799 1.23071H54.7821L54.7866 1.238H54.7895L54.794 1.24529H54.7962L54.8013 1.25259H54.803L54.8086 1.25988H54.8103L54.8153 1.26717H54.817L54.8221 1.27446H54.8243L54.8294 1.28176H54.8311L54.8361 1.28905H54.8384L54.8435 1.29634H54.8451L54.8502 1.30363H54.8525L54.8575 1.31036H54.8598L54.8643 1.31766H54.8665L54.871 1.32495H54.8738L54.8783 1.33224H54.8806L54.8851 1.33953H54.8879L54.8924 1.34683H54.8946L54.8991 1.35412H54.902L54.9065 1.36141H54.9087L54.9132 1.3687H54.9155L54.92 1.376H54.9228L54.9273 1.38329H54.9295L54.934 1.39058H54.9368L54.9413 1.39787H54.9436L54.9486 1.40517H54.9509L54.9554 1.4119H54.9576L54.9627 1.41919H54.9644L54.9695 1.42648H54.9717L54.9768 1.43377H54.9785L54.9835 1.44107H54.9858L54.9908 1.44836H54.9925L54.9976 1.45565H54.9998L55.0049 1.46294H55.0066L58.7072 7.13978V0.00390625H61.7582V0.0111986H61.7649V0.018491H61.7722V0.0257834H61.779V0.0330758H61.7863V0.0403682H61.793V0.0476606H61.8004V0.0549529H61.8071V0.0616844H61.8139V0.0689768H61.8212V0.0762691H61.8279V0.0835615H61.8352V0.0908539H61.842V0.0981463H61.8493V0.105439H61.856V0.112731H61.8628V0.120023H61.8701V0.127316H61.8774V0.134608H61.8842V0.141901H61.8915V0.149193H61.8988V0.156485H61.9055V0.163778H61.9128V0.170509H61.9196V0.177802H61.9264V0.185655H61.9337V0.192947H61.9404V0.199679H61.9477V0.206971H61.9545V0.214824H61.9618V0.222117H61.9685V0.229409H61.9753V0.236141H61.9826V0.243994H61.9894V0.251286H61.9967V0.258579H62.0034V0.26531H62.0107V0.272603H62.0175V0.279895H62.0242V0.287187H62.0315V0.29448H62.0383V0.301772H62.0462V0.309064H62.0529V0.316357H62.0602V0.323649H62.067V0.330942H62.0737V0.338234H62.081V0.345526H62.0878V0.352819H62.0951V0.360111H62.1019V0.367404H62.1092V0.374135H62.1159V0.381427H62.1232V0.38872H62.13V0.396012H62.1367V0.403305H62.144V0.410597H62.1508V0.417889H62.1581V0.425182H62.1649V0.432474H62.1722V0.439766H62.1789V0.447059H62.1857V0.454351H62.193V0.461644H62.2003V0.468936H62.207V0.475667H62.2144V0.48296H62.2217V0.490252H62.2284V0.497545H62.2352V0.504837H62.2425V0.512129H62.2492V0.519422H62.2565V0.526714H62.2633V0.534007H62.2706V0.541299H62.2773V0.548591H62.2841V0.555884H62.2914V0.563176H62.2982V0.570468H62.3055V0.5772H62.3122V0.584492H62.3195V0.591785H62.3263V0.599077H62.333V0.606369H62.3403V0.613662H62.3471V0.620954H62.3544V0.628246H62.3612V0.635539H62.369V0.642831H62.3758V0.650124H62.3831V0.657416H62.3898V0.664708H62.3966V0.672001H62.4039V0.679293H62.4107V0.686025H62.418V0.693317H62.4247V0.700609H62.432V0.707902H62.4388V0.715194H62.4455V0.722487H62.4528V0.729779H62.4596V0.737071H62.4669V0.744364H62.4737V0.751656H62.481V0.758948H62.4877V0.766241H62.4945V0.773533H62.5018V0.780826H62.5085V0.787557H62.5158V0.794849H62.5232V0.802142H62.5299V0.809434H62.5372V0.816727H62.544V0.824019H62.5513V0.831311H62.558V0.838604H62.5653V0.845896H62.5721V0.853189H62.5794V0.860481H62.5862V0.867773H62.5935V0.875066H62.6002V0.882358H62.607V0.88909H62.6143V0.896382H62.621V0.903674H62.6283V0.910967H62.6351V0.918259H62.6424V0.925551H62.6492V0.932844H62.6559V0.940136H62.6632V0.947429H62.67V0.954721H62.6778V0.962013H62.684V0.969306H62.6919V0.976598H62.6987V0.983891H62.7054V0.991183H62.7127V0.998475H62.7195V1.00577H62.7268V1.0125H62.7335V1.01979H62.7408V1.02764H62.7476V1.03494H62.7543V1.04167H62.7617V1.04896H62.7684V1.05681H62.7757V1.06355H62.7825V1.07084H62.7898V1.07869H62.7965V1.08598H62.8033V1.09272H62.8106V1.10001H62.8173V1.1073H62.8247V1.11459H62.832V1.12188H62.8387V1.12918H62.846V1.13647H62.8528V1.14376H62.8601V1.15105H62.8668V1.15835H62.8742V1.16564H62.8809V1.17293H62.8882V1.18022H62.895V1.18752H62.9023V1.19481H62.909V1.2021H62.9158V1.20883H62.9231V1.21612H62.9298V1.22342H62.9372V1.23071H62.9439V1.238H62.9512V1.24529H62.958V1.25259H62.9647V1.25988H62.972V1.26717H62.9788V1.27446H62.9861V1.28176H62.9928V1.28905H63.0007V1.29634H63.0069V1.30363H63.0142V1.31036H63.0215V1.31766H63.0283V1.32495H63.0356V1.33224H63.0423V1.33953H63.0496V1.34683H63.0564V1.35412H63.0637V1.36141H63.0705V1.3687H63.0772V1.376H63.0845V1.38329H63.0913V1.39058H63.0986V1.39787H63.1053V1.40517H63.1126V1.4119H63.1194V1.41919H63.1261V1.42648H63.1335V1.43377H63.1402V1.44107H63.1475V1.44836H63.1548V1.45565H63.1616V1.46294H63.1689Z" fill="#314D77"/>
<path d="M63.1689 1.46298V14.6768L61.7582 13.2379V0.0112305H61.7649V0.0185229H61.7722V0.0258152H61.779V0.0331076H61.7863V0.0404H61.7931V0.0476924H61.8004V0.0549848H61.8071V0.0617162H61.8139V0.0690086H61.8212V0.076301H61.8279V0.0835934H61.8352V0.0908857H61.842V0.0981781H61.8493V0.105471H61.8561V0.112763H61.8628V0.120055H61.8701V0.127348H61.8774V0.13464H61.8842V0.141932H61.8915V0.149225H61.8988V0.156517H61.9056V0.16381H61.9129V0.170541H61.9196V0.177833H61.9264V0.185687H61.9337V0.192979H61.9404V0.199711H61.9477V0.207003H61.9545V0.214856H61.9618V0.222149H61.9686V0.229441H61.9753V0.236172H61.9826V0.244026H61.9894V0.251318H61.9967V0.258611H62.0034V0.265342H62.0107V0.272634H62.0175V0.279927H62.0242V0.287219H62.0316V0.294512H62.0383V0.301804H62.0462V0.309096H62.0529V0.316389H62.0602V0.323681H62.067V0.330974H62.0737V0.338266H62.0811V0.345558H62.0878V0.352851H62.0951V0.360143H62.1019V0.367435H62.1092V0.374167H62.1159V0.381459H62.1232V0.388752H62.13V0.396044H62.1367V0.403336H62.1441V0.410629H62.1508V0.417921H62.1581V0.425214H62.1649V0.432506H62.1722V0.439798H62.1789V0.447091H62.1857V0.454383H62.193V0.461675H62.2003V0.468968H62.2071V0.475699H62.2144V0.482992H62.2217V0.490284H62.2284V0.497576H62.2352V0.504869H62.2425V0.512161H62.2492V0.519454H62.2566V0.526746H62.2633V0.534038H62.2706V0.541331H62.2774V0.548623H62.2841V0.555915H62.2914V0.563208H62.2982V0.5705H62.3055V0.577232H62.3122V0.584524H62.3196V0.591816H62.3263V0.599109H62.3331V0.606401H62.3404V0.613694H62.3471V0.620986H62.3544V0.628278H62.3612V0.635571H62.3691V0.642863H62.3758V0.650156H62.3831V0.657448H62.3899V0.66474H62.3966V0.672033H62.4039V0.679325H62.4107V0.686056H62.418V0.693349H62.4247V0.700641H62.432V0.707934H62.4388V0.715226H62.4455V0.722518H62.4529V0.729811H62.4596V0.737103H62.4669V0.744396H62.4737V0.751688H62.481V0.75898H62.4877V0.766273H62.4945V0.773565H62.5018V0.780858H62.5085V0.787589H62.5159V0.794881H62.5232V0.802174H62.5299V0.809466H62.5372V0.816759H62.544V0.824051H62.5513V0.831343H62.558V0.838636H62.5654V0.845928H62.5721V0.85322H62.5794V0.860513H62.5862V0.867805H62.5935V0.875098H62.6002V0.88239H62.607V0.889121H62.6143V0.896414H62.621V0.903706H62.6284V0.910998H62.6351V0.918291H62.6424V0.925583H62.6492V0.932876H62.6559V0.940168H62.6632V0.94746H62.67V0.954753H62.6779V0.962045H62.684V0.969338H62.6919V0.97663H62.6987V0.983922H62.7054V0.991215H62.7127V0.998507H62.7195V1.0058H62.7268V1.01253H62.7335V1.01982H62.7409V1.02768H62.7476V1.03497H62.7544V1.0417H62.7617V1.04899H62.7684V1.05685H62.7757V1.06358H62.7825V1.07087H62.7898V1.07872H62.7965V1.08602H62.8033V1.09275H62.8106V1.10004H62.8174V1.10733H62.8247V1.11462H62.832V1.12192H62.8387V1.12921H62.846V1.1365H62.8528V1.14379H62.8601V1.15109H62.8669V1.15838H62.8742V1.16567H62.8809V1.17296H62.8882V1.18026H62.895V1.18755H62.9023V1.19484H62.909V1.20213H62.9158V1.20886H62.9231V1.21616H62.9299V1.22345H62.9372V1.23074H62.9439V1.23803H62.9512V1.24533H62.958V1.25262H62.9647V1.25991H62.972V1.2672H62.9788V1.2745H62.9861V1.28179H62.9929V1.28908H63.0007V1.29637H63.0069V1.30367H63.0142V1.3104H63.0215V1.31769H63.0283V1.32498H63.0356V1.33227H63.0424V1.33957H63.0497V1.34686H63.0564V1.35415H63.0637V1.36144H63.0705V1.36874H63.0772V1.37603H63.0845V1.38332H63.0913V1.39061H63.0986V1.39791H63.1054V1.4052H63.1127V1.41193H63.1194V1.41922H63.1262V1.42651H63.1335V1.43381H63.1402V1.4411H63.1475V1.44839H63.1548V1.45568H63.1616V1.46298H63.1689Z" fill="#314D77"/>
<path d="M58.7072 7.13982V7.84437L53.601 0.0112305H53.6032L53.6077 0.0185229H53.6105L53.615 0.0258152H53.6173L53.6218 0.0331076H53.6246L53.6291 0.0404H53.6313L53.6358 0.0476924H53.6386L53.6431 0.0549848H53.6454L53.6499 0.0617162H53.6521L53.6572 0.0690086H53.6595L53.664 0.076301H53.6662L53.6707 0.0835933H53.6735L53.678 0.0908857H53.6803L53.6853 0.0981781H53.6876L53.6926 0.105471H53.6943L53.6994 0.112763H53.7011L53.7067 0.120055H53.7084L53.7135 0.127348H53.7157L53.7202 0.13464H53.723L53.7275 0.141932H53.7298L53.7343 0.149225H53.7371L53.7416 0.156517H53.7438L53.7483 0.16381H53.7511L53.7556 0.170541H53.7579L53.7624 0.177833H53.7646L53.7691 0.185687H53.772L53.7764 0.192979H53.7787L53.7832 0.199711H53.786L53.7905 0.207003H53.7928L53.7973 0.214856H53.8001L53.8046 0.222149H53.8068L53.8113 0.229441H53.8136L53.8181 0.236172H53.8209L53.8254 0.244026H53.8276L53.8321 0.251318H53.835L53.84 0.258611H53.8417L53.8468 0.265342H53.849L53.8541 0.272634H53.8558L53.8608 0.279927H53.8625L53.8681 0.287219H53.8698L53.8749 0.294512H53.8771L53.8816 0.301804H53.8845L53.8889 0.309096H53.8912L53.8957 0.316389H53.8985L53.903 0.323681H53.9053L53.9098 0.330973H53.912L53.9171 0.338266H53.9193L53.9238 0.345558H53.9261L53.9306 0.352851H53.9334L53.9379 0.360143H53.9401L53.9446 0.367435H53.9474L53.9519 0.374167H53.9542L53.9587 0.381459H53.9615L53.966 0.388752H53.9683L53.9728 0.396044H53.975L53.9795 0.403336H53.9823L53.9868 0.410629H53.9891L53.9941 0.417921H53.9964L54.0014 0.425213H54.0031L54.0082 0.432506H54.0104L54.0155 0.439798H54.0172L54.0223 0.447091H54.0239L54.029 0.454383H54.0313L54.0363 0.461675H54.0386L54.0431 0.468968H54.0459L54.0504 0.475699H54.0526L54.0571 0.482992H54.0599L54.0644 0.490284H54.0667L54.0712 0.497576H54.0734L54.0779 0.504869H54.0808L54.0853 0.512161H54.0875L54.092 0.519454H54.0948L54.0993 0.526746H54.1016L54.1061 0.534038H54.1089L54.1134 0.541331H54.1156L54.1201 0.548623H54.1224L54.1274 0.555915H54.1297L54.1342 0.563208H54.1364L54.1409 0.5705H54.1438L54.1483 0.577232H54.1505L54.1556 0.584524H54.1578L54.1629 0.591816H54.1646L54.1696 0.599109H54.1713L54.1769 0.606401H54.1786L54.1837 0.613694H54.1854L54.1904 0.620986H54.1927L54.1978 0.628278H54.2L54.2045 0.635571H54.2073L54.2118 0.642863H54.2141L54.2186 0.650155H54.2214L54.2259 0.657448H54.2281L54.2326 0.66474H54.2349L54.2394 0.672033H54.2422L54.2467 0.679325H54.2489L54.2534 0.686056H54.2563L54.2608 0.693349H54.263L54.2675 0.700641H54.2703L54.2748 0.707934H54.2771L54.2816 0.715226H54.2838L54.2883 0.722518H54.2911L54.2956 0.729811H54.2979L54.3024 0.737103H54.3052L54.3097 0.744395H54.3119L54.317 0.751688H54.3193L54.3243 0.75898H54.326L54.3311 0.766273H54.3328L54.3384 0.773565H54.3401L54.3451 0.780857H54.3468L54.3519 0.787589H54.3541L54.3592 0.794881H54.3609L54.3659 0.802174H54.3688L54.3733 0.809466H54.3755L54.38 0.816758H54.3823L54.3873 0.824051H54.3896L54.3941 0.831343H54.3963L54.4008 0.838636H54.4036L54.4081 0.845928H54.4104L54.4149 0.85322H54.4177L54.4222 0.860513H54.4244L54.4289 0.867805H54.4318L54.4363 0.875097H54.4385L54.443 0.88239H54.4453L54.4498 0.889121H54.4526L54.4571 0.896414H54.4593L54.4638 0.903706H54.4666L54.4711 0.910998H54.4734L54.4784 0.918291H54.4807L54.4858 0.925583H54.4874L54.4925 0.932875H54.4942L54.4993 0.940168H54.5015L54.5066 0.94746H54.5083L54.5133 0.954753H54.5156L54.5206 0.962045H54.5223L54.5274 0.969337H54.5296L54.5347 0.97663H54.5369L54.5414 0.983922H54.5437L54.5482 0.991215H54.551L54.5555 0.998507H54.5578L54.5623 1.0058H54.5651L54.5696 1.01253H54.5718L54.5763 1.01982H54.5791L54.5836 1.02768H54.5859L54.5904 1.03497H54.5926L54.5977 1.0417H54.5999L54.6044 1.04899H54.6067L54.6112 1.05685H54.614L54.6185 1.06358H54.6207L54.6253 1.07087H54.6281L54.6326 1.07872H54.6348L54.6399 1.08602H54.6416L54.6472 1.09275H54.6489L54.6539 1.10004H54.6556L54.6607 1.10733H54.6629L54.668 1.11462H54.6697L54.6747 1.12192H54.677L54.6821 1.12921H54.6837L54.6888 1.1365H54.6911L54.6961 1.14379H54.6984L54.7029 1.15109H54.7051L54.7096 1.15838H54.7124L54.7169 1.16567H54.7192L54.7237 1.17296H54.7265L54.731 1.18026H54.7332L54.7377 1.18755H54.7406L54.7451 1.19484H54.7473L54.7518 1.20213H54.7541L54.7586 1.20886H54.7614L54.7659 1.21616H54.7681L54.7726 1.22345H54.7754L54.7799 1.23074H54.7822L54.7867 1.23803H54.7895L54.794 1.24533H54.7962L54.8013 1.25262H54.803L54.8086 1.25991H54.8103L54.8154 1.2672H54.8171L54.8221 1.2745H54.8244L54.8294 1.28179H54.8311L54.8362 1.28908H54.8384L54.8435 1.29637H54.8452L54.8502 1.30367H54.8525L54.8576 1.3104H54.8598L54.8643 1.31769H54.8666L54.8711 1.32498H54.8739L54.8784 1.33227H54.8806L54.8851 1.33957H54.8879L54.8924 1.34686H54.8947L54.8992 1.35415H54.902L54.9065 1.36144H54.9087L54.9132 1.36874H54.9155L54.92 1.37603H54.9228L54.9273 1.38332H54.9296L54.9341 1.39061H54.9369L54.9414 1.39791H54.9436L54.9487 1.4052H54.9509L54.9554 1.41193H54.9577L54.9627 1.41922H54.9644L54.9695 1.42651H54.9717L54.9768 1.43381H54.9785L54.9836 1.4411H54.9858L54.9909 1.44839H54.9926L54.9976 1.45568H54.9999L55.0049 1.46298H55.0066L58.7072 7.13982Z" fill="#314D77"/>
<path d="M55.0618 7.60092V14.6695L53.66 13.2379V5.45471L55.0618 7.60092Z" fill="#314D77"/>
<path d="M61.7582 0.00390625V13.2379H58.7438L53.651 5.44122V13.2379H50.6006V0.00390625H53.5964L58.7072 7.84434V0.00390625H61.7582Z" fill="#517CBE"/>
<path d="M87 1.46294V4.21217H84.5801V14.6969H81.4943V14.6896H81.4875V14.6824H81.4802V14.6751H81.4735V14.6678H81.4662V14.6605H81.4594V14.6532H81.4521V14.6459H81.4454V14.6392H81.4386V14.6319H81.4313V14.6246H81.4246V14.6173H81.4167V14.61H81.4099V14.6027H81.4026V14.5954H81.3959V14.5881H81.3891V14.5808H81.3818V14.5735H81.3751V14.5662H81.3677V14.5589H81.361V14.5517H81.3537V14.5444H81.3469V14.5376H81.3396V14.5303H81.3329V14.523H81.3261V14.5157H81.3188V14.5085H81.3121V14.5012H81.3047V14.4939H81.298V14.4866H81.2907V14.4793H81.2839V14.472H81.2772V14.4647H81.2699V14.4574H81.2626V14.4501H81.2558V14.4428H81.2485V14.4361H81.2412V14.4288H81.2344V14.4215H81.2277V14.4142H81.2204V14.4069H81.2136V14.3996H81.2063V14.3923H81.1996V14.385H81.1922V14.3778H81.1855V14.3705H81.1787V14.3632H81.1714V14.3559H81.1647V14.3486H81.1574V14.3413H81.1506V14.334H81.1433V14.3273H81.1366V14.32H81.1292V14.3127H81.1225V14.3048H81.1157V14.2975H81.1084V14.2902H81.1017V14.2835H81.0938V14.2762H81.0871V14.2689H81.0797V14.2616H81.073V14.2538H81.0662V14.2465H81.0589V14.2392H81.0522V14.2325H81.0449V14.2252H81.0381V14.2179H81.0308V14.2106H81.0241V14.2033H81.0173V14.196H81.01V14.1887H81.0032V14.1814H80.9959V14.1741H80.9892V14.1668H80.9819V14.1595H80.9751V14.1523H80.9684V14.145H80.9611V14.1377H80.9543V14.1304H80.947V14.1231H80.9397V14.1164H80.9329V14.1091H80.9256V14.1018H80.9189V14.0945H80.9116V14.0872H80.9048V14.0799H80.8975V14.0726H80.8907V14.0653H80.8834V14.058H80.8767V14.0507H80.8694V14.0434H80.8626V14.0361H80.8559V14.0288H80.8486V14.0216H80.8418V14.0148H80.8345V14.0075H80.8277V14.0002H80.8204V13.9929H80.8137V13.9857H80.8069V13.9784H80.7996V13.9711H80.7929V13.9638H80.7856V13.9565H80.7788V13.9492H80.7709V13.9419H80.7642V13.9346H80.7574V13.9273H80.7501V13.92H80.7434V13.9133H80.7361V13.906H80.7293V13.8987H80.722V13.8914H80.7152V13.8841H80.7085V13.8768H80.7012V13.8695H80.6944V13.8622H80.6871V13.8549H80.6804V13.8477H80.6731V13.8404H80.6663V13.8331H80.659V13.8258H80.6523V13.8185H80.6455V13.8112H80.6382V13.8045H80.6314V13.7972H80.6241V13.7899H80.6168V13.7826H80.6101V13.7753H80.6028V13.768H80.596V13.7607H80.5887V13.7534H80.5819V13.7461H80.5746V13.7388H80.5679V13.7315H80.5606V13.7242H80.5538V13.717H80.5471V13.7097H80.5398V13.7029H80.533V13.6956H80.5257V13.6883H80.5189V13.6811H80.5116V13.6738H80.5049V13.6665H80.4981V13.6592H80.4908V13.6519H80.4841V13.6446H80.4768V13.6373H80.47V13.63H80.4627V13.6227H80.4559V13.6154H80.4486V13.6081H80.4413V13.6014H80.4346V13.5941H80.4273V13.5868H80.4205V13.5795H80.4132V13.5722H80.4064V13.5649H80.3991V13.5576H80.3924V13.5504H80.3856V13.5431H80.3783V13.5358H80.3716V13.5285H80.3643V13.5212H80.3575V13.5139H80.3502V13.5066H80.3434V13.4993H80.3367V13.4926H80.3294V13.4853H80.3226V13.478H80.3153V13.4707H80.3086V13.4634H80.3013V13.4561H80.2939V13.4488H80.2872V13.4415H80.2799V13.4342H80.2731V13.4264H80.2658V13.4191H80.2591V13.4118H80.2518V13.4051H80.245V13.3978H80.2383V13.3905H80.2309V13.3837H80.2242V13.3759H80.2169V13.3686H80.2101V13.3613H80.2028V13.354H80.1961V13.3467H80.1888V13.3394H80.182V13.3321H80.1753V13.3248H80.1679V13.3176H80.1612V13.3103H80.1539V13.303H80.1471V13.2957H80.1393V13.2889H80.1331V13.2817H80.1258V13.2744H80.1184V13.2671H80.1117V13.2598H80.1044V13.2525H80.0976V13.2452H80.0903V13.2379H80.0836V4.21217H79.138V4.20488H79.1313V4.19759H79.124V4.1903H79.1172V4.183H79.1099V4.17571H79.1032V4.16842H79.0958V4.16113H79.0891V4.15439H79.0823V4.1471H79.075V4.13981H79.0677V4.13252H79.061V4.12523H79.0537V4.11793H79.0469V4.11064H79.0396V4.10335H79.0328V4.09606H79.0255V4.08876H79.0188V4.08147H79.0115V4.07418H79.0047V4.06689H78.9974V4.05959H78.9907V4.05286H78.9833V4.04557H78.9766V4.03828H78.9698V4.03098H78.9625V4.02369H78.9558V4.0164H78.9485V4.00911H78.9417V4.00182H78.9344V3.99452H78.9277V3.98723H78.9209V3.97994H78.9136V3.97265H78.9068V3.96535H78.899V3.95806H78.8928V3.95133H78.8849V3.94404H78.8782V3.93674H78.8714V3.92945H78.8641V3.92216H78.8573V3.91487H78.85V3.90758H78.8433V3.90028H78.836V3.89299H78.8292V3.8857H78.8225V3.87841H78.8152V3.87111H78.8084V3.86382H78.8011V3.85653H78.7943V3.84924H78.787V3.8425H78.7803V3.83521H78.773V3.82792H78.7662V3.82063H78.7595V3.81334H78.7522V3.80604H78.7448V3.79875H78.7381V3.79146H78.7308V3.78417H78.7235V3.77687H78.7167V3.76958H78.71V3.76229H78.7027V3.755H78.6959V3.7477H78.6886V3.74097H78.6818V3.73368H78.6745V3.72639H78.6678V3.7191H78.661V3.7118H78.6537V3.70451H78.647V3.69722H78.6397V3.68993H78.6329V3.68263H78.6256V3.67534H78.6188V3.66805H78.6121V3.66076H78.6048V3.65346H78.598V3.64617H78.5907V3.63944H78.584V3.63215H78.5761V3.62486H78.5693V3.61756H78.5626V3.61027H78.5553V3.60298H78.5485V3.59569H78.5412V3.58839H78.5345V3.5811H78.5272V3.57381H78.5204V3.56652H78.5131V3.55922H78.5063V3.55193H78.4996V3.54464H78.4923V3.53735H78.4855V3.53062H78.4782V3.52276H78.4715V3.51547H78.4642V3.50874H78.4574V3.50088H78.4507V3.49359H78.4433V3.48686H78.4366V3.47901H78.4293V3.47228H78.422V3.46498H78.4152V3.45713H78.4079V3.4504H78.4012V3.44311H78.3938V3.43525H78.3871V3.42852H78.3798V3.42123H78.373V3.41394H78.3657V3.40664H78.359V3.39935H78.3522V3.39206H78.3449V3.38477H78.3382V3.37748H78.3308V3.37018H78.3241V3.36289H78.3168V3.3556H78.31V3.34831H78.3027V3.34101H78.296V3.33372H78.2892V3.32643H78.2819V3.3197H78.2752V3.3124H78.2678V3.30511H78.2611V3.29782H78.2532V3.29053H78.2465V3.28324H78.2397V3.27594H78.2324V3.26865H78.2257V3.26136H78.2183V3.25407H78.2116V3.24677H78.2043V3.23948H78.1975V3.23219H78.1908V3.2249H78.1835V3.21816H78.1767V3.21087H78.1694V3.20358H78.1627V3.19629H78.1554V3.189H78.1486V3.1817H78.1419V3.17441H78.1345V3.16712H78.1278V3.15983H78.1205V3.15253H78.1137V3.14524H78.1064V3.13795H78.0991V3.13066H78.0924V3.12336H78.085V3.11663H78.0783V3.10934H78.071V3.10205H78.0642V3.09475H78.0569V3.08746H78.0502V3.08017H78.0429V3.07288H78.0361V3.06559H78.0294V3.05829H78.022V3.051H78.0153V3.04371H78.008V3.03642H78.0012V3.02912H77.9939V3.02183H77.9872V3.01454H77.9804V3.00781H77.9731V3.00052H77.9664V2.99322H77.959V2.98593H77.9523V2.97864H77.945V2.97135H77.9382V2.96405H77.9309V2.95676H77.9236V2.94947H77.9169V2.94218H77.9095V2.93488H77.9028V2.92759H77.8955V2.9203H77.8887V2.91301H77.882V2.90628H77.8747V2.89898H77.8679V2.89169H77.8606V2.8844H77.8539V2.87711H77.8465V2.86981H77.8398V2.86252H77.8325V2.85523H77.8257V2.84794H77.819V2.84064H77.8117V2.83335H77.8049V2.82606H77.7976V2.81877H77.7909V2.81147H77.7835V2.80474H77.7762V2.79745H77.7695V2.79016H77.7622V2.78287H77.7554V2.77557H77.7481V2.76828H77.7414V2.76099H77.734V2.7537H77.7273V0.00390625H85.5892V0.0111986H85.596V0.018491H85.6033V0.0257834H85.6101V0.0330758H85.6174V0.0403682H85.6241V0.0476606H85.6314V0.0549529H85.6382V0.0616844H85.6449V0.0689768H85.6522V0.0762691H85.6596V0.0835615H85.6663V0.0908539H85.6736V0.0981463H85.6809V0.105439H85.6877V0.112731H85.6944V0.120023H85.7017V0.127316H85.7085V0.134608H85.7158V0.141901H85.7226V0.149193H85.7299V0.156485H85.7366V0.163778H85.7439V0.170509H85.7507V0.177802H85.7574V0.185655H85.7647V0.192947H85.7715V0.199679H85.7788V0.206971H85.7855V0.214824H85.7929V0.222117H85.7996V0.229409H85.8064V0.236141H85.8142V0.243994H85.8204V0.251286H85.8283V0.258579H85.835V0.26531H85.8424V0.272603H85.8491V0.279895H85.8559V0.287187H85.8632V0.29448H85.8699V0.301772H85.8772V0.309064H85.884V0.316357H85.8913V0.323649H85.898V0.330942H85.9048V0.338234H85.9121V0.345526H85.9189V0.352819H85.9262V0.360111H85.9329V0.367404H85.9402V0.374135H85.947V0.381427H85.9543V0.38872H85.961V0.396012H85.9684V0.403305H85.9751V0.410597H85.9824V0.417889H85.9892V0.425182H85.9965V0.432474H86.0038V0.439766H86.0105V0.447059H86.0173V0.454351H86.0246V0.461644H86.0314V0.468936H86.0387V0.475667H86.0454V0.48296H86.0527V0.490252H86.0595V0.497545H86.0662V0.504837H86.0735V0.512129H86.0803V0.519422H86.0876V0.526714H86.0944V0.534007H86.1017V0.541299H86.1084V0.548591H86.1152V0.555884H86.1225V0.563176H86.1292V0.570468H86.1371V0.5772H86.1433V0.584492H86.1512V0.591785H86.1579V0.599077H86.1647V0.606369H86.172V0.613662H86.1787V0.620954H86.186V0.628246H86.1928V0.635539H86.2001V0.642831H86.2069V0.650124H86.2142V0.657416H86.2209V0.664708H86.2277V0.672001H86.235V0.679293H86.2417V0.686025H86.249V0.693317H86.2558V0.700609H86.2631V0.707902H86.2699V0.715194H86.2766V0.722487H86.2839V0.729779H86.2912V0.737071H86.298V0.744364H86.3053V0.751656H86.312V0.758948H86.3194V0.766241H86.3261V0.773533H86.3334V0.780826H86.3402V0.787557H86.3475V0.794849H86.3542V0.802142H86.3615V0.809434H86.3683V0.816727H86.375V0.824019H86.3824V0.831311H86.3891V0.838604H86.3964V0.845896H86.4032V0.853189H86.4105V0.860481H86.4172V0.867773H86.4245V0.875066H86.4313V0.882358H86.438V0.88909H86.4454V0.896382H86.4521V0.903674H86.46V0.910967H86.4662V0.918259H86.474V0.925551H86.4808V0.932844H86.4875V0.940136H86.4949V0.947429H86.5016V0.954721H86.5089V0.962013H86.5157V0.969306H86.523V0.976598H86.5297V0.983891H86.5365V0.991183H86.5438V0.998475H86.5505V1.00577H86.5578V1.0125H86.5646V1.01979H86.5719V1.02764H86.5787V1.03494H86.5854V1.04167H86.5927V1.04896H86.5995V1.05681H86.6068V1.06355H86.6141V1.07084H86.6208V1.07869H86.6282V1.08598H86.6349V1.09272H86.6422V1.10001H86.649V1.1073H86.6563V1.11459H86.663V1.12188H86.6703V1.12918H86.6771V1.13647H86.6844V1.14376H86.6912V1.15105H86.6979V1.15835H86.7052V1.16564H86.712V1.17293H86.7193V1.18022H86.726V1.18752H86.7333V1.19481H86.7401V1.2021H86.7468V1.20883H86.7542V1.21612H86.7609V1.22342H86.7682V1.23071H86.775V1.238H86.7828V1.24529H86.7896V1.25259H86.7963V1.25988H86.8037V1.26717H86.8104V1.27446H86.8177V1.28176H86.8245V1.28905H86.8318V1.29634H86.8385V1.30363H86.8453V1.31036H86.8526V1.31766H86.8593V1.32495H86.8667V1.33224H86.8734V1.33953H86.8807V1.34683H86.8875V1.35412H86.8948V1.36141H86.9015V1.3687H86.9083V1.376H86.9156V1.38329H86.9223V1.39058H86.9297V1.39787H86.937V1.40517H86.9437V1.4119H86.951V1.41919H86.9578V1.42648H86.9651V1.43377H86.9718V1.44107H86.9792V1.44836H86.9859V1.45565H86.9932V1.46294H87Z" fill="#04562F"/>
<path d="M84.5801 14.6768V14.697H81.4943V14.6897H81.4876V14.6824H81.4803V14.6751H81.4735V14.6678H81.4662V14.6605H81.4594V14.6532H81.4521V14.6459H81.4454V14.6392H81.4386V14.6319H81.4313V14.6246H81.4246V14.6173H81.4167V14.61H81.4099V14.6027H81.4026V14.5954H81.3959V14.5881H81.3891V14.5808H81.3818V14.5735H81.3751V14.5663H81.3678V14.559H81.361V14.5517H81.3537V14.5444H81.3469V14.5376H81.3396V14.5303H81.3329V14.5231H81.3261V14.5158H81.3188V14.5085H81.3121V14.5012H81.3047V14.4939H81.298V14.4866H81.2907V14.4793H81.2839V14.472H81.2772V14.4647H81.2699V14.4574H81.2626V14.4501H81.2558V14.4428H81.2485V14.4361H81.2412V14.4288H81.2344V14.4215H81.2277V14.4142H81.2204V14.4069H81.2136V14.3996H81.2063V14.3924H81.1996V14.3851H81.1923V14.3778H81.1855V14.3705H81.1788V14.3632H81.1714V14.3559H81.1647V14.3486H81.1574V14.3413H81.1506V14.334H81.1433V14.3273H81.1366V14.32H81.1293V14.3127H81.1225V14.3048H81.1158V14.2976H81.1084V14.2903H81.1017V14.2835H81.0938V14.2762H81.0871V14.2689H81.0798V14.2617H81.073V14.2538H81.0663V14.2465H81.0589V14.2392H81.0522V14.2325H81.0449V14.2252H81.0381V14.2179H81.0308V14.2106H81.0241V14.2033H81.0173V14.196H81.01V14.1887H81.0033V14.1814H80.9959V14.1741H80.9892V14.1669H80.9819V14.1596H80.9751V14.1523H80.9684V14.145H80.9611V14.1377H80.9543V14.1304H80.947V14.1231H80.9397V14.1164H80.9329V14.1091H80.9256V14.1018H80.9189V14.0945H80.9116V14.0872H80.9048V14.0799H80.8975V14.0726H80.8908V14.0653H80.8834V14.058H80.8767V14.0507H80.8694V14.0434H80.8626V14.0362H80.8559V14.0289H80.8486V14.0216H80.8418V14.0148H80.8345V14.0075H80.8278V14.0002H80.8204V13.993H80.8137V13.9857H80.8069V13.9784H80.7996V13.9711H80.7929V13.9638H80.7856V13.9565H80.7788V13.9492H80.7709V13.9419H80.7642V13.9346H80.7574V13.9273H80.7501V13.92H80.7434V13.9133H80.7361V13.906H80.7293V13.8987H80.722V13.8914H80.7153V13.8841H80.7085V13.8768H80.7012V13.8695H80.6944V13.8623H80.6871V13.855H80.6804V13.8477H80.6731V13.8404H80.6663V13.8331H80.659V13.8258H80.6523V13.8185H80.6455V13.8112H80.6382V13.8045H80.6314V13.7972H80.6241V13.7899H80.6168V13.7826H80.6101V13.7753H80.6028V13.768H80.596V13.7607H80.5887V13.7534H80.5819V13.7461H80.5746V13.7388H80.5679V13.7316H80.5606V13.7243H80.5538V13.717H80.5471V13.7097H80.5398V13.7029H80.533V13.6957H80.5257V13.6884H80.519V13.6811H80.5116V13.6738H80.5049V13.6665H80.4981V13.6592H80.4908V13.6519H80.4841V13.6446H80.4768V13.6373H80.47V13.63H80.4627V13.6227H80.456V13.6154H80.4486V13.6081H80.4413V13.6014H80.4346V13.5941H80.4273V13.5868H80.4205V13.5795H80.4132V13.5722H80.4065V13.565H80.3991V13.5577H80.3924V13.5504H80.3856V13.5431H80.3783V13.5358H80.3716V13.5285H80.3643V13.5212H80.3575V13.5139H80.3502V13.5066H80.3435V13.4993H80.3367V13.4926H80.3294V13.4853H80.3226V13.478H80.3153V13.4707H80.3086V13.4634H80.3013V13.4561H80.294V13.4488H80.2872V13.4415H80.2799V13.4342H80.2731V13.4264H80.2658V13.4191H80.2591V13.4118H80.2518V13.4051H80.245V13.3978H80.2383V13.3905H80.231V13.3838H80.2242V13.3759H80.2169V13.3686H80.2101V13.3613H80.2028V13.354H80.1961V13.3467H80.1888V13.3394H80.182V13.3322H80.1753V13.3249H80.168V13.3176H80.1612V13.3103H80.1539V13.303H80.1471V13.2957H80.1393V13.289H80.1331V13.2817H80.1258V13.2744H80.1185V13.2671H80.1117V13.2598H80.1044V13.2525H80.0976V13.2452H80.0903V13.2379H83.17L84.5801 14.6768Z" fill="#04562F"/>
<path d="M86.9848 4.21217H84.5802V4.22451L83.1177 2.66113L85.5729 2.76547L86.9848 4.21217Z" fill="#04562F"/>
<path d="M80.0836 4.69348V4.21218H79.138V4.20489H79.1313V4.1976H79.124V4.19031H79.1172V4.18301H79.1099V4.17572H79.1032V4.16843H79.0958V4.16114H79.0891V4.1544H79.0823V4.14711H79.075V4.13982H79.0677V4.13253H79.061V4.12524H79.0537V4.11794H79.0469V4.11065H79.0396V4.10336H79.0328V4.09607H79.0255V4.08877H79.0188V4.08148H79.0115V4.07419H79.0047V4.0669H78.9974V4.0596H78.9907V4.05287H78.9833V4.04558H78.9766V4.03829H78.9698V4.031H78.9625V4.0237H78.9558V4.01641H78.9485V4.00912H78.9417V4.00183H78.9344V3.99453H78.9277V3.98724H78.9209V3.97995H78.9136V3.97266H78.9068V3.96536H78.899V3.95807H78.8928V3.95134H78.8849V3.94405H78.8782V3.93676H78.8714V3.92946H78.8641V3.92217H78.8573V3.91488H78.85V3.90759H78.8433V3.90029H78.836V3.893H78.8292V3.88571H78.8225V3.87842H78.8152V3.87112H78.8084V3.86383H78.8011V3.85654H78.7943V3.84925H78.787V3.84252H78.7803V3.83522H78.773V3.82793H78.7662V3.82064H78.7595V3.81335H78.7522V3.80605H78.7448V3.79876H78.7381V3.79147H78.7308V3.78418H78.7235V3.77688H78.7167V3.76959H78.71V3.7623H78.7027V3.75501H78.6959V3.74771H78.6886V3.74098H78.6818V3.73369H78.6745V3.7264H78.6678V3.71911H78.661V3.71181H78.6537V3.70452H78.647V3.69723H78.6397V3.68994H78.6329V3.68264H78.6256V3.67535H78.6188V3.66806H78.6121V3.66077H78.6048V3.65347H78.598V3.64618H78.5907V3.63945H78.584V3.63216H78.5761V3.62487H78.5693V3.61757H78.5626V3.61028H78.5553V3.60299H78.5485V3.5957H78.5412V3.5884H78.5345V3.58111H78.5272V3.57382H78.5204V3.56653H78.5131V3.55923H78.5063V3.55194H78.4996V3.54465H78.4923V3.53736H78.4855V3.53063H78.4782V3.52277H78.4715V3.51548H78.4642V3.50875H78.4574V3.5009H78.4507V3.4936H78.4433V3.48687H78.4366V3.47902H78.4293V3.47229H78.422V3.46499H78.4152V3.45714H78.4079V3.45041H78.4012V3.44312H78.3938V3.43526H78.3871V3.42853H78.3798V3.42124H78.373V3.41395H78.3657V3.40666H78.359V3.39936H78.3522V3.39207H78.3449V3.38478H78.3382V3.37749H78.3308V3.37019H78.3241V3.3629H78.3168V3.35561H78.31V3.34832H78.3027V3.34102H78.296V3.33373H78.2892V3.32644H78.2819V3.31971H78.2752V3.31242H78.2678V3.30512H78.2611V3.29783H78.2532V3.29054H78.2465V3.28325H78.2397V3.27595H78.2324V3.26866H78.2257V3.26137H78.2183V3.25408H78.2116V3.24678H78.2043V3.23949H78.1975V3.2322H78.1908V3.22491H78.1835V3.21818H78.1767V3.21088H78.1694V3.20359H78.1627V3.1963H78.1554V3.18901H78.1486V3.18171H78.1419V3.17442H78.1345V3.16713H78.1278V3.15984H78.1205V3.15254H78.1137V3.14525H78.1064V3.13796H78.0991V3.13067H78.0924V3.12337H78.085V3.11664H78.0783V3.10935H78.071V3.10206H78.0642V3.09477H78.0569V3.08747H78.0502V3.08018H78.0429V3.07289H78.0361V3.0656H78.0294V3.0583H78.022V3.05101H78.0153V3.04372H78.008V3.03643H78.0012V3.02913H77.9939V3.02184H77.9872V3.01455H77.9804V3.00782H77.9731V3.00053H77.9664V2.99323H77.959V2.98594H77.9523V2.97865H77.945V2.97136H77.9382V2.96406H77.9309V2.95677H77.9236V2.94948H77.9169V2.94219H77.9095V2.93489H77.9028V2.9276H77.8955V2.92031H77.8887V2.91302H77.882V2.90629H77.8747V2.89899H77.8679V2.8917H77.8606V2.88441H77.8539V2.87712H77.8465V2.86982H77.8398V2.86253H77.8325V2.85524H77.8257V2.84795H77.819V2.84065H77.8117V2.83336H77.8049V2.82607H77.7976V2.81878H77.7909V2.81148H77.7835V2.80475H77.7762V2.79746H77.7695V2.79017H77.7622V2.78288H77.7554V2.77558H77.7481V2.76829H77.7414V2.761H77.734V2.75371H77.7273V2.71332H80.0875L80.0836 4.69348Z" fill="#04562F"/>
<path d="M85.5892 0.00390625V2.7537H83.17V13.2379H80.0836V2.7537H77.7273V0.00390625H85.5892Z" fill="#029E57"/>
<path d="M75.533 6.54575V9.52609L75.0189 9.01113L74.1133 8.10464V5.12598L75.533 6.54575Z" fill="#9E7008"/>
<path d="M75.5607 1.46294V4.18525H66.7824L65.406 2.76492V0.00390625H74.1499V0.0111986H74.1567V0.018491H74.164V0.0257834H74.1707V0.0330758H74.1781V0.0403682H74.1848V0.0476606H74.1921V0.0549529H74.1994V0.0616844H74.2062V0.0689768H74.2135V0.0762691H74.2202V0.0835615H74.2276V0.0908539H74.2343V0.0981463H74.2416V0.105439H74.2484V0.112731H74.2551V0.120023H74.2624V0.127316H74.2692V0.134608H74.2765V0.141901H74.2832V0.149193H74.2906V0.156485H74.2973V0.163778H74.3046V0.17107H74.3114V0.178363H74.3181V0.185655H74.3254V0.192947H74.3322V0.20024H74.3395V0.207532H74.3462V0.214824H74.3536V0.222117H74.3609V0.229409H74.3676V0.236702H74.3749V0.243994H74.3817V0.251286H74.389V0.258579H74.3957V0.26531H74.4031V0.272603H74.4098V0.279895H74.4166V0.287187H74.4239V0.29448H74.4306V0.301772H74.4379V0.309065H74.4447V0.316357H74.452V0.323649H74.4587V0.330942H74.4655V0.338234H74.4728V0.345526H74.4796V0.352819H74.4869V0.360111H74.4936V0.367404H74.5009V0.374135H74.5077V0.381427H74.515V0.38872H74.5223V0.396012H74.5291V0.403305H74.5364V0.410597H74.5431V0.417889H74.5504V0.425182H74.5572V0.432474H74.5645V0.439766H74.5712V0.447059H74.578V0.454351H74.5853V0.461644H74.5921V0.468936H74.5994V0.475667H74.6061V0.48296H74.6134V0.490252H74.6202V0.497545H74.6269V0.504837H74.6342V0.512129H74.641V0.519422H74.6483V0.526714H74.6551V0.534007H74.6624V0.541299H74.6691V0.548591H74.6764V0.555884H74.6837V0.563176H74.6905V0.570468H74.6978V0.5772H74.7045V0.584492H74.7119V0.591785H74.7186V0.599077H74.7254V0.606369H74.7327V0.613662H74.7394V0.620954H74.7467V0.628247H74.7535V0.635539H74.7608V0.642831H74.7675V0.650124H74.7749V0.657416H74.7816V0.664708H74.7884V0.672001H74.7957V0.679293H74.8024V0.686025H74.8097V0.693317H74.8165V0.700609H74.8238V0.707902H74.8305V0.715194H74.8379V0.722487H74.8452V0.729779H74.8519V0.737071H74.8592V0.744364H74.866V0.751656H74.8733V0.758949H74.88V0.766241H74.8868V0.773533H74.8941V0.780826H74.9009V0.787557H74.9082V0.79485H74.9149V0.802142H74.9222V0.809434H74.929V0.816727H74.9357V0.824019H74.943V0.831311H74.9498V0.838604H74.9571V0.845896H74.9639V0.853189H74.9712V0.860481H74.9779V0.867773H74.9852V0.875066H74.992V0.882358H74.9993V0.88909H75.0066V0.896382H75.0134V0.903674H75.0207V0.910967H75.0274V0.918259H75.0347V0.925551H75.0415V0.932844H75.0482V0.940136H75.0555V0.947429H75.0623V0.954721H75.0696V0.962013H75.0764V0.969306H75.0837V0.976598H75.0904V0.983891H75.0972V0.991183H75.1045V0.997914H75.1112V1.00521H75.1185V1.0125H75.1253V1.01979H75.1326V1.02764H75.1394V1.03494H75.1461V1.04223H75.1534V1.04952H75.1607V1.05681H75.168V1.06411H75.1748V1.0714H75.1821V1.07869H75.1889V1.08598H75.1956V1.09328H75.2029V1.10001H75.2097V1.1073H75.217V1.11459H75.2237V1.12188H75.231V1.12918H75.2378V1.13647H75.2451V1.14376H75.2519V1.15105H75.2586V1.15835H75.2659V1.16564H75.2727V1.17293H75.28V1.18022H75.2867V1.18752H75.294V1.19481H75.3008V1.2021H75.3075V1.20883H75.3149V1.21613H75.3222V1.22342H75.3295V1.23071H75.3362V1.238H75.3435V1.24529H75.3503V1.25259H75.357V1.25988H75.3644V1.26717H75.3711V1.27446H75.3784V1.28176H75.3852V1.28905H75.3925V1.29634H75.3992V1.30363H75.406V1.31036H75.4133V1.31766H75.42V1.32495H75.4274V1.33224H75.4341V1.33953H75.4414V1.34683H75.4482V1.35412H75.4555V1.36141H75.4622V1.3687H75.469V1.376H75.4763V1.38329H75.4836V1.39058H75.4909V1.39787H75.4977V1.40517H75.505V1.4119H75.5117V1.41919H75.5185V1.42648H75.5258V1.43377H75.5325V1.44107H75.5398V1.44836H75.5466V1.45565H75.5539V1.46294H75.5607Z" fill="#9E7008"/>
<path d="M75.533 6.54575V9.01113H69.7923V14.6969H66.7604V14.6897H66.7537V14.6824H66.7464V14.6751H66.7396V14.6678H66.7323V14.6605H66.7255V14.6532H66.7182V14.6459H66.7115V14.6392H66.7047V14.6319H66.6974V14.6246H66.6907V14.6173H66.6834V14.61H66.6766V14.6027H66.6693V14.5954H66.662V14.5881H66.6552V14.5808H66.6479V14.5735H66.6412V14.5662H66.6339V14.559H66.6271V14.5517H66.6198V14.5444H66.613V14.5376H66.6057V14.5303H66.599V14.5231H66.5922V14.5158H66.5849V14.5085H66.5782V14.5012H66.5709V14.4939H66.5641V14.4866H66.5568V14.4793H66.5501V14.472H66.5433V14.4647H66.536V14.4574H66.5292V14.4501H66.5219V14.4428H66.5152V14.4361H66.5079V14.4288H66.5006V14.4215H66.4938V14.4142H66.4865V14.4069H66.4797V14.3996H66.4724V14.3924H66.4657V14.3851H66.4584V14.3778H66.4516V14.3705H66.4449V14.3632H66.4376V14.3559H66.4308V14.3486H66.4235V14.3413H66.4167V14.334H66.4094V14.3273H66.4027V14.32H66.3954V14.3127H66.3886V14.3054H66.3819V14.2981H66.3746V14.2908H66.3678V14.2835H66.3605V14.2762H66.3537V14.2689H66.3464V14.2617H66.3391V14.2544H66.3324V14.2465H66.3251V14.2392H66.3183V14.2319H66.311V14.2252H66.3042V14.2179H66.2969V14.2106H66.2902V14.2033H66.2834V14.196H66.2761V14.1887H66.2694V14.1814H66.2621V14.1741H66.2553V14.1669H66.248V14.1596H66.2412V14.1523H66.2345V14.145H66.2272V14.1377H66.2204V14.1304H66.2131V14.1231H66.2064V14.1164H66.1991V14.1091H66.1923V14.1018H66.185V14.0945H66.1777V14.0872H66.1709V14.0799H66.1636V14.0726H66.1569V14.0653H66.1496V14.058H66.1428V14.0507H66.1355V14.0434H66.1287V14.0361H66.122V14.0289H66.1147V14.0216H66.1079V14.0148H66.1006V14.0075H66.0939V14.0002H66.0866V13.993H66.0798V13.9857H66.0731V13.9784H66.0657V13.9711H66.059V13.9638H66.0517V13.9565H66.0449V13.9492H66.0376V13.9419H66.0309V13.9346H66.0236V13.9273H66.0162V13.92H66.0095V13.9133H66.0022V13.906H65.9954V13.8987H65.9881V13.8914H65.9814V13.8841H65.9746V13.8768H65.9673V13.8695H65.9606V13.8623H65.9532V13.855H65.9465V13.8477H65.9392V13.8404H65.9324V13.8331H65.9251V13.8258H65.9184V13.8185H65.9116V13.8112H65.9043V13.8045H65.8976V13.7972H65.8902V13.7899H65.8835V13.7826H65.8762V13.7753H65.8694V13.768H65.8621V13.7607H65.8548V13.7534H65.8481V13.7461H65.8407V13.7388H65.834V13.7316H65.8267V13.7243H65.8199V13.717H65.8132V13.7097H65.8059V13.7029H65.7991V13.6956H65.7918V13.6884H65.7851V13.6811H65.7778V13.6738H65.771V13.6665H65.7643V13.6592H65.7569V13.6519H65.7502V13.6446H65.7429V13.6373H65.7361V13.63H65.7288V13.6227H65.7221V13.6154H65.7153V13.6081H65.7074V13.6014H65.7007V13.5941H65.6934V13.5868H65.6866V13.5795H65.6793V13.5722H65.6726V13.5649H65.6653V13.5577H65.6585V13.5504H65.6518V13.5431H65.6444V13.5358H65.6377V13.5285H65.6304V13.5212H65.6236V13.5139H65.6163V13.5066H65.6096V13.4993H65.6028V13.4926H65.5955V13.4853H65.5888V13.478H65.5814V13.4707H65.5747V13.4634H65.5674V13.4561H65.5606V13.4488H65.5539V13.4415H65.546V13.4342H65.5393V13.427H65.5319V13.4197H65.5252V13.4124H65.5179V13.4051H65.5111V13.3978H65.5044V13.3905H65.4971V13.3832H65.4903V13.3759H65.483V13.3686H65.4763V13.3613H65.4689V13.354H65.4622V13.3467H65.4549V13.3394H65.4481V13.3322H65.4414V13.3249H65.4341V13.3176H65.4273V13.3103H65.42V13.303H65.4133V13.2957H65.4059V13.289H65.3992V13.2817H65.3919V13.2744H65.3846V13.2671H65.3778V13.2598H65.3705V13.2525H65.3638V13.2452H65.3564V13.2379H65.4059V5.16019L74.1133 5.12598L75.533 6.54575Z" fill="#9E7008"/>
<path d="M74.1499 0.00390625H65.3497V2.69255H74.1499V0.00390625Z" fill="#F4B406"/>
<path d="M66.7604 14.697V14.6897H66.7536V14.6824H66.7463V14.6751H66.7396V14.6678H66.7323V14.6605H66.7255V14.6532H66.7182V14.6459H66.7114V14.6392H66.7047V14.6319H66.6974V14.6246H66.6906V14.6173H66.6833V14.61H66.6766V14.6027H66.6693V14.5954H66.6625V14.5881H66.6558V14.5808H66.6485V14.5735H66.6411V14.5663H66.6338V14.559H66.6271V14.5517H66.6198V14.5444H66.613V14.5376H66.6057V14.5303H66.599V14.5231H66.5922V14.5158H66.5849V14.5085H66.5781V14.5012H66.5708V14.4939H66.5641V14.4866H66.5568V14.4793H66.55V14.472H66.5433V14.4647H66.536V14.4574H66.5292V14.4501H66.5219V14.4428H66.5151V14.4361H66.5078V14.4288H66.5011V14.4215H66.4938V14.4142H66.487V14.4069H66.4797V14.3996H66.4724V14.3924H66.4656V14.3851H66.4583V14.3778H66.4516V14.3705H66.4448V14.3632H66.4375V14.3559H66.4308V14.3486H66.4235V14.3413H66.4167V14.334H66.4094V14.3273H66.4026V14.32H66.3953V14.3127H66.3886V14.3048H66.3818V14.2976H66.3745V14.2903H66.3678V14.2835H66.3605V14.2762H66.3537V14.2689H66.3464V14.2617H66.3396V14.2538H66.3329V14.2465H66.325V14.2392H66.3183V14.2325H66.311V14.2252H66.3042V14.2179H66.2969V14.2106H66.2901V14.2033H66.2834V14.196H66.2761V14.1887H66.2693V14.1814H66.262V14.1741H66.2553V14.1669H66.248V14.1596H66.2412V14.1523H66.2345V14.145H66.2271V14.1377H66.2204V14.1304H66.2131V14.1231H66.2063V14.1164H66.199V14.1091H66.1923V14.1018H66.185V14.0945H66.1782V14.0872H66.1709V14.0799H66.1641V14.0726H66.1568V14.0653H66.1495V14.058H66.1428V14.0507H66.1355V14.0434H66.1287V14.0362H66.122V14.0289H66.1146V14.0216H66.1079V14.0148H66.1006V14.0075H66.0938V14.0002H66.0865V13.993H66.0798V13.9857H66.073V13.9784H66.0657V13.9711H66.059V13.9638H66.0516V13.9565H66.0449V13.9492H66.0376V13.9419H66.0308V13.9346H66.0241V13.9273H66.0162V13.92H66.01V13.9133H66.0021V13.906H65.9954V13.8987H65.9881V13.8914H65.9813V13.8841H65.9746V13.8768H65.9673V13.8695H65.9605V13.8623H65.9532V13.855H65.9465V13.8477H65.9391V13.8404H65.9324V13.8331H65.9251V13.8258H65.9183V13.8185H65.9116V13.8112H65.9043V13.8045H65.8975V13.7972H65.8902V13.7899H65.8835V13.7826H65.8762V13.7753H65.8694V13.768H65.8621V13.7607H65.8553V13.7534H65.848V13.7461H65.8413V13.7388H65.834V13.7316H65.8267V13.7243H65.8199V13.717H65.8132V13.7097H65.8058V13.7029H65.7991V13.6957H65.7918V13.6884H65.785V13.6811H65.7777V13.6738H65.771V13.6665H65.7642V13.6592H65.7569V13.6519H65.7502V13.6446H65.7428V13.6373H65.7361V13.63H65.7288V13.6227H65.722V13.6154H65.7153V13.6081H65.708V13.6014H65.7012V13.5941H65.6933V13.5868H65.6872V13.5795H65.6793V13.5722H65.6725V13.565H65.6652V13.5577H65.6585V13.5504H65.6517V13.5431H65.6444V13.5358H65.6377V13.5285H65.6303V13.5212H65.6236V13.5139H65.6163V13.5066H65.6095V13.4993H65.6028V13.4926H65.5955V13.4853H65.5887V13.478H65.5814V13.4707H65.5747V13.4634H65.5673V13.4561H65.5606V13.4488H65.5538V13.4415H65.5465V13.4342H65.5392V13.4264H65.5325V13.4191H65.5252V13.4118H65.5178V13.4051H65.5111V13.3978H65.5043V13.3905H65.497V13.3838H65.4903V13.3759H65.483V13.3686H65.4762V13.3613H65.4689V13.354H65.4622V13.3467H65.4548V13.3394H65.4481V13.3322H65.4413V13.3249H65.434V13.3176H65.4273V13.3103H65.42V13.303H65.4132V13.2957H65.4059V13.289H65.3992V13.2817H65.3924V13.2744H65.3851V13.2671H65.3783V13.2598H65.3705V13.2525H65.366L65.3632 13.2379H68.3933L69.7894 14.697H66.7604Z" fill="#9E7008"/>
<path d="M75.5606 9.00385V9.01114H69.799L68.3933 7.55884H74.156L75.5606 9.00385Z" fill="#9E7008"/>
<path d="M75.5538 4.18526H66.7823L65.4059 2.76493L65.3558 2.71332H74.1554L75.5538 4.18526Z" fill="#9E7008"/>
<path d="M74.1134 8.10406L65.3689 8.14109L66.7886 9.56086L75.5331 9.52608L74.1134 8.10406Z" fill="#9E7008"/>
<path d="M74.1133 5.12598V8.10463L68.3816 8.12819V13.2379H65.3497V5.16019H65.406L74.1133 5.12598Z" fill="#F4B406"/>
</svg>
