<svg width="20" height="20" viewBox="0 0 20 20" fill="none" xmlns="http://www.w3.org/2000/svg">
<path d="M1.75012 8.21998C1.28013 8.21998 0.890137 8.59997 0.890137 9.07996V10.9199C0.890137 11.3899 1.27013 11.7799 1.75012 11.7799C2.22011 11.7799 2.60011 11.3999 2.60011 10.9199V9.07996C2.60011 8.60997 2.22011 8.21998 1.75012 8.21998Z" fill="#707070"/>
<path d="M5.34022 5.82003C4.87023 5.82003 4.49023 6.20002 4.49023 6.68001V13.3199C4.49023 13.7899 4.87023 14.1799 5.34022 14.1799C5.81021 14.1799 6.2002 13.7999 6.2002 13.3199V6.68001C6.1902 6.20002 5.81021 5.82003 5.34022 5.82003Z" fill="#707070"/>
<path d="M8.76036 0.000192898C8.28036 -0.00980692 7.88037 0.370186 7.88037 0.860177V19.1298C7.88037 19.5998 8.25036 19.9898 8.71036 19.9998C9.19035 20.0098 9.59034 19.6298 9.59034 19.1398V0.870177C9.59034 0.410185 9.23035 0.0101927 8.76036 0.000192898Z" fill="#707070"/>
<path d="M11.92 2.89999H11.65C11.31 2.89999 11.04 3.20998 11.04 3.54997V16.4497C11.04 16.7897 11.31 17.0997 11.65 17.0997H11.92C12.32 17.0997 12.64 16.7797 12.64 16.3797V3.61997C12.65 3.21998 12.32 2.89999 11.92 2.89999Z" fill="#707070"/>
<path d="M15.3502 7.36027C14.8802 7.36027 14.4902 7.74026 14.4902 8.21025V11.7802C14.4902 12.2502 14.8702 12.6402 15.3502 12.6402C15.8202 12.6402 16.2102 12.2602 16.2102 11.7802V8.21025C16.2002 7.74026 15.8202 7.36027 15.3502 7.36027Z" fill="#707070"/>
<path d="M18.3098 9.2C17.8698 9.2 17.5098 9.56 17.5098 9.99999C17.5098 10.44 17.8698 10.8 18.3098 10.8C18.7497 10.8 19.1097 10.44 19.1097 9.99999C19.1097 9.56 18.7497 9.2 18.3098 9.2Z" fill="#707070"/>
</svg>
