<svg width="20" height="20" viewBox="0 0 20 20" fill="none" xmlns="http://www.w3.org/2000/svg">
<path d="M15.3083 2.19167L11.6666 5.83334L10.3416 4.50834C10.0294 4.19792 9.60694 4.02368 9.16663 4.02368C8.72632 4.02368 8.3039 4.19792 7.99163 4.50834L6.66663 5.83334L14.1666 13.3333L15.4916 12.0083C15.802 11.6961 15.9763 11.2736 15.9763 10.8333C15.9763 10.393 15.802 9.97061 15.4916 9.65834L14.1666 8.33334L17.8083 4.69167C18.1398 4.36015 18.3261 3.91051 18.3261 3.44167C18.3261 2.97283 18.1398 2.52319 17.8083 2.19167C17.4768 1.86015 17.0271 1.6739 16.5583 1.6739C16.0895 1.6739 15.6398 1.86015 15.3083 2.19167V2.19167Z" stroke="#55ACEE" stroke-width="1.66667" stroke-linecap="round" stroke-linejoin="round"/>
<path d="M7.49996 6.66667C5.83329 9.16667 4.16663 9.58334 1.66663 10L8.33329 18.3333C9.99996 17.5 13.3333 14.1667 13.3333 12.5M12.0833 14.5833L3.74996 12.5" stroke="#55ACEE" stroke-width="1.66667" stroke-linecap="round" stroke-linejoin="round"/>
</svg>
