<svg width="18" height="18" viewBox="0 0 18 18" fill="none" xmlns="http://www.w3.org/2000/svg">
<path d="M9 11.5C9.66304 11.5 10.2989 11.2366 10.7678 10.7678C11.2366 10.2989 11.5 9.66304 11.5 9C11.5 8.33696 11.2366 7.70107 10.7678 7.23223C10.2989 6.76339 9.66304 6.5 9 6.5C8.33696 6.5 7.70107 6.76339 7.23223 7.23223C6.76339 7.70107 6.5 8.33696 6.5 9C6.5 9.66304 6.76339 10.2989 7.23223 10.7678C7.70107 11.2366 8.33696 11.5 9 11.5Z" fill="#DC4537"/>
<path fill-rule="evenodd" clip-rule="evenodd" d="M9.74978 0.250012C11.7498 0.375012 13.6248 1.37501 14.9998 2.75001C16.6248 4.50001 17.4998 6.62501 17.4998 9.12501C17.4998 11.125 16.7498 13 15.4998 14.625C14.2498 16.125 12.4998 17.25 10.4998 17.625C8.49978 18 6.49978 17.75 4.74978 16.75C2.99978 15.75 1.62478 14.25 0.874783 12.375C0.124783 10.5 -0.000216812 8.37501 0.624783 6.50001C1.24978 4.50001 2.37478 2.87501 4.12478 1.75001C5.74978 0.625012 7.74978 0.125012 9.74978 0.250012ZM10.3748 16.375C11.9998 16 13.4998 15.125 14.6248 13.75C15.6248 12.375 16.2498 10.75 16.1248 9.00001C16.1248 7.00001 15.3748 5.00001 13.9998 3.62501C12.7498 2.37501 11.2498 1.62501 9.49978 1.50001C7.87478 1.37501 6.12478 1.75001 4.74978 2.75001C3.37478 3.75001 2.37478 5.12501 1.87478 6.87501C1.37478 8.50001 1.37478 10.25 2.12478 11.875C2.87478 13.5 3.99978 14.75 5.49978 15.625C6.99978 16.5 8.74978 16.75 10.3748 16.375Z" fill="#DC4537"/>
</svg>
