<svg width="21" height="20" viewBox="0 0 21 20" fill="none" xmlns="http://www.w3.org/2000/svg">
<path d="M13.8332 7.08332C14.944 8.56499 14.944 11.435 13.8332 12.9167M16.3332 4.16666C19.6565 7.33999 19.6765 12.6808 16.3332 15.8333M2.1665 12.4658V7.53332C2.1665 7.05499 2.53984 6.66666 2.99984 6.66666H5.98817C6.09845 6.66627 6.2075 6.64354 6.30876 6.59986C6.41002 6.55618 6.50138 6.49244 6.57734 6.41249L9.07734 3.58916C9.60234 3.04249 10.4998 3.42999 10.4998 4.20249V15.7975C10.4998 16.5758 9.5915 16.96 9.06984 16.4025L6.57817 13.595C6.502 13.5128 6.40971 13.4471 6.30706 13.4021C6.20441 13.3571 6.09359 13.3337 5.9815 13.3333H2.99984C2.53984 13.3333 2.1665 12.945 2.1665 12.4658Z" stroke="#ffffff" stroke-width="1.66667" stroke-linecap="round" stroke-linejoin="round"/>
</svg>
