<svg width="117" height="111" viewBox="0 0 117 111" fill="none" xmlns="http://www.w3.org/2000/svg">
<path d="M36.9545 98.2131L31.7355 106.673L30.6631 106.011L35.2941 98.5047L30.5757 95.5938L31.1638 94.6406L36.9545 98.2131Z" fill="white"/>
<path d="M25.3843 89.0557C25.7622 89.4562 26.0368 89.8901 26.2081 90.3572C26.3662 90.824 26.4349 91.2981 26.4143 91.7795C26.3805 92.2605 26.2613 92.7258 26.0568 93.1754C25.8459 93.6182 25.5537 94.0158 25.1803 94.3681C24.678 94.842 24.1108 95.159 23.479 95.3189C22.8471 95.4788 22.2134 95.4735 21.5779 95.3032C20.936 95.1261 20.3653 94.7728 19.8657 94.2433C19.3597 93.707 19.0499 93.1202 18.9364 92.4831C18.8097 91.8456 18.8509 91.2229 19.06 90.6149C19.256 90.0066 19.5915 89.4782 20.0667 89.0299C20.1346 88.9658 20.2057 88.9052 20.28 88.8479C20.3411 88.7903 20.3918 88.7488 20.4322 88.7236L24.5923 93.1328C24.9129 92.779 25.1321 92.3925 25.2499 91.9734C25.3546 91.5539 25.3601 91.1381 25.2664 90.726C25.1659 90.3203 24.9716 89.9648 24.6834 89.6593C24.3759 89.3334 24.0062 89.1048 23.5743 88.9734C23.1359 88.8352 22.7332 88.8367 22.3659 88.9779L21.8496 88.0022C22.2164 87.8742 22.6106 87.8296 23.032 87.8682C23.447 87.9001 23.8596 88.0177 24.2696 88.2211C24.6732 88.4177 25.0448 88.6959 25.3843 89.0557ZM24 93.7494L20.5796 90.1243C20.259 90.4781 20.0464 90.8648 19.9418 91.2843C19.8372 91.7038 19.8351 92.1164 19.9355 92.5221C20.036 92.9277 20.2367 93.2901 20.5378 93.6092C20.8324 93.9214 21.1793 94.1395 21.5784 94.2633C21.9776 94.3872 22.3896 94.4091 22.8145 94.329C23.233 94.2421 23.6281 94.0489 24 93.7494Z" fill="white"/>
<path d="M18.408 83.9222C17.9994 84.1475 17.5849 84.2269 17.1644 84.1604C16.7313 84.0901 16.3204 83.8958 15.9315 83.5773C15.5427 83.2588 15.1996 82.8298 14.9021 82.2904C14.7443 82.0044 14.6021 81.6884 14.4753 81.3427C14.3404 81.0014 14.2503 80.6834 14.205 80.3886L13.7391 80.6455C13.2487 80.916 12.9457 81.2749 12.8301 81.7224C12.7063 82.1744 12.7932 82.6701 13.0907 83.2095C13.2845 83.5609 13.5369 83.864 13.848 84.1188C14.1464 84.3699 14.5132 84.6099 14.9486 84.8388L14.4048 85.6503C13.8889 85.3913 13.4465 85.0916 13.0777 84.7514C12.7008 84.4158 12.3883 84.0232 12.1404 83.5737C11.6897 82.7564 11.5624 81.9845 11.7587 81.2581C11.9468 80.5362 12.4454 79.9521 13.2545 79.5059L15.9638 78.0117C16.0945 77.9396 16.1791 77.861 16.2174 77.7759C16.2431 77.6871 16.2262 77.5792 16.1667 77.4521L17.0004 76.9923C17.0753 77.0895 17.1394 77.1768 17.1927 77.254C17.2414 77.323 17.2793 77.3821 17.3063 77.4311C17.4461 77.6845 17.4825 77.9149 17.4157 78.1222C17.3444 78.3215 17.2356 78.4721 17.0893 78.574L16.6983 78.8217C17.2111 78.9012 17.6896 79.1117 18.1336 79.453C18.5777 79.7943 18.9214 80.1857 19.1648 80.627C19.3992 81.052 19.5229 81.4793 19.5361 81.9091C19.5411 82.3433 19.4483 82.7356 19.2578 83.0858C19.0591 83.4406 18.7758 83.7194 18.408 83.9222ZM16.5629 79.5039C16.3944 79.4689 16.2371 79.4544 16.0912 79.4603C15.937 79.4707 15.8191 79.4984 15.7374 79.5435L14.9405 79.9829C14.9822 80.2904 15.0551 80.5966 15.1593 80.9015C15.2553 81.2109 15.3777 81.5005 15.5265 81.7702C15.8285 82.3178 16.1845 82.7023 16.5944 82.9239C16.9917 83.1418 17.3783 83.1471 17.7543 82.9397C17.9586 82.827 18.1296 82.6635 18.2671 82.4491C18.392 82.231 18.4571 81.9819 18.4625 81.7018C18.4634 81.4135 18.376 81.11 18.2002 80.7913C18.0154 80.4562 17.7742 80.1735 17.4767 79.9432C17.171 79.7174 16.8664 79.571 16.5629 79.5039Z" fill="white"/>
<path d="M8.29002 70.4406C8.46904 71.0301 8.77227 71.5111 9.19971 71.8835C9.6156 72.2496 10.1063 72.4534 10.6717 72.4949L15.0045 71.2505L15.3446 72.4346L8.32061 74.452L8.00369 73.3487L9.63186 72.881C9.07788 72.7779 8.59619 72.5716 8.18679 72.2619C7.76584 71.9458 7.4743 71.5731 7.31216 71.1439C7.2864 71.0542 7.2645 70.9779 7.24646 70.9151C7.22843 70.8523 7.21745 70.7972 7.21354 70.7498L8.29002 70.4406Z" fill="white"/>
<path d="M13.0204 57.141L13.0771 58.3717L8.99341 58.5599C8.21957 58.5955 7.66108 58.7427 7.31796 59.0015C6.96509 59.2513 6.79982 59.6186 6.82216 60.1035C6.83763 60.4391 6.937 60.7709 7.12029 61.0988C7.30315 61.4174 7.54511 61.7005 7.84616 61.9483C8.13747 62.1871 8.47216 62.3539 8.85026 62.4486L13.2556 62.2456L13.3123 63.4763L6.01204 63.8127L5.96048 62.6939L7.52682 62.6217C7.17283 62.4418 6.86288 62.2038 6.59697 61.9077C6.33106 61.6117 6.11916 61.2711 5.96127 60.8859C5.80337 60.5008 5.71454 60.0938 5.69478 59.6649C5.67545 59.2453 5.73858 58.892 5.8842 58.605C6.02005 58.3091 6.22418 58.0755 6.49658 57.9041C6.75923 57.7238 7.07552 57.5925 7.44545 57.51C7.81495 57.4182 8.2188 57.3623 8.657 57.3421L13.0204 57.141Z" fill="white"/>
<path d="M18.6803 36.3247L11.7556 33.2219L15.7437 38.5987L15.4288 39.3014L8.75593 39.9166L15.6806 43.0193L15.1654 44.1692L6.09433 40.1047L6.63817 38.891L13.9992 38.2466L9.58634 32.3113L10.1245 31.1103L19.1955 35.1748L18.6803 36.3247Z" fill="white"/>
<path d="M24.5219 28.6131C24.1586 29.027 23.7556 29.3377 23.3128 29.5451C22.8629 29.7464 22.4005 29.8559 21.9255 29.8736C21.4434 29.8852 20.9721 29.8068 20.5114 29.6384C20.0506 29.47 19.6309 29.2196 19.2521 28.8871C18.8663 28.5485 18.56 28.1617 18.3332 27.7268C18.1065 27.2918 17.9711 26.8377 17.927 26.3644C17.8759 25.8849 17.9244 25.4122 18.0726 24.9462C18.22 24.467 18.4753 24.0205 18.8385 23.6066C19.1956 23.1998 19.599 22.8957 20.0489 22.6944C20.4917 22.487 20.9541 22.3775 21.4362 22.3659C21.9174 22.3412 22.3883 22.413 22.849 22.5814C23.3097 22.7498 23.733 23.0033 24.1188 23.3419C24.4976 23.6743 24.8004 24.058 25.0271 24.493C25.2539 24.9279 25.3928 25.3851 25.4439 25.8646C25.488 26.3379 25.4363 26.8141 25.289 27.2933C25.1408 27.7593 24.8851 28.1993 24.5219 28.6131ZM20.0937 27.9494C20.4725 28.2818 20.8871 28.5028 21.3373 28.6123C21.7937 28.7149 22.2332 28.7094 22.6557 28.5959C23.0712 28.4762 23.4267 28.248 23.7222 27.9113C24.0177 27.5746 24.1943 27.1894 24.252 26.7558C24.3159 26.3151 24.2643 25.8786 24.0972 25.4464C23.9293 25.001 23.656 24.6121 23.2771 24.2796C22.8983 23.9472 22.4807 23.7297 22.0243 23.6272C21.5741 23.5176 21.1346 23.5231 20.706 23.6436C20.2835 23.7572 19.9245 23.9823 19.629 24.319C19.3335 24.6557 19.1604 25.044 19.1097 25.4838C19.0519 25.9174 19.1035 26.3539 19.2644 26.7931C19.4315 27.2253 19.7079 27.6108 20.0937 27.9494Z" fill="white"/>
<path d="M30.2859 15.2619C29.7888 15.6258 29.4352 16.0711 29.2251 16.5977C29.0172 17.1113 28.9871 17.6417 29.135 18.189L31.7426 21.8663L30.7377 22.5789L26.5104 16.6177L27.4468 15.9536L28.4267 17.3355C28.3407 16.7786 28.3761 16.2557 28.533 15.7669C28.692 15.2651 28.9472 14.8667 29.2987 14.5717C29.3748 14.5177 29.4396 14.4718 29.4928 14.4341C29.5461 14.3963 29.5945 14.3677 29.638 14.3483L30.2859 15.2619Z" fill="white"/>
<path d="M41.5711 16.6184C41.0604 16.8243 40.5563 16.9218 40.0589 16.911C39.5666 16.8881 39.1001 16.7793 38.6593 16.5846C38.2238 16.3778 37.8339 16.0972 37.4898 15.7428C37.1543 15.385 36.8907 14.968 36.6987 14.4919C36.4405 13.8513 36.3521 13.2077 36.4336 12.561C36.5151 11.9143 36.7509 11.3261 37.1412 10.7965C37.5401 10.2633 38.0772 9.86064 38.7524 9.58846C39.4363 9.31279 40.0955 9.23824 40.7302 9.36479C41.3701 9.4792 41.9349 9.7446 42.4248 10.161C42.9198 10.5652 43.2895 11.0703 43.5337 11.6763C43.5686 11.7628 43.5992 11.8511 43.6254 11.9412C43.6568 12.0191 43.6769 12.0814 43.6857 12.1282L38.0633 14.3946C38.2759 14.8222 38.5559 15.1672 38.9032 15.4297C39.2557 15.68 39.6409 15.8367 40.0588 15.8997C40.4731 15.9541 40.8751 15.9028 41.2646 15.7457C41.6802 15.5782 42.0278 15.3173 42.3076 14.963C42.5961 14.6052 42.7416 14.2296 42.744 13.8362L43.8407 13.711C43.8262 14.0993 43.7241 14.4826 43.5345 14.8609C43.3535 15.2358 43.0935 15.5771 42.7547 15.8847C42.4244 16.1889 42.0299 16.4335 41.5711 16.6184ZM37.7051 13.6183L42.3277 11.7549C42.1151 11.3274 41.8325 10.9884 41.48 10.738C41.1275 10.4877 40.7441 10.3353 40.3297 10.281C39.9153 10.2266 39.5047 10.2814 39.0979 10.4455C38.6997 10.606 38.3702 10.8495 38.1093 11.176C37.8485 11.5026 37.6779 11.8782 37.5976 12.3031C37.5259 12.7244 37.5618 13.1628 37.7051 13.6183Z" fill="white"/>
<path d="M49.7893 14.0791L49.5123 12.5357L50.532 12.3527L50.809 13.8961L49.7893 14.0791Z" fill="white"/>
<path d="M68.0587 14.4501C67.4191 14.3167 66.8493 14.0548 66.3491 13.6645C65.86 13.2669 65.4584 12.7922 65.1444 12.2405C64.8324 11.6797 64.6231 11.083 64.5166 10.4506C64.4121 9.80912 64.4255 9.17314 64.557 8.5427C64.6942 7.88486 64.938 7.28738 65.2884 6.75026C65.6407 6.20401 66.0654 5.74439 66.5627 5.3714C67.0692 5.00031 67.6232 4.74402 68.2247 4.60252C68.8373 4.45379 69.468 4.44708 70.1167 4.58237C71.0578 4.77864 71.7934 5.13705 72.3237 5.6576C72.8539 6.17815 73.2086 6.78604 73.3877 7.48126L72.3049 7.94189C72.1398 7.31634 71.8391 6.81506 71.4029 6.43806C70.9667 6.06106 70.4516 5.81063 69.8578 5.68677C69.3644 5.58387 68.8948 5.59557 68.4489 5.72187C68.0031 5.84817 67.5959 6.06357 67.2273 6.36806C66.8697 6.66532 66.5656 7.02618 66.315 7.45062C66.0736 7.87697 65.9014 8.33683 65.7985 8.83022C65.6899 9.35101 65.6692 9.86155 65.7365 10.3618C65.8148 10.8549 65.9721 11.3119 66.2085 11.7331C66.4467 12.145 66.7504 12.4944 67.1197 12.7812C67.4889 13.0679 67.9111 13.2609 68.3862 13.3599C68.9435 13.4762 69.503 13.4451 70.0646 13.2667C70.6262 13.0882 71.1918 12.7533 71.7614 12.2619L71.4956 13.5365C70.4013 14.3952 69.2556 14.6997 68.0587 14.4501ZM71.8508 11.0793L69.7539 10.6419L69.9483 9.70999L73.0867 10.3645L72.0749 15.2162L71.0333 14.9989L71.8508 11.0793Z" fill="white"/>
<path d="M78.9752 18.5254C78.4859 18.2728 78.083 17.9545 77.7666 17.5705C77.4627 17.1825 77.2407 16.758 77.1006 16.297C76.9731 15.832 76.9313 15.3535 76.9753 14.8615C77.0275 14.3738 77.1714 13.9019 77.4069 13.4458C77.7238 12.8321 78.1538 12.3451 78.697 11.9848C79.2402 11.6245 79.8398 11.4194 80.4958 11.3695C81.1601 11.3239 81.8157 11.4681 82.4625 11.8021C83.1177 12.1403 83.6044 12.5912 83.9227 13.1547C84.2535 13.7142 84.421 14.3154 84.4252 14.9583C84.4419 15.5972 84.3004 16.2069 84.0007 16.7874C83.9579 16.8704 83.9109 16.9511 83.8598 17.0298C83.8213 17.1044 83.7871 17.1603 83.7574 17.1975L78.3711 14.4163C78.1859 14.8564 78.1071 15.2937 78.1349 15.7281C78.1752 16.1586 78.3079 16.5527 78.5328 16.9105C78.762 17.2599 79.0632 17.531 79.4364 17.7237C79.8345 17.9292 80.259 18.0224 80.7101 18.0032C81.1695 17.9883 81.549 17.8534 81.8487 17.5985L82.6592 18.3479C82.3555 18.5902 81.9985 18.763 81.588 18.8662C81.1859 18.9737 80.7577 18.9994 80.3034 18.9434C79.8574 18.8917 79.4147 18.7524 78.9752 18.5254ZM78.7256 13.6382L83.1541 15.9249C83.3393 15.4848 83.4117 15.0495 83.3714 14.619C83.3311 14.1885 83.1963 13.7986 82.9671 13.4491C82.7379 13.0997 82.4284 12.8243 82.0386 12.6231C81.6571 12.4261 81.2576 12.3353 80.8399 12.3508C80.4223 12.3662 80.0263 12.4821 79.652 12.6985C79.2859 12.9192 78.9772 13.2324 78.7256 13.6382Z" fill="white"/>
<path d="M89.4288 25.2703C89.3203 25.2397 89.1741 25.1958 88.9905 25.1385C88.8068 25.0812 88.6077 24.9987 88.3933 24.891C88.1788 24.7833 87.9718 24.6452 87.772 24.4767C87.5438 24.284 87.3665 24.0672 87.2401 23.8262C87.1198 23.5781 87.0747 23.3203 87.1051 23.0528C87.1414 22.7782 87.271 22.5089 87.4937 22.245L90.6629 18.4896L89.9033 17.8485L90.5263 17.1102L91.2859 17.7513L92.857 15.8896L93.7986 16.6842L92.2275 18.5459L93.4793 19.6023L92.8563 20.3405L91.6045 19.2841L88.679 22.7507C88.5248 22.9624 88.4661 23.1694 88.5031 23.3716C88.5461 23.5667 88.6496 23.7334 88.8137 23.8719C88.9991 24.0284 89.1974 24.1407 89.4085 24.209C89.6196 24.2772 89.7622 24.3181 89.8362 24.3317L89.4288 25.2703Z" fill="white"/>
<path d="M106.575 36.702C106.639 36.5425 106.683 36.352 106.705 36.1304C106.727 35.9089 106.726 35.6731 106.701 35.4229C106.685 35.1685 106.638 34.9041 106.559 34.6296C106.493 34.3592 106.391 34.0914 106.254 33.8261C105.902 33.1463 105.514 32.7112 105.09 32.5208C104.666 32.3304 104.23 32.351 103.782 32.5825C103.467 32.7455 103.261 32.957 103.165 33.2171C103.068 33.4773 103.049 33.8073 103.109 34.2072C103.173 34.6154 103.28 35.117 103.43 35.7119C103.615 36.3939 103.728 37.0081 103.769 37.5544C103.81 38.1007 103.73 38.5776 103.531 38.9853C103.341 39.3886 102.98 39.7275 102.45 40.0019C102.027 40.2206 101.615 40.3285 101.214 40.3256C100.826 40.3268 100.453 40.2359 100.096 40.0529C99.7469 39.8657 99.4219 39.6029 99.1209 39.2648C98.8282 38.9223 98.5639 38.5231 98.3281 38.0671C98.0965 37.6195 97.9149 37.1565 97.7831 36.6782C97.6639 36.204 97.5969 35.729 97.582 35.2534C97.5672 34.7777 97.6108 34.3033 97.7128 33.8302L98.9345 33.8761C98.8622 34.0816 98.8091 34.3245 98.7754 34.6046C98.7542 34.8888 98.7542 35.1935 98.7754 35.5188C98.8008 35.8524 98.8577 36.196 98.946 36.5496C99.0426 36.899 99.1767 37.2394 99.3482 37.571C99.6741 38.2011 100.039 38.6323 100.443 38.8647C100.855 39.0929 101.281 39.0933 101.72 38.866C102.052 38.6945 102.266 38.4578 102.362 38.156C102.462 37.8624 102.48 37.4906 102.415 37.0407C102.351 36.5907 102.243 36.0579 102.093 35.4421C101.933 34.7681 101.836 34.1829 101.8 33.6866C101.772 33.1861 101.85 32.7571 102.033 32.3998C102.22 32.0508 102.546 31.7562 103.01 31.5161C103.574 31.2245 104.121 31.1148 104.652 31.1868C105.183 31.2589 105.673 31.4839 106.12 31.8618C106.568 32.2397 106.948 32.7312 107.261 33.3364C107.467 33.7343 107.616 34.1247 107.709 34.5075C107.807 34.8985 107.858 35.2819 107.863 35.6575C107.868 36.0331 107.831 36.3989 107.753 36.7548L106.575 36.702Z" fill="white"/>
<path d="M102.814 49.4364C102.743 49.3487 102.649 49.2283 102.532 49.0753C102.416 48.9223 102.301 48.7399 102.188 48.528C102.076 48.3161 101.987 48.0836 101.921 47.8306C101.846 47.5415 101.827 47.2621 101.864 46.9924C101.909 46.7204 102.021 46.484 102.201 46.2834C102.389 46.0804 102.651 45.9357 102.985 45.8492L107.743 44.6191L107.494 43.6567L108.429 43.4149L108.678 44.3773L111.036 43.7675L111.345 44.9602L108.986 45.5701L109.396 47.1559L108.461 47.3977L108.051 45.8119L103.659 46.9474C103.411 47.0309 103.244 47.1658 103.157 47.3521C103.079 47.5361 103.067 47.732 103.121 47.9398C103.181 48.1748 103.278 48.3811 103.411 48.5589C103.544 48.7367 103.636 48.8525 103.689 48.9064L102.814 49.4364Z" fill="white"/>
<path d="M105.222 53.3966C105.688 53.3789 106.094 53.4942 106.44 53.7425C106.795 53.9998 107.075 54.3581 107.28 54.8173C107.484 55.2766 107.598 55.8139 107.621 56.4295C107.634 56.7559 107.619 57.1021 107.577 57.468C107.544 57.8335 107.482 58.1581 107.39 58.4418L107.921 58.4215C108.481 58.4002 108.913 58.2156 109.217 57.8678C109.531 57.5196 109.676 57.0377 109.652 56.4222C109.637 56.0212 109.548 55.6369 109.384 55.2696C109.231 54.9112 109.011 54.5319 108.725 54.1318L109.575 53.6511C109.919 54.1144 110.18 54.5808 110.357 55.0504C110.543 55.5197 110.645 56.0108 110.665 56.5237C110.701 57.4564 110.467 58.2031 109.966 58.764C109.473 59.3244 108.766 59.6223 107.842 59.6574L104.75 59.7752C104.601 59.7809 104.49 59.8131 104.418 59.8719C104.355 59.9397 104.322 60.0437 104.318 60.1839L103.366 60.2202C103.343 60.0996 103.325 59.9929 103.312 59.9C103.3 59.8164 103.292 59.7467 103.29 59.6907C103.279 59.4016 103.35 59.1794 103.503 59.0241C103.656 58.8782 103.821 58.7925 103.998 58.7671L104.458 58.7215C104.036 58.4201 103.703 58.0171 103.459 57.5127C103.216 57.0082 103.085 56.5042 103.066 56.0006C103.047 55.5156 103.129 55.0782 103.31 54.6883C103.5 54.2981 103.76 53.9894 104.087 53.7621C104.424 53.5344 104.802 53.4126 105.222 53.3966ZM104.886 58.1729C105.02 58.2798 105.154 58.3635 105.287 58.4238C105.43 58.4837 105.548 58.5119 105.641 58.5084L106.55 58.4737C106.651 58.1804 106.724 57.874 106.767 57.5548C106.821 57.2352 106.841 56.9215 106.83 56.6138C106.806 55.9889 106.661 55.4854 106.394 55.1033C106.137 54.7301 105.794 54.5517 105.365 54.568C105.132 54.5769 104.905 54.6462 104.686 54.776C104.477 54.9147 104.307 55.108 104.176 55.3558C104.046 55.613 103.987 55.9234 104.001 56.2872C104.016 56.6696 104.104 57.0305 104.267 57.3699C104.438 57.7089 104.645 57.9766 104.886 58.1729Z" fill="white"/>
<path d="M108.205 69.9866C108.31 69.3796 108.255 68.8136 108.04 68.2888C107.833 67.7749 107.486 67.3724 107 67.0813L102.57 66.2466L102.798 65.0359L109.98 66.3891L109.767 67.5172L108.102 67.2036C108.551 67.5445 108.889 67.9453 109.115 68.4059C109.349 68.8774 109.442 69.3413 109.394 69.7976C109.377 69.8894 109.362 69.9673 109.35 70.0315C109.338 70.0957 109.323 70.1499 109.305 70.194L108.205 69.9866Z" fill="white"/>
<path d="M99.3991 77.665C99.3941 77.5523 99.3901 77.3998 99.387 77.2074C99.3839 77.015 99.4 76.8001 99.4351 76.5627C99.4702 76.3254 99.5366 76.0854 99.6341 75.843C99.7456 75.5659 99.896 75.3296 100.085 75.1342C100.283 74.9422 100.514 74.8187 100.778 74.7638C101.05 74.7123 101.346 74.7511 101.666 74.8799L106.225 76.7141L106.596 75.7919L107.493 76.1524L107.122 77.0746L109.381 77.9838L108.922 79.1268L106.662 78.2176L106.05 79.7372L105.154 79.3767L105.765 77.857L101.557 76.164C101.308 76.0838 101.093 76.0929 100.912 76.1913C100.741 76.2932 100.615 76.4438 100.535 76.6429C100.444 76.868 100.399 77.0915 100.401 77.3134C100.402 77.5352 100.408 77.6834 100.418 77.758L99.3991 77.665Z" fill="white"/>
<path d="M94.9941 84.1361C95.3081 83.6837 95.676 83.3256 96.0978 83.0617C96.522 82.8107 96.9717 82.6457 97.447 82.5666C97.9246 82.5005 98.4045 82.5212 98.8866 82.6287C99.3634 82.7438 99.8127 82.9477 100.234 83.2404C100.802 83.6343 101.229 84.1239 101.516 84.7092C101.802 85.2945 101.928 85.9157 101.892 86.5726C101.851 87.2373 101.623 87.8686 101.208 88.4666C100.788 89.0723 100.277 89.4964 99.6772 89.7388C99.0795 89.9943 98.4617 90.0823 97.8237 90.003C97.188 89.9367 96.6018 89.7173 96.0651 89.3447C95.9885 89.2915 95.9144 89.2344 95.8431 89.1735C95.7741 89.1256 95.7231 89.0845 95.6901 89.0503L99.1469 84.0705C98.7346 83.8297 98.3112 83.6949 97.8768 83.666C97.4447 83.6501 97.0367 83.7305 96.6528 83.9071C96.2766 84.089 95.9687 84.3525 95.7292 84.6975C95.4737 85.0655 95.3262 85.4744 95.2867 85.9242C95.2419 86.3816 95.3264 86.7754 95.5402 87.1057L94.692 87.8121C94.4911 87.4795 94.3661 87.103 94.3171 86.6827C94.2627 86.27 94.2928 85.842 94.4072 85.3989C94.5164 84.9634 94.712 84.5425 94.9941 84.1361ZM99.8724 84.523L97.0303 88.6172C97.4426 88.858 97.8648 88.9863 98.2969 89.0022C98.7289 89.0181 99.1331 88.9351 99.5093 88.7531C99.8856 88.5712 100.199 88.3001 100.449 87.9397C100.694 87.587 100.836 87.2026 100.875 86.7865C100.913 86.3704 100.85 85.9627 100.684 85.5635C100.513 85.1719 100.242 84.8251 99.8724 84.523Z" fill="white"/>
<path d="M92.3466 93.268C92.7927 93.7952 93.0928 94.3666 93.2469 94.9821C93.3998 95.6107 93.399 96.2166 93.2445 96.7997C93.0829 97.3889 92.7562 97.8915 92.2646 98.3075C91.8158 98.6874 91.3138 98.9105 90.7586 98.9768C90.2034 99.0432 89.6843 98.9933 89.2015 98.8273L92.0231 102.162L91.0827 102.957L85.3851 96.2247C85.2887 96.1107 85.1949 96.0433 85.1039 96.0225C85.0119 96.0148 84.9094 96.0526 84.7965 96.1359L84.1815 95.4092C84.3355 95.23 84.4624 95.0982 84.5621 95.0138C84.7474 94.857 84.9655 94.7824 85.2165 94.7901C85.4604 94.8038 85.6487 94.889 85.7813 95.0458L86.1792 95.516C86.0986 94.9728 86.1562 94.4412 86.3518 93.9211C86.5474 93.401 86.8447 92.9721 87.2437 92.6344C87.6284 92.3089 88.048 92.0822 88.5023 91.9545C88.9556 91.8399 89.4179 91.8155 89.8892 91.8812C90.3534 91.953 90.7979 92.1026 91.2227 92.33C91.6464 92.5706 92.021 92.8833 92.3466 93.268ZM87.0762 96.3158L88.4328 97.9189C88.7233 98.0888 89.0461 98.1885 89.4012 98.2181C89.7624 98.2548 90.1123 98.2276 90.4511 98.1366C90.7887 98.0588 91.075 97.9204 91.3101 97.7214C91.588 97.4863 91.7897 97.2117 91.9152 96.8976C92.0396 96.5967 92.0993 96.2772 92.0943 95.9391C92.0883 95.614 92.0225 95.2907 91.897 94.969C91.7714 94.6473 91.5941 94.351 91.365 94.0803C91.1299 93.8024 90.8605 93.578 90.5569 93.407C90.2461 93.2421 89.9238 93.1358 89.59 93.0881C89.2491 93.0465 88.9195 93.0687 88.601 93.1548C88.2755 93.2469 87.9774 93.4075 87.7066 93.6366C87.5356 93.7813 87.3882 93.961 87.2644 94.1759C87.1334 94.3968 87.0342 94.6335 86.9668 94.8862C86.8994 95.1389 86.872 95.3882 86.8846 95.6343C86.9033 95.8875 86.9671 96.1147 87.0762 96.3158Z" fill="white"/>
<path d="M80.0661 97.7686L80.8133 99.1472L79.9025 99.6408L79.1553 98.2623L80.0661 97.7686Z" fill="white"/>
</svg>
