<svg width="117" height="110" viewBox="0 0 117 110" fill="none" xmlns="http://www.w3.org/2000/svg">
<path fill-rule="evenodd" clip-rule="evenodd" d="M58.3574 48.9825C58.5231 48.9825 58.6821 49.0484 58.7993 49.1656C58.9165 49.2828 58.9824 49.4418 58.9824 49.6075L58.9824 64.3488L62.9149 60.415C63.0322 60.2977 63.1914 60.2318 63.3574 60.2318C63.5233 60.2318 63.6825 60.2977 63.7999 60.415C63.9172 60.5324 63.9832 60.6916 63.9832 60.8575C63.9832 61.0235 63.9172 61.1827 63.7999 61.3L58.7999 66.3C58.7418 66.3582 58.6728 66.4044 58.5969 66.4359C58.521 66.4674 58.4396 66.4837 58.3574 66.4837C58.2752 66.4837 58.1938 66.4674 58.1178 66.4359C58.0419 66.4044 57.9729 66.3582 57.9149 66.3L52.9149 61.3C52.7975 61.1827 52.7316 61.0235 52.7316 60.8575C52.7316 60.6916 52.7975 60.5324 52.9149 60.415C53.0322 60.2977 53.1914 60.2318 53.3574 60.2318C53.5233 60.2318 53.6825 60.2977 53.7999 60.415L57.7324 64.3488L57.7324 49.6075C57.7324 49.4418 57.7982 49.2828 57.9154 49.1656C58.0326 49.0484 58.1916 48.9825 58.3574 48.9825Z" fill="black"/>
<path d="M36.9545 97.9457L31.7355 106.405L30.6631 105.744L35.2941 98.2373L30.5757 95.3264L31.1638 94.3732L36.9545 97.9457Z" fill="#999999"/>
<path d="M25.3842 88.7883C25.7621 89.1888 26.0367 89.6226 26.208 90.0898C26.3661 90.5565 26.4348 91.0306 26.4142 91.512C26.3805 91.993 26.2613 92.4583 26.0567 92.9079C25.8458 93.3508 25.5536 93.7483 25.1803 94.1006C24.6779 94.5746 24.1108 94.8915 23.4789 95.0514C22.847 95.2113 22.2133 95.2061 21.5778 95.0358C20.936 94.8586 20.3652 94.5053 19.8656 93.9758C19.3596 93.4395 19.0498 92.8528 18.9363 92.2157C18.8096 91.5781 18.8508 90.9554 19.06 90.3475C19.2559 89.7391 19.5915 89.2108 20.0667 88.7624C20.1346 88.6984 20.2057 88.6377 20.28 88.5804C20.3411 88.5228 20.3918 88.4814 20.4321 88.4561L24.5922 92.8654C24.9128 92.5115 25.1321 92.1251 25.2499 91.7059C25.3545 91.2864 25.36 90.8706 25.2663 90.4585C25.1659 90.0529 24.9715 89.6973 24.6833 89.3918C24.3759 89.066 24.0062 88.8373 23.5742 88.7059C23.1359 88.5677 22.7331 88.5692 22.3659 88.7104L21.8495 87.7347C22.2164 87.6068 22.6105 87.5621 23.0319 87.6008C23.447 87.6326 23.8595 87.7503 24.2696 87.9537C24.6732 88.1503 25.0447 88.4285 25.3842 88.7883ZM23.9999 93.482L20.5796 89.8568C20.259 90.2106 20.0464 90.5973 19.9417 91.0168C19.8371 91.4363 19.835 91.8489 19.9355 92.2546C20.0359 92.6603 20.2367 93.0226 20.5377 93.3417C20.8323 93.654 21.1792 93.872 21.5784 93.9959C21.9775 94.1197 22.3895 94.1416 22.8144 94.0615C23.2329 93.9747 23.6281 93.7815 23.9999 93.482Z" fill="#999999"/>
<path d="M18.408 83.6547C17.9993 83.8801 17.5848 83.9595 17.1644 83.8929C16.7313 83.8227 16.3203 83.6283 15.9315 83.3098C15.5426 82.9913 15.1995 82.5624 14.902 82.023C14.7443 81.7369 14.602 81.421 14.4753 81.0752C14.3403 80.7339 14.2502 80.4159 14.2049 80.1211L13.739 80.3781C13.2487 80.6485 12.9457 81.0075 12.8301 81.4549C12.7063 81.9069 12.7931 82.4026 13.0906 82.942C13.2844 83.2934 13.5369 83.5966 13.8479 83.8513C14.1463 84.1025 14.5132 84.3425 14.9485 84.5714L14.4048 85.3829C13.8889 85.1238 13.4465 84.8242 13.0777 84.484C12.7007 84.1483 12.3882 83.7557 12.1403 83.3062C11.6896 82.4889 11.5624 81.7171 11.7586 80.9906C11.9467 80.2687 12.4453 79.6846 13.2544 79.2384L15.9637 77.7442C16.0945 77.6721 16.179 77.5935 16.2174 77.5084C16.243 77.4196 16.2261 77.3117 16.1667 77.1846L17.0003 76.7249C17.0753 76.8221 17.1393 76.9093 17.1926 76.9865C17.2413 77.0556 17.2792 77.1146 17.3063 77.1637C17.446 77.417 17.4824 77.6474 17.4156 77.8548C17.3443 78.054 17.2355 78.2046 17.0892 78.3066L16.6982 78.5542C17.2111 78.6338 17.6895 78.8442 18.1336 79.1855C18.5776 79.5269 18.9213 79.9182 19.1647 80.3595C19.3991 80.7845 19.5229 81.2119 19.5361 81.6416C19.5411 82.0759 19.4483 82.4681 19.2577 82.8184C19.059 83.1731 18.7757 83.4519 18.408 83.6547ZM16.5628 79.2364C16.3943 79.2015 16.2371 79.1869 16.0911 79.1928C15.937 79.2032 15.819 79.2309 15.7373 79.276L14.9404 79.7155C14.9821 80.0229 15.055 80.3291 15.1592 80.634C15.2553 80.9435 15.3777 81.233 15.5264 81.5027C15.8284 82.0503 16.1844 82.4349 16.5944 82.6564C16.9917 82.8743 17.3783 82.8796 17.7542 82.6723C17.9586 82.5596 18.1295 82.396 18.267 82.1816C18.3919 81.9635 18.4571 81.7144 18.4625 81.4343C18.4633 81.1461 18.3759 80.8425 18.2001 80.5238C18.0153 80.1887 17.7741 79.906 17.4766 79.6758C17.1709 79.45 16.8663 79.3035 16.5628 79.2364Z" fill="#999999"/>
<path d="M8.29008 70.1731C8.4691 70.7626 8.77233 71.2436 9.19977 71.6161C9.61566 71.9822 10.1063 72.186 10.6718 72.2275L15.0046 70.983L15.3447 72.1671L8.32067 74.1846L8.00375 73.0812L9.63192 72.6135C9.07794 72.5105 8.59625 72.3041 8.18685 71.9944C7.7659 71.6783 7.47436 71.3057 7.31222 70.8764C7.28646 70.7867 7.26456 70.7105 7.24652 70.6477C7.22849 70.5849 7.21751 70.5298 7.2136 70.4823L8.29008 70.1731Z" fill="#999999"/>
<path d="M13.0204 56.8736L13.0771 58.1042L8.99341 58.2924C8.21957 58.3281 7.66108 58.4753 7.31796 58.734C6.96509 58.9838 6.79982 59.3512 6.82216 59.836C6.83763 60.1716 6.937 60.5034 7.12029 60.8313C7.30315 61.1499 7.54511 61.4331 7.84616 61.6808C8.13747 61.9197 8.47216 62.0864 8.85026 62.1811L13.2556 61.9781L13.3123 63.2088L6.01204 63.5452L5.96048 62.4264L7.52682 62.3542C7.17283 62.1743 6.86288 61.9364 6.59697 61.6403C6.33106 61.3442 6.11916 61.0036 5.96127 60.6185C5.80337 60.2333 5.71454 59.8263 5.69478 59.3974C5.67545 58.9779 5.73858 58.6246 5.8842 58.3376C6.02005 58.0417 6.22418 57.808 6.49658 57.6367C6.75923 57.4564 7.07552 57.325 7.44545 57.2426C7.81495 57.1508 8.2188 57.0948 8.657 57.0746L13.0204 56.8736Z" fill="#999999"/>
<path d="M18.6802 36.0572L11.7556 32.9545L15.7436 38.3312L15.4288 39.0339L8.75587 39.6491L15.6805 42.7519L15.1653 43.9017L6.09427 39.8373L6.63811 38.6235L13.9991 37.9791L9.58628 32.0438L10.1244 30.8429L19.1954 34.9074L18.6802 36.0572Z" fill="#999999"/>
<path d="M24.5219 28.3456C24.1587 28.7595 23.7557 29.0702 23.3128 29.2776C22.863 29.4789 22.4006 29.5884 21.9255 29.6061C21.4435 29.6177 20.9721 29.5393 20.5114 29.3709C20.0507 29.2025 19.631 28.9521 19.2522 28.6196C18.8663 28.281 18.56 27.8942 18.3333 27.4593C18.1065 27.0243 17.9711 26.5702 17.927 26.0969C17.876 25.6174 17.9245 25.1447 18.0727 24.6787C18.22 24.1995 18.4753 23.753 18.8386 23.3391C19.1956 22.9322 19.5991 22.6282 20.0489 22.4269C20.4918 22.2195 20.9542 22.11 21.4362 22.0984C21.9174 22.0737 22.3884 22.1455 22.8491 22.3139C23.3098 22.4822 23.733 22.7357 24.1189 23.0743C24.4977 23.4068 24.8004 23.7905 25.0272 24.2254C25.254 24.6604 25.3929 25.1176 25.444 25.5971C25.488 26.0704 25.4364 26.5466 25.2891 27.0258C25.1409 27.4918 24.8852 27.9317 24.5219 28.3456ZM20.0938 27.6818C20.4726 28.0143 20.8871 28.2353 21.3374 28.3448C21.7938 28.4474 22.2333 28.4419 22.6557 28.3284C23.0712 28.2087 23.4267 27.9805 23.7222 27.6438C24.0177 27.3071 24.1943 26.9219 24.2521 26.4882C24.3159 26.0476 24.2643 25.6111 24.0973 25.1789C23.9294 24.7335 23.656 24.3446 23.2772 24.0121C22.8984 23.6797 22.4808 23.4622 22.0244 23.3597C21.5741 23.2501 21.1347 23.2556 20.706 23.3761C20.2835 23.4896 19.9245 23.7148 19.629 24.0515C19.3335 24.3882 19.1604 24.7764 19.1097 25.2162C19.052 25.6499 19.1036 26.0863 19.2645 26.5256C19.4315 26.9578 19.708 27.3432 20.0938 27.6818Z" fill="#999999"/>
<path d="M30.2859 14.9944C29.7888 15.3583 29.4352 15.8036 29.2251 16.3302C29.0172 16.8437 28.9871 17.3742 29.135 17.9215L31.7426 21.5988L30.7377 22.3114L26.5104 16.3502L27.4468 15.6861L28.4267 17.0679C28.3407 16.511 28.3761 15.9882 28.533 15.4994C28.692 14.9976 28.9472 14.5992 29.2987 14.3042C29.3748 14.2502 29.4396 14.2043 29.4928 14.1665C29.5461 14.1287 29.5945 14.1002 29.638 14.0808L30.2859 14.9944Z" fill="#999999"/>
<path d="M41.5711 16.351C41.0604 16.5569 40.5563 16.6544 40.0589 16.6436C39.5666 16.6206 39.1001 16.5118 38.6593 16.3172C38.2238 16.1104 37.8339 15.8298 37.4898 15.4754C37.1543 15.1175 36.8907 14.7005 36.6987 14.2244C36.4405 13.5838 36.3521 12.9402 36.4336 12.2935C36.5151 11.6468 36.7509 11.0587 37.1412 10.529C37.5401 9.99585 38.0772 9.59319 38.7524 9.32101C39.4363 9.04534 40.0955 8.97078 40.7302 9.09734C41.3701 9.21174 41.9349 9.47714 42.4248 9.89352C42.9198 10.2978 43.2895 10.8029 43.5337 11.4088C43.5686 11.4954 43.5992 11.5837 43.6254 11.6737C43.6568 11.7516 43.6769 11.814 43.6857 11.8608L38.0633 14.1272C38.2759 14.5547 38.5559 14.8997 38.9032 15.1622C39.2557 15.4126 39.6409 15.5693 40.0588 15.6323C40.4731 15.6866 40.8751 15.6353 41.2646 15.4783C41.6802 15.3108 42.0278 15.0499 42.3076 14.6956C42.5961 14.3378 42.7416 13.9621 42.744 13.5687L43.8407 13.4436C43.8262 13.8319 43.7241 14.2152 43.5345 14.5935C43.3535 14.9683 43.0935 15.3096 42.7547 15.6173C42.4244 15.9215 42.0299 16.166 41.5711 16.351ZM37.7051 13.3508L42.3277 11.4874C42.1151 11.0599 41.8325 10.721 41.48 10.4706C41.1275 10.2202 40.7441 10.0679 40.3297 10.0135C39.9153 9.95916 39.5047 10.014 39.0979 10.178C38.6997 10.3385 38.3702 10.582 38.1093 10.9086C37.8485 11.2351 37.6779 11.6108 37.5976 12.0356C37.5259 12.457 37.5618 12.8954 37.7051 13.3508Z" fill="#999999"/>
<path d="M49.7893 13.8116L49.5124 12.2683L50.5321 12.0853L50.809 13.6286L49.7893 13.8116Z" fill="#999999"/>
<path d="M68.0587 14.1826C67.4191 14.0492 66.8493 13.7873 66.3491 13.397C65.86 12.9994 65.4584 12.5248 65.1444 11.9731C64.8324 11.4122 64.6231 10.8156 64.5166 10.1832C64.4121 9.54166 64.4255 8.90568 64.557 8.27525C64.6942 7.6174 64.938 7.01992 65.2884 6.48281C65.6407 5.93656 66.0654 5.47694 66.5627 5.10394C67.0692 4.73286 67.6232 4.47656 68.2247 4.33507C68.8373 4.18634 69.468 4.17962 70.1167 4.31491C71.0578 4.51118 71.7934 4.86959 72.3237 5.39014C72.8539 5.9107 73.2086 6.51858 73.3877 7.21381L72.3049 7.67443C72.1398 7.04888 71.8391 6.5476 71.4029 6.1706C70.9667 5.7936 70.4516 5.54317 69.8578 5.41931C69.3644 5.31641 68.8948 5.32811 68.4489 5.45442C68.0031 5.58072 67.5959 5.79611 67.2273 6.10061C66.8697 6.39787 66.5656 6.75872 66.315 7.18316C66.0736 7.60951 65.9014 8.06938 65.7985 8.56276C65.6899 9.08356 65.6692 9.59409 65.7365 10.0944C65.8148 10.5874 65.9721 11.0445 66.2085 11.4656C66.4467 11.8776 66.7504 12.227 67.1197 12.5137C67.4889 12.8005 67.9111 12.9934 68.3862 13.0925C68.9435 13.2087 69.503 13.1776 70.0646 12.9992C70.6262 12.8208 71.1918 12.4859 71.7614 11.9945L71.4956 13.269C70.4013 14.1277 69.2556 14.4322 68.0587 14.1826ZM71.8508 10.8118L69.7539 10.3745L69.9483 9.44253L73.0867 10.0971L72.0749 14.9487L71.0333 14.7315L71.8508 10.8118Z" fill="#999999"/>
<path d="M78.9752 18.2579C78.4859 18.0053 78.0831 17.687 77.7666 17.303C77.4628 16.915 77.2408 16.4905 77.1007 16.0295C76.9731 15.5645 76.9314 15.086 76.9753 14.594C77.0276 14.1063 77.1715 13.6344 77.407 13.1782C77.7238 12.5646 78.1539 12.0776 78.697 11.7173C79.2402 11.357 79.8398 11.1519 80.4958 11.102C81.1601 11.0563 81.8157 11.2005 82.4626 11.5345C83.1177 11.8728 83.6045 12.3237 83.9227 12.8872C84.2536 13.4467 84.4211 14.0479 84.4253 14.6908C84.442 15.3297 84.3005 15.9394 84.0008 16.5199C83.9579 16.6028 83.911 16.6836 83.8599 16.7623C83.8213 16.8369 83.7872 16.8928 83.7575 16.93L78.3712 14.1488C78.1859 14.5889 78.1072 15.0261 78.135 15.4606C78.1753 15.8911 78.3079 16.2852 78.5329 16.643C78.7621 16.9924 79.0633 17.2635 79.4365 17.4562C79.8345 17.6617 80.2591 17.7549 80.7102 17.7357C81.1696 17.7208 81.5491 17.5859 81.8488 17.331L82.6593 18.0804C82.3556 18.3227 81.9985 18.4955 81.5881 18.5987C81.186 18.7062 80.7578 18.7319 80.3035 18.6759C79.8575 18.6242 79.4148 18.4849 78.9752 18.2579ZM78.7257 13.3707L83.1541 15.6573C83.3394 15.2173 83.4118 14.782 83.3715 14.3515C83.3312 13.921 83.1964 13.5311 82.9672 13.1816C82.7379 12.8322 82.4284 12.5568 82.0387 12.3555C81.6572 12.1586 81.2576 12.0678 80.84 12.0833C80.4224 12.0987 80.0264 12.2146 79.652 12.431C79.286 12.6516 78.9772 12.9649 78.7257 13.3707Z" fill="#999999"/>
<path d="M89.4289 25.0029C89.3204 24.9723 89.1743 24.9284 88.9906 24.8711C88.8069 24.8138 88.6078 24.7313 88.3934 24.6236C88.179 24.5159 87.9719 24.3778 87.7722 24.2093C87.5439 24.0166 87.3666 23.7998 87.2402 23.5589C87.1199 23.3107 87.0749 23.0529 87.1052 22.7854C87.1416 22.5108 87.2711 22.2415 87.4938 21.9776L90.6631 18.2222L89.9034 17.5811L90.5264 16.8428L91.2861 17.4839L92.8571 15.6222L93.7987 16.4168L92.2276 18.2785L93.4794 19.3349L92.8564 20.0731L91.6046 19.0167L88.6792 22.4833C88.5249 22.695 88.4662 22.902 88.5032 23.1042C88.5462 23.2993 88.6498 23.466 88.8138 23.6045C88.9993 23.761 89.1975 23.8733 89.4086 23.9416C89.6197 24.0098 89.7623 24.0507 89.8363 24.0643L89.4289 25.0029Z" fill="#999999"/>
<path d="M106.575 36.4346C106.639 36.275 106.683 36.0845 106.705 35.863C106.727 35.6414 106.725 35.4056 106.701 35.1555C106.685 34.901 106.638 34.6366 106.559 34.3622C106.492 34.0918 106.391 33.8239 106.254 33.5586C105.902 32.8788 105.514 32.4437 105.09 32.2534C104.666 32.063 104.23 32.0835 103.782 32.3151C103.467 32.478 103.261 32.6895 103.164 32.9497C103.068 33.2098 103.049 33.5398 103.109 33.9398C103.173 34.348 103.28 34.8495 103.43 35.4444C103.615 36.1265 103.728 36.7407 103.769 37.2869C103.809 37.8332 103.73 38.3102 103.531 38.7178C103.341 39.1212 102.98 39.4601 102.45 39.7345C102.027 39.9532 101.615 40.0611 101.214 40.0582C100.826 40.0593 100.453 39.9684 100.096 39.7855C99.7469 39.5982 99.4218 39.3355 99.1208 38.9973C98.8281 38.6548 98.5638 38.2556 98.328 37.7997C98.0965 37.352 97.9148 36.889 97.783 36.4108C97.6639 35.9365 97.5968 35.4616 97.582 34.9859C97.5671 34.5102 97.6107 34.0358 97.7128 33.5627L98.9344 33.6086C98.8621 33.8142 98.8091 34.057 98.7753 34.3372C98.7542 34.6213 98.7542 34.926 98.7753 35.2514C98.8007 35.585 98.8576 35.9286 98.9459 36.2822C99.0426 36.6315 99.1766 36.972 99.3481 37.3036C99.674 37.9336 100.039 38.3649 100.443 38.5973C100.855 38.8254 101.281 38.8258 101.72 38.5986C102.052 38.4271 102.266 38.1904 102.362 37.8885C102.462 37.5949 102.48 37.2232 102.415 36.7732C102.351 36.3233 102.243 35.7904 102.093 35.1747C101.933 34.5006 101.836 33.9154 101.8 33.4192C101.772 32.9186 101.85 32.4897 102.032 32.1324C102.22 31.7833 102.545 31.4888 103.01 31.2486C103.573 30.9571 104.121 30.8473 104.652 30.9194C105.183 30.9914 105.673 31.2164 106.12 31.5943C106.568 31.9722 106.948 32.4638 107.261 33.069C107.467 33.4669 107.616 33.8572 107.709 34.24C107.806 34.6311 107.858 35.0144 107.863 35.39C107.868 35.7657 107.831 36.1314 107.753 36.4873L106.575 36.4346Z" fill="#999999"/>
<path d="M102.814 49.1689C102.743 49.0811 102.649 48.9608 102.532 48.8078C102.416 48.6548 102.301 48.4724 102.188 48.2605C102.076 48.0486 101.987 47.8161 101.921 47.5631C101.847 47.274 101.827 46.9945 101.864 46.7249C101.909 46.4529 102.021 46.2165 102.201 46.0159C102.389 45.8129 102.651 45.6682 102.985 45.5817L107.743 44.3516L107.494 43.3892L108.429 43.1474L108.678 44.1098L111.036 43.5L111.345 44.6927L108.986 45.3025L109.396 46.8884L108.461 47.1302L108.051 45.5444L103.66 46.6799C103.411 46.7634 103.244 46.8983 103.157 47.0846C103.079 47.2686 103.067 47.4645 103.121 47.6723C103.182 47.9073 103.278 48.1136 103.411 48.2914C103.544 48.4691 103.636 48.585 103.689 48.6389L102.814 49.1689Z" fill="#999999"/>
<path d="M105.222 53.1292C105.688 53.1114 106.094 53.2267 106.44 53.4751C106.796 53.7324 107.075 54.0907 107.28 54.5499C107.484 55.0091 107.598 55.5465 107.621 56.162C107.634 56.4885 107.619 56.8346 107.577 57.2005C107.544 57.566 107.482 57.8906 107.39 58.1743L107.921 58.1541C108.481 58.1328 108.913 57.9482 109.217 57.6004C109.531 57.2522 109.676 56.7703 109.652 56.1547C109.637 55.7537 109.548 55.3695 109.384 55.0021C109.231 54.6437 109.011 54.2645 108.725 53.8644L109.575 53.3837C109.919 53.8469 110.18 54.3133 110.357 54.7829C110.543 55.2522 110.646 55.7433 110.665 56.2563C110.701 57.1889 110.467 57.9357 109.966 58.4965C109.473 59.057 108.766 59.3548 107.842 59.39L104.751 59.5077C104.601 59.5134 104.49 59.5457 104.418 59.6045C104.355 59.6722 104.322 59.7762 104.318 59.9165L103.366 59.9527C103.343 59.8322 103.325 59.7255 103.312 59.6326C103.3 59.549 103.292 59.4792 103.29 59.4232C103.279 59.1341 103.35 58.9119 103.503 58.7567C103.656 58.6107 103.821 58.5251 103.998 58.4996L104.458 58.4541C104.036 58.1526 103.703 57.7497 103.459 57.2452C103.216 56.7408 103.085 56.2367 103.066 55.7331C103.047 55.2481 103.129 54.8107 103.31 54.4209C103.5 54.0307 103.76 53.7219 104.087 53.4946C104.424 53.267 104.802 53.1451 105.222 53.1292ZM104.886 57.9054C105.02 58.0124 105.154 58.096 105.287 58.1563C105.43 58.2163 105.548 58.2445 105.641 58.2409L106.55 58.2063C106.651 57.9129 106.724 57.6066 106.767 57.2874C106.821 56.9678 106.841 56.6541 106.83 56.3463C106.806 55.7214 106.661 55.2179 106.394 54.8358C106.137 54.4626 105.794 54.2842 105.365 54.3006C105.132 54.3095 104.905 54.3788 104.686 54.5086C104.477 54.6473 104.307 54.8406 104.176 55.0884C104.046 55.3455 103.987 55.656 104.001 56.0197C104.016 56.4021 104.104 56.763 104.267 57.1024C104.438 57.4414 104.645 57.7091 104.886 57.9054Z" fill="#999999"/>
<path d="M108.205 69.7192C108.31 69.1121 108.255 68.5462 108.04 68.0214C107.833 67.5075 107.487 67.105 107 66.8139L102.57 65.9792L102.798 64.7685L109.98 66.1216L109.767 67.2498L108.102 66.9361C108.551 67.2771 108.889 67.6778 109.115 68.1384C109.349 68.6099 109.442 69.0738 109.394 69.5302C109.377 69.6219 109.362 69.6999 109.35 69.7641C109.338 69.8283 109.323 69.8824 109.306 69.9266L108.205 69.7192Z" fill="#999999"/>
<path d="M99.3991 77.3976C99.3941 77.2849 99.3901 77.1324 99.387 76.94C99.3839 76.7476 99.4 76.5327 99.4351 76.2953C99.4702 76.058 99.5366 75.8181 99.6341 75.5756C99.7456 75.2985 99.896 75.0622 100.085 74.8668C100.283 74.6748 100.514 74.5513 100.778 74.4964C101.05 74.4449 101.346 74.4837 101.666 74.6126L106.225 76.4467L106.596 75.5245L107.493 75.885L107.122 76.8072L109.381 77.7164L108.922 78.8594L106.662 77.9502L106.05 79.4698L105.154 79.1093L105.765 77.5896L101.557 75.8966C101.308 75.8164 101.093 75.8255 100.912 75.9239C100.741 76.0258 100.615 76.1764 100.535 76.3755C100.444 76.6007 100.399 76.8241 100.401 77.046C100.402 77.2678 100.408 77.416 100.418 77.4906L99.3991 77.3976Z" fill="#999999"/>
<path d="M94.994 83.8686C95.308 83.4163 95.676 83.0581 96.0978 82.7942C96.5219 82.5433 96.9716 82.3783 97.4469 82.2992C97.9245 82.2331 98.4044 82.2538 98.8865 82.3612C99.3634 82.4763 99.8126 82.6802 100.234 82.973C100.802 83.3668 101.229 83.8564 101.515 84.4417C101.802 85.0271 101.928 85.6482 101.892 86.3052C101.851 86.9698 101.623 87.6011 101.208 88.1992C100.787 88.8049 100.277 89.2289 99.6772 89.4714C99.0795 89.7268 98.4616 89.8149 97.8236 89.7356C97.1879 89.6692 96.6018 89.4498 96.0651 89.0773C95.9884 89.024 95.9144 88.967 95.843 88.9061C95.774 88.8582 95.723 88.8171 95.69 88.7828L99.1468 83.803C98.7345 83.5623 98.3111 83.4274 97.8767 83.3986C97.4447 83.3827 97.0367 83.463 96.6527 83.6396C96.2765 83.8216 95.9686 84.085 95.7291 84.43C95.4737 84.7981 95.3262 85.207 95.2866 85.6567C95.2418 86.1141 95.3263 86.508 95.5402 86.8382L94.6919 87.5446C94.491 87.212 94.3661 86.8355 94.317 86.4152C94.2626 86.0025 94.2927 85.5746 94.4072 85.1314C94.5163 84.6959 94.712 84.275 94.994 83.8686ZM99.8723 84.2555L97.0302 88.3497C97.4425 88.5905 97.8647 88.7188 98.2968 88.7347C98.7289 88.7506 99.133 88.6676 99.5093 88.4857C99.8855 88.3038 100.199 88.0326 100.449 87.6723C100.694 87.3196 100.836 86.9352 100.874 86.5191C100.913 86.103 100.85 85.6953 100.684 85.296C100.513 84.9045 100.242 84.5576 99.8723 84.2555Z" fill="#999999"/>
<path d="M92.3465 93.0006C92.7927 93.5278 93.0928 94.0991 93.2468 94.7146C93.3998 95.3432 93.399 95.9491 93.2444 96.5323C93.0828 97.1215 92.7562 97.6241 92.2646 98.0401C91.8157 98.4199 91.3137 98.643 90.7585 98.7094C90.2033 98.7757 89.6843 98.7259 89.2014 98.5598L92.0231 101.894L91.0826 102.69L85.3851 95.9572C85.2886 95.8432 85.1949 95.7758 85.1039 95.755C85.0118 95.7473 84.9093 95.7852 84.7964 95.8685L84.1814 95.1418C84.3354 94.9625 84.4623 94.8307 84.5621 94.7463C84.7473 94.5895 84.9654 94.515 85.2165 94.5227C85.4603 94.5363 85.6486 94.6216 85.7813 94.7783L86.1792 95.2485C86.0986 94.7054 86.1561 94.1738 86.3517 93.6536C86.5474 93.1335 86.8447 92.7046 87.2437 92.367C87.6284 92.0414 88.0479 91.8148 88.5023 91.687C88.9555 91.5725 89.4178 91.548 89.8892 91.6138C90.3534 91.6856 90.7979 91.8352 91.2226 92.0626C91.6463 92.3032 92.0209 92.6158 92.3465 93.0006ZM87.0761 96.0484L88.4327 97.6514C88.7232 97.8213 89.046 97.921 89.4012 97.9506C89.7623 97.9873 90.1123 97.9602 90.451 97.8692C90.7886 97.7913 91.075 97.6529 91.3101 97.454C91.5879 97.2188 91.7896 96.9442 91.9151 96.6302C92.0395 96.3293 92.0992 96.0098 92.0943 95.6716C92.0882 95.3466 92.0224 95.0232 91.8969 94.7015C91.7714 94.3798 91.5941 94.0836 91.365 93.8128C91.1298 93.535 90.8604 93.3106 90.5568 93.1396C90.246 92.9746 89.9238 92.8683 89.59 92.8207C89.2491 92.779 88.9194 92.8012 88.601 92.8873C88.2754 92.9794 87.9773 93.14 87.7066 93.3691C87.5356 93.5138 87.3881 93.6936 87.2643 93.9084C87.1333 94.1293 87.0341 94.3661 86.9667 94.6187C86.8993 94.8714 86.8719 95.1208 86.8846 95.3669C86.9032 95.6201 86.9671 95.8473 87.0761 96.0484Z" fill="#999999"/>
<path d="M80.0663 97.5012L80.8134 98.8797L79.9026 99.3734L79.1554 97.9949L80.0663 97.5012Z" fill="#999999"/>
</svg>
