<svg width="77" height="59" viewBox="0 0 77 59" fill="none" xmlns="http://www.w3.org/2000/svg">
<path d="M46.0661 93C20.6245 93 0 72.1812 0 46.5C0 20.8188 20.6245 0 46.0661 0C53.4636 0 60.6148 1.76326 67.0565 5.09724C68.0494 5.61116 68.4416 6.84029 67.9325 7.84259C67.4234 8.84489 66.2057 9.2408 65.2128 8.72688C59.3384 5.68651 52.8186 4.07895 46.0661 4.07895C22.8562 4.07895 4.04089 23.0715 4.04089 46.5C4.04089 69.9285 22.8562 88.9211 46.0661 88.9211C47.1819 88.9211 48.0865 89.8342 48.0865 90.9605C48.0865 92.0869 47.1819 93 46.0661 93ZM76.3065 81.5788C67.9807 88.8979 57.3355 93 46.0661 93C44.9502 93 44.0456 92.0869 44.0456 90.9605C44.0456 89.8342 44.9502 88.9211 46.0661 88.9211C56.3506 88.9211 66.0557 85.1812 73.6526 78.5028C74.4941 77.7631 75.7703 77.852 76.5032 78.7014C77.236 79.5508 77.1479 80.8391 76.3065 81.5788Z" fill="#55ACEE"/>
</svg>
