<?xml version="1.0" standalone="no"?>
<!DOCTYPE svg PUBLIC "-//W3C//DTD SVG 1.1//EN" "http://www.w3.org/Graphics/SVG/1.1/DTD/svg11.dtd" >
<svg xmlns="http://www.w3.org/2000/svg" xmlns:xlink="http://www.w3.org/1999/xlink" version="1.1">
<metadata>
Created by FontForge 20170731 at Tue Jun 12 18:10:53 2018
 By Aleksey,,,
Copyright (c) 2017 by Oliver Jeschke. All rights reserved.
</metadata>
<defs>
<font id="Sequel100Black-95" horiz-adv-x="378" >
  <font-face 
    font-family="Sequel100Black-95"
    font-weight="400"
    font-stretch="extra-expanded"
    units-per-em="1000"
    panose-1="2 11 6 3 5 0 0 2 0 4"
    ascent="794"
    descent="-206"
    x-height="542"
    cap-height="714"
    bbox="-360 -439 1915 1069"
    underline-thickness="50"
    underline-position="-200"
    unicode-range="U+000D-FB02"
  />
<missing-glyph horiz-adv-x="668" 
d="M638 -439h-609v1508h609v-1508zM107 -373h453v1377h-453v-1377zM147 391q10 152 183 152q79 0 128.5 -35.5t49.5 -100.5q0 -39 -18.5 -60t-52.5 -39q-31 -16 -41.5 -25.5t-10.5 -25.5v-3h-118v16q0 37 15.5 58t57.5 46q16 10 24 19t8 22q0 14 -11 23t-32 9
q-22 0 -35 -14.5t-14 -41.5h-133zM256 216h140v-123h-140v123z" />
    <glyph glyph-name="fi" unicode="fi" horiz-adv-x="989" 
d="M457.5 593q-21.5 -10 -21.5 -36q0 -3 2 -15h165v-158h-165v-384h-324v384h-104v158h104v35q0 72 38.5 111.5t109 54t179.5 14.5q71 0 170 -12v-145q-51 3 -76 3q-56 0 -77.5 -10zM638 542h324v-542h-324v542zM637 728h328v-129h-328v129z" />
    <glyph glyph-name="fl" unicode="fl" horiz-adv-x="1004" 
d="M457.5 593q-21.5 -10 -21.5 -36q0 -3 2 -15h165v-158h-165v-384h-324v384h-104v158h104v35q0 72 38.5 111.5t109 54t179.5 14.5q71 0 170 -12v-145q-51 3 -76 3q-56 0 -77.5 -10zM652 724h324v-724h-324v724z" />
    <glyph glyph-name="f_f" unicode="ff" horiz-adv-x="1229" 
d="M457.5 593q-21.5 -10 -21.5 -36q0 -3 2 -15h165v-158h-165v-384h-324v384h-104v158h104v35q0 72 38.5 111.5t109 54t179.5 14.5q71 0 170 -12v-145q-51 3 -76 3q-56 0 -77.5 -10zM1060.5 593q-21.5 -10 -21.5 -36q0 -3 2 -15h165v-158h-165v-384h-324v384h-104v158h104
v35q0 72 38.5 111.5t109 54t179.5 14.5q71 0 170 -12v-145q-51 3 -76 3q-56 0 -77.5 -10z" />
    <glyph glyph-name="f_f_i" unicode="ffi" horiz-adv-x="1593" 
d="M457.5 593q-21.5 -10 -21.5 -36q0 -3 2 -15h165v-158h-165v-384h-324v384h-104v158h104v35q0 72 38.5 111.5t109 54t179.5 14.5q71 0 170 -12v-145q-51 3 -76 3q-56 0 -77.5 -10zM1060.5 593q-21.5 -10 -21.5 -36q0 -3 2 -15h165v-158h-165v-384h-324v384h-104v158h104
v35q0 72 38.5 111.5t109 54t179.5 14.5q71 0 170 -12v-145q-51 3 -76 3q-56 0 -77.5 -10zM1241 542h324v-542h-324v542zM1240 728h328v-129h-328v129z" />
    <glyph glyph-name=".notdef" horiz-adv-x="668" 
d="M638 -439h-609v1508h609v-1508zM107 -373h453v1377h-453v-1377zM147 391q10 152 183 152q79 0 128.5 -35.5t49.5 -100.5q0 -39 -18.5 -60t-52.5 -39q-31 -16 -41.5 -25.5t-10.5 -25.5v-3h-118v16q0 37 15.5 58t57.5 46q16 10 24 19t8 22q0 14 -11 23t-32 9
q-22 0 -35 -14.5t-14 -41.5h-133zM256 216h140v-123h-140v123z" />
    <glyph glyph-name=".null" horiz-adv-x="0" 
 />
    <glyph glyph-name="nonmarkingreturn" unicode="&#xd;" horiz-adv-x="125" 
 />
    <glyph glyph-name="space" unicode=" " horiz-adv-x="351" 
 />
    <glyph glyph-name="exclam" unicode="!" horiz-adv-x="425" 
d="M74 282l-42 305v127h361v-127l-43 -305h-276zM49 229h326v-229h-326v229z" />
    <glyph glyph-name="quotedbl" unicode="&#x22;" horiz-adv-x="535" 
d="M27 354v360h196v-360h-196zM312 354v360h197v-360h-197z" />
    <glyph glyph-name="numbersign" unicode="#" horiz-adv-x="911" 
d="M729 406l-31 -111h139l-37 -128h-136l-46 -167h-188l46 167h-141l-46 -167h-188l46 167h-136l35 128h136l31 111h-140l36 128h139l45 165h188l-45 -165h140l45 165h187l-44 -165h136l-37 -128h-134zM541 406h-140l-31 -111h141z" />
    <glyph glyph-name="dollar" unicode="$" horiz-adv-x="1041" 
d="M975.5 84.5q-48.5 -50.5 -146.5 -71.5t-263 -24v-109h-101v109q-160 3 -257 25.5t-146 75t-53 146.5h358q8 -34 32 -52.5t66 -24.5v105l-164 15q-137 12 -206.5 57.5t-69.5 148.5q0 82 50 131t146 70.5t244 24.5v86h101v-87q143 -3 236 -25t142.5 -71.5t52.5 -132.5h-353
q-11 47 -78 58v-90l183 -14q138 -10 206.5 -58t68.5 -149q0 -93 -48.5 -143.5zM465 457v86q-49 -3 -69.5 -14.5t-20.5 -31.5q0 -19 18.5 -27.5t67.5 -12.5h4zM662 208q0 23 -19.5 32.5t-67.5 13.5l-9 1v-98q96 7 96 51z" />
    <glyph glyph-name="percent" unicode="%" horiz-adv-x="1225" 
d="M472.5 665.5q61.5 -49.5 61.5 -156.5t-61.5 -156.5t-195.5 -49.5t-195.5 49.5t-61.5 156.5t61.5 156.5t195.5 49.5t195.5 -49.5zM919 701l-468 -701h-144l468 701h144zM325.5 444.5q16.5 18.5 16.5 64.5t-16.5 64.5t-48.5 18.5t-48.5 -19t-16.5 -64t16.5 -64t48.5 -19
t48.5 18.5zM1143.5 348.5q61.5 -49.5 61.5 -156.5t-61.5 -156.5t-195.5 -49.5t-195.5 49.5t-61.5 156.5t61.5 156.5t195.5 49.5t195.5 -49.5zM996.5 128q16.5 19 16.5 64t-16.5 64t-48.5 19t-48.5 -19t-16.5 -64t16.5 -64t48.5 -19t48.5 19z" />
    <glyph glyph-name="ampersand" unicode="&#x26;" horiz-adv-x="1201" 
d="M825 0l-54 37q-71 -26 -148.5 -39.5t-152.5 -13.5q-149 0 -247 19t-151 66t-53 129t44 129t133 70l39 10q-43 32 -61.5 63.5t-18.5 81.5q0 67 43.5 106t127.5 55.5t214 16.5q132 0 217 -16.5t129 -55.5t44 -106q0 -57 -36.5 -94t-109.5 -60l-106 -35l110 -74q25 42 28 84
h282q-4 -119 -115 -217l231 -156h-389zM466.5 512q13.5 -14 45.5 -36l52 13q67 16 67 51q0 21 -21.5 34t-69.5 13q-87 0 -87 -48q0 -13 13.5 -27zM603 153l-183 126q-39 -15 -57.5 -32t-18.5 -40q0 -32 37.5 -50t118.5 -18q53 0 103 14z" />
    <glyph glyph-name="quotesingle" unicode="'" horiz-adv-x="250" 
d="M27 354v360h196v-360h-196z" />
    <glyph glyph-name="parenleft" unicode="(" horiz-adv-x="488" 
d="M334 67.5q32 -95.5 72.5 -154.5t71.5 -85h-249q-46 34 -90 80.5t-85.5 142.5t-41.5 233q0 194 71.5 299t145.5 157h249q-31 -26 -71.5 -85t-72.5 -154.5t-32 -216.5t32 -216.5z" />
    <glyph glyph-name="parenright" unicode=")" horiz-adv-x="488" 
d="M154 67.5q-32 -95.5 -72.5 -154.5t-71.5 -85h249q46 34 90 80.5t85.5 142.5t41.5 233q0 194 -71.5 299t-145.5 157h-249q31 -26 71.5 -85t72.5 -154.5t32 -216.5t-32 -216.5z" />
    <glyph glyph-name="asterisk" unicode="*" horiz-adv-x="594" 
d="M431 455l144 -86l-90 -129l-105 84l1 -124h-168l2 124l-106 -84l-90 129l145 86l-145 90l90 124l106 -77l-2 122h168l-1 -122l105 77l90 -124z" />
    <glyph glyph-name="plus" unicode="+" horiz-adv-x="622" 
d="M580 249h-185v-190h-169v190h-185v157h185v190h169v-190h185v-157z" />
    <glyph glyph-name="comma" unicode="," horiz-adv-x="401" 
d="M368 77q0 -111 -33 -177t-106 -96.5t-197 -30.5v101q136 0 136 126h-136v268h336v-191z" />
    <glyph glyph-name="hyphen" unicode="-" horiz-adv-x="524" 
d="M32 178v208h459v-208h-459z" />
    <glyph glyph-name="period" unicode="." horiz-adv-x="401" 
d="M32 268h336v-268h-336v268z" />
    <glyph glyph-name="slash" unicode="/" horiz-adv-x="595" 
d="M583 714l-361 -714h-210l361 714h210z" />
    <glyph glyph-name="zero" unicode="0" horiz-adv-x="1091" 
d="M943 637.5q128 -91.5 128 -286.5q0 -194 -128 -286t-398 -92q-269 0 -397 92t-128 286q0 195 128 286.5t397 91.5q270 0 398 -91.5zM680.5 235.5q46.5 40.5 46.5 115.5t-46.5 115.5t-135.5 40.5q-88 0 -134.5 -40.5t-46.5 -115.5t46.5 -115.5t134.5 -40.5
q89 0 135.5 40.5z" />
    <glyph glyph-name="one" unicode="1" horiz-adv-x="640" 
d="M607 0h-327v362h-270v199h64q114 0 174.5 36.5t84.5 104.5h274v-702z" />
    <glyph glyph-name="two" unicode="2" horiz-adv-x="1049" 
d="M399.5 207.5q-22.5 -11.5 -31.5 -23.5h652v-184h-1005v28q0 116 50.5 186.5t134 108.5t212.5 69l150 36q61 14 83.5 28.5t22.5 39.5q0 52 -117 52q-133 0 -153 -83h-365q8 92 60.5 150t160 86t282.5 28q173 0 279.5 -20t159 -67.5t52.5 -130.5q0 -77 -34.5 -124
t-100 -73.5t-172.5 -44.5l-261 -44q-37 -6 -59.5 -17.5z" />
    <glyph glyph-name="three" unicode="3" horiz-adv-x="1061" 
d="M1003 314q40 -37 40 -115q0 -83 -47 -131.5t-159.5 -71.5t-312.5 -23t-309.5 26t-155 81t-50.5 151h362q8 -39 44.5 -56.5t109.5 -17.5q80 0 117.5 14t37.5 47t-30 47t-96 14h-148v154h152q59 0 87.5 13.5t28.5 42.5q0 31 -36.5 44.5t-112.5 13.5q-67 0 -101.5 -16.5
t-44.5 -50.5h-339q4 91 51 144.5t151 79t282 25.5t285 -20.5t157 -66t50 -121.5q0 -65 -35 -102t-90 -48v-8q72 -12 112 -49z" />
    <glyph glyph-name="four" unicode="4" horiz-adv-x="1024" 
d="M13 99v219l441 383h434v-420h122v-182h-122v-99h-323v99h-552zM565 493h-6l-235 -204v-8h241v212z" />
    <glyph glyph-name="five" unicode="5" horiz-adv-x="1043" 
d="M974 531h-619l-6 -91h8q94 41 254 41q149 0 240 -26t133 -81t42 -145q0 -92 -46.5 -147t-157 -82t-303.5 -27q-191 0 -298.5 26t-153 78.5t-49.5 139.5h357q12 -31 44.5 -46t99.5 -15q78 0 113.5 18t35.5 59q0 42 -35.5 60t-112.5 18q-86 0 -141 -23h-341l31 413h905
v-170z" />
    <glyph glyph-name="six" unicode="6" horiz-adv-x="1068" 
d="M860 433.5q98 -22.5 143.5 -72t45.5 -132.5q0 -86 -48.5 -142t-158 -85t-290.5 -29q-196 0 -311 35t-168 116.5t-53 224.5q0 135 53 218t167 122.5t302 39.5q483 0 505 -236h-359q-8 27 -45 41.5t-101 14.5q-87 0 -134 -29.5t-53 -102.5h8q42 20 104.5 29.5t131.5 9.5
q163 0 261 -22.5zM409 277q-39 -16 -39 -54t39.5 -55t124.5 -17q84 0 121 16.5t37 55.5q0 38 -36.5 54t-121.5 16q-86 0 -125 -16z" />
    <glyph glyph-name="seven" unicode="7" horiz-adv-x="1004" 
d="M990 702v-111q0 -65 -24 -110.5t-75 -93.5q-11 -13 -71 -75q-58 -58 -92.5 -99.5t-61 -95.5t-31.5 -117h-436q10 139 126 259.5t296 219.5v8l-611 -1v216h980z" />
    <glyph glyph-name="eight" unicode="8" horiz-adv-x="1081" 
d="M835 708q109 -21 158.5 -66t49.5 -121q0 -116 -135 -148v-8q73 -13 112.5 -51.5t39.5 -118.5q0 -81 -47 -128.5t-159.5 -70.5t-313.5 -23t-313.5 23t-159.5 70.5t-47 128.5q0 80 39.5 118.5t112.5 51.5v8q-135 32 -135 148q0 76 49 121t158.5 66t295.5 21t295 -21z
M438.5 535.5q-33.5 -13.5 -33.5 -46.5t33.5 -46.5t101.5 -13.5t101.5 13.5t33.5 46.5t-33.5 46.5t-101.5 13.5t-101.5 -13.5zM646 171q35 14 35 48t-35 48t-106 14t-106.5 -14t-35.5 -48t35.5 -48t106.5 -14t106 14z" />
    <glyph glyph-name="nine" unicode="9" horiz-adv-x="1068" 
d="M208 267.5q-98 22.5 -143.5 72t-45.5 132.5q0 86 48.5 142.5t158 85.5t290.5 29q196 0 311 -35t168 -117t53 -225q0 -134 -53 -217t-167 -122.5t-302 -39.5q-482 0 -506 236h360q8 -27 45 -42t101 -15q87 0 134 29.5t52 102.5h-8q-42 -20 -105 -29.5t-130 -9.5
q-163 0 -261 22.5zM659 424.5q39 15.5 39 53.5t-39.5 55t-125.5 17q-84 0 -120.5 -16.5t-36.5 -55.5q0 -38 36.5 -53.5t120.5 -15.5q87 0 126 15.5z" />
    <glyph glyph-name="colon" unicode=":" horiz-adv-x="368" 
d="M32 542h303v-232h-303v232zM32 232h303v-232h-303v232z" />
    <glyph glyph-name="semicolon" unicode=";" horiz-adv-x="368" 
d="M32 542h303v-232h-303v232zM335 77q0 -107 -31.5 -171.5t-97.5 -93.5t-174 -29v91q58 0 85 34.5t27 91.5h-112v232h303v-155z" />
    <glyph glyph-name="less" unicode="&#x3c;" horiz-adv-x="623" 
d="M42 260l540 -211v161l-293 111v6l293 110v161l-540 -212v-126z" />
    <glyph glyph-name="equal" unicode="=" horiz-adv-x="621" 
d="M580 362h-539v155h539v-155zM580 134h-539v155h539v-155z" />
    <glyph glyph-name="greater" unicode="&#x3e;" horiz-adv-x="623" 
d="M581 260l-540 -211v161l293 111v6l-293 110v161l540 -212v-126z" />
    <glyph glyph-name="question" unicode="?" horiz-adv-x="985" 
d="M20 474q5 104 61 159.5t156 76t260 20.5q164 0 265 -17.5t152 -61t51 -121.5q0 -68 -34 -104.5t-112 -64.5l-84 -30q-46 -17 -63 -32t-20 -31l-2 -9h-320v15q0 58 34 92.5t120 64.5l70 25q36 15 50.5 25t14.5 26q0 46 -108 46q-64 0 -100.5 -19t-46.5 -60h-344zM326 210
h328v-210h-328v210z" />
    <glyph glyph-name="at" unicode="@" horiz-adv-x="1054" 
d="M762 484l-56 -283q-1 -4 -1 -11q0 -25 28 -25q154 0 154 194q0 85 -44.5 148t-124 96.5t-181.5 33.5q-103 0 -187.5 -50.5t-133 -139t-48.5 -196.5q0 -97 39 -172t117 -117.5t192 -42.5q74 0 135 17.5t122 57.5h152q-32 -55 -94 -98.5t-145 -68t-174 -24.5
q-153 0 -264.5 59t-170 162t-58.5 232q0 141 69.5 254.5t189 178.5t263.5 65q136 0 249 -48.5t178.5 -131.5t65.5 -182q0 -122 -49.5 -196.5t-121.5 -105t-148 -30.5q-62 0 -95 13t-38 46h-6q-30 -36 -65.5 -47.5t-79.5 -11.5q-78 0 -121.5 45.5t-43.5 126.5q0 58 19.5 111
t57.5 92q28 29 61.5 44t77.5 15t74 -15t40 -45h6l10 50h150zM453 348q-16 -21 -25 -54.5t-9 -61.5q0 -64 60 -64q40 0 66 37q16 20 25.5 54t9.5 61q0 33 -15.5 49t-43.5 16q-40 0 -68 -37z" />
    <glyph glyph-name="A" unicode="A" horiz-adv-x="1160" 
d="M776 83h-392l-40 -83h-357l371 714h447l368 -714h-356zM684 270l-101 204h-6l-100 -204h207z" />
    <glyph glyph-name="B" unicode="B" horiz-adv-x="1084" 
d="M1028.5 330q36.5 -40 36.5 -119q0 -105 -61.5 -158t-204.5 -53h-767v714h759q130 0 188.5 -47t58.5 -136q0 -57 -28 -92.5t-82 -47.5v-8q64 -13 100.5 -53zM688 484q0 53 -63 53h-265v-106h265q63 0 63 53zM706 228q0 58 -69 58h-277v-116h277q69 0 69 58z" />
    <glyph glyph-name="C" unicode="C" horiz-adv-x="1157" 
d="M699 484.5q-44 29.5 -123 29.5q-95 0 -146.5 -40.5t-51.5 -116.5t51.5 -116.5t146.5 -40.5q81 0 124.5 31.5t49.5 82.5h388q-4 -174 -140 -258t-418 -84q-286 0 -423.5 94t-137.5 291t137.5 291t423.5 94q281 0 417 -81.5t139 -245.5h-387q-6 40 -50 69.5z" />
    <glyph glyph-name="D" unicode="D" horiz-adv-x="1092" 
d="M893.5 678.5q89.5 -35.5 134.5 -114t45 -207.5t-45 -207.5t-134.5 -114t-228.5 -35.5h-633v714h633q139 0 228.5 -35.5zM360 492v-270h201q73 0 113 33t40 102t-40 102t-113 33h-201z" />
    <glyph glyph-name="E" unicode="E" horiz-adv-x="966" 
d="M360 449h546v-164h-546v-93h582v-192h-910v714h902v-181h-574v-84z" />
    <glyph glyph-name="F" unicode="F" horiz-adv-x="959" 
d="M360 494v-103h551v-197h-551v-194h-328v714h909v-220h-581z" />
    <glyph glyph-name="G" unicode="G" horiz-adv-x="1168" 
d="M1141 -1h-213v80q-53 -54 -144.5 -80.5t-195.5 -26.5q-292 0 -430.5 94t-138.5 292q0 197 139 290.5t429 93.5q281 0 414 -76t138 -221h-387q-4 14 -22.5 30t-54.5 27.5t-89 11.5q-102 0 -155 -41t-53 -119q0 -81 54.5 -123t163.5 -42q57 0 99 10.5t65 24t26 20.5h-168
v148h523v-393z" />
    <glyph glyph-name="H" unicode="H" horiz-adv-x="1094" 
d="M1062 714v-714h-328v251h-374v-251h-328v714h328v-244h374v244h328z" />
    <glyph glyph-name="I" unicode="I" horiz-adv-x="392" 
d="M32 0v714h328v-714h-328z" />
    <glyph glyph-name="J" unicode="J" horiz-adv-x="1046" 
d="M1014 329q0 -134 -56 -212.5t-165 -111.5t-280 -33q-170 0 -278 33t-163.5 111t-55.5 213v57h328v-45q0 -131 169 -131q173 0 173 131v373h328v-385z" />
    <glyph glyph-name="K" unicode="K" horiz-adv-x="1108" 
d="M1120 0h-417l-217 264l-126 -98v-166h-328v714h328v-248l307 248h413l-346 -263z" />
    <glyph glyph-name="L" unicode="L" horiz-adv-x="963" 
d="M32 0v714h328v-475h585v-239h-913z" />
    <glyph glyph-name="M" unicode="M" horiz-adv-x="1314" 
d="M1282 0h-328v443h-8l-181 -443h-233l-183 446h-9v-446h-308v714h485l128 -339h8l126 339h503v-714z" />
    <glyph glyph-name="N" unicode="N" horiz-adv-x="1095" 
d="M1063 714v-714h-385l-329 372h-8v-372h-309v714h389l325 -367h8v367h309z" />
    <glyph glyph-name="O" unicode="O" horiz-adv-x="1176" 
d="M1018 648.5q139 -93.5 139 -291.5t-139 -291.5t-430 -93.5t-430 93.5t-139 291.5t139 291.5t430 93.5t430 -93.5zM744.5 240.5q53.5 40.5 53.5 116.5t-53.5 116.5t-156.5 40.5t-156.5 -40.5t-53.5 -116.5t53.5 -116.5t156.5 -40.5t156.5 40.5z" />
    <glyph glyph-name="P" unicode="P" horiz-adv-x="1058" 
d="M914.5 685q69.5 -29 100.5 -87t31 -150q0 -90 -31 -147.5t-100.5 -86t-186.5 -28.5h-368v-186h-328v714h696q117 0 186.5 -29zM667 394.5q20 16.5 20 49.5q0 66 -79 66h-248v-132h248q39 0 59 16.5z" />
    <glyph glyph-name="Q" unicode="Q" horiz-adv-x="1176" 
d="M1094 137q-63 -86 -192 -126l42 -70l-142 -57l-58 95q-67 -7 -156 -7q-291 0 -430 93.5t-139 291.5t139 291.5t430 93.5t430 -93.5t139 -291.5q0 -134 -63 -220zM755 249q43 39 43 108q0 76 -53.5 116.5t-156.5 40.5t-156.5 -40.5t-53.5 -116.5t53.5 -116.5t156.5 -40.5
h19l-48 78l142 58z" />
    <glyph glyph-name="R" unicode="R" horiz-adv-x="1084" 
d="M1086 0h-379l-116 182h-231v-182h-328v714h730q165 0 235.5 -61.5t70.5 -187.5q0 -92 -40 -140t-113 -66v-10zM702 430q0 59 -70 59h-272v-118h272q70 0 70 59z" />
    <glyph glyph-name="S" unicode="S" horiz-adv-x="1109" 
d="M538 565q-76 0 -107.5 -13t-31.5 -38q0 -20 20 -29.5t72 -13.5l308 -23q147 -11 219.5 -62t72.5 -159q0 -104 -57 -159t-172 -75.5t-313 -20.5q-192 0 -306 22t-172 79t-62 162h382q12 -47 50.5 -66t114.5 -19q80 0 115 14t35 42q0 24 -21 34t-72 15l-293 26
q-146 13 -220 61.5t-74 158.5q0 92 58.5 145t171 74.5t288.5 21.5q174 0 285.5 -21.5t170.5 -75.5t63 -148h-376q-16 68 -149 68z" />
    <glyph glyph-name="T" unicode="T" horiz-adv-x="1032" 
d="M1017 467h-337v-467h-328v467h-336v247h1001v-247z" />
    <glyph glyph-name="U" unicode="U" horiz-adv-x="1088" 
d="M1056 714v-387q0 -132 -57.5 -210t-169.5 -111.5t-285 -33.5q-174 0 -286 33.5t-169 111.5t-57 210v387h328v-372q0 -67 47.5 -99.5t136.5 -32.5q88 0 136 32.5t48 99.5v372h328z" />
    <glyph glyph-name="V" unicode="V" horiz-adv-x="1085" 
d="M536 328h8l171 386h384l-365 -714h-384l-365 714h382z" />
    <glyph glyph-name="W" unicode="W" horiz-adv-x="1382" 
d="M793 0l-98 388h-8l-97 -388h-395l-210 714h341l94 -394h8l95 394h335l96 -394h8l95 394h340l-216 -714h-388z" />
    <glyph glyph-name="X" unicode="X" horiz-adv-x="1127" 
d="M1142 0h-421l-157 181l-158 -181h-421l352 375l-312 339h406l134 -160l134 160h404l-313 -339z" />
    <glyph glyph-name="Y" unicode="Y" horiz-adv-x="1080" 
d="M705 201v-201h-329v201l-394 513h395l164 -242l162 242h395z" />
    <glyph glyph-name="Z" unicode="Z" horiz-adv-x="1001" 
d="M550 217h429v-217h-961v209l429 288h-406v217h938v-209z" />
    <glyph glyph-name="bracketleft" unicode="[" horiz-adv-x="497" 
d="M318 12h159v-184h-445v912h445v-183h-159v-545z" />
    <glyph glyph-name="backslash" unicode="\" horiz-adv-x="593" 
d="M582 0h-210l-361 714h210z" />
    <glyph glyph-name="bracketright" unicode="]" horiz-adv-x="498" 
d="M179 12h-159v-184h445v912h-445v-183h159v-545z" />
    <glyph glyph-name="asciicircum" unicode="^" horiz-adv-x="708" 
d="M688 353h-215l-116 183h-6l-117 -183h-214l226 346h217z" />
    <glyph glyph-name="underscore" unicode="_" horiz-adv-x="893" 
d="M895 -165h-897v60h897v-60z" />
    <glyph glyph-name="grave" unicode="`" horiz-adv-x="547" 
d="M418 764l97 -165h-264l-219 165h386z" />
    <glyph glyph-name="a" unicode="a" horiz-adv-x="971" 
d="M952.5 37.5q1.5 -17.5 8.5 -31.5v-6h-318q-10 14 -10 54v18q-41 -45 -121 -71t-192 -26q-134 0 -218.5 42.5t-84.5 139.5q0 92 55.5 132t167.5 47l316 21q32 2 46.5 9t14.5 24q0 19 -25 27.5t-77 8.5q-47 0 -77 -11.5t-42 -37.5h-342q4 77 57 118.5t149 57t249 15.5
q157 0 250.5 -13.5t142.5 -52t49 -112.5v-304q0 -31 1.5 -48.5zM628 248q-15 -9 -51 -13l-155 -20q-38 -5 -54.5 -17t-16.5 -35q0 -24 21 -34t65 -10q82 0 136.5 28.5t54.5 86.5v14z" />
    <glyph glyph-name="b" unicode="b" horiz-adv-x="999" 
d="M466.5 538q60.5 19 142.5 19q186 0 279.5 -73t93.5 -218t-93.5 -218t-279.5 -73q-83 0 -145.5 20t-112.5 59h-6v-54h-318v724h324v-241h6q49 36 109.5 55zM612.5 191q35.5 25 35.5 75t-35.5 75t-115.5 25q-156 0 -156 -100t156 -100q80 0 115.5 25z" />
    <glyph glyph-name="c" unicode="c" horiz-adv-x="1007" 
d="M632 231h358q-5 -84 -51.5 -140t-153 -86t-286.5 -30q-258 0 -370 74t-112 222t112 222.5t370 74.5q179 0 284.5 -30.5t152 -85.5t53.5 -136h-356q-24 60 -134 60q-78 0 -112.5 -26.5t-34.5 -78.5q0 -50 35 -76.5t112 -26.5q113 0 133 63z" />
    <glyph glyph-name="d" unicode="d" horiz-adv-x="999" 
d="M648 483v241h324v-724h-318v54h-6q-50 -40 -112 -59.5t-146 -19.5q-186 0 -279.5 73t-93.5 218t93.5 218t279.5 73q83 0 143 -19t109 -55h6zM658 266q0 100 -156 100q-80 0 -115 -25t-35 -75t35 -75t115 -25q156 0 156 100z" />
    <glyph glyph-name="e" unicode="e" horiz-adv-x="1009" 
d="M989 209h-636q6 -44 42 -66t111 -22q112 0 134 45h344q-5 -57 -44.5 -98.5t-143 -67t-290.5 -25.5q-178 0 -286 34t-155.5 99t-47.5 163t47.5 163t155.5 99.5t285 34.5q258 0 372.5 -75t114.5 -222q0 -38 -3 -62zM402 403.5q-36 -18.5 -46 -55.5h297q-10 37 -45.5 55.5
t-102.5 18.5t-103 -18.5z" />
    <glyph glyph-name="f" unicode="f" horiz-adv-x="625" 
d="M457.5 593q-21.5 -10 -21.5 -36q0 -3 2 -15h165v-158h-165v-384h-324v384h-104v158h104v35q0 72 38.5 111.5t109 54t179.5 14.5q71 0 170 -12v-145q-51 3 -76 3q-56 0 -77.5 -10z" />
    <glyph glyph-name="g" unicode="g" horiz-adv-x="996" 
d="M968 542v-498q0 -96 -31 -144.5t-130 -71.5t-307 -23q-198 0 -299 23t-135.5 64.5t-40.5 112.5h353q11 -25 38 -39t84 -14q58 0 89.5 9t43.5 28.5t12 54.5v68h-7q-92 -68 -250 -68q-186 0 -278.5 63t-92.5 193q0 132 92.5 194.5t278.5 62.5q83 0 145.5 -18t110.5 -54h7
v57h317zM617.5 238q37.5 22 37.5 62t-37.5 62t-117.5 22q-79 0 -113.5 -21t-34.5 -63t34.5 -63t113.5 -21q80 0 117.5 22z" />
    <glyph glyph-name="h" unicode="h" horiz-adv-x="953" 
d="M851 504q75 -53 75 -161v-343h-324v231q0 53 -28.5 76t-85.5 23q-60 0 -99 -27t-39 -94v-209h-323v724h323v-251h6q102 84 281 84q139 0 214 -53z" />
    <glyph glyph-name="i" unicode="i" 
d="M27 542h324v-542h-324v542zM25 728h328v-129h-328v129z" />
    <glyph glyph-name="j" unicode="j" 
d="M15 34q12 7 12 27v481h324v-537q0 -91 -26 -132.5t-93 -55.5t-209 -14q-71 0 -100 2v223l53 -1q27 0 39 7zM25 728h328v-129h-328v129z" />
    <glyph glyph-name="k" unicode="k" horiz-adv-x="957" 
d="M968 0h-398l-149 163l-71 -53v-110h-323v724h323v-350l211 168h378l-286 -212z" />
    <glyph glyph-name="l" unicode="l" 
d="M27 724h324v-724h-324v724z" />
    <glyph glyph-name="m" unicode="m" horiz-adv-x="1423" 
d="M345 471h6q43 41 110 63.5t153 22.5q85 0 143 -20.5t88 -66.5q98 87 280 87q130 0 200.5 -53t70.5 -161v-343h-323v249q0 42 -23 61.5t-68 19.5q-47 0 -78 -23t-31 -78v-229h-323v249q0 42 -23 61.5t-68 19.5q-47 0 -78 -23t-31 -78v-229h-323v542h318v-71z" />
    <glyph glyph-name="n" unicode="n" horiz-adv-x="954" 
d="M345 472h6q53 41 122.5 63t164.5 22q139 0 214 -53t75 -162v-342h-324v231q0 52 -29 75.5t-85 23.5q-60 0 -99 -27.5t-39 -94.5v-208h-324v542h318v-70z" />
    <glyph glyph-name="o" unicode="o" horiz-adv-x="997" 
d="M868.5 493.5q111.5 -74.5 111.5 -222.5t-112 -222t-369 -74q-258 0 -370 74t-112 222t112 222.5t370 74.5t369.5 -74.5zM646 271q0 51 -35 77.5t-112 26.5t-112 -26.5t-35 -77.5q0 -50 35 -76.5t112 -26.5q147 0 147 103z" />
    <glyph glyph-name="p" unicode="p" horiz-adv-x="999" 
d="M351 49v-229h-324v722h318v-64h6q50 39 112.5 59t145.5 20q186 0 279.5 -73t93.5 -218t-93.5 -218t-279.5 -73q-82 0 -142.5 19t-109.5 55h-6zM341 266q0 -100 156 -100q80 0 115.5 25t35.5 75t-35.5 75t-115.5 25q-156 0 -156 -100z" />
    <glyph glyph-name="q" unicode="q" horiz-adv-x="999" 
d="M533 -6q-60 -19 -143 -19q-186 0 -279.5 73t-93.5 218t93.5 218t279.5 73q84 0 146 -19.5t112 -59.5h6v64h318v-722h-324v229h-6q-49 -36 -109 -55zM387 341q-35 -25 -35 -75t35 -75t115 -25q156 0 156 100t-156 100q-80 0 -115 -25z" />
    <glyph glyph-name="r" unicode="r" horiz-adv-x="753" 
d="M345 542v-81h6q57 50 128 73t184 23q40 0 76 -4v-286q-57 11 -132 11q-112 0 -184.5 -33.5t-72.5 -129.5v-115h-323v542h318z" />
    <glyph glyph-name="s" unicode="s" horiz-adv-x="999" 
d="M560 420.5q-31 11.5 -85 11.5q-65 0 -89.5 -8t-24.5 -26q0 -15 16 -21t63 -10l308 -23q82 -6 132.5 -23t76.5 -54t26 -102q0 -81 -51.5 -121.5t-153 -54.5t-280.5 -14q-171 0 -272 14t-157.5 55.5t-60.5 124.5h369q11 -32 39 -45t86 -13q74 0 100.5 10t26.5 30
q0 16 -15 22.5t-58 10.5l-283 26q-85 8 -138.5 24.5t-82 52t-28.5 95.5q0 78 52.5 118t147.5 54t250 14q162 0 264 -14t160 -54t62 -116h-360q-9 25 -40 36.5z" />
    <glyph glyph-name="t" unicode="t" horiz-adv-x="619" 
d="M595 223v-223q-27 -3 -80 -6t-103 -3q-121 0 -187 19.5t-93 63t-27 122.5v188h-104v158h104v144h324v-144h167v-158h-167v-124q0 -24 14 -32t53 -8q60 0 99 3z" />
    <glyph glyph-name="u" unicode="u" horiz-adv-x="953" 
d="M607 70h-6q-54 -41 -123 -63t-163 -22q-139 0 -213.5 53t-74.5 162v342h323v-231q0 -52 29 -75.5t85 -23.5q60 0 99 27.5t39 94.5v208h324v-542h-319v70z" />
    <glyph glyph-name="v" unicode="v" horiz-adv-x="975" 
d="M984 542l-320 -542h-352l-321 542h366l129 -256h6l126 256h366z" />
    <glyph glyph-name="w" unicode="w" horiz-adv-x="1392" 
d="M1147 0h-343l-99 270h-6l-98 -270h-356l-251 542h353l98 -262h6l96 262h301l101 -259h6l93 259h349z" />
    <glyph glyph-name="x" unicode="x" horiz-adv-x="1008" 
d="M1017 0h-402l-111 128l-110 -128h-403l291 282l-258 260h379l101 -118l101 118h380l-259 -260z" />
    <glyph glyph-name="y" unicode="y" horiz-adv-x="975" 
d="M685 33q-57 -95 -106.5 -142.5t-114 -66.5t-170.5 -19h-224v222h116q40 0 57.5 5.5t26.5 19.5l8 15l-287 475h366l129 -256h6l126 256h366z" />
    <glyph glyph-name="z" unicode="z" horiz-adv-x="906" 
d="M18 0v171l340 197h-318v174h840v-166l-342 -198h342v-178h-862z" />
    <glyph glyph-name="braceleft" unicode="{" horiz-adv-x="545" 
d="M375.5 332.5q-26.5 -34.5 -74.5 -45.5v-6q47 -10 74 -44.5t27 -92.5v-71q0 -31 12.5 -46t55.5 -15h55v-184h-208q-104 0 -152.5 36t-48.5 95v151q0 36 -11.5 52.5t-31 21t-54.5 4.5v193q35 0 54.5 4.5t31 21t11.5 52.5v150q0 59 48.5 95t152.5 36h208v-183h-55
q-43 0 -55.5 -15t-12.5 -46v-71q0 -58 -26.5 -92.5z" />
    <glyph glyph-name="bar" unicode="|" horiz-adv-x="376" 
d="M345 -226h-313v1023h313v-1023z" />
    <glyph glyph-name="braceright" unicode="}" horiz-adv-x="545" 
d="M169.5 332.5q26.5 -34.5 74.5 -45.5v-6q-47 -10 -74 -44.5t-27 -92.5v-71q0 -31 -12.5 -46t-55.5 -15h-55v-184h208q104 0 152.5 36t48.5 95v151q0 36 11.5 52.5t31 21t54.5 4.5v193q-35 0 -54.5 4.5t-31 21t-11.5 52.5v150q0 59 -48.5 95t-152.5 36h-208v-183h55
q43 0 55.5 -15t12.5 -46v-71q0 -58 26.5 -92.5z" />
    <glyph glyph-name="asciitilde" unicode="~" horiz-adv-x="621" 
d="M508.5 383q29.5 20 71.5 64v-159q-30 -32 -60 -51t-68 -19q-33 0 -58 8.5t-53 22.5l-71 35q-32 15 -52.5 22.5t-49.5 7.5t-57 -19.5t-70 -62.5v160q35 32 62 49.5t65 17.5q33 0 58 -8.5t56 -23.5l71 -35q4 -2 21.5 -10t38 -13.5t39.5 -5.5q27 0 56.5 20z" />
    <glyph glyph-name="uni00A0" unicode="&#xa0;" horiz-adv-x="125" 
 />
    <glyph glyph-name="exclamdown" unicode="&#xa1;" horiz-adv-x="425" 
d="M375 542v-229h-326v229h326zM393 -45v-127h-360v127l41 305h277z" />
    <glyph glyph-name="cent" unicode="&#xa2;" horiz-adv-x="1007" 
d="M942.5 96.5q-42.5 -54.5 -137.5 -86t-256 -35.5v-108h-102v109q-230 7 -330 81t-100 214q0 141 100 215t330 82v91h102v-91q160 -4 254.5 -35.5t136.5 -85t49 -131.5h-356q-16 45 -84 56v-201q68 12 83 60h358q-5 -80 -47.5 -134.5zM374.5 205q22.5 -25 72.5 -34v201
q-95 -17 -95 -101q0 -41 22.5 -66z" />
    <glyph glyph-name="sterling" unicode="&#xa3;" horiz-adv-x="983" 
d="M713 233q70 0 139.5 15.5t113.5 46.5v-264q-18 -16 -83 -29t-126 -13q-86 0 -158 18t-139 49q-35 -35 -91 -51t-134 -16q-106 0 -162.5 34.5t-56.5 115.5q0 79 48 111t118 32q37 0 74 -14q-9 22 -27 42h-169v77h91q-57 53 -57 115q0 82 48.5 127.5t138 63.5t224.5 18
q143 0 241.5 -20t157.5 -75t63 -155h-337q-5 36 -35 53t-74 17q-90 0 -90 -57q0 -19 12.5 -37t48.5 -50h182v-77h-108q27 -23 27 -48q0 -12 -2 -17q70 -12 122 -12zM252.5 109q14.5 15 14.5 51q-32 17 -56 17q-23 0 -37 -11.5t-14 -31.5q0 -19 14 -29.5t34 -10.5
q30 0 44.5 15z" />
    <glyph glyph-name="currency" unicode="&#xa4;" horiz-adv-x="655" 
d="M571 225l68 -66l-101 -90l-65 63q-68 -39 -146 -39q-77 0 -145 39l-64 -63l-102 90l68 66q-42 65 -42 143t42 143l-67 66l101 90l64 -63q68 39 145 39q78 0 146 -39l65 63l103 -90l-70 -66q42 -65 42 -143t-42 -143zM411.5 280q34.5 33 34.5 88t-34.5 88t-84.5 33
t-83.5 -33t-33.5 -88t33.5 -88t83.5 -33t84.5 33z" />
    <glyph glyph-name="yen" unicode="&#xa5;" horiz-adv-x="1057" 
d="M859 417h114v-99h-190l-37 -49h227v-98h-282v-171h-323v171h-282v98h226l-37 49h-189v99h113l-217 283h387l161 -237l159 237h387z" />
    <glyph glyph-name="brokenbar" unicode="&#xa6;" horiz-adv-x="376" 
d="M345 361h-313v436h313v-436zM345 -226h-313v436h313v-436z" />
    <glyph glyph-name="section" unicode="&#xa7;" horiz-adv-x="993" 
d="M874 108q32 -41 32 -100q0 -96 -50 -145.5t-139 -66t-231 -16.5q-138 0 -222 18t-131 69t-50 150h286q3 -44 36 -61t96 -17q100 0 100 43q0 18 -14.5 25.5t-36.5 10.5l-324 58q-84 15 -131 39t-66.5 61t-19.5 94q0 112 123 158q-9 15 -15 38t-6 46q0 89 47.5 137
t128.5 64.5t201 16.5q117 0 198 -17.5t130 -65t53 -133.5h-289q-8 64 -102 64q-38 0 -55.5 -10.5t-17.5 -27.5q0 -13 8.5 -18.5t24.5 -8.5l310 -51q86 -14 135 -37t70.5 -60.5t21.5 -96.5q0 -113 -101 -160zM653 205l49 -10q8 16 8 28q0 25 -17.5 35t-61.5 18l-310 54
q-9 2 -21.5 4.5t-28.5 4.5q-8 -14 -8 -27q0 -26 18.5 -36t61.5 -18z" />
    <glyph glyph-name="dieresis" unicode="&#xa8;" horiz-adv-x="695" 
d="M32 728h281v-129h-281v129zM382 728h281v-129h-281v129z" />
    <glyph glyph-name="copyright" unicode="&#xa9;" horiz-adv-x="743" 
d="M195.5 72.5q-81.5 47.5 -129 128.5t-47.5 176q0 96 47.5 176.5t128.5 128t177 47.5q95 0 176 -47.5t128.5 -128t47.5 -176.5q0 -95 -47.5 -176t-128.5 -128.5t-176 -47.5t-176.5 47.5zM510.5 137.5q63.5 37.5 100.5 101t37 138.5q0 74 -37 137.5t-100.5 101t-138.5 37.5
t-138.5 -37.5t-101 -101t-37.5 -137.5q0 -75 37.5 -138.5t101 -101t138.5 -37.5t138.5 37.5zM494 239q-43 -38 -121 -38q-80 0 -127 44.5t-47 132.5t47 132t127 44q79 0 120.5 -37t44.5 -93h-107q-1 25 -16.5 35t-41.5 10q-65 0 -65 -91q0 -93 65 -93q27 0 43 11.5t17 43.5
h108q-4 -63 -47 -101z" />
    <glyph glyph-name="ordfeminine" unicode="&#xaa;" horiz-adv-x="574" 
d="M542 407q2 -11 9 -20v-3h-191q-12 14 -12 29v13q-20 -26 -63 -41.5t-99 -15.5q-71 0 -118 24.5t-47 82.5q0 53 32.5 77t91.5 29l156 12q21 2 29.5 5.5t8.5 12.5t-11.5 12.5t-34.5 3.5q-21 0 -34.5 -6t-14.5 -18h-201q3 66 66 90.5t179 24.5q127 0 189.5 -21t62.5 -83
v-180q0 -17 2 -28zM345 528q-6 -4 -29 -9l-64 -12q-16 -3 -23.5 -8.5t-7.5 -16.5t9.5 -16t28.5 -5q39 0 62.5 16t23.5 45v6zM555 128v-128h-535v128h535z" />
    <glyph glyph-name="guillemotleft" unicode="&#xab;" horiz-adv-x="546" 
d="M254 548v-214l-115 -59v-6l115 -59v-214l-226 125v302zM517 548v-214l-115 -59v-6l115 -59v-214l-226 125v302z" />
    <glyph glyph-name="logicalnot" unicode="&#xac;" horiz-adv-x="621" 
d="M579 156h-165v139h-373v156h538v-295z" />
    <glyph glyph-name="registered" unicode="&#xae;" horiz-adv-x="743" 
d="M548 681.5q81 -47.5 128.5 -128t47.5 -176.5q0 -95 -47.5 -176t-128.5 -128.5t-176 -47.5t-176.5 47.5t-129 128.5t-47.5 176q0 96 47.5 176.5t128.5 128t177 47.5q95 0 176 -47.5zM510.5 137.5q63.5 37.5 100.5 101t37 138.5q0 74 -37 137.5t-100.5 101t-138.5 37.5
t-138.5 -37.5t-101 -101t-37.5 -137.5q0 -75 37.5 -138.5t101 -101t138.5 -37.5t138.5 37.5zM514.5 368q-15.5 -26 -45.5 -39l73 -120h-121l-57 106h-41v-106h-105v338h180q62 0 97 -30.5t35 -85.5q0 -37 -15.5 -63zM323 394h55q22 0 33.5 10t11.5 27t-11.5 27t-33.5 10h-55
v-74z" />
    <glyph glyph-name="macron" unicode="&#xaf;" horiz-adv-x="584" 
d="M32 612v129h520v-129h-520z" />
    <glyph glyph-name="degree" unicode="&#xb0;" horiz-adv-x="409" 
d="M109.5 368q-42.5 23 -67 65t-24.5 96t24.5 96t67 65t95.5 23q52 0 94.5 -23t67 -65t24.5 -96t-24.5 -96t-67 -65t-94.5 -23q-53 0 -95.5 23zM257.5 474q19.5 22 19.5 55q0 34 -19.5 56t-52.5 22q-35 0 -54.5 -22t-19.5 -56t19.5 -55.5t54.5 -21.5q33 0 52.5 22z" />
    <glyph glyph-name="plusminus" unicode="&#xb1;" horiz-adv-x="621" 
d="M579 313h-186v-140h-166v140h-186v142h186v140h166v-140h186v-142zM579 128v-128h-538v128h538z" />
    <glyph glyph-name="uni00B2" unicode="&#xb2;" horiz-adv-x="650" 
d="M249 422.5q-13 -6.5 -17 -13.5h391v-111h-608v17q0 70 30.5 112.5t81.5 65t130 40.5l89 21q35 8 48 16.5t13 22.5q0 29 -68 29q-76 0 -89 -47h-224q5 55 36.5 89t96.5 51t171 17q105 0 170 -12t97 -40.5t32 -77.5q0 -46 -21 -74t-60.5 -43.5t-104.5 -26.5l-160 -26
q-21 -3 -34 -9.5z" />
    <glyph glyph-name="uni00B3" unicode="&#xb3;" horiz-adv-x="653" 
d="M610.5 484.5q24.5 -22.5 24.5 -68.5q0 -49 -28 -78t-96.5 -43t-189.5 -14q-122 0 -188 15.5t-93.5 48.5t-30.5 90h223q5 -22 26 -32t64 -10q46 0 67.5 8t21.5 27t-17 27.5t-56 8.5h-88v92h90q35 0 51.5 8t16.5 25q0 18 -21 25.5t-65 7.5q-39 0 -60 -9.5t-26 -29.5h-209
q3 54 31.5 86.5t91 47.5t171.5 15q108 0 172.5 -12t95 -39t30.5 -73q0 -39 -21.5 -61t-54.5 -26v-8q43 -6 67.5 -28.5z" />
    <glyph glyph-name="acute" unicode="&#xb4;" horiz-adv-x="547" 
d="M295 599h-263l96 165h387z" />
    <glyph glyph-name="paragraph" unicode="&#xb6;" horiz-adv-x="797" 
d="M765 -184h-193v749h-77v-749h-193v447h-14q-134 0 -201.5 58t-67.5 167t68 167t203 58h475v-897z" />
    <glyph glyph-name="periodcentered" unicode="&#xb7;" horiz-adv-x="440" 
d="M71.5 199q-51.5 43 -51.5 122q0 78 51.5 121.5t147.5 43.5t148.5 -43.5t52.5 -121.5q0 -79 -52 -122t-149 -43q-96 0 -147.5 43z" />
    <glyph glyph-name="cedilla" unicode="&#xb8;" horiz-adv-x="524" 
d="M256 -52q15 5 60 5q81 0 128.5 -21.5t47.5 -80.5q0 -43 -26.5 -66.5t-84 -33t-158.5 -9.5q-116 0 -191 19v84h8q36 -10 77 -14t96 -4q41 0 58 5.5t17 17.5q0 13 -17 18.5t-58 5.5q-25 0 -59 -2.5t-50 -5.5h-8v50l113 106h126z" />
    <glyph glyph-name="uni00B9" unicode="&#xb9;" horiz-adv-x="406" 
d="M374 298h-202v212h-162v122h39q68 0 104.5 21.5t51.5 61.5h169v-417z" />
    <glyph glyph-name="ordmasculine" unicode="&#xba;" horiz-adv-x="575" 
d="M492.5 674.5q63.5 -44.5 63.5 -129.5q0 -87 -63 -131.5t-206 -44.5q-142 0 -204.5 44.5t-62.5 131.5q0 85 62.5 129.5t204.5 44.5t205.5 -44.5zM354 545q0 54 -67 54t-67 -54q0 -56 67 -56t67 56zM556 128v-128h-536v128h536z" />
    <glyph glyph-name="guillemotright" unicode="&#xbb;" horiz-adv-x="546" 
d="M292 548v-214l115 -59v-6l-115 -59v-214l226 125v302zM29 548v-214l115 -59v-6l-115 -59v-214l226 125v302z" />
    <glyph glyph-name="questiondown" unicode="&#xbf;" horiz-adv-x="985" 
d="M659 332h-328v210h328v-210zM965 68q-5 -104 -60.5 -159.5t-156 -76t-260.5 -20.5q-164 0 -265 17.5t-152 61t-51 121.5q0 69 34.5 105t112.5 64l83 30q45 17 63 32t21 32l2 9h320v-16q0 -58 -34.5 -92.5t-120.5 -64.5l-70 -25q-36 -12 -50.5 -23t-14.5 -28
q0 -46 108 -46q65 0 101 19t46 60h344z" />
    <glyph glyph-name="Agrave" unicode="&#xc0;" horiz-adv-x="1160" 
d="M776 83h-392l-40 -83h-357l371 714h447l368 -714h-356zM684 270l-101 204h-6l-100 -204h207zM617 928l97 -157h-264l-219 157h386z" />
    <glyph glyph-name="Aacute" unicode="&#xc1;" horiz-adv-x="1160" 
d="M776 83h-392l-40 -83h-357l371 714h447l368 -714h-356zM684 270l-101 204h-6l-100 -204h207zM713 771h-263l96 157h387z" />
    <glyph glyph-name="Acircumflex" unicode="&#xc2;" horiz-adv-x="1160" 
d="M776 83h-392l-40 -83h-357l371 714h447l368 -714h-356zM684 270l-101 204h-6l-100 -204h207zM585 843h-6l-53 -72h-293l139 157h421l139 -157h-294z" />
    <glyph glyph-name="Atilde" unicode="&#xc3;" horiz-adv-x="1160" 
d="M776 83h-392l-40 -83h-357l371 714h447l368 -714h-356zM684 270l-101 204h-6l-100 -204h207zM662 766q-31 6 -75 17q-65 18 -93 18q-18 0 -24.5 -7.5t-6.5 -22.5h-189q0 57 22 98t59 62.5t81 21.5q32 0 64.5 -6.5t74.5 -17.5q26 -7 51 -12t43 -5q17 0 23.5 7.5t6.5 22.5
h189q0 -57 -22.5 -98t-60 -62.5t-81.5 -21.5q-31 0 -62 6z" />
    <glyph glyph-name="Adieresis" unicode="&#xc4;" horiz-adv-x="1160" 
d="M776 83h-392l-40 -83h-357l371 714h447l368 -714h-356zM684 270l-101 204h-6l-100 -204h207zM266 909h281v-129h-281v129zM616 909h281v-129h-281v129z" />
    <glyph glyph-name="Aring" unicode="&#xc5;" horiz-adv-x="1160" 
d="M776 83h-392l-40 -83h-357l371 714h447l368 -714h-356zM684 270l-101 204h-6l-100 -204h207zM440.5 779q-54.5 38 -54.5 104t54.5 104t140.5 38q87 0 142 -38.5t55 -103.5t-55 -103.5t-142 -38.5q-86 0 -140.5 38zM619 852.5q15 11.5 15 30.5t-15 30.5t-38 11.5
t-37.5 -11.5t-14.5 -30.5t14.5 -30.5t37.5 -11.5t38 11.5z" />
    <glyph glyph-name="AE" unicode="&#xc6;" horiz-adv-x="1614" 
d="M1590 187v-187h-830v83h-336l-58 -83h-379l521 714h1075v-189h-505v-84h477v-163h-477v-91h512zM760 272v253h-27l-177 -253h204z" />
    <glyph glyph-name="Ccedilla" unicode="&#xc7;" horiz-adv-x="1157" 
d="M1013.5 66q-120.5 -84 -370.5 -93l-27 -25q15 5 60 5q81 0 128.5 -21.5t47.5 -80.5q0 -43 -26.5 -66.5t-84 -33t-158.5 -9.5q-116 0 -191 19v84h8q36 -10 77 -14t96 -4q41 0 58 5.5t17 17.5q0 13 -17 18.5t-58 5.5q-24 0 -58 -2.5t-51 -5.5h-8v50l61 57
q-253 10 -375.5 104t-122.5 280q0 197 137.5 291t423.5 94q281 0 417 -81.5t139 -245.5h-387q-6 40 -50 69.5t-123 29.5q-95 0 -146.5 -40.5t-51.5 -116.5t51.5 -116.5t146.5 -40.5q81 0 124.5 31.5t49.5 82.5h388q-4 -164 -124.5 -248z" />
    <glyph glyph-name="Egrave" unicode="&#xc8;" horiz-adv-x="966" 
d="M360 449h546v-164h-546v-93h582v-192h-910v714h902v-181h-574v-84zM518 928l97 -157h-264l-219 157h386z" />
    <glyph glyph-name="Eacute" unicode="&#xc9;" horiz-adv-x="966" 
d="M360 449h546v-164h-546v-93h582v-192h-910v714h902v-181h-574v-84zM614 771h-263l96 157h387z" />
    <glyph glyph-name="Ecircumflex" unicode="&#xca;" horiz-adv-x="966" 
d="M360 449h546v-164h-546v-93h582v-192h-910v714h902v-181h-574v-84zM486 843h-6l-53 -72h-293l139 157h421l139 -157h-294z" />
    <glyph glyph-name="Edieresis" unicode="&#xcb;" horiz-adv-x="966" 
d="M360 449h546v-164h-546v-93h582v-192h-910v714h902v-181h-574v-84zM167 909h281v-129h-281v129zM517 909h281v-129h-281v129z" />
    <glyph glyph-name="Igrave" unicode="&#xcc;" horiz-adv-x="392" 
d="M32 0v714h328v-714h-328zM231 928l97 -157h-264l-219 157h386z" />
    <glyph glyph-name="Iacute" unicode="&#xcd;" horiz-adv-x="392" 
d="M32 0v714h328v-714h-328zM327 771h-263l96 157h387z" />
    <glyph glyph-name="Icircumflex" unicode="&#xce;" horiz-adv-x="392" 
d="M32 0v714h328v-714h-328zM199 843h-6l-53 -72h-293l139 157h421l139 -157h-294z" />
    <glyph glyph-name="Idieresis" unicode="&#xcf;" horiz-adv-x="392" 
d="M32 0v714h328v-714h-328zM-120 909h281v-129h-281v129zM230 909h281v-129h-281v129z" />
    <glyph glyph-name="Eth" unicode="&#xd0;" horiz-adv-x="1092" 
d="M893.5 678.5q89.5 -35.5 134.5 -114t45 -207.5t-45 -207.5t-134.5 -114t-228.5 -35.5h-633v301h-43v114h43v299h633q139 0 228.5 -35.5zM674 255q40 33 40 102t-40 102t-113 33h-201v-80h175v-109h-175v-81h201q73 0 113 33z" />
    <glyph glyph-name="Ntilde" unicode="&#xd1;" horiz-adv-x="1095" 
d="M1063 714v-714h-385l-329 372h-8v-372h-309v714h389l325 -367h8v367h309zM628 766q-31 6 -75 17q-65 18 -93 18q-18 0 -24.5 -7.5t-6.5 -22.5h-189q0 57 22 98t59 62.5t81 21.5q32 0 64.5 -6.5t74.5 -17.5q26 -7 51 -12t43 -5q17 0 23.5 7.5t6.5 22.5h189
q0 -57 -22.5 -98t-60 -62.5t-81.5 -21.5q-31 0 -62 6z" />
    <glyph glyph-name="Ograve" unicode="&#xd2;" horiz-adv-x="1176" 
d="M1018 648.5q139 -93.5 139 -291.5t-139 -291.5t-430 -93.5t-430 93.5t-139 291.5t139 291.5t430 93.5t430 -93.5zM744.5 240.5q53.5 40.5 53.5 116.5t-53.5 116.5t-156.5 40.5t-156.5 -40.5t-53.5 -116.5t53.5 -116.5t156.5 -40.5t156.5 40.5zM623 929l97 -157h-264
l-219 157h386z" />
    <glyph glyph-name="Oacute" unicode="&#xd3;" horiz-adv-x="1176" 
d="M1018 648.5q139 -93.5 139 -291.5t-139 -291.5t-430 -93.5t-430 93.5t-139 291.5t139 291.5t430 93.5t430 -93.5zM744.5 240.5q53.5 40.5 53.5 116.5t-53.5 116.5t-156.5 40.5t-156.5 -40.5t-53.5 -116.5t53.5 -116.5t156.5 -40.5t156.5 40.5zM719 772h-263l96 157h387z
" />
    <glyph glyph-name="Ocircumflex" unicode="&#xd4;" horiz-adv-x="1176" 
d="M1018 648.5q139 -93.5 139 -291.5t-139 -291.5t-430 -93.5t-430 93.5t-139 291.5t139 291.5t430 93.5t430 -93.5zM744.5 240.5q53.5 40.5 53.5 116.5t-53.5 116.5t-156.5 40.5t-156.5 -40.5t-53.5 -116.5t53.5 -116.5t156.5 -40.5t156.5 40.5zM591 845h-6l-53 -73h-293
l139 157h421l139 -157h-294z" />
    <glyph glyph-name="Otilde" unicode="&#xd5;" horiz-adv-x="1176" 
d="M1018 648.5q139 -93.5 139 -291.5t-139 -291.5t-430 -93.5t-430 93.5t-139 291.5t139 291.5t430 93.5t430 -93.5zM744.5 240.5q53.5 40.5 53.5 116.5t-53.5 116.5t-156.5 40.5t-156.5 -40.5t-53.5 -116.5t53.5 -116.5t156.5 -40.5t156.5 40.5zM671 767q-29 6 -77 18
q-26 7 -51 12t-42 5q-18 0 -24.5 -7.5t-6.5 -22.5h-189q0 57 22 98.5t59 63t81 21.5q31 0 60 -6t79 -18q26 -7 51 -12.5t43 -5.5q17 0 23.5 8t6.5 23h189q0 -57 -22.5 -98.5t-60 -63t-81.5 -21.5q-31 0 -60 6z" />
    <glyph glyph-name="Odieresis" unicode="&#xd6;" horiz-adv-x="1176" 
d="M1018 648.5q139 -93.5 139 -291.5t-139 -291.5t-430 -93.5t-430 93.5t-139 291.5t139 291.5t430 93.5t430 -93.5zM744.5 240.5q53.5 40.5 53.5 116.5t-53.5 116.5t-156.5 40.5t-156.5 -40.5t-53.5 -116.5t53.5 -116.5t156.5 -40.5t156.5 40.5zM272 910h281v-128h-281v128
zM622 910h281v-128h-281v128z" />
    <glyph glyph-name="multiply" unicode="&#xd7;" horiz-adv-x="599" 
d="M406 327l151 -154l-108 -109l-150 154l-150 -154l-108 109l150 154l-150 154l108 110l150 -154l150 154l108 -110z" />
    <glyph glyph-name="Oslash" unicode="&#xd8;" horiz-adv-x="1176" 
d="M1157 357q0 -198 -139 -291.5t-430 -93.5q-229 0 -361 57l-100 -70l-96 65l95 66q-107 94 -107 267q0 198 139 291.5t430 93.5q230 0 362 -57l100 69l96 -65l-95 -65q106 -94 106 -267zM431.5 474q-53.5 -41 -53.5 -117q0 -46 19 -77l299 219q-46 16 -108 16
q-103 0 -156.5 -41zM744.5 240q53.5 41 53.5 117q0 46 -19 78l-299 -220q48 -16 108 -16q103 0 156.5 41z" />
    <glyph glyph-name="Ugrave" unicode="&#xd9;" horiz-adv-x="1088" 
d="M1056 714v-387q0 -132 -57.5 -210t-169.5 -111.5t-285 -33.5q-174 0 -286 33.5t-169 111.5t-57 210v387h328v-372q0 -67 47.5 -99.5t136.5 -32.5q88 0 136 32.5t48 99.5v372h328zM578 928l97 -157h-264l-219 157h386z" />
    <glyph glyph-name="Uacute" unicode="&#xda;" horiz-adv-x="1088" 
d="M1056 714v-387q0 -132 -57.5 -210t-169.5 -111.5t-285 -33.5q-174 0 -286 33.5t-169 111.5t-57 210v387h328v-372q0 -67 47.5 -99.5t136.5 -32.5q88 0 136 32.5t48 99.5v372h328zM675 771h-263l96 157h387z" />
    <glyph glyph-name="Ucircumflex" unicode="&#xdb;" horiz-adv-x="1088" 
d="M1056 714v-387q0 -132 -57.5 -210t-169.5 -111.5t-285 -33.5q-174 0 -286 33.5t-169 111.5t-57 210v387h328v-372q0 -67 47.5 -99.5t136.5 -32.5q88 0 136 32.5t48 99.5v372h328zM547 843h-6l-53 -72h-293l139 157h421l139 -157h-294z" />
    <glyph glyph-name="Udieresis" unicode="&#xdc;" horiz-adv-x="1088" 
d="M1056 714v-387q0 -132 -57.5 -210t-169.5 -111.5t-285 -33.5q-174 0 -286 33.5t-169 111.5t-57 210v387h328v-372q0 -67 47.5 -99.5t136.5 -32.5q88 0 136 32.5t48 99.5v372h328zM228 909h281v-129h-281v129zM578 909h281v-129h-281v129z" />
    <glyph glyph-name="Yacute" unicode="&#xdd;" horiz-adv-x="1080" 
d="M705 201v-201h-329v201l-394 513h395l164 -242l162 242h395zM672 771h-263l96 157h387z" />
    <glyph glyph-name="Thorn" unicode="&#xde;" horiz-adv-x="1058" 
d="M914.5 601q69.5 -29 100.5 -87t31 -150q0 -90 -31 -147.5t-100.5 -86t-186.5 -28.5h-368v-102h-328v714h328v-84h368q117 0 186.5 -29zM687 360q0 33 -20 49.5t-59 16.5h-248v-132h248q79 0 79 66z" />
    <glyph glyph-name="germandbls" unicode="&#xdf;" horiz-adv-x="1070" 
d="M884 412q82 -13 125.5 -57.5t43.5 -129.5q0 -94 -43 -145.5t-141 -73.5t-272 -22q-53 0 -104.5 5.5t-75.5 12.5v196q7 -1 51 -10t109 -9q74 0 108 15.5t34 51.5q0 25 -16 39t-54 20.5t-108 6.5h-124v131h115q63 0 92 12t29 40q0 27 -31.5 39t-107.5 12q-56 0 -90.5 -9
t-53.5 -34t-19 -72v-431h-324v449q0 118 50 180t153 85.5t284 23.5q170 0 273.5 -18t152 -57.5t48.5 -106.5q0 -61 -26.5 -91t-77.5 -45v-8z" />
    <glyph glyph-name="agrave" unicode="&#xe0;" horiz-adv-x="971" 
d="M952.5 37.5q1.5 -17.5 8.5 -31.5v-6h-318q-10 14 -10 54v18q-41 -45 -121 -71t-192 -26q-134 0 -218.5 42.5t-84.5 139.5q0 92 55.5 132t167.5 47l316 21q32 2 46.5 9t14.5 24q0 19 -25 27.5t-77 8.5q-47 0 -77 -11.5t-42 -37.5h-342q4 77 57 118.5t149 57t249 15.5
q157 0 250.5 -13.5t142.5 -52t49 -112.5v-304q0 -31 1.5 -48.5zM628 248q-15 -9 -51 -13l-155 -20q-38 -5 -54.5 -17t-16.5 -35q0 -24 21 -34t65 -10q82 0 136.5 28.5t54.5 86.5v14zM537 764l97 -160h-264l-219 160h386z" />
    <glyph glyph-name="aacute" unicode="&#xe1;" horiz-adv-x="971" 
d="M952.5 37.5q1.5 -17.5 8.5 -31.5v-6h-318q-10 14 -10 54v18q-41 -45 -121 -71t-192 -26q-134 0 -218.5 42.5t-84.5 139.5q0 92 55.5 132t167.5 47l316 21q32 2 46.5 9t14.5 24q0 19 -25 27.5t-77 8.5q-47 0 -77 -11.5t-42 -37.5h-342q4 77 57 118.5t149 57t249 15.5
q157 0 250.5 -13.5t142.5 -52t49 -112.5v-304q0 -31 1.5 -48.5zM628 248q-15 -9 -51 -13l-155 -20q-38 -5 -54.5 -17t-16.5 -35q0 -24 21 -34t65 -10q82 0 136.5 28.5t54.5 86.5v14zM634 604h-263l96 160h387z" />
    <glyph glyph-name="acircumflex" unicode="&#xe2;" horiz-adv-x="971" 
d="M952.5 37.5q1.5 -17.5 8.5 -31.5v-6h-318q-10 14 -10 54v18q-41 -45 -121 -71t-192 -26q-134 0 -218.5 42.5t-84.5 139.5q0 92 55.5 132t167.5 47l316 21q32 2 46.5 9t14.5 24q0 19 -25 27.5t-77 8.5q-47 0 -77 -11.5t-42 -37.5h-342q4 77 57 118.5t149 57t249 15.5
q157 0 250.5 -13.5t142.5 -52t49 -112.5v-304q0 -31 1.5 -48.5zM628 248q-15 -9 -51 -13l-155 -20q-38 -5 -54.5 -17t-16.5 -35q0 -24 21 -34t65 -10q82 0 136.5 28.5t54.5 86.5v14zM506 672h-6l-53 -68h-293l140 147h418l141 -147h-294z" />
    <glyph glyph-name="atilde" unicode="&#xe3;" horiz-adv-x="971" 
d="M952.5 37.5q1.5 -17.5 8.5 -31.5v-6h-318q-10 14 -10 54v18q-41 -45 -121 -71t-192 -26q-134 0 -218.5 42.5t-84.5 139.5q0 92 55.5 132t167.5 47l316 21q32 2 46.5 9t14.5 24q0 19 -25 27.5t-77 8.5q-47 0 -77 -11.5t-42 -37.5h-342q4 77 57 118.5t149 57t249 15.5
q157 0 250.5 -13.5t142.5 -52t49 -112.5v-304q0 -31 1.5 -48.5zM628 248q-15 -9 -51 -13l-155 -20q-38 -5 -54.5 -17t-16.5 -35q0 -24 21 -34t65 -10q82 0 136.5 28.5t54.5 86.5v14zM583 595q-31 6 -75 17q-65 18 -93 18q-18 0 -24.5 -7.5t-6.5 -22.5h-189q0 57 22 98
t59 62.5t81 21.5q31 0 62.5 -6t76.5 -17q26 -7 51 -12t43 -5q17 0 23.5 7t6.5 22h189q0 -56 -22.5 -97.5t-60.5 -63t-81 -21.5q-31 0 -62 6z" />
    <glyph glyph-name="adieresis" unicode="&#xe4;" horiz-adv-x="971" 
d="M952.5 37.5q1.5 -17.5 8.5 -31.5v-6h-318q-10 14 -10 54v18q-41 -45 -121 -71t-192 -26q-134 0 -218.5 42.5t-84.5 139.5q0 92 55.5 132t167.5 47l316 21q32 2 46.5 9t14.5 24q0 19 -25 27.5t-77 8.5q-47 0 -77 -11.5t-42 -37.5h-342q4 77 57 118.5t149 57t249 15.5
q157 0 250.5 -13.5t142.5 -52t49 -112.5v-304q0 -31 1.5 -48.5zM628 248q-15 -9 -51 -13l-155 -20q-38 -5 -54.5 -17t-16.5 -35q0 -24 21 -34t65 -10q82 0 136.5 28.5t54.5 86.5v14zM187 728h281v-124h-281v124zM537 728h281v-124h-281v124z" />
    <glyph glyph-name="aring" unicode="&#xe5;" horiz-adv-x="971" 
d="M952.5 37.5q1.5 -17.5 8.5 -31.5v-6h-318q-10 14 -10 54v18q-41 -45 -121 -71t-192 -26q-134 0 -218.5 42.5t-84.5 139.5q0 92 55.5 132t167.5 47l316 21q32 2 46.5 9t14.5 24q0 19 -25 27.5t-77 8.5q-47 0 -77 -11.5t-42 -37.5h-342q4 77 57 118.5t149 57t249 15.5
q157 0 250.5 -13.5t142.5 -52t49 -112.5v-304q0 -31 1.5 -48.5zM628 248q-15 -9 -51 -13l-155 -20q-38 -5 -54.5 -17t-16.5 -35q0 -24 21 -34t65 -10q82 0 136.5 28.5t54.5 86.5v14zM361.5 631q-54.5 38 -54.5 104t54 104t141 38t142 -38t55 -104q0 -65 -55 -103.5
t-142 -38.5q-86 0 -140.5 38zM540 704.5q15 11.5 15 30.5t-15 30.5t-38 11.5t-37.5 -11.5t-14.5 -30.5t14.5 -30.5t37.5 -11.5t38 11.5z" />
    <glyph glyph-name="ae" unicode="&#xe6;" horiz-adv-x="1557" 
d="M1536 209h-611q2 -43 35 -65.5t106 -22.5q59 0 86 14t36 31h343q-5 -86 -105 -138.5t-360 -52.5q-236 0 -331 106q-60 -56 -151.5 -81t-211.5 -25q-174 0 -264.5 40.5t-90.5 139.5q0 92 55 132.5t156 47.5l314 20q36 2 50.5 9.5t14.5 24.5q0 37 -94 37q-50 0 -78.5 -12
t-38.5 -37h-342q3 78 56.5 119.5t147 56.5t239.5 15q118 0 194 -13t112 -52q37 35 102.5 50t160.5 15q252 0 363 -75t111 -222q0 -41 -4 -62zM969.5 403.5q-35.5 -18.5 -42.5 -55.5h274q-7 36 -42 55t-93 19q-61 0 -96.5 -18.5zM618 247q-13 -7 -45 -12l-165 -22
q-29 -4 -43 -15.5t-14 -34.5q0 -44 87 -44q75 0 127.5 29.5t52.5 86.5v12z" />
    <glyph glyph-name="ccedilla" unicode="&#xe7;" horiz-adv-x="1007" 
d="M944.5 99q-40.5 -54 -132.5 -86t-246 -37l-30 -28q15 5 61 5q80 0 127.5 -21.5t47.5 -80.5q0 -43 -26.5 -66.5t-83.5 -33t-159 -9.5q-116 0 -191 19v84h8q36 -10 77 -14t96 -4q41 0 58.5 5.5t17.5 17.5q0 13 -17.5 18.5t-58.5 5.5q-24 0 -58 -2.5t-51 -5.5h-8v50l64 60
q-226 8 -324.5 82t-98.5 213q0 148 112 222.5t370 74.5q179 0 284.5 -30.5t152 -85.5t53.5 -136h-356q-24 60 -134 60q-78 0 -112.5 -26.5t-34.5 -78.5q0 -50 35 -76.5t112 -26.5q113 0 133 63h358q-5 -78 -45.5 -132z" />
    <glyph glyph-name="egrave" unicode="&#xe8;" horiz-adv-x="1009" 
d="M989 209h-636q6 -44 42 -66t111 -22q112 0 134 45h344q-5 -57 -44.5 -98.5t-143 -67t-290.5 -25.5q-178 0 -286 34t-155.5 99t-47.5 163t47.5 163t155.5 99.5t285 34.5q258 0 372.5 -75t114.5 -222q0 -38 -3 -62zM402 403.5q-36 -18.5 -46 -55.5h297q-10 37 -45.5 55.5
t-102.5 18.5t-103 -18.5zM540 764l97 -160h-264l-219 160h386z" />
    <glyph glyph-name="eacute" unicode="&#xe9;" horiz-adv-x="1009" 
d="M989 209h-636q6 -44 42 -66t111 -22q112 0 134 45h344q-5 -57 -44.5 -98.5t-143 -67t-290.5 -25.5q-178 0 -286 34t-155.5 99t-47.5 163t47.5 163t155.5 99.5t285 34.5q258 0 372.5 -75t114.5 -222q0 -38 -3 -62zM402 403.5q-36 -18.5 -46 -55.5h297q-10 37 -45.5 55.5
t-102.5 18.5t-103 -18.5zM636 604h-263l96 160h387z" />
    <glyph glyph-name="ecircumflex" unicode="&#xea;" horiz-adv-x="1009" 
d="M989 209h-636q6 -44 42 -66t111 -22q112 0 134 45h344q-5 -57 -44.5 -98.5t-143 -67t-290.5 -25.5q-178 0 -286 34t-155.5 99t-47.5 163t47.5 163t155.5 99.5t285 34.5q258 0 372.5 -75t114.5 -222q0 -38 -3 -62zM402 403.5q-36 -18.5 -46 -55.5h297q-10 37 -45.5 55.5
t-102.5 18.5t-103 -18.5zM508 672h-6l-53 -68h-293l140 147h418l141 -147h-294z" />
    <glyph glyph-name="edieresis" unicode="&#xeb;" horiz-adv-x="1009" 
d="M989 209h-636q6 -44 42 -66t111 -22q112 0 134 45h344q-5 -57 -44.5 -98.5t-143 -67t-290.5 -25.5q-178 0 -286 34t-155.5 99t-47.5 163t47.5 163t155.5 99.5t285 34.5q258 0 372.5 -75t114.5 -222q0 -38 -3 -62zM402 403.5q-36 -18.5 -46 -55.5h297q-10 37 -45.5 55.5
t-102.5 18.5t-103 -18.5zM189 728h281v-124h-281v124zM539 728h281v-124h-281v124z" />
    <glyph glyph-name="igrave" unicode="&#xec;" 
d="M27 542h324v-542h-324v542zM224 764l97 -165h-264l-219 165h386z" />
    <glyph glyph-name="iacute" unicode="&#xed;" 
d="M27 542h324v-542h-324v542zM320 599h-263l96 165h387z" />
    <glyph glyph-name="icircumflex" unicode="&#xee;" 
d="M27 542h324v-542h-324v542zM192 668h-6l-53 -69h-293l140 152h418l141 -152h-294z" />
    <glyph glyph-name="idieresis" unicode="&#xef;" 
d="M27 542h324v-542h-324v542zM-127 728h281v-129h-281v129zM223 728h281v-129h-281v129z" />
    <glyph glyph-name="eth" unicode="&#xf0;" horiz-adv-x="1020" 
d="M916 550.5q86 -89.5 86 -225.5q0 -132 -57 -208.5t-169 -109t-287 -32.5q-152 0 -253 19t-160 74t-59 157q0 146 109.5 199t285.5 53q68 0 139 -12.5t119 -39.5l7 3q-26 43 -91.5 73.5t-188.5 51.5l-134 -72l-90 45l84 45q-95 10 -167 13l117 171q176 -10 323 -37l121 65
l89 -46l-87 -47q177 -50 263 -139.5zM646 226q0 43 -39.5 62.5t-108.5 19.5q-67 0 -106.5 -19.5t-39.5 -62.5q0 -82 146 -82q148 0 148 82z" />
    <glyph glyph-name="ntilde" unicode="&#xf1;" horiz-adv-x="954" 
d="M345 472h6q53 41 122.5 63t164.5 22q139 0 214 -53t75 -162v-342h-324v231q0 52 -29 75.5t-85 23.5q-60 0 -99 -27.5t-39 -94.5v-208h-324v542h318v-70zM558 591q-29 6 -77 18q-7 2 -39 10t-54 8q-18 0 -24.5 -7.5t-6.5 -23.5h-189q0 57 22 98.5t59 63t81 21.5
q31 0 62.5 -6t76.5 -17q26 -7 51 -12.5t43 -5.5q17 0 23.5 7.5t6.5 22.5h189q0 -57 -22.5 -98.5t-60.5 -63t-81 -21.5q-31 0 -60 6z" />
    <glyph glyph-name="ograve" unicode="&#xf2;" horiz-adv-x="997" 
d="M868.5 493.5q111.5 -74.5 111.5 -222.5t-112 -222t-369 -74q-258 0 -370 74t-112 222t112 222.5t370 74.5t369.5 -74.5zM646 271q0 51 -35 77.5t-112 26.5t-112 -26.5t-35 -77.5q0 -50 35 -76.5t112 -26.5q147 0 147 103zM533 764l97 -160h-264l-219 160h386z" />
    <glyph glyph-name="oacute" unicode="&#xf3;" horiz-adv-x="997" 
d="M868.5 493.5q111.5 -74.5 111.5 -222.5t-112 -222t-369 -74q-258 0 -370 74t-112 222t112 222.5t370 74.5t369.5 -74.5zM646 271q0 51 -35 77.5t-112 26.5t-112 -26.5t-35 -77.5q0 -50 35 -76.5t112 -26.5q147 0 147 103zM630 604h-263l96 160h387z" />
    <glyph glyph-name="ocircumflex" unicode="&#xf4;" horiz-adv-x="997" 
d="M868.5 493.5q111.5 -74.5 111.5 -222.5t-112 -222t-369 -74q-258 0 -370 74t-112 222t112 222.5t370 74.5t369.5 -74.5zM646 271q0 51 -35 77.5t-112 26.5t-112 -26.5t-35 -77.5q0 -50 35 -76.5t112 -26.5q147 0 147 103zM502 672h-6l-53 -68h-293l140 147h418l141 -147
h-294z" />
    <glyph glyph-name="otilde" unicode="&#xf5;" horiz-adv-x="997" 
d="M868.5 493.5q111.5 -74.5 111.5 -222.5t-112 -222t-369 -74q-258 0 -370 74t-112 222t112 222.5t370 74.5t369.5 -74.5zM646 271q0 51 -35 77.5t-112 26.5t-112 -26.5t-35 -77.5q0 -50 35 -76.5t112 -26.5q147 0 147 103zM579 595q-31 6 -75 17q-65 18 -93 18
q-18 0 -24.5 -7.5t-6.5 -22.5h-189q0 57 22 98t59 62.5t81 21.5q31 0 62.5 -6t76.5 -17q26 -7 51 -12t43 -5q17 0 23.5 7t6.5 22h189q0 -56 -22.5 -97.5t-60.5 -63t-81 -21.5q-31 0 -62 6z" />
    <glyph glyph-name="odieresis" unicode="&#xf6;" horiz-adv-x="997" 
d="M868.5 493.5q111.5 -74.5 111.5 -222.5t-112 -222t-369 -74q-258 0 -370 74t-112 222t112 222.5t370 74.5t369.5 -74.5zM646 271q0 51 -35 77.5t-112 26.5t-112 -26.5t-35 -77.5q0 -50 35 -76.5t112 -26.5q147 0 147 103zM183 728h281v-124h-281v124zM533 728h281v-124
h-281v124z" />
    <glyph glyph-name="divide" unicode="&#xf7;" horiz-adv-x="621" 
d="M240 490.5q-30 29.5 -30 71.5q0 41 30 70.5t71 29.5t70.5 -29.5t29.5 -70.5q0 -42 -29.5 -71.5t-70.5 -29.5t-71 29.5zM580 249h-539v157h539v-157zM240 22.5q-30 29.5 -30 70.5t30 71t71 30t70.5 -30t29.5 -71t-29.5 -70.5t-70.5 -29.5t-71 29.5z" />
    <glyph glyph-name="oslash" unicode="&#xf8;" horiz-adv-x="997" 
d="M980 271q0 -148 -112 -222t-369 -74q-198 0 -306 43l-83 -55l-79 49l78 51q-92 71 -92 208q0 148 112 222.5t370 74.5q195 0 306 -42l83 54l78 -49l-78 -51q92 -71 92 -209zM387 349q-35 -27 -35 -78q0 -28 9 -45l211 141q-30 9 -73 9q-77 0 -112 -27zM646 271
q0 27 -9 46l-211 -141q28 -9 73 -9q147 0 147 104z" />
    <glyph glyph-name="ugrave" unicode="&#xf9;" horiz-adv-x="953" 
d="M607 70h-6q-54 -41 -123 -63t-163 -22q-139 0 -213.5 53t-74.5 162v342h323v-231q0 -52 29 -75.5t85 -23.5q60 0 99 27.5t39 94.5v208h324v-542h-319v70zM510 764l97 -165h-264l-219 165h386z" />
    <glyph glyph-name="uacute" unicode="&#xfa;" horiz-adv-x="953" 
d="M607 70h-6q-54 -41 -123 -63t-163 -22q-139 0 -213.5 53t-74.5 162v342h323v-231q0 -52 29 -75.5t85 -23.5q60 0 99 27.5t39 94.5v208h324v-542h-319v70zM607 599h-263l96 165h387z" />
    <glyph glyph-name="ucircumflex" unicode="&#xfb;" horiz-adv-x="953" 
d="M607 70h-6q-54 -41 -123 -63t-163 -22q-139 0 -213.5 53t-74.5 162v342h323v-231q0 -52 29 -75.5t85 -23.5q60 0 99 27.5t39 94.5v208h324v-542h-319v70zM479 668h-6l-53 -69h-293l140 152h418l141 -152h-294z" />
    <glyph glyph-name="udieresis" unicode="&#xfc;" horiz-adv-x="953" 
d="M607 70h-6q-54 -41 -123 -63t-163 -22q-139 0 -213.5 53t-74.5 162v342h323v-231q0 -52 29 -75.5t85 -23.5q60 0 99 27.5t39 94.5v208h324v-542h-319v70zM160 728h281v-129h-281v129zM510 728h281v-129h-281v129z" />
    <glyph glyph-name="yacute" unicode="&#xfd;" horiz-adv-x="975" 
d="M685 33q-57 -95 -106.5 -142.5t-114 -66.5t-170.5 -19h-224v222h116q40 0 57.5 5.5t26.5 19.5l8 15l-287 475h366l129 -256h6l126 256h366zM619 599h-263l96 165h387z" />
    <glyph glyph-name="thorn" unicode="&#xfe;" horiz-adv-x="999" 
d="M351 49v-229h-324v904h324v-241h6q49 36 109.5 55t142.5 19q186 0 279.5 -73t93.5 -218t-93.5 -218t-279.5 -73q-82 0 -142.5 19t-109.5 55h-6zM341 266q0 -100 156 -100q80 0 115.5 25t35.5 75t-35.5 75t-115.5 25q-156 0 -156 -100z" />
    <glyph glyph-name="ydieresis" unicode="&#xff;" horiz-adv-x="975" 
d="M685 33q-57 -95 -106.5 -142.5t-114 -66.5t-170.5 -19h-224v222h116q40 0 57.5 5.5t26.5 19.5l8 15l-287 475h366l129 -256h6l126 256h366zM172 728h281v-129h-281v129zM522 728h281v-129h-281v129z" />
    <glyph glyph-name="Amacron" unicode="&#x100;" horiz-adv-x="1160" 
d="M776 83h-392l-40 -83h-357l371 714h447l368 -714h-356zM684 270l-101 204h-6l-100 -204h207zM322 794v129h520v-129h-520z" />
    <glyph glyph-name="amacron" unicode="&#x101;" horiz-adv-x="971" 
d="M952.5 37.5q1.5 -17.5 8.5 -31.5v-6h-318q-10 14 -10 54v18q-41 -45 -121 -71t-192 -26q-134 0 -218.5 42.5t-84.5 139.5q0 92 55.5 132t167.5 47l316 21q32 2 46.5 9t14.5 24q0 19 -25 27.5t-77 8.5q-47 0 -77 -11.5t-42 -37.5h-342q4 77 57 118.5t149 57t249 15.5
q157 0 250.5 -13.5t142.5 -52t49 -112.5v-304q0 -31 1.5 -48.5zM628 248q-15 -9 -51 -13l-155 -20q-38 -5 -54.5 -17t-16.5 -35q0 -24 21 -34t65 -10q82 0 136.5 28.5t54.5 86.5v14zM243 615v129h520v-129h-520z" />
    <glyph glyph-name="Abreve" unicode="&#x102;" horiz-adv-x="1160" 
d="M776 83h-392l-40 -83h-357l371 714h447l368 -714h-356zM684 270l-101 204h-6l-100 -204h207zM797.5 808.5q-81.5 -41.5 -215.5 -41.5t-215.5 41.5t-90.5 130.5h238q7 -37 68 -37q30 0 46.5 9t20.5 28h239q-9 -89 -90.5 -130.5z" />
    <glyph glyph-name="abreve" unicode="&#x103;" horiz-adv-x="971" 
d="M952.5 37.5q1.5 -17.5 8.5 -31.5v-6h-318q-10 14 -10 54v18q-41 -45 -121 -71t-192 -26q-134 0 -218.5 42.5t-84.5 139.5q0 92 55.5 132t167.5 47l316 21q32 2 46.5 9t14.5 24q0 19 -25 27.5t-77 8.5q-47 0 -77 -11.5t-42 -37.5h-342q4 77 57 118.5t149 57t249 15.5
q157 0 250.5 -13.5t142.5 -52t49 -112.5v-304q0 -31 1.5 -48.5zM628 248q-15 -9 -51 -13l-155 -20q-38 -5 -54.5 -17t-16.5 -35q0 -24 21 -34t65 -10q82 0 136.5 28.5t54.5 86.5v14zM718.5 634q-81.5 -41 -215.5 -41t-215.5 41t-90.5 130h238q7 -37 68 -37q60 0 67 37h239
q-9 -89 -90.5 -130z" />
    <glyph glyph-name="Aogonek" unicode="&#x104;" horiz-adv-x="1160" 
d="M776 83h-392l-40 -83h-357l371 714h447l368 -714h-356zM684 270l-101 204h-6l-100 -204h207zM1136.5 -122.5q16.5 2.5 36.5 6.5v-132q-60 -11 -141 -11q-132 0 -198 28.5t-66 98.5q0 60 65.5 96t198.5 54l141 -18q-146 -31 -146 -92q0 -33 65 -33q28 0 44.5 2.5z" />
    <glyph glyph-name="aogonek" unicode="&#x105;" horiz-adv-x="971" 
d="M952.5 37.5q1.5 -17.5 8.5 -31.5v-6h-318q-10 14 -10 54v18q-41 -45 -121 -71t-192 -26q-134 0 -218.5 42.5t-84.5 139.5q0 92 55.5 132t167.5 47l316 21q32 2 46.5 9t14.5 24q0 19 -25 27.5t-77 8.5q-47 0 -77 -11.5t-42 -37.5h-342q4 77 57 118.5t149 57t249 15.5
q157 0 250.5 -13.5t142.5 -52t49 -112.5v-304q0 -31 1.5 -48.5zM628 248q-15 -9 -51 -13l-155 -20q-38 -5 -54.5 -17t-16.5 -35q0 -24 21 -34t65 -10q82 0 136.5 28.5t54.5 86.5v14zM924.5 -122.5q16.5 2.5 36.5 6.5v-132q-60 -11 -141 -11q-132 0 -198 28.5t-66 98.5
q0 60 65.5 96t198.5 54l141 -18q-146 -31 -146 -92q0 -33 65 -33q28 0 44.5 2.5z" />
    <glyph glyph-name="Cacute" unicode="&#x106;" horiz-adv-x="1157" 
d="M699 484.5q-44 29.5 -123 29.5q-95 0 -146.5 -40.5t-51.5 -116.5t51.5 -116.5t146.5 -40.5q81 0 124.5 31.5t49.5 82.5h388q-4 -174 -140 -258t-418 -84q-286 0 -423.5 94t-137.5 291t137.5 291t423.5 94q281 0 417 -81.5t139 -245.5h-387q-6 40 -50 69.5zM711 772h-263
l96 157h387z" />
    <glyph glyph-name="cacute" unicode="&#x107;" horiz-adv-x="1007" 
d="M632 231h358q-5 -84 -51.5 -140t-153 -86t-286.5 -30q-258 0 -370 74t-112 222t112 222.5t370 74.5q179 0 284.5 -30.5t152 -85.5t53.5 -136h-356q-24 60 -134 60q-78 0 -112.5 -26.5t-34.5 -78.5q0 -50 35 -76.5t112 -26.5q113 0 133 63zM630 604h-263l96 160h387z" />
    <glyph glyph-name="Ccircumflex" unicode="&#x108;" horiz-adv-x="1157" 
d="M699 484.5q-44 29.5 -123 29.5q-95 0 -146.5 -40.5t-51.5 -116.5t51.5 -116.5t146.5 -40.5q81 0 124.5 31.5t49.5 82.5h388q-4 -174 -140 -258t-418 -84q-286 0 -423.5 94t-137.5 291t137.5 291t423.5 94q281 0 417 -81.5t139 -245.5h-387q-6 40 -50 69.5zM583 845h-6
l-53 -73h-293l139 157h421l139 -157h-294z" />
    <glyph glyph-name="ccircumflex" unicode="&#x109;" horiz-adv-x="1007" 
d="M632 231h358q-5 -84 -51.5 -140t-153 -86t-286.5 -30q-258 0 -370 74t-112 222t112 222.5t370 74.5q179 0 284.5 -30.5t152 -85.5t53.5 -136h-356q-24 60 -134 60q-78 0 -112.5 -26.5t-34.5 -78.5q0 -50 35 -76.5t112 -26.5q113 0 133 63zM502 672h-6l-53 -68h-293
l140 147h418l141 -147h-294z" />
    <glyph glyph-name="Cdotaccent" unicode="&#x10a;" horiz-adv-x="1157" 
d="M699 484.5q-44 29.5 -123 29.5q-95 0 -146.5 -40.5t-51.5 -116.5t51.5 -116.5t146.5 -40.5q81 0 124.5 31.5t49.5 82.5h388q-4 -174 -140 -258t-418 -84q-286 0 -423.5 94t-137.5 291t137.5 291t423.5 94q281 0 417 -81.5t139 -245.5h-387q-6 40 -50 69.5zM417 910h328
v-128h-328v128z" />
    <glyph glyph-name="cdotaccent" unicode="&#x10b;" horiz-adv-x="1007" 
d="M632 231h358q-5 -84 -51.5 -140t-153 -86t-286.5 -30q-258 0 -370 74t-112 222t112 222.5t370 74.5q179 0 284.5 -30.5t152 -85.5t53.5 -136h-356q-24 60 -134 60q-78 0 -112.5 -26.5t-34.5 -78.5q0 -50 35 -76.5t112 -26.5q113 0 133 63zM335 728h328v-124h-328v124z
" />
    <glyph glyph-name="Ccaron" unicode="&#x10c;" horiz-adv-x="1157" 
d="M699 484.5q-44 29.5 -123 29.5q-95 0 -146.5 -40.5t-51.5 -116.5t51.5 -116.5t146.5 -40.5q81 0 124.5 31.5t49.5 82.5h388q-4 -174 -140 -258t-418 -84q-286 0 -423.5 94t-137.5 291t137.5 291t423.5 94q281 0 417 -81.5t139 -245.5h-387q-6 40 -50 69.5zM929 929
l-139 -157h-421l-139 157h293l53 -72h6l53 72h294z" />
    <glyph glyph-name="ccaron" unicode="&#x10d;" horiz-adv-x="1007" 
d="M632 231h358q-5 -84 -51.5 -140t-153 -86t-286.5 -30q-258 0 -370 74t-112 222t112 222.5t370 74.5q179 0 284.5 -30.5t152 -85.5t53.5 -136h-356q-24 60 -134 60q-78 0 -112.5 -26.5t-34.5 -78.5q0 -50 35 -76.5t112 -26.5q113 0 133 63zM849 751l-141 -147h-418
l-140 147h293l53 -68h6l53 68h294z" />
    <glyph glyph-name="Dcaron" unicode="&#x10e;" horiz-adv-x="1092" 
d="M893.5 678.5q89.5 -35.5 134.5 -114t45 -207.5t-45 -207.5t-134.5 -114t-228.5 -35.5h-633v714h633q139 0 228.5 -35.5zM360 492v-270h201q73 0 113 33t40 102t-40 102t-113 33h-201zM868 928l-139 -157h-421l-139 157h293l53 -73h6l53 73h294z" />
    <glyph glyph-name="dcaron" unicode="&#x10f;" horiz-adv-x="1347" 
d="M648 483v241h324v-724h-318v54h-6q-50 -40 -112 -59.5t-146 -19.5q-186 0 -279.5 73t-93.5 218t93.5 218t279.5 73q83 0 143 -19t109 -55h6zM1337 617q0 -58 -19 -91t-89.5 -52t-219.5 -19v69q80 -1 108 12.5t28 41.5h-136v146h328v-107zM658 266q0 100 -156 100
q-80 0 -115 -25t-35 -75t35 -75t115 -25q156 0 156 100z" />
    <glyph glyph-name="Dcroat" unicode="&#x110;" horiz-adv-x="1092" 
d="M893.5 678.5q89.5 -35.5 134.5 -114t45 -207.5t-45 -207.5t-134.5 -114t-228.5 -35.5h-633v301h-43v114h43v299h633q139 0 228.5 -35.5zM674 255q40 33 40 102t-40 102t-113 33h-201v-80h175v-109h-175v-81h201q73 0 113 33z" />
    <glyph glyph-name="dcroat" unicode="&#x111;" horiz-adv-x="999" 
d="M1016 681v-112h-44v-569h-318v54h-6q-50 -40 -112 -59.5t-146 -19.5q-186 0 -279.5 73t-93.5 218t93.5 218t279.5 73q83 0 143 -19t109 -55h6v86h-178v112h178v43h324v-43h44zM658 266q0 100 -156 100q-80 0 -115 -25t-35 -75t35 -75t115 -25q156 0 156 100z" />
    <glyph glyph-name="Emacron" unicode="&#x112;" horiz-adv-x="966" 
d="M360 449h546v-164h-546v-93h582v-192h-910v714h902v-181h-574v-84zM223 794v129h520v-129h-520z" />
    <glyph glyph-name="emacron" unicode="&#x113;" horiz-adv-x="1009" 
d="M989 209h-636q6 -44 42 -66t111 -22q112 0 134 45h344q-5 -57 -44.5 -98.5t-143 -67t-290.5 -25.5q-178 0 -286 34t-155.5 99t-47.5 163t47.5 163t155.5 99.5t285 34.5q258 0 372.5 -75t114.5 -222q0 -38 -3 -62zM402 403.5q-36 -18.5 -46 -55.5h297q-10 37 -45.5 55.5
t-102.5 18.5t-103 -18.5zM245 615v129h520v-129h-520z" />
    <glyph glyph-name="Ebreve" unicode="&#x114;" horiz-adv-x="966" 
d="M360 449h546v-164h-546v-93h582v-192h-910v714h902v-181h-574v-84zM698.5 808.5q-81.5 -41.5 -215.5 -41.5t-215.5 41.5t-90.5 130.5h238q7 -37 68 -37q30 0 46.5 9t20.5 28h239q-9 -89 -90.5 -130.5z" />
    <glyph glyph-name="ebreve" unicode="&#x115;" horiz-adv-x="1009" 
d="M989 209h-636q6 -44 42 -66t111 -22q112 0 134 45h344q-5 -57 -44.5 -98.5t-143 -67t-290.5 -25.5q-178 0 -286 34t-155.5 99t-47.5 163t47.5 163t155.5 99.5t285 34.5q258 0 372.5 -75t114.5 -222q0 -38 -3 -62zM402 403.5q-36 -18.5 -46 -55.5h297q-10 37 -45.5 55.5
t-102.5 18.5t-103 -18.5zM720.5 634q-81.5 -41 -215.5 -41t-215.5 41t-90.5 130h238q7 -37 68 -37q60 0 67 37h239q-9 -89 -90.5 -130z" />
    <glyph glyph-name="Edotaccent" unicode="&#x116;" horiz-adv-x="966" 
d="M360 449h546v-164h-546v-93h582v-192h-910v714h902v-181h-574v-84zM319 909h328v-129h-328v129z" />
    <glyph glyph-name="edotaccent" unicode="&#x117;" horiz-adv-x="1009" 
d="M989 209h-636q6 -44 42 -66t111 -22q112 0 134 45h344q-5 -57 -44.5 -98.5t-143 -67t-290.5 -25.5q-178 0 -286 34t-155.5 99t-47.5 163t47.5 163t155.5 99.5t285 34.5q258 0 372.5 -75t114.5 -222q0 -38 -3 -62zM402 403.5q-36 -18.5 -46 -55.5h297q-10 37 -45.5 55.5
t-102.5 18.5t-103 -18.5zM341 728h328v-124h-328v124z" />
    <glyph glyph-name="Eogonek" unicode="&#x118;" horiz-adv-x="966" 
d="M360 449h546v-164h-546v-93h582v-192h-910v714h902v-181h-574v-84zM906.5 -122.5q16.5 2.5 36.5 6.5v-132q-60 -11 -141 -11q-132 0 -198 28.5t-66 98.5q0 60 65.5 96t198.5 54l141 -18q-146 -31 -146 -92q0 -33 65 -33q28 0 44.5 2.5z" />
    <glyph glyph-name="eogonek" unicode="&#x119;" horiz-adv-x="1009" 
d="M989 209h-636q6 -44 42 -66t111 -22q112 0 134 45h344q-6 -63 -54.5 -107t-170.5 -65q-45 -8 -85.5 -30.5t-40.5 -55.5t66 -33q28 0 43 2t38 7v-132q-60 -11 -141 -11q-132 0 -198 28.5t-66 98.5q0 68 89 107q-240 7 -343.5 80.5t-103.5 215.5q0 98 47.5 163t155.5 99.5
t285 34.5q258 0 372.5 -75t114.5 -222q0 -38 -3 -62zM402 403.5q-36 -18.5 -46 -55.5h297q-10 37 -45.5 55.5t-102.5 18.5t-103 -18.5z" />
    <glyph glyph-name="Ecaron" unicode="&#x11a;" horiz-adv-x="966" 
d="M360 449h546v-164h-546v-93h582v-192h-910v714h902v-181h-574v-84zM832 928l-139 -157h-421l-139 157h293l53 -73h6l53 73h294z" />
    <glyph glyph-name="ecaron" unicode="&#x11b;" horiz-adv-x="1009" 
d="M989 209h-636q6 -44 42 -66t111 -22q112 0 134 45h344q-5 -57 -44.5 -98.5t-143 -67t-290.5 -25.5q-178 0 -286 34t-155.5 99t-47.5 163t47.5 163t155.5 99.5t285 34.5q258 0 372.5 -75t114.5 -222q0 -38 -3 -62zM402 403.5q-36 -18.5 -46 -55.5h297q-10 37 -45.5 55.5
t-102.5 18.5t-103 -18.5zM855 751l-141 -147h-418l-140 147h293l53 -68h6l53 68h294z" />
    <glyph glyph-name="Gcircumflex" unicode="&#x11c;" horiz-adv-x="1168" 
d="M1141 -1h-213v80q-53 -54 -144.5 -80.5t-195.5 -26.5q-292 0 -430.5 94t-138.5 292q0 197 139 290.5t429 93.5q281 0 414 -76t138 -221h-387q-4 14 -22.5 30t-54.5 27.5t-89 11.5q-102 0 -155 -41t-53 -119q0 -81 54.5 -123t163.5 -42q57 0 99 10.5t65 24t26 20.5h-168
v148h523v-393zM590 845h-6l-53 -73h-293l139 157h421l139 -157h-294z" />
    <glyph glyph-name="gcircumflex" unicode="&#x11d;" horiz-adv-x="996" 
d="M968 542v-498q0 -96 -31 -144.5t-130 -71.5t-307 -23q-198 0 -299 23t-135.5 64.5t-40.5 112.5h353q11 -25 38 -39t84 -14q58 0 89.5 9t43.5 28.5t12 54.5v68h-7q-92 -68 -250 -68q-186 0 -278.5 63t-92.5 193q0 132 92.5 194.5t278.5 62.5q83 0 145.5 -18t110.5 -54h7
v57h317zM617.5 238q37.5 22 37.5 62t-37.5 62t-117.5 22q-79 0 -113.5 -21t-34.5 -63t34.5 -63t113.5 -21q80 0 117.5 22zM496 672h-6l-53 -69h-293l140 148h418l141 -148h-294z" />
    <glyph glyph-name="Gbreve" unicode="&#x11e;" horiz-adv-x="1168" 
d="M1141 -1h-213v80q-53 -54 -144.5 -80.5t-195.5 -26.5q-292 0 -430.5 94t-138.5 292q0 197 139 290.5t429 93.5q281 0 414 -76t138 -221h-387q-4 14 -22.5 30t-54.5 27.5t-89 11.5q-102 0 -155 -41t-53 -119q0 -81 54.5 -123t163.5 -42q57 0 99 10.5t65 24t26 20.5h-168
v148h523v-393zM802.5 810.5q-81.5 -41.5 -215.5 -41.5t-215.5 41.5t-90.5 130.5h238q7 -37 68 -37q30 0 46.5 9t20.5 28h239q-9 -89 -90.5 -130.5z" />
    <glyph glyph-name="gbreve" unicode="&#x11f;" horiz-adv-x="996" 
d="M968 542v-498q0 -96 -31 -144.5t-130 -71.5t-307 -23q-198 0 -299 23t-135.5 64.5t-40.5 112.5h353q11 -25 38 -39t84 -14q58 0 89.5 9t43.5 28.5t12 54.5v68h-7q-92 -68 -250 -68q-186 0 -278.5 63t-92.5 193q0 132 92.5 194.5t278.5 62.5q83 0 145.5 -18t110.5 -54h7
v57h317zM617.5 238q37.5 22 37.5 62t-37.5 62t-117.5 22q-79 0 -113.5 -21t-34.5 -63t34.5 -63t113.5 -21q80 0 117.5 22zM708.5 633.5q-81.5 -41.5 -215.5 -41.5t-215.5 41.5t-90.5 130.5h238q7 -37 68 -37q60 0 67 37h239q-9 -89 -90.5 -130.5z" />
    <glyph glyph-name="Gdotaccent" unicode="&#x120;" horiz-adv-x="1168" 
d="M1141 -1h-213v80q-53 -54 -144.5 -80.5t-195.5 -26.5q-292 0 -430.5 94t-138.5 292q0 197 139 290.5t429 93.5q281 0 414 -76t138 -221h-387q-4 14 -22.5 30t-54.5 27.5t-89 11.5q-102 0 -155 -41t-53 -119q0 -81 54.5 -123t163.5 -42q57 0 99 10.5t65 24t26 20.5h-168
v148h523v-393zM423 910h328v-128h-328v128z" />
    <glyph glyph-name="gdotaccent" unicode="&#x121;" horiz-adv-x="996" 
d="M968 542v-498q0 -96 -31 -144.5t-130 -71.5t-307 -23q-198 0 -299 23t-135.5 64.5t-40.5 112.5h353q11 -25 38 -39t84 -14q58 0 89.5 9t43.5 28.5t12 54.5v68h-7q-92 -68 -250 -68q-186 0 -278.5 63t-92.5 193q0 132 92.5 194.5t278.5 62.5q83 0 145.5 -18t110.5 -54h7
v57h317zM617.5 238q37.5 22 37.5 62t-37.5 62t-117.5 22q-79 0 -113.5 -21t-34.5 -63t34.5 -63t113.5 -21q80 0 117.5 22zM329 727h328v-124h-328v124z" />
    <glyph glyph-name="Gcommaaccent" unicode="&#x122;" horiz-adv-x="1168" 
d="M1141 -1h-213v80q-53 -54 -144.5 -80.5t-195.5 -26.5q-292 0 -430.5 94t-138.5 292q0 197 139 290.5t429 93.5q281 0 414 -76t138 -221h-387q-4 14 -22.5 30t-54.5 27.5t-89 11.5q-102 0 -155 -41t-53 -119q0 -81 54.5 -123t163.5 -42q57 0 99 10.5t65 24t26 20.5h-168
v148h523v-393zM751 -169q0 -46 -19.5 -75t-90.5 -47t-218 -18v65q79 0 107 13.5t28 39.5h-135v128h328v-106z" />
    <glyph glyph-name="gcommaaccent" unicode="&#x123;" horiz-adv-x="996" 
d="M329 690q0 47 19 76t90.5 47t218.5 18v-50q-79 1 -107 -12.5t-28 -40.5h135v-129h-328v91zM968 542v-498q0 -96 -31 -144.5t-130 -71.5t-307 -23q-198 0 -299 23t-135.5 64.5t-40.5 112.5h353q11 -25 38 -39t84 -14q58 0 89.5 9t43.5 28.5t12 54.5v68h-7
q-92 -68 -250 -68q-186 0 -278.5 63t-92.5 193q0 132 92.5 194.5t278.5 62.5q83 0 145.5 -18t110.5 -54h7v57h317zM617.5 238q37.5 22 37.5 62t-37.5 62t-117.5 22q-79 0 -113.5 -21t-34.5 -63t34.5 -63t113.5 -21q80 0 117.5 22z" />
    <glyph glyph-name="Hcircumflex" unicode="&#x124;" horiz-adv-x="1094" 
d="M1062 714v-714h-328v251h-374v-251h-328v714h328v-244h374v244h328zM550 843h-6l-53 -72h-293l139 157h421l139 -157h-294z" />
    <glyph glyph-name="hcircumflex" unicode="&#x125;" horiz-adv-x="953" 
d="M851 504q75 -53 75 -161v-343h-324v231q0 53 -28.5 76t-85.5 23q-60 0 -99 -27t-39 -94v-209h-323v724h323v-251h6q102 84 281 84q139 0 214 -53zM192 843h-6l-53 -72h-293l139 157h421l139 -157h-294z" />
    <glyph glyph-name="Hbar" unicode="&#x126;" horiz-adv-x="1094" 
d="M1106 533h-44v-533h-328v251h-374v-251h-328v533h-44v119h44v62h328v-62h374v62h328v-62h44v-119zM734 533h-374v-63h374v63z" />
    <glyph glyph-name="hbar" unicode="&#x127;" horiz-adv-x="953" 
d="M851 504q75 -53 75 -161v-343h-324v231q0 53 -28.5 76t-85.5 23q-60 0 -99 -27t-39 -94v-209h-323v568h-44v111h44v45h323v-45h171v-111h-171v-95h6q102 84 281 84q139 0 214 -53z" />
    <glyph glyph-name="Itilde" unicode="&#x128;" horiz-adv-x="392" 
d="M32 0v714h328v-714h-328zM276 766q-31 6 -75 17q-65 18 -93 18q-18 0 -24.5 -7.5t-6.5 -22.5h-189q0 57 22 98t59 62.5t81 21.5q32 0 64.5 -6.5t74.5 -17.5q26 -7 51 -12t43 -5q17 0 23.5 7.5t6.5 22.5h189q0 -57 -22.5 -98t-60 -62.5t-81.5 -21.5q-31 0 -62 6z" />
    <glyph glyph-name="itilde" unicode="&#x129;" 
d="M27 542h324v-542h-324v542zM271 590q-29 6 -77 18q-7 2 -39 10t-54 8q-18 0 -24.5 -7.5t-6.5 -23.5h-189q0 57 22 98.5t59 63t81 21.5q31 0 62.5 -6t76.5 -17q26 -7 51 -12.5t43 -5.5q17 0 23.5 7.5t6.5 22.5h189q0 -56 -22.5 -97.5t-60.5 -63.5t-81 -22q-31 0 -60 6z
" />
    <glyph glyph-name="Imacron" unicode="&#x12a;" horiz-adv-x="392" 
d="M32 0v714h328v-714h-328zM-64 794v129h520v-129h-520z" />
    <glyph glyph-name="imacron" unicode="&#x12b;" 
d="M27 542h324v-542h-324v542zM-71 612v129h520v-129h-520z" />
    <glyph glyph-name="Ibreve" unicode="&#x12c;" horiz-adv-x="392" 
d="M32 0v714h328v-714h-328zM411.5 808.5q-81.5 -41.5 -215.5 -41.5t-215.5 41.5t-90.5 130.5h238q7 -37 68 -37q30 0 46.5 9t20.5 28h239q-9 -89 -90.5 -130.5z" />
    <glyph glyph-name="ibreve" unicode="&#x12d;" 
d="M27 542h324v-542h-324v542zM404.5 631q-81.5 -42 -215.5 -42t-215.5 42t-90.5 133h238q7 -37 68 -37q60 0 67 37h239q-9 -91 -90.5 -133z" />
    <glyph glyph-name="Iogonek" unicode="&#x12e;" horiz-adv-x="392" 
d="M32 0v714h328v-714h-328zM323.5 -122.5q16.5 2.5 36.5 6.5v-132q-60 -11 -141 -11q-132 0 -198 28.5t-66 98.5q0 60 65.5 96t198.5 54l141 -18q-146 -31 -146 -92q0 -33 65 -33q28 0 44.5 2.5z" />
    <glyph glyph-name="iogonek" unicode="&#x12f;" 
d="M27 542h324v-542h-324v542zM25 728h328v-129h-328v129zM314.5 -122.5q16.5 2.5 36.5 6.5v-132q-60 -11 -141 -11q-132 0 -198 28.5t-66 98.5q0 60 65.5 96t198.5 54l141 -18q-146 -31 -146 -92q0 -33 65 -33q28 0 44.5 2.5z" />
    <glyph glyph-name="Idotaccent" unicode="&#x130;" horiz-adv-x="392" 
d="M32 0v714h328v-714h-328zM32 909h328v-129h-328v129z" />
    <glyph glyph-name="dotlessi" unicode="&#x131;" 
d="M27 542h324v-542h-324v542z" />
    <glyph glyph-name="IJ" unicode="&#x132;" horiz-adv-x="1438" 
d="M32 0v714h328v-714h-328zM1406 329q0 -134 -56 -212.5t-165 -111.5t-280 -33q-170 0 -278 33t-163.5 111t-55.5 213v57h328v-45q0 -131 169 -131q173 0 173 131v373h328v-385z" />
    <glyph glyph-name="ij" unicode="&#x133;" horiz-adv-x="756" 
d="M27 542h324v-542h-324v542zM25 728h328v-129h-328v129zM393 34q12 7 12 27v481h324v-537q0 -91 -26 -132.5t-93 -55.5t-209 -14q-71 0 -100 2v223l53 -1q27 0 39 7zM403 728h328v-129h-328v129z" />
    <glyph glyph-name="Jcircumflex" unicode="&#x134;" horiz-adv-x="1046" 
d="M1014 329q0 -134 -56 -212.5t-165 -111.5t-280 -33q-170 0 -278 33t-163.5 111t-55.5 213v57h328v-45q0 -131 169 -131q173 0 173 131v373h328v-385zM853 843h-6l-53 -72h-293l139 157h421l139 -157h-294z" />
    <glyph glyph-name="jcircumflex" unicode="&#x135;" 
d="M15 34q12 7 12 27v481h324v-537q0 -91 -26 -132.5t-93 -55.5t-209 -14q-71 0 -100 2v223l53 -1q27 0 39 7zM192 668h-6l-53 -69h-293l140 152h418l141 -152h-294z" />
    <glyph glyph-name="Kcommaaccent" unicode="&#x136;" horiz-adv-x="1108" 
d="M1120 0h-417l-217 264l-126 -98v-166h-328v714h328v-248l307 248h413l-346 -263zM696 -167q0 -47 -19 -75.5t-90.5 -47t-218.5 -18.5v66q79 -1 107 12.5t28 40.5h-135v128h328v-106z" />
    <glyph glyph-name="kcommaaccent" unicode="&#x137;" horiz-adv-x="957" 
d="M968 0h-398l-149 163l-71 -53v-110h-323v724h323v-350l211 168h378l-286 -212zM624 -167q0 -46 -19.5 -75t-90.5 -47.5t-218 -18.5v66q80 0 107.5 13t27.5 40h-135v128h328v-106z" />
    <glyph glyph-name="kgreenlandic" unicode="&#x138;" horiz-adv-x="957" 
d="M968 0h-398l-149 163l-71 -53v-110h-323v542h323v-168l211 168h378l-286 -212z" />
    <glyph glyph-name="Lacute" unicode="&#x139;" horiz-adv-x="963" 
d="M32 0v714h328v-475h585v-239h-913zM327 771h-263l96 157h387z" />
    <glyph glyph-name="lacute" unicode="&#x13a;" 
d="M27 724h324v-724h-324v724zM320 772h-263l96 157h387z" />
    <glyph glyph-name="Lcommaaccent" unicode="&#x13b;" horiz-adv-x="963" 
d="M32 0v714h328v-475h585v-239h-913zM653 -167q0 -47 -19 -75.5t-90.5 -47t-218.5 -18.5v66q79 -1 107 12.5t28 40.5h-135v128h328v-106z" />
    <glyph glyph-name="lcommaaccent" unicode="&#x13c;" 
d="M27 724h324v-724h-324v724zM353 -167q0 -46 -19.5 -75t-90.5 -47.5t-218 -18.5v66q80 0 107.5 13t27.5 40h-135v128h328v-106z" />
    <glyph glyph-name="Lcaron" unicode="&#x13d;" horiz-adv-x="963" 
d="M790 601q0 -89 -28 -142t-92.5 -78t-176.5 -25v81q73 0 101.5 27t28.5 77h-130v183h297v-123zM32 0v714h328v-475h585v-239h-913z" />
    <glyph glyph-name="lcaron" unicode="&#x13e;" horiz-adv-x="726" 
d="M27 724h324v-724h-324v724zM716 617q0 -58 -19 -91t-89.5 -52t-219.5 -19v69q80 -1 108 12.5t28 41.5h-136v146h328v-107z" />
    <glyph glyph-name="Ldot" unicode="&#x13f;" horiz-adv-x="948" 
d="M32 0v714h328v-474h570v-240h-898zM499.5 338q-47.5 40 -47.5 112t47.5 111.5t135.5 39.5t136 -39.5t48 -111.5t-48 -112t-136 -40t-135.5 40z" />
    <glyph glyph-name="ldot" unicode="&#x140;" horiz-adv-x="766" 
d="M27 724h324v-724h-324v724zM431 247q-49 41 -49 115t49 114.5t139 40.5q91 0 140.5 -40.5t49.5 -114.5t-49.5 -115t-140.5 -41q-90 0 -139 41z" />
    <glyph glyph-name="Lslash" unicode="&#x141;" horiz-adv-x="963" 
d="M945 239v-239h-913v202l-42 -13v207l42 14v304h328v-199l284 92v-208l-284 -91v-69h585z" />
    <glyph glyph-name="lslash" unicode="&#x142;" 
d="M395 386l-44 -16v-370h-324v253l-44 -16v159l44 16v312h324v-194l44 16v-160z" />
    <glyph glyph-name="Nacute" unicode="&#x143;" horiz-adv-x="1095" 
d="M1063 714v-714h-385l-329 372h-8v-372h-309v714h389l325 -367h8v367h309zM679 771h-263l96 157h387z" />
    <glyph glyph-name="nacute" unicode="&#x144;" horiz-adv-x="954" 
d="M345 472h6q53 41 122.5 63t164.5 22q139 0 214 -53t75 -162v-342h-324v231q0 52 -29 75.5t-85 23.5q-60 0 -99 -27.5t-39 -94.5v-208h-324v542h318v-70zM607 599h-263l96 165h387z" />
    <glyph glyph-name="Ncommaaccent" unicode="&#x145;" horiz-adv-x="1095" 
d="M1063 714v-714h-385l-329 372h-8v-372h-309v714h389l325 -367h8v367h309zM712 -167q0 -47 -19 -75.5t-90.5 -47t-218.5 -18.5v66q79 -1 107 12.5t28 40.5h-135v128h328v-106z" />
    <glyph glyph-name="ncommaaccent" unicode="&#x146;" horiz-adv-x="954" 
d="M345 472h6q53 41 122.5 63t164.5 22q139 0 214 -53t75 -162v-342h-324v231q0 52 -29 75.5t-85 23.5q-60 0 -99 -27.5t-39 -94.5v-208h-324v542h318v-70zM640 -167q0 -46 -19.5 -75t-90.5 -47.5t-218 -18.5v66q80 0 107.5 13t27.5 40h-135v128h328v-106z" />
    <glyph glyph-name="Ncaron" unicode="&#x147;" horiz-adv-x="1095" 
d="M1063 714v-714h-385l-329 372h-8v-372h-309v714h389l325 -367h8v367h309zM897 928l-139 -157h-421l-139 157h293l53 -73h6l53 73h294z" />
    <glyph glyph-name="ncaron" unicode="&#x148;" horiz-adv-x="954" 
d="M345 472h6q53 41 122.5 63t164.5 22q139 0 214 -53t75 -162v-342h-324v231q0 52 -29 75.5t-85 23.5q-60 0 -99 -27.5t-39 -94.5v-208h-324v542h318v-70zM826 751l-141 -152h-418l-140 152h293l53 -69h6l53 69h294z" />
    <glyph glyph-name="napostrophe" unicode="&#x149;" horiz-adv-x="1285" 
d="M341 617q0 -58 -19 -91t-89.5 -52t-219.5 -19v69q80 -1 107.5 12.5t27.5 41.5h-135v146h328v-107zM676 472h6q53 41 122.5 63t164.5 22q139 0 214 -53t75 -162v-342h-324v231q0 52 -29 75.5t-85 23.5q-60 0 -99 -27.5t-39 -94.5v-208h-324v542h318v-70z" />
    <glyph glyph-name="Eng" unicode="&#x14a;" horiz-adv-x="1095" 
d="M1063 714v-714q0 -75 -36 -117.5t-115.5 -61.5t-215.5 -19q-132 0 -211 18.5t-115.5 59.5t-36.5 110v7h296v-5q0 -38 63 -38q31 0 46.5 11t15.5 35l-405 357h-9v-357h-308v714h348l366 -321h8v321h309z" />
    <glyph glyph-name="eng" unicode="&#x14b;" horiz-adv-x="954" 
d="M852 504q75 -53 75 -162v-337q0 -91 -26 -132.5t-93 -55.5t-209 -14q-72 0 -101 2v223l53 -1q28 0 40 7.5t12 26.5v170q0 52 -29 75.5t-85 23.5q-60 0 -99 -27.5t-39 -94.5v-208h-324v542h318v-70h6q53 41 122.5 63t164.5 22q139 0 214 -53z" />
    <glyph glyph-name="Omacron" unicode="&#x14c;" horiz-adv-x="1176" 
d="M1018 648.5q139 -93.5 139 -291.5t-139 -291.5t-430 -93.5t-430 93.5t-139 291.5t139 291.5t430 93.5t430 -93.5zM744.5 240.5q53.5 40.5 53.5 116.5t-53.5 116.5t-156.5 40.5t-156.5 -40.5t-53.5 -116.5t53.5 -116.5t156.5 -40.5t156.5 40.5zM328 796v129h520v-129h-520
z" />
    <glyph glyph-name="omacron" unicode="&#x14d;" horiz-adv-x="997" 
d="M868.5 493.5q111.5 -74.5 111.5 -222.5t-112 -222t-369 -74q-258 0 -370 74t-112 222t112 222.5t370 74.5t369.5 -74.5zM646 271q0 51 -35 77.5t-112 26.5t-112 -26.5t-35 -77.5q0 -50 35 -76.5t112 -26.5q147 0 147 103zM239 615v129h520v-129h-520z" />
    <glyph glyph-name="Obreve" unicode="&#x14e;" horiz-adv-x="1176" 
d="M1018 648.5q139 -93.5 139 -291.5t-139 -291.5t-430 -93.5t-430 93.5t-139 291.5t139 291.5t430 93.5t430 -93.5zM744.5 240.5q53.5 40.5 53.5 116.5t-53.5 116.5t-156.5 40.5t-156.5 -40.5t-53.5 -116.5t53.5 -116.5t156.5 -40.5t156.5 40.5zM803.5 810.5
q-81.5 -41.5 -215.5 -41.5t-215.5 41.5t-90.5 130.5h238q7 -37 68 -37q30 0 46.5 9t20.5 28h239q-9 -89 -90.5 -130.5z" />
    <glyph glyph-name="obreve" unicode="&#x14f;" horiz-adv-x="997" 
d="M868.5 493.5q111.5 -74.5 111.5 -222.5t-112 -222t-369 -74q-258 0 -370 74t-112 222t112 222.5t370 74.5t369.5 -74.5zM646 271q0 51 -35 77.5t-112 26.5t-112 -26.5t-35 -77.5q0 -50 35 -76.5t112 -26.5q147 0 147 103zM714.5 634q-81.5 -41 -215.5 -41t-215.5 41
t-90.5 130h238q7 -37 68 -37q60 0 67 37h239q-9 -89 -90.5 -130z" />
    <glyph glyph-name="Ohungarumlaut" unicode="&#x150;" horiz-adv-x="1176" 
d="M1018 648.5q139 -93.5 139 -291.5t-139 -291.5t-430 -93.5t-430 93.5t-139 291.5t139 291.5t430 93.5t430 -93.5zM744.5 240.5q53.5 40.5 53.5 116.5t-53.5 116.5t-156.5 40.5t-156.5 -40.5t-53.5 -116.5t53.5 -116.5t156.5 -40.5t156.5 40.5zM527 771h-232l81 157h309z
M880 771h-232l82 157h308z" />
    <glyph glyph-name="ohungarumlaut" unicode="&#x151;" horiz-adv-x="997" 
d="M868.5 493.5q111.5 -74.5 111.5 -222.5t-112 -222t-369 -74q-258 0 -370 74t-112 222t112 222.5t370 74.5t369.5 -74.5zM646 271q0 51 -35 77.5t-112 26.5t-112 -26.5t-35 -77.5q0 -50 35 -76.5t112 -26.5q147 0 147 103zM438 604h-232l81 160h309zM791 604h-232l82 160
h308z" />
    <glyph glyph-name="OE" unicode="&#x152;" horiz-adv-x="1612" 
d="M1589 187v-187h-804v59h-8q-39 -42 -111 -64.5t-165 -22.5q-231 0 -356.5 96t-125.5 289t125.5 289t356.5 96q93 0 165 -22.5t111 -63.5h8v58h797v-189h-479v-84h451v-163h-451v-91h486zM734.5 243.5q50.5 39.5 50.5 113.5q0 153 -203 153q-204 0 -204 -153
q0 -74 50.5 -113.5t153.5 -39.5q102 0 152.5 39.5z" />
    <glyph glyph-name="oe" unicode="&#x153;" horiz-adv-x="1591" 
d="M1570 209h-612q3 -43 36 -65.5t106 -22.5q62 0 88 15t33 30h344q-5 -85 -103 -138t-351 -53q-110 0 -187 22t-124 68q-100 -90 -323 -90q-243 0 -351.5 74.5t-108.5 222.5q0 147 108.5 221.5t351.5 74.5q112 0 192 -22t131 -68q47 47 123.5 68.5t187.5 21.5
q245 0 353.5 -75t108.5 -222q0 -38 -3 -62zM1000.5 404q-32.5 -18 -39.5 -56h272q-8 38 -39.5 56t-93.5 18q-67 0 -99.5 -18zM591.5 195.5q34.5 27.5 34.5 76.5t-34.5 76t-103.5 27q-68 0 -102 -27t-34 -76t34 -76.5t102 -27.5q69 0 103.5 27.5z" />
    <glyph glyph-name="Racute" unicode="&#x154;" horiz-adv-x="1084" 
d="M1086 0h-379l-116 182h-231v-182h-328v714h730q165 0 235.5 -61.5t70.5 -187.5q0 -92 -40 -140t-113 -66v-10zM702 430q0 59 -70 59h-272v-118h272q70 0 70 59zM641 771h-263l96 157h387z" />
    <glyph glyph-name="racute" unicode="&#x155;" horiz-adv-x="753" 
d="M345 542v-81h6q57 50 128 73t184 23q40 0 76 -4v-286q-57 11 -132 11q-112 0 -184.5 -33.5t-72.5 -129.5v-115h-323v542h318zM514 599h-263l96 165h387z" />
    <glyph glyph-name="Rcommaaccent" unicode="&#x156;" horiz-adv-x="1084" 
d="M1086 0h-379l-116 182h-231v-182h-328v714h730q165 0 235.5 -61.5t70.5 -187.5q0 -92 -40 -140t-113 -66v-10zM702 430q0 59 -70 59h-272v-118h272q70 0 70 59zM697 -167q0 -47 -19 -75.5t-90.5 -47t-218.5 -18.5v66q79 -1 107 12.5t28 40.5h-135v128h328v-106z" />
    <glyph glyph-name="rcommaaccent" unicode="&#x157;" horiz-adv-x="753" 
d="M345 542v-81h6q57 50 128 73t184 23q40 0 76 -4v-286q-57 11 -132 11q-112 0 -184.5 -33.5t-72.5 -129.5v-115h-323v542h318zM353 -167q0 -46 -19.5 -75t-90.5 -47.5t-218 -18.5v66q80 0 107.5 13t27.5 40h-135v128h328v-106z" />
    <glyph glyph-name="Rcaron" unicode="&#x158;" horiz-adv-x="1084" 
d="M1086 0h-379l-116 182h-231v-182h-328v714h730q165 0 235.5 -61.5t70.5 -187.5q0 -92 -40 -140t-113 -66v-10zM702 430q0 59 -70 59h-272v-118h272q70 0 70 59zM859 928l-139 -157h-421l-139 157h293l53 -73h6l53 73h294z" />
    <glyph glyph-name="rcaron" unicode="&#x159;" horiz-adv-x="753" 
d="M345 542v-81h6q57 50 128 73t184 23q40 0 76 -4v-286q-57 11 -132 11q-112 0 -184.5 -33.5t-72.5 -129.5v-115h-323v542h318zM733 751l-141 -152h-418l-140 152h293l53 -69h6l53 69h294z" />
    <glyph glyph-name="Sacute" unicode="&#x15a;" horiz-adv-x="1109" 
d="M538 565q-76 0 -107.5 -13t-31.5 -38q0 -20 20 -29.5t72 -13.5l308 -23q147 -11 219.5 -62t72.5 -159q0 -104 -57 -159t-172 -75.5t-313 -20.5q-192 0 -306 22t-172 79t-62 162h382q12 -47 50.5 -66t114.5 -19q80 0 115 14t35 42q0 24 -21 34t-72 15l-293 26
q-146 13 -220 61.5t-74 158.5q0 92 58.5 145t171 74.5t288.5 21.5q174 0 285.5 -21.5t170.5 -75.5t63 -148h-376q-16 68 -149 68zM675 772h-263l96 157h387z" />
    <glyph glyph-name="sacute" unicode="&#x15b;" horiz-adv-x="999" 
d="M560 420.5q-31 11.5 -85 11.5q-65 0 -89.5 -8t-24.5 -26q0 -15 16 -21t63 -10l308 -23q82 -6 132.5 -23t76.5 -54t26 -102q0 -81 -51.5 -121.5t-153 -54.5t-280.5 -14q-171 0 -272 14t-157.5 55.5t-60.5 124.5h369q11 -32 39 -45t86 -13q74 0 100.5 10t26.5 30
q0 16 -15 22.5t-58 10.5l-283 26q-85 8 -138.5 24.5t-82 52t-28.5 95.5q0 78 52.5 118t147.5 54t250 14q162 0 264 -14t160 -54t62 -116h-360q-9 25 -40 36.5zM605 604h-263l96 160h387z" />
    <glyph glyph-name="Scircumflex" unicode="&#x15c;" horiz-adv-x="1109" 
d="M538 565q-76 0 -107.5 -13t-31.5 -38q0 -20 20 -29.5t72 -13.5l308 -23q147 -11 219.5 -62t72.5 -159q0 -104 -57 -159t-172 -75.5t-313 -20.5q-192 0 -306 22t-172 79t-62 162h382q12 -47 50.5 -66t114.5 -19q80 0 115 14t35 42q0 24 -21 34t-72 15l-293 26
q-146 13 -220 61.5t-74 158.5q0 92 58.5 145t171 74.5t288.5 21.5q174 0 285.5 -21.5t170.5 -75.5t63 -148h-376q-16 68 -149 68zM547 845h-6l-53 -73h-293l139 157h421l139 -157h-294z" />
    <glyph glyph-name="scircumflex" unicode="&#x15d;" horiz-adv-x="999" 
d="M560 420.5q-31 11.5 -85 11.5q-65 0 -89.5 -8t-24.5 -26q0 -15 16 -21t63 -10l308 -23q82 -6 132.5 -23t76.5 -54t26 -102q0 -81 -51.5 -121.5t-153 -54.5t-280.5 -14q-171 0 -272 14t-157.5 55.5t-60.5 124.5h369q11 -32 39 -45t86 -13q74 0 100.5 10t26.5 30
q0 16 -15 22.5t-58 10.5l-283 26q-85 8 -138.5 24.5t-82 52t-28.5 95.5q0 78 52.5 118t147.5 54t250 14q162 0 264 -14t160 -54t62 -116h-360q-9 25 -40 36.5zM477 672h-6l-53 -68h-293l140 147h418l141 -147h-294z" />
    <glyph glyph-name="Scedilla" unicode="&#x15e;" horiz-adv-x="1109" 
d="M1041 75q-50 -54 -152.5 -77t-274.5 -26l-26 -24q15 5 61 5q80 0 127.5 -21.5t47.5 -80.5q0 -43 -26.5 -66.5t-83.5 -33t-159 -9.5q-116 0 -191 19v84h8q36 -10 77 -14t96 -4q41 0 58 5.5t17 17.5q0 13 -17 18.5t-58 5.5q-24 0 -58 -2.5t-51 -5.5h-8v50l60 56
q-168 3 -270 27t-153.5 80.5t-55.5 155.5h382q12 -47 50.5 -66t114.5 -19q80 0 115 14t35 42q0 24 -21 34t-72 15l-293 26q-146 13 -220 61.5t-74 158.5q0 92 58.5 145t171 74.5t288.5 21.5q174 0 285.5 -21.5t170.5 -75.5t63 -148h-376q-16 68 -149 68q-76 0 -107.5 -13
t-31.5 -38q0 -20 20 -29.5t72 -13.5l308 -23q147 -11 219.5 -62t72.5 -159q0 -98 -50 -152z" />
    <glyph glyph-name="scedilla" unicode="&#x15f;" horiz-adv-x="999" 
d="M938.5 50q-44.5 -40 -132.5 -56.5t-237 -18.5l-30 -27q15 5 60 5q81 0 128.5 -21.5t47.5 -80.5q0 -43 -26.5 -66.5t-84 -33t-158.5 -9.5q-116 0 -191 19v84h8q36 -10 77 -14t96 -4q41 0 58 5.5t17 17.5q0 13 -17 18.5t-58 5.5q-24 0 -58 -2.5t-51 -5.5h-8v50l64 59
q-148 2 -239.5 17.5t-142 57t-53.5 119.5h369q11 -32 39 -45t86 -13q74 0 100.5 10t26.5 30q0 16 -15 22.5t-58 10.5l-283 26q-85 8 -138.5 24.5t-82 52t-28.5 95.5q0 78 52.5 118t147.5 54t250 14q162 0 264 -14t160 -54t62 -116h-360q-9 25 -40 36.5t-85 11.5
q-65 0 -89.5 -8t-24.5 -26q0 -15 16 -21t63 -10l308 -23q82 -6 132.5 -23t76.5 -54t26 -102q0 -75 -44.5 -115z" />
    <glyph glyph-name="Scaron" unicode="&#x160;" horiz-adv-x="1109" 
d="M538 565q-76 0 -107.5 -13t-31.5 -38q0 -20 20 -29.5t72 -13.5l308 -23q147 -11 219.5 -62t72.5 -159q0 -104 -57 -159t-172 -75.5t-313 -20.5q-192 0 -306 22t-172 79t-62 162h382q12 -47 50.5 -66t114.5 -19q80 0 115 14t35 42q0 24 -21 34t-72 15l-293 26
q-146 13 -220 61.5t-74 158.5q0 92 58.5 145t171 74.5t288.5 21.5q174 0 285.5 -21.5t170.5 -75.5t63 -148h-376q-16 68 -149 68zM893 929l-139 -157h-421l-139 157h293l53 -72h6l53 72h294z" />
    <glyph glyph-name="scaron" unicode="&#x161;" horiz-adv-x="999" 
d="M560 420.5q-31 11.5 -85 11.5q-65 0 -89.5 -8t-24.5 -26q0 -15 16 -21t63 -10l308 -23q82 -6 132.5 -23t76.5 -54t26 -102q0 -81 -51.5 -121.5t-153 -54.5t-280.5 -14q-171 0 -272 14t-157.5 55.5t-60.5 124.5h369q11 -32 39 -45t86 -13q74 0 100.5 10t26.5 30
q0 16 -15 22.5t-58 10.5l-283 26q-85 8 -138.5 24.5t-82 52t-28.5 95.5q0 78 52.5 118t147.5 54t250 14q162 0 264 -14t160 -54t62 -116h-360q-9 25 -40 36.5zM824 751l-141 -147h-418l-140 147h293l53 -68h6l53 68h294z" />
    <glyph glyph-name="uni0162" unicode="&#x162;" horiz-adv-x="1032" 
d="M583 0l-55 -52q15 5 60 5q81 0 128.5 -21.5t47.5 -80.5q0 -43 -26.5 -66.5t-84 -33t-158.5 -9.5q-116 0 -191 19v84h8q36 -10 77 -14t96 -4q41 0 58 5.5t17 17.5q0 13 -17 18.5t-58 5.5q-25 0 -59 -2.5t-50 -5.5h-8v50l90 84h-106v467h-336v247h1001v-247h-337v-467h-97z
" />
    <glyph glyph-name="uni0163" unicode="&#x163;" horiz-adv-x="619" 
d="M564.5 -68.5q47.5 -21.5 47.5 -80.5q0 -43 -26.5 -66.5t-84 -33t-158.5 -9.5q-116 0 -191 19v84h8q36 -10 77 -14t96 -4q41 0 58 5.5t17 17.5q0 13 -17 18.5t-58 5.5q-25 0 -59 -2.5t-50 -5.5h-8v50l85 80q-75 8 -117.5 31t-60.5 63.5t-18 105.5v188h-104v158h104v144
h324v-144h167v-158h-167v-124q0 -24 14 -32t53 -8q60 0 99 3v-223q-25 -3 -75.5 -6t-98.5 -3l-45 -43q15 5 60 5q81 0 128.5 -21.5z" />
    <glyph glyph-name="Tcaron" unicode="&#x164;" horiz-adv-x="1032" 
d="M1017 467h-337v-467h-328v467h-336v247h1001v-247zM865 928l-139 -157h-421l-139 157h293l53 -73h6l53 73h294z" />
    <glyph glyph-name="tcaron" unicode="&#x165;" horiz-adv-x="619" 
d="M793 733q0 -47 -19 -76t-90.5 -47t-218.5 -18v50q80 0 108 13t28 40h-136v129h328v-91zM595 223v-223q-27 -3 -80 -6t-103 -3q-121 0 -187 19.5t-93 63t-27 122.5v188h-104v158h104v144h324v-144h167v-158h-167v-124q0 -24 14 -32t53 -8q60 0 99 3z" />
    <glyph glyph-name="Tbar" unicode="&#x166;" horiz-adv-x="1032" 
d="M680 467v-117h151v-167h-151v-183h-328v183h-151v167h151v117h-336v247h1001v-247h-337z" />
    <glyph glyph-name="tbar" unicode="&#x167;" horiz-adv-x="619" 
d="M429 384v-25h167v-84h-167v-15q0 -24 14 -32t53 -8q60 0 99 3v-223q-27 -3 -80 -6t-103 -3q-121 0 -187 19.5t-93 63t-27 122.5v79h-104v84h104v25h-104v158h104v144h324v-144h167v-158h-167z" />
    <glyph glyph-name="Utilde" unicode="&#x168;" horiz-adv-x="1088" 
d="M1056 714v-387q0 -132 -57.5 -210t-169.5 -111.5t-285 -33.5q-174 0 -286 33.5t-169 111.5t-57 210v387h328v-372q0 -67 47.5 -99.5t136.5 -32.5q88 0 136 32.5t48 99.5v372h328zM624 766q-31 6 -75 17q-65 18 -93 18q-18 0 -24.5 -7.5t-6.5 -22.5h-189q0 57 22 98
t59 62.5t81 21.5q32 0 64.5 -6.5t74.5 -17.5q26 -7 51 -12t43 -5q17 0 23.5 7.5t6.5 22.5h189q0 -57 -22.5 -98t-60 -62.5t-81.5 -21.5q-31 0 -62 6z" />
    <glyph glyph-name="utilde" unicode="&#x169;" horiz-adv-x="953" 
d="M607 70h-6q-54 -41 -123 -63t-163 -22q-139 0 -213.5 53t-74.5 162v342h323v-231q0 -52 29 -75.5t85 -23.5q60 0 99 27.5t39 94.5v208h324v-542h-319v70zM558 590q-29 6 -77 18q-7 2 -39 10t-54 8q-18 0 -24.5 -7.5t-6.5 -23.5h-189q0 57 22 98.5t59 63t81 21.5
q31 0 62.5 -6t76.5 -17q26 -7 51 -12.5t43 -5.5q17 0 23.5 7.5t6.5 22.5h189q0 -56 -22.5 -97.5t-60.5 -63.5t-81 -22q-31 0 -60 6z" />
    <glyph glyph-name="Umacron" unicode="&#x16a;" horiz-adv-x="1088" 
d="M1056 714v-387q0 -132 -57.5 -210t-169.5 -111.5t-285 -33.5q-174 0 -286 33.5t-169 111.5t-57 210v387h328v-372q0 -67 47.5 -99.5t136.5 -32.5q88 0 136 32.5t48 99.5v372h328zM284 794v129h520v-129h-520z" />
    <glyph glyph-name="umacron" unicode="&#x16b;" horiz-adv-x="953" 
d="M607 70h-6q-54 -41 -123 -63t-163 -22q-139 0 -213.5 53t-74.5 162v342h323v-231q0 -52 29 -75.5t85 -23.5q60 0 99 27.5t39 94.5v208h324v-542h-319v70zM216 612v129h520v-129h-520z" />
    <glyph glyph-name="Ubreve" unicode="&#x16c;" horiz-adv-x="1088" 
d="M1056 714v-387q0 -132 -57.5 -210t-169.5 -111.5t-285 -33.5q-174 0 -286 33.5t-169 111.5t-57 210v387h328v-372q0 -67 47.5 -99.5t136.5 -32.5q88 0 136 32.5t48 99.5v372h328zM759.5 808.5q-81.5 -41.5 -215.5 -41.5t-215.5 41.5t-90.5 130.5h238q7 -37 68 -37
q30 0 46.5 9t20.5 28h239q-9 -89 -90.5 -130.5z" />
    <glyph glyph-name="ubreve" unicode="&#x16d;" horiz-adv-x="953" 
d="M607 70h-6q-54 -41 -123 -63t-163 -22q-139 0 -213.5 53t-74.5 162v342h323v-231q0 -52 29 -75.5t85 -23.5q60 0 99 27.5t39 94.5v208h324v-542h-319v70zM691.5 631q-81.5 -42 -215.5 -42t-215.5 42t-90.5 133h238q7 -37 68 -37q60 0 67 37h239q-9 -91 -90.5 -133z" />
    <glyph glyph-name="Uring" unicode="&#x16e;" horiz-adv-x="1088" 
d="M1056 714v-387q0 -132 -57.5 -210t-169.5 -111.5t-285 -33.5q-174 0 -286 33.5t-169 111.5t-57 210v387h328v-372q0 -67 47.5 -99.5t136.5 -32.5q88 0 136 32.5t48 99.5v372h328zM402.5 779q-54.5 38 -54.5 104t54.5 104t140.5 38q87 0 142 -38.5t55 -103.5t-55 -103.5
t-142 -38.5q-86 0 -140.5 38zM581 852.5q15 11.5 15 30.5t-15 30.5t-38 11.5t-37.5 -11.5t-14.5 -30.5t14.5 -30.5t37.5 -11.5t38 11.5z" />
    <glyph glyph-name="uring" unicode="&#x16f;" horiz-adv-x="953" 
d="M607 70h-6q-54 -41 -123 -63t-163 -22q-139 0 -213.5 53t-74.5 162v342h323v-231q0 -52 29 -75.5t85 -23.5q60 0 99 27.5t39 94.5v208h324v-542h-319v70zM334 627q-54 38 -54 104t54 104t141 38t142 -38t55 -104t-55 -104t-142 -38t-141 38zM513 700.5q15 11.5 15 30.5
t-15 30.5t-38 11.5t-37.5 -11.5t-14.5 -30.5t14.5 -30.5t37.5 -11.5t38 11.5z" />
    <glyph glyph-name="Uhungarumlaut" unicode="&#x170;" horiz-adv-x="1088" 
d="M1056 714v-387q0 -132 -57.5 -210t-169.5 -111.5t-285 -33.5q-174 0 -286 33.5t-169 111.5t-57 210v387h328v-372q0 -67 47.5 -99.5t136.5 -32.5q88 0 136 32.5t48 99.5v372h328zM483 770h-232l81 157h309zM836 770h-232l82 157h308z" />
    <glyph glyph-name="uhungarumlaut" unicode="&#x171;" horiz-adv-x="953" 
d="M607 70h-6q-54 -41 -123 -63t-163 -22q-139 0 -213.5 53t-74.5 162v342h323v-231q0 -52 29 -75.5t85 -23.5q60 0 99 27.5t39 94.5v208h324v-542h-319v70zM415 599h-232l81 165h309zM768 599h-232l82 165h308z" />
    <glyph glyph-name="Uogonek" unicode="&#x172;" horiz-adv-x="1088" 
d="M1056 714v-387q0 -141 -63.5 -218.5t-187.5 -109.5q-75 -20 -104 -42.5t-29 -48.5q0 -33 64 -33q43 0 83 9v-132q-58 -11 -142 -11q-133 0 -203.5 29t-70.5 98q0 65 88 105q-151 4 -251.5 38.5t-154 111t-53.5 204.5v387h328v-372q0 -72 46.5 -102t137.5 -30t137.5 30
t46.5 102v372h328z" />
    <glyph glyph-name="uogonek" unicode="&#x173;" horiz-adv-x="953" 
d="M607 70h-6q-54 -41 -123 -63t-163 -22q-139 0 -213.5 53t-74.5 162v342h323v-231q0 -52 29 -75.5t85 -23.5q60 0 99 27.5t39 94.5v208h324v-542h-319v70zM889.5 -122.5q16.5 2.5 36.5 6.5v-132q-60 -11 -141 -11q-132 0 -198 28.5t-66 98.5q0 60 65.5 96t198.5 54
l141 -18q-146 -31 -146 -92q0 -33 65 -33q28 0 44.5 2.5z" />
    <glyph glyph-name="Wcircumflex" unicode="&#x174;" horiz-adv-x="1382" 
d="M793 0l-98 388h-8l-97 -388h-395l-210 714h341l94 -394h8l95 394h335l96 -394h8l95 394h340l-216 -714h-388zM694 843h-6l-53 -72h-293l139 157h421l139 -157h-294z" />
    <glyph glyph-name="wcircumflex" unicode="&#x175;" horiz-adv-x="1392" 
d="M1147 0h-343l-99 270h-6l-98 -270h-356l-251 542h353l98 -262h6l96 262h301l101 -259h6l93 259h349zM701 668h-6l-53 -69h-293l140 152h418l141 -152h-294z" />
    <glyph glyph-name="Ycircumflex" unicode="&#x176;" horiz-adv-x="1080" 
d="M705 201v-201h-329v201l-394 513h395l164 -242l162 242h395zM544 843h-6l-53 -72h-293l139 157h421l139 -157h-294z" />
    <glyph glyph-name="ycircumflex" unicode="&#x177;" horiz-adv-x="975" 
d="M685 33q-57 -95 -106.5 -142.5t-114 -66.5t-170.5 -19h-224v222h116q40 0 57.5 5.5t26.5 19.5l8 15l-287 475h366l129 -256h6l126 256h366zM491 668h-6l-53 -69h-293l140 152h418l141 -152h-294z" />
    <glyph glyph-name="Ydieresis" unicode="&#x178;" horiz-adv-x="1080" 
d="M705 201v-201h-329v201l-394 513h395l164 -242l162 242h395zM225 909h281v-129h-281v129zM575 909h281v-129h-281v129z" />
    <glyph glyph-name="Zacute" unicode="&#x179;" horiz-adv-x="1001" 
d="M550 217h429v-217h-961v209l429 288h-406v217h938v-209zM641 771h-263l96 157h387z" />
    <glyph glyph-name="zacute" unicode="&#x17a;" horiz-adv-x="906" 
d="M18 0v171l340 197h-318v174h840v-166l-342 -198h342v-178h-862zM591 599h-263l96 165h387z" />
    <glyph glyph-name="Zdotaccent" unicode="&#x17b;" horiz-adv-x="1001" 
d="M550 217h429v-217h-961v209l429 288h-406v217h938v-209zM346 909h328v-129h-328v129z" />
    <glyph glyph-name="zdotaccent" unicode="&#x17c;" horiz-adv-x="906" 
d="M18 0v171l340 197h-318v174h840v-166l-342 -198h342v-178h-862zM296 728h328v-129h-328v129z" />
    <glyph glyph-name="Zcaron" unicode="&#x17d;" horiz-adv-x="1001" 
d="M550 217h429v-217h-961v209l429 288h-406v217h938v-209zM859 928l-139 -157h-421l-139 157h293l53 -73h6l53 73h294z" />
    <glyph glyph-name="zcaron" unicode="&#x17e;" horiz-adv-x="906" 
d="M18 0v171l340 197h-318v174h840v-166l-342 -198h342v-178h-862zM810 751l-141 -152h-418l-140 152h293l53 -69h6l53 69h294z" />
    <glyph glyph-name="florin" unicode="&#x192;" horiz-adv-x="707" 
d="M591 601q-18 -7 -26 -22t-14 -43l-10 -52h131v-158h-162l-33 -170q-15 -78 -59 -117t-113 -51t-184 -12q-63 0 -111 6v144q18 -2 54 -2q34 0 52 7t26 21.5t14 42.5l25 131h-97v158h128l18 92q15 78 59 117t113 51t184 12q53 0 111 -7v-144q-27 3 -54 3q-34 0 -52 -7z" />
    <glyph glyph-name="Oslashacute" unicode="&#x1fe;" horiz-adv-x="1176" 
d="M1157 357q0 -198 -139 -291.5t-430 -93.5q-229 0 -361 57l-100 -70l-96 65l95 66q-107 94 -107 267q0 198 139 291.5t430 93.5q230 0 362 -57l100 69l96 -65l-95 -65q106 -94 106 -267zM431.5 474q-53.5 -41 -53.5 -117q0 -46 19 -77l299 219q-46 16 -108 16
q-103 0 -156.5 -41zM744.5 240q53.5 41 53.5 117q0 46 -19 78l-299 -220q48 -16 108 -16q103 0 156.5 41zM743.763 772h-312.714l114.146 157h460.153z" />
    <glyph glyph-name="oslashacute" unicode="&#x1ff;" horiz-adv-x="997" 
d="M980 271q0 -148 -112 -222t-369 -74q-198 0 -306 43l-83 -55l-79 49l78 51q-92 71 -92 208q0 148 112 222.5t370 74.5q195 0 306 -42l83 54l78 -49l-78 -51q92 -71 92 -209zM387 349q-35 -27 -35 -78q0 -28 9 -45l211 141q-30 9 -73 9q-77 0 -112 -27zM646 271
q0 27 -9 46l-211 -141q28 -9 73 -9q147 0 147 104zM630 604h-263l96 160h387z" />
    <glyph glyph-name="Scommaaccent" unicode="&#x218;" horiz-adv-x="1109" 
d="M538 565q-76 0 -107.5 -13t-31.5 -38q0 -20 20 -29.5t72 -13.5l308 -23q147 -11 219.5 -62t72.5 -159q0 -104 -57 -159t-172 -75.5t-313 -20.5q-192 0 -306 22t-172 79t-62 162h382q12 -47 50.5 -66t114.5 -19q80 0 115 14t35 42q0 24 -21 34t-72 15l-293 26
q-146 13 -220 61.5t-74 158.5q0 92 58.5 145t171 74.5t288.5 21.5q174 0 285.5 -21.5t170.5 -75.5t63 -148h-376q-16 68 -149 68zM695 -169q0 -46 -19.5 -75t-90.5 -47t-218 -18v65q79 0 107 13.5t28 39.5h-135v128h328v-106z" />
    <glyph glyph-name="scommaaccent" unicode="&#x219;" horiz-adv-x="999" 
d="M560 420.5q-31 11.5 -85 11.5q-65 0 -89.5 -8t-24.5 -26q0 -15 16 -21t63 -10l308 -23q82 -6 132.5 -23t76.5 -54t26 -102q0 -81 -51.5 -121.5t-153 -54.5t-280.5 -14q-171 0 -272 14t-157.5 55.5t-60.5 124.5h369q11 -32 39 -45t86 -13q74 0 100.5 10t26.5 30
q0 16 -15 22.5t-58 10.5l-283 26q-85 8 -138.5 24.5t-82 52t-28.5 95.5q0 78 52.5 118t147.5 54t250 14q162 0 264 -14t160 -54t62 -116h-360q-9 25 -40 36.5zM661 -169q0 -46 -19.5 -75t-90.5 -47t-218 -18v65q79 0 107 13.5t28 39.5h-135v128h328v-106z" />
    <glyph glyph-name="uni021A" unicode="&#x21a;" horiz-adv-x="1032" 
d="M1017 467h-337v-467h-328v467h-336v247h1001v-247zM680 -167q0 -47 -19 -75.5t-90.5 -47t-218.5 -18.5v66q79 -1 107 12.5t28 40.5h-135v128h328v-106z" />
    <glyph glyph-name="uni021B" unicode="&#x21b;" horiz-adv-x="619" 
d="M595 223v-223q-27 -3 -80 -6t-103 -3q-121 0 -187 19.5t-93 63t-27 122.5v188h-104v158h104v144h324v-144h167v-158h-167v-124q0 -24 14 -32t53 -8q60 0 99 3zM495 -168q0 -46 -19 -75t-90.5 -47t-218.5 -18v65q79 0 107 13.5t28 39.5h-135v128h328v-106z" />
    <glyph glyph-name="uni0237" unicode="&#x237;" 
d="M15 34q12 7 12 27v481h324v-537q0 -91 -26 -132.5t-93 -55.5t-209 -14q-71 0 -100 2v223l53 -1q27 0 39 7z" />
    <glyph glyph-name="uni02BC" unicode="&#x2bc;" horiz-adv-x="357" 
d="M325 593q0 -93 -28 -148.5t-92 -81.5t-173 -25v85q71 0 99.5 28t28.5 80h-128v193h293v-131z" />
    <glyph glyph-name="circumflex" unicode="&#x2c6;" horiz-adv-x="763" 
d="M384 668h-6l-53 -69h-293l140 152h418l141 -152h-294z" />
    <glyph glyph-name="caron" unicode="&#x2c7;" horiz-adv-x="763" 
d="M731 751l-141 -152h-418l-140 152h293l53 -69h6l53 69h294z" />
    <glyph glyph-name="breve" unicode="&#x2d8;" horiz-adv-x="676" 
d="M553.5 631q-81.5 -42 -215.5 -42t-215.5 42t-90.5 133h238q7 -37 68 -37q60 0 67 37h239q-9 -91 -90.5 -133z" />
    <glyph glyph-name="dotaccent" unicode="&#x2d9;" horiz-adv-x="392" 
d="M32 728h328v-129h-328v129z" />
    <glyph glyph-name="ring" unicode="&#x2da;" horiz-adv-x="456" 
d="M86 627q-54 38 -54 104t54 104t141 38t142 -38t55 -104t-55 -104t-142 -38t-141 38zM265 700.5q15 11.5 15 30.5t-15 30.5t-38 11.5t-37.5 -11.5t-14.5 -30.5t14.5 -30.5t37.5 -11.5t38 11.5z" />
    <glyph glyph-name="ogonek" unicode="&#x2db;" horiz-adv-x="469" 
d="M400.5 -122.5q16.5 2.5 36.5 6.5v-132q-60 -11 -141 -11q-132 0 -198 28.5t-66 98.5q0 60 65.5 96t198.5 54l141 -18q-146 -31 -146 -92q0 -33 65 -33q28 0 44.5 2.5z" />
    <glyph glyph-name="tilde" unicode="&#x2dc;" horiz-adv-x="678" 
d="M422 590q-29 6 -77 18q-7 2 -39 10t-54 8q-18 0 -24.5 -7.5t-6.5 -23.5h-189q0 57 22 98.5t59 63t81 21.5q31 0 62.5 -6t76.5 -17q26 -7 51 -12.5t43 -5.5q17 0 23.5 7.5t6.5 22.5h189q0 -56 -22.5 -97.5t-60.5 -63.5t-81 -22q-31 0 -60 6z" />
    <glyph glyph-name="hungarumlaut" unicode="&#x2dd;" horiz-adv-x="807" 
d="M264 599h-232l81 165h309zM617 599h-232l82 165h308z" />
    <glyph glyph-name="uni0326" unicode="&#x326;" horiz-adv-x="0" 
d="M-32 -169q0 -46 -19.5 -75t-90.5 -47t-218 -18v65q79 0 107 13.5t28 39.5h-135v128h328v-106z" />
    <glyph glyph-name="Wgrave" unicode="&#x1e80;" horiz-adv-x="1382" 
d="M793 0l-98 388h-8l-97 -388h-395l-210 714h341l94 -394h8l95 394h335l96 -394h8l95 394h340l-216 -714h-388zM725 928l97 -157h-264l-219 157h386z" />
    <glyph glyph-name="wgrave" unicode="&#x1e81;" horiz-adv-x="1392" 
d="M1147 0h-343l-99 270h-6l-98 -270h-356l-251 542h353l98 -262h6l96 262h301l101 -259h6l93 259h349zM733 764l97 -165h-264l-219 165h386z" />
    <glyph glyph-name="Wacute" unicode="&#x1e82;" horiz-adv-x="1382" 
d="M793 0l-98 388h-8l-97 -388h-395l-210 714h341l94 -394h8l95 394h335l96 -394h8l95 394h340l-216 -714h-388zM822 771h-263l96 157h387z" />
    <glyph glyph-name="wacute" unicode="&#x1e83;" horiz-adv-x="1392" 
d="M1147 0h-343l-99 270h-6l-98 -270h-356l-251 542h353l98 -262h6l96 262h301l101 -259h6l93 259h349zM829 599h-263l96 165h387z" />
    <glyph glyph-name="Wdieresis" unicode="&#x1e84;" horiz-adv-x="1382" 
d="M793 0l-98 388h-8l-97 -388h-395l-210 714h341l94 -394h8l95 394h335l96 -394h8l95 394h340l-216 -714h-388zM375 909h281v-129h-281v129zM725 909h281v-129h-281v129z" />
    <glyph glyph-name="wdieresis" unicode="&#x1e85;" horiz-adv-x="1392" 
d="M1147 0h-343l-99 270h-6l-98 -270h-356l-251 542h353l98 -262h6l96 262h301l101 -259h6l93 259h349zM382 728h281v-129h-281v129zM732 728h281v-129h-281v129z" />
    <glyph glyph-name="Ygrave" unicode="&#x1ef2;" horiz-adv-x="1080" 
d="M705 201v-201h-329v201l-394 513h395l164 -242l162 242h395zM575 928l97 -157h-264l-219 157h386z" />
    <glyph glyph-name="ygrave" unicode="&#x1ef3;" horiz-adv-x="975" 
d="M685 33q-57 -95 -106.5 -142.5t-114 -66.5t-170.5 -19h-224v222h116q40 0 57.5 5.5t26.5 19.5l8 15l-287 475h366l129 -256h6l126 256h366zM522 764l97 -165h-264l-219 165h386z" />
    <glyph glyph-name="uni2007" unicode="&#x2007;" horiz-adv-x="292" 
 />
    <glyph glyph-name="uni2008" unicode="&#x2008;" horiz-adv-x="276" 
 />
    <glyph glyph-name="uni200B" unicode="&#x200b;" horiz-adv-x="0" 
 />
    <glyph glyph-name="endash" unicode="&#x2013;" horiz-adv-x="797" 
d="M32 212v162h732v-162h-732z" />
    <glyph glyph-name="emdash" unicode="&#x2014;" horiz-adv-x="1065" 
d="M32 212v162h1001v-162h-1001z" />
    <glyph glyph-name="quoteleft" unicode="&#x2018;" horiz-adv-x="383" 
d="M28 476q0 85 33 137t104.5 76.5t190.5 24.5v-90q-71 1 -103 -24t-32 -58h135v-202h-328v136z" />
    <glyph glyph-name="quoteright" unicode="&#x2019;" horiz-adv-x="383" 
d="M356 578q0 -85 -33 -137t-104.5 -76.5t-190.5 -24.5v90q71 -1 102.5 24t31.5 58h-134v202h328v-136z" />
    <glyph glyph-name="quotesinglbase" unicode="&#x201a;" horiz-adv-x="383" 
d="M356 66q0 -85 -33 -137t-104.5 -76.5t-190.5 -24.5v90q71 -1 102.5 24t31.5 58h-134v202h328v-136z" />
    <glyph glyph-name="quotedblleft" unicode="&#x201c;" horiz-adv-x="771" 
d="M28 476q0 85 33 137t104.5 76.5t190.5 24.5v-90q-71 1 -103 -24t-32 -58h135v-202h-328v136zM416 476q0 85 33 137t104.5 76.5t190.5 24.5v-90q-71 1 -103 -24t-32 -58h135v-202h-328v136z" />
    <glyph glyph-name="quotedblright" unicode="&#x201d;" horiz-adv-x="771" 
d="M356 578q0 -85 -33 -137t-104.5 -76.5t-190.5 -24.5v90q71 -1 102.5 24t31.5 58h-134v202h328v-136zM744 578q0 -85 -33 -137t-104.5 -76.5t-190.5 -24.5v90q71 -1 102.5 24t31.5 58h-134v202h328v-136z" />
    <glyph glyph-name="quotedblbase" unicode="&#x201e;" horiz-adv-x="771" 
d="M356 66q0 -85 -33 -137t-104.5 -76.5t-190.5 -24.5v90q71 -1 102.5 24t31.5 58h-134v202h328v-136zM744 66q0 -85 -33 -137t-104.5 -76.5t-190.5 -24.5v90q71 -1 102.5 24t31.5 58h-134v202h328v-136z" />
    <glyph glyph-name="dagger" unicode="&#x2020;" horiz-adv-x="839" 
d="M818 274h-246v-445h-305v445h-246v230h246v210h305v-210h246v-230z" />
    <glyph glyph-name="daggerdbl" unicode="&#x2021;" horiz-adv-x="839" 
d="M572 316v-89h246v-188h-246v-210h-305v210h-246v188h246v89h-246v188h246v210h305v-210h246v-188h-246z" />
    <glyph glyph-name="bullet" unicode="&#x2022;" horiz-adv-x="765" 
d="M114 132.5q-94 75.5 -94 214.5t94 214.5t269 75.5t268.5 -75.5t93.5 -214.5t-93.5 -214.5t-268.5 -75.5t-269 75.5z" />
    <glyph glyph-name="ellipsis" unicode="&#x2026;" horiz-adv-x="1202" 
d="M32 268h336v-268h-336v268zM433 268h336v-268h-336v268zM833 268h336v-268h-336v268z" />
    <glyph glyph-name="perthousand" unicode="&#x2030;" horiz-adv-x="1780" 
d="M472.5 665.5q61.5 -49.5 61.5 -156.5t-61.5 -156.5t-195.5 -49.5t-195.5 49.5t-61.5 156.5t61.5 156.5t195.5 49.5t195.5 -49.5zM919 701l-468 -701h-144l468 701h144zM325.5 444.5q16.5 18.5 16.5 64.5t-16.5 64.5t-48.5 18.5t-48.5 -19t-16.5 -64t16.5 -64t48.5 -19
t48.5 18.5zM1143.5 348.5q61.5 -49.5 61.5 -156.5t-61.5 -156.5t-195.5 -49.5t-195.5 49.5t-61.5 156.5t61.5 156.5t195.5 49.5t195.5 -49.5zM1698.5 348.5q61.5 -49.5 61.5 -156.5t-61.5 -156.5t-196.5 -49.5q-134 0 -195.5 49.5t-61.5 156.5t61.5 156.5t195.5 49.5
q135 0 196.5 -49.5zM996.5 128q16.5 19 16.5 64t-16.5 64t-48.5 19t-48.5 -19t-16.5 -64t16.5 -64t48.5 -19t48.5 19zM1551 127.5q17 18.5 17 64.5t-17 64.5t-49 18.5t-48.5 -19t-16.5 -64t16.5 -64t48.5 -19t49 18.5z" />
    <glyph glyph-name="guilsinglleft" unicode="&#x2039;" horiz-adv-x="283" 
d="M254 548v-214l-115 -59v-6l115 -59v-214l-226 125v302z" />
    <glyph glyph-name="guilsinglright" unicode="&#x203a;" horiz-adv-x="283" 
d="M29 548v-214l115 -59v-6l-115 -59v-214l226 125v302z" />
    <glyph glyph-name="uni2070" unicode="&#x2070;" horiz-adv-x="674" 
d="M578 677.5q77 -54.5 77 -170.5t-77 -171t-240 -55q-164 0 -241 55t-77 171t77.5 170.5t240.5 54.5t240 -54.5zM416 440.5q27 23.5 27 66.5t-27 66t-78 23q-52 0 -79 -23t-27 -66t27.5 -66.5t78.5 -23.5t78 23.5z" />
    <glyph glyph-name="franc" unicode="&#x20a3;" horiz-adv-x="954" 
d="M397 484v-101h510v-182h-510v-39h240v-76h-240v-86h-322v86h-59v76h59v538h861v-216h-539z" />
    <glyph glyph-name="Euro" unicode="&#x20ac;" horiz-adv-x="1052" 
d="M681 201q75 0 139 13t132 39v-233q-36 -12 -118.5 -21.5t-155.5 -9.5q-243 0 -378 66t-166 202h-118l61 74h47v19v19h-108l61 74h57q31 136 164 202t369 66q119 0 212 -21.5t147 -49.5l-151 -179q-83 38 -205 38q-129 0 -179 -56h369l-61 -74h-337q-1 -6 -1 -19t1 -19
h304l-62 -74h-211q51 -56 188 -56z" />
    <glyph glyph-name="uni2116" unicode="&#x2116;" horiz-adv-x="1670" 
d="M1063 714v-714h-385l-329 372h-8v-372h-309v714h389l325 -367h8v367h309zM1587.5 674.5q63.5 -44.5 63.5 -129.5q0 -87 -63 -131.5t-206 -44.5q-142 0 -204.5 44.5t-62.5 131.5q0 85 62.5 129.5t204.5 44.5t205.5 -44.5zM1449 545q0 54 -67 54t-67 -54q0 -56 67 -56
t67 56zM1651 128v-128h-536v128h536z" />
    <glyph glyph-name="trademark" unicode="&#x2122;" horiz-adv-x="1136" 
d="M479 591h-149v-235h-162v235h-149v123h460v-123zM1117 356h-163v210h-6l-73 -210h-118l-75 210h-6v-210h-152v358h242l46 -163h6l48 163h251v-358z" />
    <glyph glyph-name="uni2126" unicode="&#x2126;" horiz-adv-x="1213" 
d="M26 150h277v8q-117 12 -191.5 74.5t-74.5 176.5q0 162 143 247.5t426 85.5t426.5 -85.5t143.5 -247.5q0 -114 -74.5 -176.5t-191.5 -74.5v-8h277v-150h-532v216q73 9 117 48t44 103q0 69 -54 106.5t-156 37.5t-155.5 -37.5t-53.5 -106.5q0 -64 44 -103t117 -48v-216h-532
v150z" />
    <glyph glyph-name="partialdiff" unicode="&#x2202;" horiz-adv-x="1020" 
d="M725.5 719.5q117.5 -28.5 197 -116t79.5 -249.5q0 -146 -57 -229t-168 -116.5t-288 -33.5q-152 0 -253 19t-160 74t-59 157q0 147 111 199.5t294 52.5q67 0 125.5 -9t100.5 -24q-19 54 -73.5 78t-155.5 24q-53 0 -123 -15t-136 -51l-90 188q149 80 391 80
q147 0 264.5 -28.5zM599 175q44 26 57 98q-30 13 -73 21t-89 8q-142 0 -142 -76q0 -41 35 -59t87 -18q81 0 125 26z" />
    <glyph glyph-name="emptyset" unicode="&#x2205;" horiz-adv-x="812" 
d="M741 502.5q30 -68.5 30 -145.5q0 -99 -49 -183t-133 -133t-183 -49q-101 0 -186 51l-38 -51h-102l75 100q-54 51 -84 119.5t-30 145.5q0 99 49 183t133 133t183 49t187 -51l38 51h102l-76 -100q54 -51 84 -119.5zM153.5 251q19.5 -50 55.5 -89l332 440q-62 37 -135 37
q-74 0 -136.5 -38t-99 -102.5t-36.5 -141.5q0 -56 19.5 -106zM542.5 113q62.5 38 99 102.5t36.5 141.5q0 55 -19.5 105t-54.5 89l-332 -440q61 -36 134 -36q74 0 136.5 38z" />
    <glyph glyph-name="uni2206" unicode="&#x2206;" horiz-adv-x="1160" 
d="M1173 0h-1186l371 714h447zM724 190l-140 284h-8l-139 -284h287z" />
    <glyph glyph-name="product" unicode="&#x220f;" horiz-adv-x="1094" 
d="M734 -148v608h-374v-608h-328v862h1030v-862h-328z" />
    <glyph glyph-name="summation" unicode="&#x2211;" horiz-adv-x="982" 
d="M959 -148h-927v214l322 218l-302 217v213h886v-243h-413l248 -173l-304 -203h490v-243z" />
    <glyph glyph-name="minus" unicode="&#x2212;" horiz-adv-x="621" 
d="M580 249h-539v157h539v-157z" />
    <glyph glyph-name="uni2219" unicode="&#x2219;" horiz-adv-x="358" 
d="M110 198q-32 19 -50.5 52t-18.5 72t18.5 71.5t50.5 51.5t69 19t69 -19t50.5 -51.5t18.5 -71.5t-18.5 -72t-50.5 -52t-69 -19t-69 19z" />
    <glyph glyph-name="radical" unicode="&#x221a;" horiz-adv-x="693" 
d="M422 -148h-170l-124 331l-77 -31l-32 64l209 85l119 -318h2l213 717h113z" />
    <glyph glyph-name="infinity" unicode="&#x221e;" horiz-adv-x="906" 
d="M805 463q59 -58 59 -155q0 -104 -58 -160.5t-158 -56.5q-67 0 -116 27t-89 74q-45 -47 -90.5 -74t-102.5 -27q-98 0 -153.5 56.5t-55.5 160.5q0 98 56.5 155.5t152.5 57.5q68 0 117.5 -27t87.5 -75q44 48 88 75t105 27q98 0 157 -58zM320.5 229q28.5 20 58.5 63
q-37 61 -63.5 86.5t-62.5 25.5q-39 0 -60 -27.5t-21 -68.5q0 -43 21.5 -71t59.5 -28q39 0 67.5 20zM706 237.5q22 28.5 22 70.5t-21 69t-62 27q-39 0 -68.5 -21.5t-57.5 -63.5q34 -58 62 -84t64 -26q39 0 61 28.5z" />
    <glyph glyph-name="integral" unicode="&#x222b;" horiz-adv-x="620" 
d="M568.5 750.5q37.5 -5.5 42.5 -5.5v-147q-6 0 -19 0.5t-39 0.5q-37 0 -54 -6t-22 -17t-5 -33v-546q0 -72 -37 -111.5t-106.5 -54.5t-179.5 -15q-60 0 -97.5 5.5t-42.5 5.5v147q6 0 19 -0.5t38 -0.5q37 0 54.5 6t22.5 17t5 33v546q0 72 37 111.5t106.5 54.5t179.5 15
q60 0 97.5 -5.5z" />
    <glyph glyph-name="approxequal" unicode="&#x2248;" horiz-adv-x="621" 
d="M508.5 477q29.5 20 71.5 64v-159q-29 -31 -59.5 -50t-68.5 -19q-33 0 -58 8.5t-53 22.5l-71 35q-32 15 -52.5 22.5t-49.5 7.5q-28 0 -56 -19.5t-71 -63.5v159q33 31 60.5 49t66.5 18q34 0 60 -8.5t54 -21.5l71 -35q5 -2 22.5 -10.5t37.5 -14t39 -5.5q27 0 56.5 20z
M508.5 261q29.5 20 71.5 64v-160q-29 -31 -59.5 -50t-68.5 -19q-33 0 -58 8.5t-53 22.5l-71 35q-32 15 -52.5 22.5t-49.5 7.5q-28 0 -56 -19.5t-71 -63.5v160q33 31 60.5 49t66.5 18q33 0 58 -8.5t56 -23.5l71 -34q26 -13 49 -21t50 -8t56.5 20z" />
    <glyph glyph-name="notequal" unicode="&#x2260;" horiz-adv-x="621" 
d="M409 362l-45 -73h216v-155h-313l-58 -92h-152l58 92h-74v155h171l45 73h-216v155h313l57 91h153l-57 -91h73v-155h-171z" />
    <glyph glyph-name="lessequal" unicode="&#x2264;" horiz-adv-x="623" 
d="M42 315l539 -159v133l-287 86v6l287 86v134l-539 -160v-126zM41 128v-128h541v128h-541z" />
    <glyph glyph-name="greaterequal" unicode="&#x2265;" horiz-adv-x="623" 
d="M581 315l-539 -159v133l287 86v6l-287 86v134l539 -160v-126zM582 128v-128h-541v128h541z" />
    <glyph glyph-name="lozenge" unicode="&#x25ca;" horiz-adv-x="842" 
d="M810 358l-304 -388h-171l-303 388l303 388h171zM619 358l-198 268l-198 -268l198 -269z" />
    <glyph glyph-name="T.ss01" horiz-adv-x="1032" 
d="M1017 465h-337v-465h-328v465h-336v249h1001v-249z" />
    <glyph glyph-name="i.loclTRK" 
d="M27 542h324v-542h-324v542zM25 728h328v-129h-328v129z" />
    <glyph glyph-name="T_h" horiz-adv-x="1942" 
d="M1840.5 504q74.5 -53 74.5 -161v-343h-324v231q0 53 -28.5 76t-85.5 23q-60 0 -98.5 -27t-38.5 -94v-209h-323v467h-337v-467h-328v467h-336v247h1001v10h323v-251h7q101 84 280 84q139 0 213.5 -53z" />
    <glyph glyph-name="T_i" horiz-adv-x="1370" 
d="M1017 599v-57h324v-542h-324v467h-337v-467h-328v467h-336v247h999v14h328v-129h-326z" />
    <glyph glyph-name="f_i" horiz-adv-x="989" 
d="M457.5 593q-21.5 -10 -21.5 -36q0 -3 2 -15h165v-158h-165v-384h-324v384h-104v158h104v35q0 72 38.5 111.5t109 54t179.5 14.5q71 0 170 -12v-145q-51 3 -76 3q-56 0 -77.5 -10zM638 542h324v-542h-324v542zM637 728h328v-129h-328v129z" />
    <glyph glyph-name="f_l" horiz-adv-x="1004" 
d="M457.5 593q-21.5 -10 -21.5 -36q0 -3 2 -15h165v-158h-165v-384h-324v384h-104v158h104v35q0 72 38.5 111.5t109 54t179.5 14.5q71 0 170 -12v-145q-51 3 -76 3q-56 0 -77.5 -10zM652 724h324v-724h-324v724z" />
    <glyph glyph-name="f_t" horiz-adv-x="1231" 
d="M457.5 593q-21.5 -10 -21.5 -36q0 -3 2 -15h165v-158h-165v-384h-324v384h-104v158h104v35q0 72 38.5 111.5t109 54t179.5 14.5q71 0 170 -12v-145q-51 3 -76 3q-56 0 -77.5 -10zM1207 223v-223q-27 -3 -80 -6t-103 -3q-121 0 -187 19.5t-93 63t-27 122.5v188h-104v158
h104v144h324v-144h167v-158h-167v-124q0 -24 14 -32t53 -8q60 0 99 3z" />
    <glyph glyph-name="caroncomb.alt" horiz-adv-x="0" 
d="M-32 593q0 -91 -27.5 -145t-91.5 -79t-177 -25v83q73 0 101.5 27.5t28.5 79.5h-130v190h296v-131z" />
    <glyph glyph-name="uni0326.001" horiz-adv-x="0" 
d="M-32 -167q0 -46 -19.5 -75t-90.5 -47.5t-218 -18.5v66q80 0 107.5 13t27.5 40h-135v128h328v-106z" />
    <glyph glyph-name="uni0326.case.001" horiz-adv-x="0" 
d="M-32 -167q0 -47 -19 -75.5t-90.5 -47t-218.5 -18.5v66q79 -1 107 12.5t28 40.5h-135v128h328v-106z" />
    <glyph glyph-name="uni0326.002" horiz-adv-x="0" 
d="M-32 -168q0 -46 -19 -75t-90.5 -47t-218.5 -18v65q79 0 107 13.5t28 39.5h-135v128h328v-106z" />
    <glyph glyph-name="uni0326.case" horiz-adv-x="0" 
d="M-32 -169q0 -46 -19.5 -75t-90.5 -47t-218 -18v65q79 0 107 13.5t28 39.5h-135v128h328v-106z" />
    <glyph glyph-name="acute.001" horiz-adv-x="547" 
d="M295 604h-263l96 160h387z" />
    <glyph glyph-name="breve.001" horiz-adv-x="676" 
d="M553.5 634q-81.5 -41 -215.5 -41t-215.5 41t-90.5 130h238q7 -37 68 -37q60 0 67 37h239q-9 -89 -90.5 -130z" />
    <glyph glyph-name="caron.001" horiz-adv-x="763" 
d="M731 751l-141 -147h-418l-140 147h293l53 -68h6l53 68h294z" />
    <glyph glyph-name="acute.case.001" horiz-adv-x="547" 
d="M295 771h-263l96 157h387z" />
    <glyph glyph-name="breve.case.001" horiz-adv-x="676" 
d="M553.5 808.5q-81.5 -41.5 -215.5 -41.5t-215.5 41.5t-90.5 130.5h238q7 -37 68 -37q30 0 46.5 9t20.5 28h239q-9 -89 -90.5 -130.5z" />
    <glyph glyph-name="caron.case.001" horiz-adv-x="763" 
d="M731 928l-139 -157h-421l-139 157h293l53 -73h6l53 73h294z" />
    <glyph glyph-name="circumflex.case.001" horiz-adv-x="763" 
d="M384 843h-6l-53 -72h-293l139 157h421l139 -157h-294z" />
    <glyph glyph-name="dieresis.case.001" horiz-adv-x="695" 
d="M32 909h281v-129h-281v129zM382 909h281v-129h-281v129z" />
    <glyph glyph-name="dotaccent.case.001" horiz-adv-x="392" 
d="M32 909h328v-129h-328v129z" />
    <glyph glyph-name="grave.case.001" horiz-adv-x="547" 
d="M418 928l97 -157h-264l-219 157h386z" />
    <glyph glyph-name="hungarumlaut.case.001" horiz-adv-x="807" 
d="M264 771h-232l81 157h309zM617 771h-232l82 157h308z" />
    <glyph glyph-name="macron.case.001" horiz-adv-x="584" 
d="M32 794v129h520v-129h-520z" />
    <glyph glyph-name="ring.case.001" horiz-adv-x="456" 
d="M86.5 779q-54.5 38 -54.5 104t54.5 104t140.5 38q87 0 142 -38.5t55 -103.5t-55 -103.5t-142 -38.5q-86 0 -140.5 38zM265 852.5q15 11.5 15 30.5t-15 30.5t-38 11.5t-37.5 -11.5t-14.5 -30.5t14.5 -30.5t37.5 -11.5t38 11.5z" />
    <glyph glyph-name="tilde.case.001" horiz-adv-x="678" 
d="M420 766q-31 6 -75 17q-65 18 -93 18q-18 0 -24.5 -7.5t-6.5 -22.5h-189q0 57 22 98t59 62.5t81 21.5q32 0 64.5 -6.5t74.5 -17.5q26 -7 51 -12t43 -5q17 0 23.5 7.5t6.5 22.5h189q0 -57 -22.5 -98t-60 -62.5t-81.5 -21.5q-31 0 -62 6z" />
    <glyph glyph-name="cedilla.001" horiz-adv-x="524" 
d="M256 -52q15 5 60 5q81 0 128.5 -21.5t47.5 -80.5q0 -43 -26.5 -66.5t-84 -33t-158.5 -9.5q-116 0 -191 19v84h8q36 -10 77 -14t96 -4q41 0 58 5.5t17 17.5q0 13 -17 18.5t-58 5.5q-25 0 -59 -2.5t-50 -5.5h-8v50l113 106h126z" />
    <glyph glyph-name="circumflex.001" horiz-adv-x="763" 
d="M384 672h-6l-53 -68h-293l140 147h418l141 -147h-294z" />
    <glyph glyph-name="dieresis.001" horiz-adv-x="695" 
d="M32 728h281v-124h-281v124zM382 728h281v-124h-281v124z" />
    <glyph glyph-name="dotaccent.001" horiz-adv-x="392" 
d="M32 728h328v-124h-328v124z" />
    <glyph glyph-name="grave.001" horiz-adv-x="547" 
d="M418 764l97 -160h-264l-219 160h386z" />
    <glyph glyph-name="hungarumlaut.001" horiz-adv-x="807" 
d="M264 604h-232l81 160h309zM617 604h-232l82 160h308z" />
    <glyph glyph-name="macron.001" horiz-adv-x="584" 
d="M32 615v129h520v-129h-520z" />
    <glyph glyph-name="ogonek.001" horiz-adv-x="469" 
d="M400.5 -122.5q16.5 2.5 36.5 6.5v-132q-60 -11 -141 -11q-132 0 -198 28.5t-66 98.5q0 60 65.5 96t198.5 54l141 -18q-146 -31 -146 -92q0 -33 65 -33q28 0 44.5 2.5z" />
    <glyph glyph-name="ring.001" horiz-adv-x="456" 
d="M86.5 631q-54.5 38 -54.5 104t54 104t141 38t142 -38t55 -104q0 -65 -55 -103.5t-142 -38.5q-86 0 -140.5 38zM265 704.5q15 11.5 15 30.5t-15 30.5t-38 11.5t-37.5 -11.5t-14.5 -30.5t14.5 -30.5t37.5 -11.5t38 11.5z" />
    <glyph glyph-name="tilde.001" horiz-adv-x="678" 
d="M420 595q-31 6 -75 17q-65 18 -93 18q-18 0 -24.5 -7.5t-6.5 -22.5h-189q0 57 22 98t59 62.5t81 21.5q31 0 62.5 -6t76.5 -17q26 -7 51 -12t43 -5q17 0 23.5 7t6.5 22h189q0 -56 -22.5 -97.5t-60.5 -63t-81 -21.5q-31 0 -62 6z" />
    <glyph glyph-name="acute.002" horiz-adv-x="547" 
d="M295 599h-263l96 165h387z" />
    <glyph glyph-name="breve.002" horiz-adv-x="676" 
d="M553.5 633.5q-81.5 -41.5 -215.5 -41.5t-215.5 41.5t-90.5 130.5h238q7 -37 68 -37q60 0 67 37h239q-9 -89 -90.5 -130.5z" />
    <glyph glyph-name="caron.002" horiz-adv-x="763" 
d="M731 751l-141 -152h-418l-140 152h293l53 -69h6l53 69h294z" />
    <glyph glyph-name="circumflex.002" horiz-adv-x="763" 
d="M384 672h-6l-53 -69h-293l140 148h418l141 -148h-294z" />
    <glyph glyph-name="dotaccent.002" horiz-adv-x="392" 
d="M32 727h328v-124h-328v124z" />
    <glyph glyph-name="tilde.002" horiz-adv-x="678" 
d="M422 591q-29 6 -77 18q-7 2 -39 10t-54 8q-18 0 -24.5 -7.5t-6.5 -23.5h-189q0 57 22 98.5t59 63t81 21.5q31 0 62.5 -6t76.5 -17q26 -7 51 -12.5t43 -5.5q17 0 23.5 7.5t6.5 22.5h189q0 -57 -22.5 -98.5t-60.5 -63t-81 -21.5q-31 0 -60 6z" />
    <glyph glyph-name="caron.alt" horiz-adv-x="357" 
d="M325 593q0 -93 -28 -148.5t-92 -81.5t-173 -25v85q71 0 99.5 28t28.5 80h-128v193h293v-131z" />
    <glyph glyph-name="acute.case" horiz-adv-x="547" 
d="M295 772h-263l96 157h387z" />
    <glyph glyph-name="breve.case" horiz-adv-x="676" 
d="M553.5 810.5q-81.5 -41.5 -215.5 -41.5t-215.5 41.5t-90.5 130.5h238q7 -37 68 -37q30 0 46.5 9t20.5 28h239q-9 -89 -90.5 -130.5z" />
    <glyph glyph-name="caron.case" horiz-adv-x="763" 
d="M731 929l-139 -157h-421l-139 157h293l53 -72h6l53 72h294z" />
    <glyph glyph-name="cedilla.case" horiz-adv-x="524" 
d="M256 -52q15 5 60 5q81 0 128.5 -21.5t47.5 -80.5q0 -43 -26.5 -66.5t-84 -33t-158.5 -9.5q-116 0 -191 19v84h8q36 -10 77 -14t96 -4q41 0 58 5.5t17 17.5q0 13 -17 18.5t-58 5.5q-25 0 -59 -2.5t-50 -5.5h-8v50l113 106h126z" />
    <glyph glyph-name="circumflex.case" horiz-adv-x="763" 
d="M384 845h-6l-53 -73h-293l139 157h421l139 -157h-294z" />
    <glyph glyph-name="dieresis.case" horiz-adv-x="695" 
d="M32 910h281v-128h-281v128zM382 910h281v-128h-281v128z" />
    <glyph glyph-name="dotaccent.case" horiz-adv-x="392" 
d="M32 910h328v-128h-328v128z" />
    <glyph glyph-name="grave.case" horiz-adv-x="547" 
d="M418 929l97 -157h-264l-219 157h386z" />
    <glyph glyph-name="hungarumlaut.case" horiz-adv-x="807" 
d="M264 772h-232l81 157h309zM617 772h-232l82 157h308z" />
    <glyph glyph-name="macron.case" horiz-adv-x="584" 
d="M32 796v129h520v-129h-520z" />
    <glyph glyph-name="ogonek.case" horiz-adv-x="469" 
d="M400.5 -122.5q16.5 2.5 36.5 6.5v-132q-60 -11 -141 -11q-132 0 -198 28.5t-66 98.5q0 60 65.5 96t198.5 54l141 -18q-146 -31 -146 -92q0 -33 65 -33q28 0 44.5 2.5z" />
    <glyph glyph-name="ring.case" horiz-adv-x="456" 
d="M86.5 779q-54.5 38 -54.5 104t54 104.5t141 38.5t142 -38.5t55 -104.5q0 -65 -55 -103.5t-142 -38.5q-86 0 -140.5 38zM265 852.5q15 11.5 15 30.5t-15 31t-38 12t-37.5 -12t-14.5 -31t14.5 -30.5t37.5 -11.5t38 11.5z" />
    <glyph glyph-name="tilde.case" horiz-adv-x="678" 
d="M422 767q-29 6 -77 18q-26 7 -51 12t-42 5q-18 0 -24.5 -7.5t-6.5 -22.5h-189q0 57 22 98.5t59 63t81 21.5q31 0 60 -6t79 -18q26 -7 51 -12.5t43 -5.5q17 0 23.5 8t6.5 23h189q0 -57 -22.5 -98.5t-60 -63t-81.5 -21.5q-31 0 -60 6z" />
    </font>
</defs>
</svg>
